<svg width="25" height="23" viewBox="0 0 25 23" fill="none" xmlns="http://www.w3.org/2000/svg">
<path d="M23.2713 9.90413H23.1383V8.57434C23.1383 7.03179 21.9947 5.75519 20.4787 5.54242V3.92008C20.4787 2.24455 19.0957 0.861572 17.4202 0.861572H3.24468C1.48936 0.861572 0.0265957 2.27115 0 4.05306V19.0797C0 20.7552 1.38298 22.1382 3.05851 22.1382H20.0798C21.7553 22.1382 23.1383 20.7552 23.1383 19.0797V17.6169H23.2713C24.2287 17.6169 25 16.8456 25 15.8882V11.6328C25 10.6754 24.2287 9.90413 23.2713 9.90413ZM1.8617 4.10625C1.8617 3.33498 2.5 2.72327 3.24468 2.72327H17.3936C18.0585 2.72327 18.5904 3.25519 18.5904 3.92008V5.51583H3.24468C2.5 5.51583 1.8617 4.87753 1.8617 4.10625ZM23.1383 15.7552H18.75C17.6596 15.7552 16.7553 14.8509 16.7553 13.7605C16.7553 12.6701 17.6596 11.7658 18.75 11.7658H23.1383V15.7552Z" fill="#555555"/>
</svg>
