<svg width="25" height="25" viewBox="0 0 19 19" fill="none" xmlns="http://www.w3.org/2000/svg">
<path d="M16.2292 7.125H15.0417V5.54165C15.0417 2.48596 12.5557 0 9.5 0C6.44427 0 3.95835 2.48596 3.95835 5.54165V7.125H2.77085C2.55205 7.125 2.375 7.30205 2.375 7.52085V17.4167C2.375 18.2899 3.08509 19 3.95835 19H15.0417C15.9149 19 16.625 18.2899 16.625 17.4167V7.52085C16.625 7.30205 16.448 7.125 16.2292 7.125ZM10.6852 15.3938C10.6976 15.5055 10.6616 15.6176 10.5866 15.7015C10.5116 15.7854 10.4042 15.8333 10.2917 15.8333H8.70835C8.59587 15.8333 8.4884 15.7854 8.4134 15.7015C8.3384 15.6177 8.30244 15.5056 8.31484 15.3938L8.56455 13.1483C8.15905 12.8534 7.91669 12.3868 7.91669 11.875C7.91669 11.0018 8.62678 10.2917 9.50004 10.2917C10.3733 10.2917 11.0834 11.0017 11.0834 11.875C11.0834 12.3868 10.841 12.8534 10.4355 13.1483L10.6852 15.3938ZM12.6667 7.125H6.33335V5.54165C6.33335 3.79558 7.75393 2.375 9.5 2.375C11.2461 2.375 12.6667 3.79558 12.6667 5.54165V7.125V7.125Z" fill="#555555"/>
</svg>
