<svg width="25" height="24" viewBox="0 0 25 24" fill="none" xmlns="http://www.w3.org/2000/svg">
<path d="M17.4108 21.6112C18.8316 21.6112 20.1942 21.004 21.1989 19.9233C22.2035 18.8425 22.768 17.3766 22.768 15.8482C22.768 14.3198 22.2035 12.8539 21.1989 11.7731C20.1942 10.6924 18.8316 10.0852 17.4108 10.0852C16.8683 10.0854 16.3292 10.1761 15.8126 10.3541C15.28 12.6596 13.9332 14.6511 12.0581 15.9058C12.0722 17.4234 12.6422 18.8738 13.6444 19.942C14.6466 21.0102 16 21.61 17.4108 21.6112ZM18.3037 16.3285H16.5179C16.1627 16.3285 15.8221 16.1767 15.5709 15.9065C15.3198 15.6363 15.1787 15.2698 15.1787 14.8877V13.9272C15.1787 13.5451 15.3198 13.1786 15.5709 12.9084C15.8221 12.6382 16.1627 12.4865 16.5179 12.4865H16.9644V11.526C16.9644 11.3986 17.0114 11.2764 17.0951 11.1864C17.1788 11.0963 17.2924 11.0457 17.4108 11.0457C17.5292 11.0457 17.6428 11.0963 17.7265 11.1864C17.8102 11.2764 17.8572 11.3986 17.8572 11.526V12.4865H18.3037C18.6589 12.4865 18.9995 12.6382 19.2507 12.9084C19.5018 13.1786 19.643 13.5451 19.643 13.9272C19.643 14.0546 19.5959 14.1767 19.5122 14.2668C19.4285 14.3569 19.3149 14.4075 19.1965 14.4075C19.0781 14.4075 18.9646 14.3569 18.8808 14.2668C18.7971 14.1767 18.7501 14.0546 18.7501 13.9272C18.7501 13.7998 18.7031 13.6777 18.6193 13.5876C18.5356 13.4976 18.4221 13.447 18.3037 13.447H16.5179C16.3995 13.447 16.286 13.4976 16.2023 13.5876C16.1185 13.6777 16.0715 13.7998 16.0715 13.9272V14.8877C16.0715 15.0151 16.1185 15.1372 16.2023 15.2273C16.286 15.3174 16.3995 15.368 16.5179 15.368H18.3037C18.6589 15.368 18.9995 15.5197 19.2507 15.7899C19.5018 16.0601 19.643 16.4266 19.643 16.8087V17.7692C19.643 18.1513 19.5018 18.5178 19.2507 18.788C18.9995 19.0582 18.6589 19.21 18.3037 19.21H17.8572V20.1704C17.8572 20.2978 17.8102 20.42 17.7265 20.51C17.6428 20.6001 17.5292 20.6507 17.4108 20.6507C17.2924 20.6507 17.1788 20.6001 17.0951 20.51C17.0114 20.42 16.9644 20.2978 16.9644 20.1704V19.21H16.5179C16.1627 19.21 15.8221 19.0582 15.5709 18.788C15.3198 18.5178 15.1787 18.1513 15.1787 17.7692C15.1787 17.6418 15.2257 17.5197 15.3094 17.4296C15.3931 17.3395 15.5067 17.289 15.6251 17.289C15.7435 17.289 15.857 17.3395 15.9408 17.4296C16.0245 17.5197 16.0715 17.6418 16.0715 17.7692C16.0715 17.8966 16.1185 18.0187 16.2023 18.1088C16.286 18.1989 16.3995 18.2495 16.5179 18.2495H18.3037C18.4221 18.2495 18.5356 18.1989 18.6193 18.1088C18.7031 18.0187 18.7501 17.8966 18.7501 17.7692V16.8087C18.7501 16.6813 18.7031 16.5592 18.6193 16.4691C18.5356 16.379 18.4221 16.3285 18.3037 16.3285Z" fill="#555555"/>
<path d="M17.4108 7.68408C16.9553 7.6885 16.5011 7.73672 16.0537 7.82816C16.0581 7.94342 16.0715 8.04907 16.0715 8.16433C16.0683 8.5449 16.0445 8.92495 16.0001 9.30253C17.2416 8.99198 18.5417 9.09721 19.726 9.60409C20.9103 10.111 21.9223 10.9953 22.6262 12.1384C23.3301 13.2816 23.6922 14.6289 23.6641 15.9998C23.6359 17.3706 23.2188 18.6995 22.4687 19.8081C21.7186 20.9167 20.6713 21.7521 19.4673 22.2022C18.2634 22.6523 16.9602 22.6957 15.7327 22.3265C14.5051 21.9573 13.4119 21.1931 12.5995 20.1365C11.7871 19.0799 11.2944 17.7814 11.1876 16.415C10.7727 16.6263 10.3428 16.8014 9.90186 16.9385C10.0976 18.4912 10.7049 19.9505 11.6512 21.1418C12.5975 22.3331 13.8426 23.206 15.2378 23.6562C16.633 24.1063 18.1192 24.1147 19.5188 23.6804C20.9183 23.246 22.1719 22.3872 23.1298 21.2067C24.0876 20.0262 24.7092 18.5739 24.9201 17.0235C25.131 15.473 24.9224 13.89 24.3192 12.4637C23.716 11.0375 22.7438 9.82822 21.5186 8.98062C20.2935 8.13301 18.8674 7.6829 17.4108 7.68408Z" fill="#555555"/>
<path d="M7.58932 13.9273C8.64887 13.9273 9.68461 13.5894 10.5656 12.9561C11.4466 12.3229 12.1332 11.4228 12.5387 10.3698C12.9441 9.31671 13.0502 8.15796 12.8435 7.04005C12.6368 5.92214 12.1266 4.89528 11.3774 4.08931C10.6282 3.28334 9.67363 2.73447 8.63445 2.5121C7.59526 2.28974 6.51812 2.40386 5.53923 2.84005C4.56034 3.27624 3.72367 4.01489 3.13502 4.96261C2.54637 5.91033 2.23218 7.02455 2.23218 8.16436C2.23371 9.69229 2.79862 11.1572 3.80295 12.2376C4.80727 13.318 6.16899 13.9257 7.58932 13.9273ZM8.48218 8.64461H6.69647C6.34126 8.64461 6.00061 8.49281 5.74945 8.22262C5.49828 7.95243 5.35718 7.58597 5.35718 7.20386V6.24336C5.35718 5.86125 5.49828 5.49479 5.74945 5.2246C6.00061 4.95441 6.34126 4.80261 6.69647 4.80261H7.14289V3.84212C7.14289 3.71475 7.18993 3.59259 7.27365 3.50253C7.35737 3.41247 7.47092 3.36187 7.58932 3.36187C7.70772 3.36187 7.82127 3.41247 7.905 3.50253C7.98872 3.59259 8.03575 3.71475 8.03575 3.84212V4.80261H8.48218C8.83738 4.80261 9.17803 4.95441 9.4292 5.2246C9.68036 5.49479 9.82147 5.86125 9.82147 6.24336C9.82147 6.37073 9.77443 6.49289 9.69071 6.58295C9.60699 6.67301 9.49344 6.72361 9.37504 6.72361C9.25664 6.72361 9.14309 6.67301 9.05936 6.58295C8.97564 6.49289 8.92861 6.37073 8.92861 6.24336C8.92861 6.11599 8.88157 5.99384 8.79785 5.90377C8.71413 5.81371 8.60058 5.76311 8.48218 5.76311H6.69647C6.57806 5.76311 6.46451 5.81371 6.38079 5.90377C6.29707 5.99384 6.25004 6.11599 6.25004 6.24336V7.20386C6.25004 7.33123 6.29707 7.45338 6.38079 7.54345C6.46451 7.63351 6.57806 7.68411 6.69647 7.68411H8.48218C8.83738 7.68411 9.17803 7.8359 9.4292 8.10609C9.68036 8.37629 9.82147 8.74275 9.82147 9.12486V10.0854C9.82147 10.4675 9.68036 10.8339 9.4292 11.1041C9.17803 11.3743 8.83738 11.5261 8.48218 11.5261H8.03575V12.4866C8.03575 12.614 7.98872 12.7361 7.905 12.8262C7.82127 12.9163 7.70772 12.9668 7.58932 12.9668C7.47092 12.9668 7.35737 12.9163 7.27365 12.8262C7.18993 12.7361 7.14289 12.614 7.14289 12.4866V11.5261H6.69647C6.34126 11.5261 6.00061 11.3743 5.74945 11.1041C5.49828 10.8339 5.35718 10.4675 5.35718 10.0854C5.35718 9.95798 5.40421 9.83583 5.48793 9.74577C5.57166 9.6557 5.68521 9.6051 5.80361 9.6051C5.92201 9.6051 6.03556 9.6557 6.11928 9.74577C6.203 9.83583 6.25004 9.95798 6.25004 10.0854C6.25004 10.2127 6.29707 10.3349 6.38079 10.4249C6.46451 10.515 6.57806 10.5656 6.69647 10.5656H8.48218C8.60058 10.5656 8.71413 10.515 8.79785 10.4249C8.88157 10.3349 8.92861 10.2127 8.92861 10.0854V9.12486C8.92861 8.99749 8.88157 8.87533 8.79785 8.78527C8.71413 8.6952 8.60058 8.64461 8.48218 8.64461Z" fill="#555555"/>
<path d="M7.5893 16.3285C9.09032 16.3285 10.5576 15.8497 11.8057 14.9526C13.0537 14.0555 14.0265 12.7804 14.6009 11.2886C15.1753 9.79675 15.3256 8.15519 15.0328 6.57148C14.7399 4.98778 14.0171 3.53305 12.9557 2.39126C11.8944 1.24947 10.5421 0.471897 9.0699 0.156877C7.59772 -0.158142 6.07176 0.00353761 4.685 0.62147C3.29824 1.2394 2.11295 2.28583 1.27903 3.62844C0.445105 4.97104 0 6.54951 0 8.16425C0.00283438 10.3286 0.803329 12.4034 2.22599 13.9339C3.64864 15.4643 5.57736 16.3254 7.5893 16.3285ZM7.5893 1.44075C8.82543 1.44075 10.0338 1.83508 11.0616 2.57387C12.0894 3.31265 12.8905 4.36272 13.3636 5.59128C13.8366 6.81984 13.9604 8.17171 13.7192 9.47594C13.4781 10.7802 12.8828 11.9782 12.0087 12.9185C11.1346 13.8588 10.021 14.4991 8.80862 14.7586C7.59623 15.018 6.33956 14.8848 5.19752 14.3759C4.05548 13.8671 3.07937 13.0053 2.39261 11.8996C1.70584 10.794 1.33929 9.49403 1.33929 8.16425C1.34106 6.38165 2.00011 4.67261 3.17183 3.41213C4.34355 2.15164 5.93224 1.44266 7.5893 1.44075Z" fill="#555555"/>
</svg>
