<svg width="25" height="25" viewBox="0 0 25 25" fill="none" xmlns="http://www.w3.org/2000/svg">
<g clip-path="url(#clip0)">
<path d="M6.25002 0C5.75689 0 5.35714 0.399745 5.35714 0.892874V2.67857H7.14284V0.892874C7.14284 0.399745 6.74309 0 6.25002 0Z" fill="#555555"/>
<path d="M18.75 0C18.2568 0 17.8571 0.399745 17.8571 0.892874V2.67857H19.6428V0.892874C19.6428 0.399745 19.2431 0 18.75 0Z" fill="#555555"/>
<path d="M22.3214 2.67871H19.6429V6.25015C19.6429 6.74328 19.2431 7.14303 18.75 7.14303C18.2569 7.14303 17.8571 6.74328 17.8571 6.25015V2.67871H7.14284V6.25015C7.14284 6.74328 6.74309 7.14303 6.24996 7.14303C5.75683 7.14303 5.35709 6.74328 5.35709 6.25015V2.67871H2.67857C1.19924 2.67871 0 3.87795 0 5.35728V22.3216C0 23.8009 1.19924 25.0001 2.67857 25.0001H22.3214C23.8008 25.0001 25 23.8009 25 22.3216V5.35728C25 3.87795 23.8008 2.67871 22.3214 2.67871ZM23.2143 22.3216C23.2143 22.8147 22.8145 23.2144 22.3214 23.2144H2.67857C2.18544 23.2144 1.7857 22.8147 1.7857 22.3216V10.7144H23.2143V22.3216Z" fill="#555555"/>
<path d="M7.14283 12.5H5.35714C4.86401 12.5 4.46426 12.8997 4.46426 13.3929C4.46426 13.886 4.86401 14.2857 5.35714 14.2857H7.14283C7.63596 14.2857 8.03571 13.886 8.03571 13.3929C8.03571 12.8997 7.63596 12.5 7.14283 12.5Z" fill="#555555"/>
<path d="M13.3929 12.5H11.6072C11.114 12.5 10.7143 12.8997 10.7143 13.3929C10.7143 13.886 11.114 14.2857 11.6072 14.2857H13.3929C13.886 14.2857 14.2857 13.886 14.2857 13.3929C14.2857 12.8997 13.886 12.5 13.3929 12.5Z" fill="#555555"/>
<path d="M19.6429 12.5H17.8572C17.3641 12.5 16.9643 12.8997 16.9643 13.3929C16.9643 13.886 17.3641 14.2857 17.8572 14.2857H19.6429C20.136 14.2857 20.5357 13.886 20.5357 13.3929C20.5357 12.8997 20.136 12.5 19.6429 12.5Z" fill="#555555"/>
<path d="M7.14283 16.0713H5.35714C4.86401 16.0713 4.46426 16.471 4.46426 16.9642C4.46426 17.4573 4.86401 17.857 5.35714 17.857H7.14283C7.63596 17.857 8.03571 17.4573 8.03571 16.9642C8.03571 16.471 7.63596 16.0713 7.14283 16.0713Z" fill="#555555"/>
<path d="M13.3929 16.0713H11.6072C11.114 16.0713 10.7143 16.471 10.7143 16.9642C10.7143 17.4573 11.114 17.857 11.6072 17.857H13.3929C13.886 17.857 14.2857 17.4573 14.2857 16.9642C14.2857 16.471 13.886 16.0713 13.3929 16.0713Z" fill="#555555"/>
<path d="M19.6429 16.0713H17.8572C17.3641 16.0713 16.9643 16.471 16.9643 16.9642C16.9643 17.4573 17.3641 17.857 17.8572 17.857H19.6429C20.136 17.857 20.5357 17.4573 20.5357 16.9642C20.5357 16.471 20.136 16.0713 19.6429 16.0713Z" fill="#555555"/>
<path d="M7.14283 19.6428H5.35714C4.86401 19.6428 4.46426 20.0426 4.46426 20.5357C4.46426 21.0288 4.86401 21.4285 5.35714 21.4285H7.14283C7.63596 21.4285 8.03571 21.0288 8.03571 20.5356C8.03571 20.0425 7.63596 19.6428 7.14283 19.6428Z" fill="#555555"/>
<path d="M13.3929 19.6428H11.6072C11.114 19.6428 10.7143 20.0426 10.7143 20.5357C10.7143 21.0288 11.114 21.4286 11.6072 21.4286H13.3929C13.886 21.4286 14.2857 21.0288 14.2857 20.5357C14.2857 20.0426 13.886 19.6428 13.3929 19.6428Z" fill="#555555"/>
<path d="M19.6429 19.6428H17.8572C17.3641 19.6428 16.9643 20.0426 16.9643 20.5357C16.9643 21.0288 17.3641 21.4286 17.8572 21.4286H19.6429C20.136 21.4286 20.5357 21.0288 20.5357 20.5357C20.5357 20.0426 20.136 19.6428 19.6429 19.6428Z" fill="#555555"/>
</g>
<defs>
<clipPath id="clip0">
<rect width="25" height="25" fill="white"/>
</clipPath>
</defs>
</svg>
