<svg width="25" height="25" viewBox="0 0 25 25" fill="none" xmlns="http://www.w3.org/2000/svg">
<g clip-path="url(#clip0)">
<path d="M12.7604 2.08333H11.6145C11.2708 0.885417 10.1666 0 8.85413 0C7.54163 0 6.43746 0.885417 6.09371 2.08333H4.94788C4.52079 2.08333 4.16663 2.4375 4.16663 2.86458V4.42708C4.16663 5.42708 4.98954 6.25 5.98954 6.25H11.7187C12.7187 6.25 13.5416 5.42708 13.5416 4.42708V2.86458C13.5416 2.4375 13.1875 2.08333 12.7604 2.08333Z" fill="#555555"/>
<path d="M14.8438 3.125H14.5833V4.42708C14.5833 6.01042 13.3021 7.29167 11.7188 7.29167H5.98958C4.40625 7.29167 3.125 6.01042 3.125 4.42708V3.125H2.86458C1.28125 3.125 0 4.40625 0 5.98958V19.0104C0 20.5938 1.28125 21.875 2.86458 21.875H10.5521L10.7813 20.5938C10.8854 20.0104 11.1563 19.4896 11.5729 19.0625L12.4063 18.2292H3.90625C3.47917 18.2292 3.125 17.875 3.125 17.4479C3.125 17.0208 3.47917 16.6667 3.90625 16.6667H13.8021C13.8542 16.6667 13.8958 16.6667 13.9479 16.6875H13.9583L17.7083 12.9375V5.98958C17.7083 4.40625 16.4271 3.125 14.8438 3.125ZM13.8021 14.8438H3.90625C3.47917 14.8438 3.125 14.4896 3.125 14.0625C3.125 13.6354 3.47917 13.2812 3.90625 13.2812H13.8021C14.2292 13.2812 14.5833 13.6354 14.5833 14.0625C14.5833 14.4896 14.2292 14.8438 13.8021 14.8438ZM13.8021 11.4583H3.90625C3.47917 11.4583 3.125 11.1042 3.125 10.6771C3.125 10.25 3.47917 9.89583 3.90625 9.89583H13.8021C14.2292 9.89583 14.5833 10.25 14.5833 10.6771C14.5833 11.1042 14.2292 11.4583 13.8021 11.4583Z" fill="#555555"/>
<path d="M13.0489 25.0003C12.8437 25.0003 12.6437 24.919 12.4969 24.7711C12.3167 24.5909 12.2354 24.3346 12.2802 24.0825L12.8323 20.9523C12.8594 20.795 12.9364 20.6492 13.0489 20.5357L20.7833 12.8023C21.7333 11.8503 22.6667 12.1075 23.1771 12.618L24.4656 13.9065C25.1771 14.6169 25.1771 15.7732 24.4656 16.4846L16.7312 24.219C16.6187 24.3325 16.4729 24.4086 16.3146 24.4357L13.1844 24.9878C13.1396 24.9961 13.0937 25.0003 13.0489 25.0003ZM16.1792 23.6669H16.1896H16.1792Z" fill="#555555"/>
</g>
<defs>
<clipPath id="clip0">
<rect width="25" height="25" fill="white"/>
</clipPath>
</defs>
</svg>
