<svg width="18" height="18" viewBox="0 0 18 18" fill="none" xmlns="http://www.w3.org/2000/svg">
<circle cx="9" cy="9" r="9" fill="#E34E4E"/>
<path d="M7.37096 4.90909C7.37096 4.61099 7.60361 4.39312 7.90172 4.39312H10.0836C10.3816 4.39312 10.6142 4.61099 10.6142 4.90909V5.4742H11.0073V4.90909C11.0073 4.39427 10.5984 4 10.0836 4H7.90172C7.3869 4 6.97784 4.39427 6.97784 4.90909V5.4742H7.37096V4.90909Z" fill="white"/>
<path d="M6.66832 13.9999H11.3169C11.7652 13.9999 12.113 13.6057 12.113 13.1154V7.04663H5.87219V13.1154C5.87219 13.6057 6.22001 13.9999 6.66832 13.9999ZM10.2457 7.98519C10.2457 7.87664 10.3337 7.78863 10.4422 7.78863C10.5508 7.78863 10.6388 7.87664 10.6388 7.98519V12.6289C10.6388 12.7375 10.5508 12.8255 10.4422 12.8255C10.3337 12.8255 10.2457 12.7375 10.2457 12.6289V7.98519ZM8.79603 7.98519C8.79603 7.87664 8.88404 7.78863 8.99259 7.78863C9.10114 7.78863 9.18915 7.87664 9.18915 7.98519V12.6289C9.18915 12.7375 9.10114 12.8255 8.99259 12.8255C8.88404 12.8255 8.79603 12.7375 8.79603 12.6289V7.98519ZM7.34639 7.98519C7.34639 7.87664 7.4344 7.78863 7.54295 7.78863C7.6515 7.78863 7.73951 7.87664 7.73951 7.98519V12.6289C7.73951 12.7375 7.6515 12.8255 7.54295 12.8255C7.4344 12.8255 7.34639 12.7375 7.34639 12.6289V7.98519Z" fill="white"/>
<path d="M5.67078 6.65346H12.3145C12.5859 6.65346 12.8059 6.43348 12.8059 6.16205C12.8059 5.89063 12.5859 5.67065 12.3145 5.67065H5.67078C5.39936 5.67065 5.17938 5.89063 5.17938 6.16205C5.17938 6.43348 5.39936 6.65346 5.67078 6.65346Z" fill="white"/>
</svg>
