<svg width="50" height="50" viewBox="0 0 50 50" fill="none" xmlns="http://www.w3.org/2000/svg">
<circle cx="25" cy="25" r="25" fill="white"/>
<path d="M37.3214 22.3214H28.2143C27.9184 22.3214 27.6786 22.0816 27.6786 21.7857V12.6786C27.6786 11.1993 26.4792 10 25 10C23.5208 10 22.3214 11.1993 22.3214 12.6786V21.7857C22.3214 22.0816 22.0816 22.3214 21.7857 22.3214H12.6786C11.1993 22.3214 10 23.5208 10 25C10 26.4792 11.1993 27.6786 12.6786 27.6786H21.7857C22.0816 27.6786 22.3214 27.9184 22.3214 28.2143V37.3214C22.3214 38.8007 23.5208 40 25 40C26.4792 40 27.6786 38.8007 27.6786 37.3214V28.2143C27.6786 27.9184 27.9184 27.6786 28.2143 27.6786H37.3214C38.8007 27.6786 40 26.4792 40 25C40 23.5208 38.8007 22.3214 37.3214 22.3214Z" fill="#8491A5"/>
</svg>
