<svg width="15" height="15" viewBox="0 0 15 15" fill="none" xmlns="http://www.w3.org/2000/svg">
<g clip-path="url(#clip0)">
<path d="M14.1291 11.7615L10.1043 7.7367C9.97355 7.60596 9.97355 7.39394 10.1043 7.2632L14.1291 3.23837C14.7829 2.58464 14.7829 1.52456 14.1291 0.870825C13.4754 0.217091 12.4153 0.217091 11.7616 0.870825L7.73675 4.89565C7.60601 5.0264 7.39399 5.0264 7.26325 4.89565L3.23842 0.870825C2.58468 0.217091 1.52461 0.217091 0.870873 0.870825C0.217139 1.52456 0.217139 2.58464 0.870873 3.23837L4.8957 7.2632C5.02645 7.39394 5.02645 7.60596 4.8957 7.7367L0.870873 11.7615C0.21714 12.4153 0.21714 13.4753 0.870873 14.1291C1.52461 14.7828 2.58469 14.7828 3.23842 14.1291L7.26325 10.1042C7.39399 9.9735 7.60601 9.9735 7.73675 10.1042L11.7616 14.1291C12.4153 14.7828 13.4754 14.7828 14.1291 14.1291C14.7829 13.4753 14.7829 12.4153 14.1291 11.7615Z" fill="white"/>
</g>
<defs>
<clipPath id="clip0">
<rect width="15" height="15" fill="white"/>
</clipPath>
</defs>
</svg>
