<svg width="61" height="61" viewBox="0 0 61 61" fill="none" xmlns="http://www.w3.org/2000/svg">
<path d="M56.7819 26.6063H56.4574V23.3616C56.4574 19.5978 53.667 16.4829 49.9681 15.9638V12.0052C49.9681 7.91695 46.5936 4.54248 42.5053 4.54248H7.91702C3.63404 4.54248 0.0648936 7.98184 0 12.3297V48.9946C0 53.0829 3.37447 56.4574 7.46277 56.4574H48.9947C53.083 56.4574 56.4574 53.0829 56.4574 48.9946V45.4255H56.7819C59.1181 45.4255 61 43.5435 61 41.2074V30.8244C61 28.4882 59.1181 26.6063 56.7819 26.6063ZM4.54255 12.4595C4.54255 10.5776 6.1 9.08503 7.91702 9.08503H42.4404C44.0628 9.08503 45.3606 10.3829 45.3606 12.0052V15.8989H7.91702C6.1 15.8989 4.54255 14.3414 4.54255 12.4595ZM56.4574 40.8829H45.75C43.0894 40.8829 40.883 38.6765 40.883 36.0159C40.883 33.3552 43.0894 31.1489 45.75 31.1489H56.4574V40.8829Z" fill="white"/>
<path d="M47.0477 39.2604C48.8396 39.2604 50.2923 37.8077 50.2923 36.0157C50.2923 34.2237 48.8396 32.771 47.0477 32.771C45.2557 32.771 43.803 34.2237 43.803 36.0157C43.803 37.8077 45.2557 39.2604 47.0477 39.2604Z" fill="white"/>
</svg>
