<svg width="210" height="40" viewBox="0 0 210 40" fill="none" xmlns="http://www.w3.org/2000/svg">
<g clip-path="url(#clip0)">
<path d="M33.75 25.0001H29.5834C28.8934 25.0001 28.3334 24.4401 28.3334 23.7501V19.5835C28.3334 18.8935 28.8934 18.3335 29.5834 18.3335H33.75C34.44 18.3335 35 18.8935 35 19.5835V23.7501C35 24.4401 34.44 25.0001 33.75 25.0001Z" fill="#34F06F" fill-opacity="0.39"/>
<path d="M33.75 35.0001H29.5834C28.8934 35.0001 28.3334 34.4401 28.3334 33.7501V29.5835C28.3334 28.8935 28.8934 28.3335 29.5834 28.3335H33.75C34.44 28.3335 35 28.8935 35 29.5835V33.7501C35 34.4401 34.44 35.0001 33.75 35.0001Z" fill="#34F06F" fill-opacity="0.39"/>
<path d="M22.0835 25.0001H17.9166C17.2266 25.0001 16.6666 24.4401 16.6666 23.7501V19.5835C16.6666 18.8935 17.2266 18.3335 17.9166 18.3335H22.0835C22.7735 18.3335 23.3335 18.8935 23.3335 19.5835V23.7501C23.3335 24.4401 22.7735 25.0001 22.0835 25.0001V25.0001Z" fill="#34F06F" fill-opacity="0.39"/>
<path d="M22.0835 35.0001H17.9166C17.2266 35.0001 16.6666 34.4401 16.6666 33.7501V29.5835C16.6666 28.8935 17.2266 28.3335 17.9166 28.3335H22.0835C22.7735 28.3335 23.3335 28.8935 23.3335 29.5835V33.7501C23.3335 34.4401 22.7735 35.0001 22.0835 35.0001V35.0001Z" fill="#34F06F" fill-opacity="0.39"/>
<path d="M10.4165 25.0001H6.24994C5.55994 25.0001 4.99994 24.4401 4.99994 23.7501V19.5835C4.99994 18.8935 5.55994 18.3335 6.24994 18.3335H10.4165C11.1065 18.3335 11.6665 18.8935 11.6665 19.5835V23.7501C11.6665 24.4401 11.1065 25.0001 10.4165 25.0001V25.0001Z" fill="#34F06F" fill-opacity="0.39"/>
<path d="M5 5H6.66656V1.66656C6.66656 0.746765 7.41333 0 8.33344 0H10C10.9201 0 11.6666 0.746765 11.6666 1.66656V5H28.3334V1.66656C28.3334 0.746765 29.0799 0 30 0H31.6666C32.5867 0 33.3334 0.746765 33.3334 1.66656V5H35C37.7567 5 40 7.24335 40 10V35C40 37.7567 37.7567 40 35 40H5C2.24335 40 0 37.7567 0 35V10C0 7.24335 2.24335 5 5 5ZM3.33344 35C3.33344 35.9183 4.08173 36.6666 5 36.6666H35C35.9183 36.6666 36.6666 35.9183 36.6666 35V16.7334H3.33344V35Z" fill="#34F06F"/>
</g>
<path d="M65.9492 19.2129C65.9492 20.6126 65.7018 21.8398 65.207 22.8945C64.7122 23.9492 64.0026 24.763 63.0781 25.3359C62.1602 25.9089 61.1055 26.1953 59.9141 26.1953C58.7357 26.1953 57.6842 25.9121 56.7598 25.3457C55.8353 24.7793 55.1191 23.972 54.6113 22.9238C54.1035 21.8691 53.8464 20.6582 53.8398 19.291V18.5879C53.8398 17.1882 54.0905 15.9577 54.5918 14.8965C55.0996 13.8288 55.8125 13.0117 56.7305 12.4453C57.6549 11.8724 58.7096 11.5859 59.8945 11.5859C61.0794 11.5859 62.1309 11.8724 63.0488 12.4453C63.9733 13.0117 64.6862 13.8288 65.1875 14.8965C65.6953 15.9577 65.9492 17.1849 65.9492 18.5781V19.2129ZM62.9805 18.5684C62.9805 17.0775 62.7135 15.9447 62.1797 15.1699C61.6458 14.3952 60.8841 14.0078 59.8945 14.0078C58.9115 14.0078 58.153 14.3919 57.6191 15.1602C57.0853 15.9219 56.8151 17.0417 56.8086 18.5195V19.2129C56.8086 20.6647 57.0755 21.791 57.6094 22.5918C58.1432 23.3926 58.9115 23.793 59.9141 23.793C60.8971 23.793 61.6523 23.4089 62.1797 22.6406C62.707 21.8659 62.974 20.7396 62.9805 19.2617V18.5684ZM73.8301 18.0801C73.446 18.028 73.1074 18.002 72.8145 18.002C71.7467 18.002 71.0469 18.3633 70.7148 19.0859V26H67.8926V15.4336H70.5586L70.6367 16.6934C71.2031 15.7233 71.9876 15.2383 72.9902 15.2383C73.3027 15.2383 73.5957 15.2806 73.8691 15.3652L73.8301 18.0801ZM74.5918 20.6387C74.5918 19.0176 74.9759 17.7122 75.7441 16.7227C76.5189 15.7331 77.5605 15.2383 78.8691 15.2383C80.028 15.2383 80.9297 15.6354 81.5742 16.4297L81.6914 15.4336H84.25V25.6484C84.25 26.5729 84.0384 27.377 83.6152 28.0605C83.1986 28.7441 82.6094 29.265 81.8477 29.623C81.0859 29.9811 80.194 30.1602 79.1719 30.1602C78.3971 30.1602 77.6419 30.0039 76.9062 29.6914C76.1706 29.3854 75.6139 28.9883 75.2363 28.5L76.4863 26.7812C77.1895 27.569 78.0423 27.9629 79.0449 27.9629C79.7936 27.9629 80.3763 27.7611 80.793 27.3574C81.2096 26.9603 81.418 26.3939 81.418 25.6582V25.0918C80.7669 25.8275 79.9108 26.1953 78.8496 26.1953C77.5801 26.1953 76.5514 25.7005 75.7637 24.7109C74.9824 23.7148 74.5918 22.3965 74.5918 20.7559V20.6387ZM77.4141 20.8438C77.4141 21.8008 77.6061 22.5527 77.9902 23.0996C78.3743 23.64 78.9017 23.9102 79.5723 23.9102C80.4316 23.9102 81.0469 23.5879 81.418 22.9434V18.5C81.0404 17.8555 80.4316 17.5332 79.5918 17.5332C78.9147 17.5332 78.3809 17.8099 77.9902 18.3633C77.6061 18.9167 77.4141 19.7435 77.4141 20.8438ZM92.5508 26C92.4206 25.7461 92.3262 25.4303 92.2676 25.0527C91.584 25.8145 90.6953 26.1953 89.6016 26.1953C88.5664 26.1953 87.707 25.8958 87.0234 25.2969C86.3464 24.6979 86.0078 23.9427 86.0078 23.0312C86.0078 21.9115 86.4212 21.0521 87.248 20.4531C88.0814 19.8542 89.2826 19.5514 90.8516 19.5449H92.1504V18.9395C92.1504 18.4512 92.0234 18.0605 91.7695 17.7676C91.5221 17.4746 91.1283 17.3281 90.5879 17.3281C90.1126 17.3281 89.7383 17.4421 89.4648 17.6699C89.1979 17.8978 89.0645 18.2103 89.0645 18.6074H86.2422C86.2422 17.9954 86.431 17.429 86.8086 16.9082C87.1862 16.3874 87.7201 15.9805 88.4102 15.6875C89.1003 15.388 89.875 15.2383 90.7344 15.2383C92.0365 15.2383 93.0684 15.5671 93.8301 16.2246C94.5983 16.8757 94.9824 17.7936 94.9824 18.9785V23.5586C94.9889 24.5612 95.1289 25.3197 95.4023 25.834V26H92.5508ZM90.2168 24.0371C90.6335 24.0371 91.0176 23.946 91.3691 23.7637C91.7207 23.5749 91.9811 23.3242 92.1504 23.0117V21.1953H91.0957C89.6829 21.1953 88.931 21.6836 88.8398 22.6602L88.8301 22.8262C88.8301 23.1777 88.9538 23.4674 89.2012 23.6953C89.4486 23.9232 89.7871 24.0371 90.2168 24.0371ZM99.748 15.4336L99.8359 16.6543C100.591 15.7103 101.604 15.2383 102.873 15.2383C103.993 15.2383 104.826 15.5671 105.373 16.2246C105.92 16.8822 106.2 17.8652 106.213 19.1738V26H103.391V19.2422C103.391 18.6432 103.26 18.2103 103 17.9434C102.74 17.6699 102.307 17.5332 101.701 17.5332C100.907 17.5332 100.311 17.8717 99.9141 18.5488V26H97.0918V15.4336H99.748ZM111.34 26H108.508V15.4336H111.34V26ZM108.342 12.6992C108.342 12.276 108.482 11.9277 108.762 11.6543C109.048 11.3809 109.436 11.2441 109.924 11.2441C110.406 11.2441 110.79 11.3809 111.076 11.6543C111.363 11.9277 111.506 12.276 111.506 12.6992C111.506 13.1289 111.359 13.4805 111.066 13.7539C110.78 14.0273 110.399 14.1641 109.924 14.1641C109.449 14.1641 109.064 14.0273 108.771 13.7539C108.485 13.4805 108.342 13.1289 108.342 12.6992ZM116.916 23.7246H122.082V26H113.312V24.2812L118.283 17.7188H113.459V15.4336H121.926V17.1035L116.916 23.7246ZM128.557 26.1953C127.007 26.1953 125.744 25.7201 124.768 24.7695C123.798 23.819 123.312 22.5527 123.312 20.9707V20.6973C123.312 19.6361 123.518 18.6888 123.928 17.8555C124.338 17.0156 124.917 16.3711 125.666 15.9219C126.421 15.4661 127.281 15.2383 128.244 15.2383C129.689 15.2383 130.826 15.694 131.652 16.6055C132.486 17.5169 132.902 18.8092 132.902 20.4824V21.6348H126.174C126.265 22.3249 126.538 22.8783 126.994 23.2949C127.456 23.7116 128.039 23.9199 128.742 23.9199C129.829 23.9199 130.679 23.526 131.291 22.7383L132.678 24.291C132.255 24.89 131.682 25.3587 130.959 25.6973C130.236 26.0293 129.436 26.1953 128.557 26.1953ZM128.234 17.5234C127.674 17.5234 127.219 17.7122 126.867 18.0898C126.522 18.4674 126.301 19.0078 126.203 19.7109H130.129V19.4863C130.116 18.8613 129.947 18.3796 129.621 18.041C129.296 17.696 128.833 17.5234 128.234 17.5234ZM141.916 20.4336V26H140.041V11.7812H145.285C146.841 11.7812 148.059 12.1784 148.938 12.9727C149.823 13.7669 150.266 14.8184 150.266 16.127C150.266 17.5072 149.833 18.5716 148.967 19.3203C148.107 20.0625 146.874 20.4336 145.266 20.4336H141.916ZM141.916 18.9004H145.285C146.288 18.9004 147.056 18.666 147.59 18.1973C148.124 17.722 148.391 17.0384 148.391 16.1465C148.391 15.3001 148.124 14.623 147.59 14.1152C147.056 13.6074 146.324 13.3438 145.393 13.3242H141.916V18.9004ZM156.623 26.1953C155.191 26.1953 154.025 25.7266 153.127 24.7891C152.229 23.8451 151.779 22.5853 151.779 21.0098V20.6777C151.779 19.6296 151.978 18.6953 152.375 17.875C152.779 17.0482 153.339 16.4036 154.055 15.9414C154.777 15.4727 155.559 15.2383 156.398 15.2383C157.772 15.2383 158.84 15.6908 159.602 16.5957C160.363 17.5007 160.744 18.7962 160.744 20.4824V21.2344H153.586C153.612 22.276 153.915 23.1191 154.494 23.7637C155.08 24.4017 155.822 24.7207 156.721 24.7207C157.359 24.7207 157.899 24.5905 158.342 24.3301C158.785 24.0697 159.172 23.7246 159.504 23.2949L160.607 24.1543C159.722 25.515 158.394 26.1953 156.623 26.1953ZM156.398 16.7227C155.669 16.7227 155.057 16.9896 154.562 17.5234C154.068 18.0508 153.762 18.793 153.645 19.75H158.938V19.6133C158.885 18.6953 158.638 17.9857 158.195 17.4844C157.753 16.9766 157.154 16.7227 156.398 16.7227ZM168.996 23.1973C168.996 22.709 168.811 22.3314 168.439 22.0645C168.075 21.791 167.434 21.5566 166.516 21.3613C165.604 21.166 164.878 20.9316 164.338 20.6582C163.804 20.3848 163.407 20.0592 163.146 19.6816C162.893 19.304 162.766 18.8548 162.766 18.334C162.766 17.4681 163.13 16.7357 163.859 16.1367C164.595 15.5378 165.533 15.2383 166.672 15.2383C167.87 15.2383 168.84 15.5475 169.582 16.166C170.331 16.7845 170.705 17.5755 170.705 18.5391H168.889C168.889 18.0443 168.677 17.6178 168.254 17.2598C167.837 16.9017 167.31 16.7227 166.672 16.7227C166.014 16.7227 165.5 16.8659 165.129 17.1523C164.758 17.4388 164.572 17.8132 164.572 18.2754C164.572 18.7116 164.745 19.0404 165.09 19.2617C165.435 19.4831 166.057 19.6947 166.955 19.8965C167.86 20.0983 168.592 20.3392 169.152 20.6191C169.712 20.8991 170.126 21.2376 170.393 21.6348C170.666 22.0254 170.803 22.5039 170.803 23.0703C170.803 24.0143 170.425 24.7728 169.67 25.3457C168.915 25.9121 167.935 26.1953 166.73 26.1953C165.884 26.1953 165.135 26.0456 164.484 25.7461C163.833 25.4466 163.322 25.0299 162.951 24.4961C162.587 23.9557 162.404 23.373 162.404 22.748H164.211C164.243 23.3535 164.484 23.8353 164.934 24.1934C165.389 24.5449 165.988 24.7207 166.73 24.7207C167.414 24.7207 167.961 24.584 168.371 24.3105C168.788 24.0306 168.996 23.6595 168.996 23.1973ZM179.309 23.1973C179.309 22.709 179.123 22.3314 178.752 22.0645C178.387 21.791 177.746 21.5566 176.828 21.3613C175.917 21.166 175.191 20.9316 174.65 20.6582C174.117 20.3848 173.719 20.0592 173.459 19.6816C173.205 19.304 173.078 18.8548 173.078 18.334C173.078 17.4681 173.443 16.7357 174.172 16.1367C174.908 15.5378 175.845 15.2383 176.984 15.2383C178.182 15.2383 179.152 15.5475 179.895 16.166C180.643 16.7845 181.018 17.5755 181.018 18.5391H179.201C179.201 18.0443 178.99 17.6178 178.566 17.2598C178.15 16.9017 177.622 16.7227 176.984 16.7227C176.327 16.7227 175.812 16.8659 175.441 17.1523C175.07 17.4388 174.885 17.8132 174.885 18.2754C174.885 18.7116 175.057 19.0404 175.402 19.2617C175.747 19.4831 176.369 19.6947 177.268 19.8965C178.173 20.0983 178.905 20.3392 179.465 20.6191C180.025 20.8991 180.438 21.2376 180.705 21.6348C180.979 22.0254 181.115 22.5039 181.115 23.0703C181.115 24.0143 180.738 24.7728 179.982 25.3457C179.227 25.9121 178.247 26.1953 177.043 26.1953C176.197 26.1953 175.448 26.0456 174.797 25.7461C174.146 25.4466 173.635 25.0299 173.264 24.4961C172.899 23.9557 172.717 23.373 172.717 22.748H174.523C174.556 23.3535 174.797 23.8353 175.246 24.1934C175.702 24.5449 176.301 24.7207 177.043 24.7207C177.727 24.7207 178.273 24.584 178.684 24.3105C179.1 24.0306 179.309 23.6595 179.309 23.1973ZM182.99 20.6191C182.99 19.584 183.192 18.653 183.596 17.8262C184.006 16.9993 184.572 16.3613 185.295 15.9121C186.024 15.4629 186.854 15.2383 187.785 15.2383C189.224 15.2383 190.386 15.7363 191.271 16.7324C192.163 17.7285 192.609 19.0534 192.609 20.707V20.834C192.609 21.8626 192.411 22.7871 192.014 23.6074C191.623 24.4212 191.06 25.056 190.324 25.5117C189.595 25.9674 188.755 26.1953 187.805 26.1953C186.372 26.1953 185.21 25.6973 184.318 24.7012C183.433 23.7051 182.99 22.3867 182.99 20.7461V20.6191ZM184.807 20.834C184.807 22.0059 185.077 22.9466 185.617 23.6562C186.164 24.3659 186.893 24.7207 187.805 24.7207C188.723 24.7207 189.452 24.3626 189.992 23.6465C190.533 22.9238 190.803 21.9147 190.803 20.6191C190.803 19.4603 190.526 18.5228 189.973 17.8066C189.426 17.084 188.697 16.7227 187.785 16.7227C186.893 16.7227 186.174 17.0775 185.627 17.7871C185.08 18.4967 184.807 19.5124 184.807 20.834ZM201.398 26C201.294 25.7917 201.21 25.4206 201.145 24.8867C200.305 25.7591 199.302 26.1953 198.137 26.1953C197.095 26.1953 196.239 25.9023 195.568 25.3164C194.904 24.724 194.572 23.9753 194.572 23.0703C194.572 21.9701 194.989 21.1172 195.822 20.5117C196.662 19.8997 197.84 19.5938 199.357 19.5938H201.115V18.7637C201.115 18.1322 200.926 17.6309 200.549 17.2598C200.171 16.8822 199.615 16.6934 198.879 16.6934C198.234 16.6934 197.694 16.8561 197.258 17.1816C196.822 17.5072 196.604 17.901 196.604 18.3633H194.787C194.787 17.8359 194.973 17.3281 195.344 16.8398C195.721 16.3451 196.229 15.9544 196.867 15.668C197.512 15.3815 198.218 15.2383 198.986 15.2383C200.204 15.2383 201.158 15.5443 201.848 16.1562C202.538 16.7617 202.896 17.5983 202.922 18.666V23.5293C202.922 24.4993 203.046 25.2708 203.293 25.8438V26H201.398ZM198.4 24.623C198.967 24.623 199.504 24.4766 200.012 24.1836C200.52 23.8906 200.887 23.5098 201.115 23.041V20.873H199.699C197.486 20.873 196.379 21.5208 196.379 22.8164C196.379 23.3828 196.568 23.8255 196.945 24.1445C197.323 24.4635 197.808 24.623 198.4 24.623ZM207.717 26H205.91V11H207.717V26Z" fill="#34F06F"/>
<defs>
<clipPath id="clip0">
<rect width="40" height="40" fill="white" transform="matrix(-1 0 0 1 40 0)"/>
</clipPath>
</defs>
</svg>
