<svg width="50" height="50" viewBox="0 0 50 50" fill="none" xmlns="http://www.w3.org/2000/svg">
<circle cx="25" cy="25" r="25" fill="#34F06F"/>
<g clip-path="url(#clip0)">
<path d="M24.715 24.2681C27.3621 24.2681 29.6542 23.3187 31.5271 21.4456C33.4 19.5727 34.3494 17.2811 34.3494 14.6338C34.3494 11.9873 33.4 9.69542 31.5268 7.82195C29.6536 5.9494 27.3618 5 24.715 5C22.0676 5 19.776 5.9494 17.9031 7.82225C16.0303 9.69511 15.0806 11.987 15.0806 14.6338C15.0806 17.2811 16.0303 19.573 17.9034 21.4459C19.7766 23.3184 22.0685 24.2681 24.715 24.2681Z" fill="white"/>
<path d="M41.5726 35.7579C41.5186 34.9785 41.4093 34.1283 41.2485 33.2305C41.0861 32.326 40.8771 31.4709 40.6268 30.6893C40.3683 29.8815 40.0168 29.0838 39.5822 28.3193C39.1312 27.5259 38.6014 26.835 38.0069 26.2664C37.3853 25.6716 36.6241 25.1934 35.744 24.8446C34.8669 24.4976 33.895 24.3218 32.8552 24.3218C32.4469 24.3218 32.052 24.4894 31.2894 24.9859C30.82 25.292 30.271 25.646 29.6582 26.0375C29.1342 26.3714 28.4244 26.6842 27.5476 26.9674C26.6922 27.2442 25.8237 27.3846 24.9664 27.3846C24.1092 27.3846 23.241 27.2442 22.3846 26.9674C21.5088 26.6845 20.799 26.3717 20.2756 26.0378C19.6686 25.65 19.1193 25.296 18.6429 24.9856C17.8812 24.4891 17.486 24.3215 17.0776 24.3215C16.0376 24.3215 15.0659 24.4976 14.1891 24.8449C13.3096 25.1931 12.5482 25.6713 11.926 26.2667C11.3318 26.8356 10.8017 27.5262 10.3513 28.3193C9.91699 29.0838 9.56543 29.8812 9.30664 30.6896C9.0567 31.4712 8.84766 32.326 8.6853 33.2305C8.52448 34.1271 8.41522 34.9776 8.36121 35.7589C8.30811 36.5242 8.28125 37.3186 8.28125 38.1209C8.28125 40.2089 8.94501 41.8993 10.2539 43.1459C11.5466 44.3761 13.2571 45.0002 15.3372 45.0002H34.5975C36.6776 45.0002 38.3875 44.3764 39.6805 43.1459C40.9897 41.9002 41.6534 40.2095 41.6534 38.1206C41.6531 37.3146 41.626 36.5197 41.5726 35.7579Z" fill="white"/>
</g>
<defs>
<clipPath id="clip0">
<rect width="40" height="40" fill="white" transform="translate(5 5)"/>
</clipPath>
</defs>
</svg>
