<svg width="25" height="25" viewBox="0 0 25 25" fill="none" xmlns="http://www.w3.org/2000/svg">
<circle cx="12.5" cy="12.5" r="12.5" fill="#C4C4C4"/>
<path d="M5.29902 7.87221C7.26621 9.5382 10.718 12.4692 11.7326 13.3831C11.8688 13.5064 12.0148 13.5691 12.1665 13.5691C12.3178 13.5691 12.4636 13.507 12.5995 13.3843C13.6149 12.4695 17.0667 9.5382 19.034 7.87221C19.1564 7.76868 19.1751 7.58671 19.076 7.46015C18.8467 7.16769 18.505 7 18.1387 7H6.19427C5.82801 7 5.48622 7.16769 5.25703 7.46018C5.15787 7.58671 5.17654 7.76868 5.29902 7.87221Z" fill="#333333"/>
<path d="M19.1601 8.77491C19.0543 8.72564 18.9298 8.74283 18.8417 8.81808C16.6601 10.6675 13.8758 13.038 12.9998 13.8274C12.5081 14.2712 11.8257 14.2712 11.3329 13.8268C10.3992 12.9855 7.27251 10.3274 5.49164 8.81805C5.40299 8.7428 5.27818 8.7262 5.1732 8.77488C5.06766 8.8239 5 8.92947 5 9.04582V16.5554C5 17.2142 5.53568 17.7499 6.19445 17.7499H18.1389C18.7977 17.7499 19.3333 17.2142 19.3333 16.5554V9.04582C19.3333 8.92947 19.2657 8.82362 19.1601 8.77491Z" fill="#333333"/>
</svg>
