<svg width="25" height="25" viewBox="0 0 25 25" fill="none" xmlns="http://www.w3.org/2000/svg">
<circle cx="12.5" cy="12.5" r="12.5" fill="#C4C4C4"/>
<path d="M18.1024 11.8706C18.1543 11.5418 18.1867 11.1814 18.1949 10.7772C18.1917 9.04422 17.3621 8.431 17.2025 8.14351C17.4376 6.83043 17.1636 6.23315 17.0361 6.02868C16.5661 5.86183 15.4007 6.45932 14.764 6.87992C13.7258 6.57603 11.5319 6.60569 10.7091 6.95858C9.19112 5.8716 8.38824 6.03734 8.38824 6.03734C8.38824 6.03734 7.86917 6.96811 8.25102 8.32979C7.75155 8.96626 7.37927 9.41626 7.37927 10.6099C7.37927 10.8958 7.39703 11.1659 7.42716 11.4258C7.8573 13.6874 9.64937 14.6631 11.4097 14.8314C11.1448 15.0327 10.8268 15.4136 10.7828 15.8549C10.4499 16.0701 9.78042 16.1413 9.25977 15.9776C8.53028 15.7471 8.25102 14.3025 7.15857 14.5086C6.9222 14.5528 6.96917 14.7087 7.17387 14.8416C7.50669 15.0575 7.82015 15.3259 8.06176 15.9001C8.24733 16.341 8.63763 17.1281 9.87162 17.1281C10.3615 17.1281 10.7046 17.0702 10.7046 17.0702C10.7046 17.0702 10.7139 18.1936 10.7139 18.6318C10.7139 19.136 10.0334 19.2776 10.0334 19.5195C10.0334 19.6157 10.2587 19.6248 10.4397 19.6248C10.7974 19.6248 11.5417 19.3269 11.5417 18.8028C11.5417 18.3863 11.5483 16.9869 11.5483 16.7418C11.5483 16.2063 11.8353 16.0357 11.8353 16.0357C11.8353 16.0357 11.8704 18.8944 11.7662 19.2776C11.644 19.7283 11.4227 19.6643 11.4227 19.8649C11.4227 20.1642 12.3175 19.9381 12.6142 19.2829C12.8438 18.7711 12.741 15.9678 12.741 15.9678L12.9804 15.9626C12.9804 15.9626 12.9831 17.2465 12.9749 17.833C12.9663 18.4405 12.9036 19.2086 13.2644 19.571C13.5013 19.8094 14.2269 20.2278 14.2269 19.8455C14.2269 19.6239 13.7187 19.4408 13.7187 18.8406V16.0756C14.0274 16.0756 14.0912 16.9845 14.0912 16.9845L14.2025 18.673C14.2025 18.673 14.1286 19.2892 14.8681 19.5464C15.1292 19.6378 15.6877 19.6627 15.7139 19.5092C15.7401 19.3553 15.0414 19.1278 15.0347 18.6509C15.0312 18.3604 15.0478 18.1904 15.0478 16.927C15.0478 15.6643 14.8781 15.1972 14.287 14.8249C16.0012 14.649 17.7816 13.8835 18.1024 11.8706Z" fill="#333333"/>
</svg>
