<svg width="25" height="25" viewBox="0 0 25 25" fill="none" xmlns="http://www.w3.org/2000/svg">
<path d="M23.2713 10.9041H23.1383V9.57434C23.1383 8.03179 21.9947 6.75519 20.4787 6.54242V4.92008C20.4787 3.24455 19.0957 1.86157 17.4202 1.86157H3.24468C1.48936 1.86157 0.0265957 3.27115 0 5.05306V20.0797C0 21.7552 1.38298 23.1382 3.05851 23.1382H20.0798C21.7553 23.1382 23.1383 21.7552 23.1383 20.0797V18.6169H23.2713C24.2287 18.6169 25 17.8456 25 16.8882V12.6328C25 11.6754 24.2287 10.9041 23.2713 10.9041ZM1.8617 5.10625C1.8617 4.33498 2.5 3.72327 3.24468 3.72327H17.3936C18.0585 3.72327 18.5904 4.25519 18.5904 4.92008V6.51583H3.24468C2.5 6.51583 1.8617 5.87753 1.8617 5.10625ZM23.1383 16.7552H18.75C17.6596 16.7552 16.7553 15.8509 16.7553 14.7605C16.7553 13.6701 17.6596 12.7658 18.75 12.7658H23.1383V16.7552Z" fill="#555555"/>
<path d="M19.2819 16.0905C20.0164 16.0905 20.6117 15.4951 20.6117 14.7607C20.6117 14.0263 20.0164 13.4309 19.2819 13.4309C18.5475 13.4309 17.9521 14.0263 17.9521 14.7607C17.9521 15.4951 18.5475 16.0905 19.2819 16.0905Z" fill="#555555"/>
</svg>
