<svg width="16" height="20" viewBox="0 0 16 20" fill="none" xmlns="http://www.w3.org/2000/svg">
<path d="M9.5042 4.04351V0.0395508H0.976911C0.518425 0.0395508 0.146729 0.410377 0.146729 0.867788V19.1717C0.146729 19.6291 0.518425 19.9999 0.976911 19.9999H14.2597C14.7182 19.9999 15.0899 19.6291 15.0899 19.1717V5.59145H11.0558C10.2003 5.59145 9.5042 4.89705 9.5042 4.04351V4.04351ZM6.15171 15.6937L4.38552 17.4557C4.27107 17.5699 4.12105 17.627 3.97108 17.627C3.8211 17.627 3.67105 17.57 3.55663 17.4558L2.8234 16.7243C2.59449 16.4959 2.59449 16.1257 2.8234 15.8973C3.05227 15.6689 3.42342 15.6689 3.65233 15.8973L3.97108 16.2153L5.32281 14.8667C5.55169 14.6384 5.92283 14.6384 6.15175 14.8667C6.38066 15.0951 6.38066 15.4653 6.15171 15.6937ZM6.15171 11.7952L4.38552 13.5572C4.27107 13.6714 4.12105 13.7285 3.97108 13.7285C3.8211 13.7285 3.67105 13.6715 3.55663 13.5573L2.8234 12.8258C2.59449 12.5974 2.59449 12.2272 2.8234 11.9988C3.05227 11.7704 3.42342 11.7704 3.65233 11.9988L3.97108 12.3168L5.32281 10.9682C5.55169 10.7399 5.92283 10.7399 6.15175 10.9682C6.38066 11.1966 6.38066 11.5668 6.15171 11.7952ZM6.15171 7.59895L4.38552 9.361C4.27107 9.47518 4.12105 9.5323 3.97108 9.5323C3.8211 9.5323 3.67105 9.47522 3.55663 9.361L2.8234 8.62948C2.59449 8.40111 2.59449 8.03087 2.8234 7.80249C3.05227 7.57412 3.42342 7.57412 3.65233 7.80249L3.97108 8.12049L5.32281 6.77196C5.55169 6.54358 5.92283 6.54358 6.15175 6.77196C6.38066 7.00033 6.38066 7.37058 6.15171 7.59895ZM11.9988 16.746H8.24742C7.92371 16.746 7.66127 16.4842 7.66127 16.1612C7.66127 15.8383 7.92371 15.5765 8.24742 15.5765H11.9988C12.3225 15.5765 12.5849 15.8383 12.5849 16.1612C12.5849 16.4842 12.3225 16.746 11.9988 16.746ZM7.66127 12.2627C7.66127 11.9398 7.92371 11.678 8.24742 11.678H11.982C12.3057 11.678 12.5682 11.9398 12.5682 12.2627C12.5682 12.5857 12.3057 12.8475 11.982 12.8475H8.24742C7.92371 12.8475 7.66127 12.5857 7.66127 12.2627ZM12.5682 8.36423C12.5682 8.68718 12.3058 8.949 11.9821 8.949H8.24746C7.92375 8.949 7.66131 8.68718 7.66131 8.36423C7.66131 8.04127 7.92375 7.77945 8.24746 7.77945H11.9821C12.3058 7.77945 12.5682 8.04127 12.5682 8.36423Z" fill="#555555"/>
<path d="M10.6763 4.04341C10.6763 4.25206 10.8464 4.4218 11.0555 4.4218H15.1466L10.6763 0V4.04341Z" fill="#555555"/>
</svg>
