<svg width="25" height="25" viewBox="0 0 25 25" fill="none" xmlns="http://www.w3.org/2000/svg">
<path d="M24.0234 5.40847H3.34191L6.76789 1.7773C7.15016 1.37208 7.15163 0.71355 6.77116 0.306407C6.39069 -0.100789 5.77233 -0.102296 5.39005 0.302871L0.287323 5.71134C0.286981 5.71165 0.286737 5.71202 0.286444 5.71233C-0.0948545 6.11755 -0.0960752 6.77822 0.286346 7.18479C0.286688 7.1851 0.286932 7.18546 0.287225 7.18577L5.38996 12.5942C5.77218 12.9994 6.39054 12.998 6.77106 12.5907C7.15153 12.1836 7.15006 11.525 6.76779 11.1198L3.34191 7.48865H24.0234C24.5628 7.48865 25 7.023 25 6.44856C25 5.87412 24.5628 5.40847 24.0234 5.40847Z" fill="#555555"/>
<path d="M0.976561 19.5915L21.6581 19.5915L18.2321 23.2227C17.8498 23.6279 17.8484 24.2864 18.2288 24.6936C18.6093 25.1008 19.2277 25.1023 19.6099 24.6971L24.7127 19.2887C24.713 19.2883 24.7133 19.288 24.7136 19.2877C25.0949 18.8825 25.0961 18.2218 24.7137 17.8152C24.7133 17.8149 24.7131 17.8145 24.7128 17.8142L19.61 12.4058C19.2278 12.0006 18.6095 12.002 18.2289 12.4093C17.8485 12.8164 17.8499 13.475 18.2322 13.8802L21.6581 17.5114L0.976561 17.5113C0.437207 17.5113 5.76469e-07 17.977 5.29317e-07 18.5514C4.82165e-07 19.1259 0.437207 19.5915 0.976561 19.5915Z" fill="#555555"/>
</svg>
