<svg width="25" height="25" viewBox="0 0 25 25" fill="none" xmlns="http://www.w3.org/2000/svg">
<g clip-path="url(#clip0)">
<path d="M6.25005 0C5.75692 0 5.35718 0.399745 5.35718 0.892874V2.67857H7.14288V0.892874C7.14288 0.399745 6.74313 0 6.25005 0Z" fill="#555555"/>
<path d="M18.7501 0C18.2569 0 17.8572 0.399745 17.8572 0.892874V2.67857H19.6429V0.892874C19.6429 0.399745 19.2432 0 18.7501 0Z" fill="#555555"/>
<path d="M22.3214 2.67847H19.6429V6.24991C19.6429 6.74304 19.2431 7.14278 18.75 7.14278C18.2569 7.14278 17.8571 6.74304 17.8571 6.24991V2.67847H7.14284V6.24991C7.14284 6.74304 6.74309 7.14278 6.24996 7.14278C5.75683 7.14278 5.35709 6.74304 5.35709 6.24991V2.67847H2.67857C1.19924 2.67847 0 3.8777 0 5.35704V22.3213C0 23.8007 1.19924 24.9999 2.67857 24.9999H22.3214C23.8008 24.9999 25 23.8007 25 22.3213V5.35704C25 3.8777 23.8008 2.67847 22.3214 2.67847ZM23.2143 22.3213C23.2143 22.8145 22.8145 23.2142 22.3214 23.2142H2.67857C2.18544 23.2142 1.7857 22.8145 1.7857 22.3213V10.7142H23.2143V22.3213Z" fill="#555555"/>
<g clip-path="url(#clip1)">
<path d="M18.8238 12.7693C18.5895 12.5349 18.2096 12.5349 17.9753 12.7693L10.7869 19.9577L8.02379 17.1946C7.78948 16.9603 7.40961 16.9603 7.17526 17.1946C6.94093 17.4289 6.94093 17.8088 7.17526 18.0431L10.3626 21.2304C10.5969 21.4647 10.977 21.4646 11.2111 21.2304L18.8238 13.6178C19.0581 13.3835 19.0581 13.0036 18.8238 12.7693Z" fill="#555555"/>
</g>
</g>
<defs>
<clipPath id="clip0">
<rect width="25" height="25" fill="white"/>
</clipPath>
<clipPath id="clip1">
<rect width="12" height="12" fill="white" transform="translate(7 11)"/>
</clipPath>
</defs>
</svg>
