<svg width="25" height="25" viewBox="0 0 25 25" fill="none" xmlns="http://www.w3.org/2000/svg">
<g clip-path="url(#clip0)">
<path d="M6.25005 0C5.75692 0 5.35718 0.399745 5.35718 0.892874V2.67857H7.14288V0.892874C7.14288 0.399745 6.74313 0 6.25005 0Z" fill="#555555"/>
<path d="M18.7501 0C18.2569 0 17.8572 0.399745 17.8572 0.892874V2.67857H19.6429V0.892874C19.6429 0.399745 19.2432 0 18.7501 0Z" fill="#555555"/>
<path d="M22.3214 2.67847H19.6429V6.24991C19.6429 6.74304 19.2431 7.14278 18.75 7.14278C18.2569 7.14278 17.8571 6.74304 17.8571 6.24991V2.67847H7.14284V6.24991C7.14284 6.74304 6.74309 7.14278 6.24996 7.14278C5.75683 7.14278 5.35709 6.74304 5.35709 6.24991V2.67847H2.67857C1.19924 2.67847 0 3.8777 0 5.35704V22.3213C0 23.8007 1.19924 24.9999 2.67857 24.9999H22.3214C23.8008 24.9999 25 23.8007 25 22.3213V5.35704C25 3.8777 23.8008 2.67847 22.3214 2.67847ZM23.2143 22.3213C23.2143 22.8145 22.8145 23.2142 22.3214 23.2142H2.67857C2.18544 23.2142 1.7857 22.8145 1.7857 22.3213V10.7142H23.2143V22.3213Z" fill="#555555"/>
<path d="M17.5703 14.2344H8.47044L9.97787 12.7342C10.1461 12.5668 10.1467 12.2948 9.97931 12.1266C9.8119 11.9584 9.53982 11.9577 9.37162 12.1251L7.12642 14.3595C7.12627 14.3596 7.12616 14.3598 7.12604 14.3599C6.95826 14.5273 6.95773 14.8003 7.12599 14.9682C7.12614 14.9683 7.12625 14.9685 7.12638 14.9686L9.37158 17.203C9.53976 17.3704 9.81184 17.3698 9.97927 17.2015C10.1467 17.0333 10.146 16.7613 9.97783 16.5939L8.47044 15.0937H17.5703C17.8076 15.0937 18 14.9014 18 14.6641C18 14.4267 17.8076 14.2344 17.5703 14.2344Z" fill="#555555"/>
<path d="M7.42969 20.0938L16.5296 20.0938L15.0221 21.5939C14.8539 21.7613 14.8533 22.0333 15.0207 22.2015C15.1881 22.3698 15.4602 22.3704 15.6284 22.203L17.8736 19.9686C17.8737 19.9685 17.8738 19.9683 17.874 19.9682C18.0417 19.8008 18.0423 19.5279 17.874 19.3599C17.8739 19.3598 17.8738 19.3596 17.8736 19.3595L15.6284 17.1251C15.4602 16.9578 15.1882 16.9583 15.0207 17.1266C14.8533 17.2948 14.854 17.5668 15.0222 17.7343L16.5296 19.2344L7.42969 19.2344C7.19237 19.2344 7 19.4267 7 19.6641C7 19.9014 7.19237 20.0938 7.42969 20.0938Z" fill="#555555"/>
</g>
<defs>
<clipPath id="clip0">
<rect width="25" height="25" fill="white"/>
</clipPath>
</defs>
</svg>
