<svg width="25" height="25" viewBox="0 0 25 25" fill="none" xmlns="http://www.w3.org/2000/svg">
<g clip-path="url(#clip0)">
<path d="M15.6248 13.542C15.0488 13.542 14.5832 14.0087 14.5832 14.5836V18.7503C14.5832 19.3242 14.1165 19.7919 13.5415 19.7919H10.4165V4.16705C10.4165 3.27747 9.84983 2.48269 8.99782 2.18686L8.68941 2.08368H13.5415C14.1165 2.08368 14.5832 2.55135 14.5832 3.12546V6.25043C14.5832 6.8253 15.0488 7.29202 15.6248 7.29202C16.2008 7.29202 16.6664 6.8253 16.6664 6.25043V3.12546C16.6664 1.40257 15.2644 0.000488281 13.5415 0.000488281H2.34373C2.30405 0.000488281 2.27087 0.0182265 2.23234 0.0233762C2.18217 0.0191801 2.1343 0.000488281 2.08338 0.000488281C0.9344 0.000488281 0 0.934699 0 2.08368V20.8335C0 21.7231 0.566667 22.5179 1.41867 22.8137L7.68749 24.9034C7.89996 24.969 8.1113 25.0003 8.33331 25.0003C9.48228 25.0003 10.4165 24.0659 10.4165 22.9169V21.8753H13.5415C15.2644 21.8753 16.6664 20.4732 16.6664 18.7503V14.5836C16.6664 14.0087 16.2008 13.542 15.6248 13.542Z" fill="#555555"/>
<path d="M24.6946 9.6803L20.5279 5.51374C20.2301 5.21582 19.7821 5.12617 19.3926 5.28753C19.0041 5.44908 18.7498 5.82921 18.7498 6.25016V9.37513H14.5833C14.0082 9.37513 13.5415 9.84166 13.5415 10.4167C13.5415 10.9918 14.0082 11.4583 14.5833 11.4583H18.7498V14.5833C18.7498 15.0042 19.0041 15.3844 19.3926 15.5459C19.7821 15.7073 20.2301 15.6176 20.5279 15.3199L24.6946 11.1531C25.1018 10.7459 25.1018 10.0875 24.6946 9.6803Z" fill="#555555"/>
</g>
<defs>
<clipPath id="clip0">
<rect width="25" height="25" fill="white"/>
</clipPath>
</defs>
</svg>
