<svg width="20" height="15" viewBox="0 0 20 15" fill="none" xmlns="http://www.w3.org/2000/svg">
<path d="M0.400814 1.16835C3.03593 3.4 7.65974 7.32617 9.01874 8.55035C9.20118 8.71558 9.39685 8.79958 9.59999 8.79958C9.80271 8.79958 9.99805 8.71637 10.1801 8.55193C11.5402 7.32654 16.164 3.4 18.7992 1.16835C18.9633 1.02967 18.9883 0.785923 18.8554 0.616386C18.5484 0.224624 18.0906 0 17.6 0H1.60002C1.10941 0 0.651576 0.224625 0.344564 0.616424C0.21174 0.785923 0.236752 1.02967 0.400814 1.16835Z" fill="#555555"/>
<path d="M18.9679 2.37775C18.8262 2.31175 18.6594 2.33477 18.5414 2.43557C15.6191 4.91289 11.8894 8.08831 10.716 9.14569C10.0574 9.74021 9.1433 9.74021 8.48315 9.1449C7.23238 8.01796 3.04409 4.45742 0.658573 2.43553C0.539811 2.33473 0.372637 2.3125 0.232012 2.37771C0.0906373 2.44337 0 2.58478 0 2.74063V12.8C0 13.6824 0.717561 14.4 1.60001 14.4H17.6C18.4824 14.4 19.2 13.6824 19.2 12.8V2.74063C19.2 2.58478 19.1093 2.443 18.9679 2.37775Z" fill="#555555"/>
</svg>
