<svg width="594" height="386" viewBox="0 0 594 386" fill="none" xmlns="http://www.w3.org/2000/svg">
<g clip-path="url(#clip0)">
<g clip-path="url(#clip1)">
<path opacity="0.1" d="M590.959 32.161C566.948 -6.30011 526.478 -33.3456 482.722 -40.2193C443.235 -46.4162 401.635 -36.1003 368.924 -12.4547L376.133 -18.1493C350.367 -1.30874 316.896 -2.40853 287.584 -11.1752C258.271 -19.9418 231.348 -35.5769 202.781 -46.6806C178.855 -55.9769 153.807 -62.0697 128.285 -64.8007C91.8855 -68.7135 51.2205 -63.9759 25.8776 -36.7084C-2.36166 -6.34241 -0.194702 48.42 30.3542 76.3061C45.8877 90.4871 66.236 97.456 83.9787 108.512C101.721 119.568 118.148 137.969 116.636 159.335C115.236 179.116 98.973 194.286 82.1447 203.803C69.1323 211.168 53.1127 219.205 51.5429 234.47C50.0261 249.222 63.4982 260.781 76.3838 267.358C118.349 288.799 170.05 288.593 211.856 266.83C226.771 259.062 240.481 248.725 256.12 242.671C297.187 226.772 342.44 242.777 385.927 248.63C422.857 253.577 460.405 251.023 496.326 241.122C517.863 235.179 539.48 226.095 554.607 209.175C565.479 196.929 572.291 181.506 578.692 166.262C585.499 149.998 592.041 133.619 598.316 117.125C602.079 107.222 605.789 97.1282 606.772 86.5374C608.506 67.3333 601.075 48.3512 590.959 32.161ZM167.888 34.8735H129.39C128.33 34.8735 127.314 34.4523 126.564 33.7027C125.815 32.953 125.394 31.9363 125.394 30.8761C125.394 29.816 125.815 28.7992 126.564 28.0496C127.314 27.2999 128.33 26.8788 129.39 26.8788H142.603C142.312 26.4118 142.121 25.8896 142.041 25.3449C141.962 24.8003 141.996 24.2451 142.142 23.7145C142.288 23.1838 142.543 22.6892 142.89 22.2619C143.236 21.8346 143.668 21.4838 144.157 21.2318H139.828C138.769 21.2318 137.752 20.8106 137.003 20.061C136.254 19.3113 135.833 18.2946 135.833 17.2344C135.833 16.1743 136.254 15.1575 137.003 14.4079C137.752 13.6583 138.769 13.2371 139.828 13.2371H178.321C179.218 13.2327 180.09 13.5301 180.797 14.0814C181.504 14.6328 182.005 15.4062 182.22 16.2771C182.435 17.148 182.351 18.0658 181.981 18.883C181.611 19.7001 180.977 20.3691 180.181 20.7823H184.515C185.575 20.7823 186.591 21.2035 187.341 21.9531C188.09 22.7028 188.511 23.7195 188.511 24.7797C188.511 25.8398 188.09 26.8566 187.341 27.6062C186.591 28.3559 185.575 28.777 184.515 28.777H171.302C171.701 29.41 171.912 30.1436 171.91 30.892C171.903 31.9531 171.476 32.9682 170.722 33.7145C169.968 34.4609 168.949 34.8777 167.888 34.8735ZM231.354 91.8883H218.14C218.518 92.4924 218.727 93.1869 218.746 93.8993C218.765 94.6118 218.592 95.3162 218.246 95.9392C217.9 96.5622 217.393 97.0811 216.779 97.4418C216.165 97.8025 215.465 97.9918 214.752 97.9901H176.26C175.2 97.9901 174.184 97.5689 173.434 96.8193C172.685 96.0696 172.264 95.0529 172.264 93.9927C172.264 92.9326 172.685 91.9158 173.434 91.1662C174.184 90.4165 175.2 89.9954 176.26 89.9954H189.473C189.182 89.5281 188.991 89.0055 188.912 88.4606C188.833 87.9158 188.868 87.3605 189.015 86.8298C189.161 86.2991 189.416 85.8046 189.763 85.3775C190.111 84.9504 190.543 84.5999 191.032 84.3484H186.698C185.638 84.3484 184.622 83.9272 183.873 83.1776C183.123 82.4279 182.702 81.4112 182.702 80.351C182.702 79.2909 183.123 78.2741 183.873 77.5245C184.622 76.7749 185.638 76.3537 186.698 76.3537H225.191C226.086 76.3514 226.957 76.6506 227.662 77.203C228.367 77.7554 228.865 78.529 229.078 79.3993C229.29 80.2696 229.203 81.1861 228.832 82.0013C228.461 82.8164 227.826 83.483 227.03 83.8936H231.359C232.419 83.8936 233.435 84.3148 234.184 85.0644C234.933 85.8141 235.354 86.8308 235.354 87.891C235.354 88.9511 234.933 89.9679 234.184 90.7175C233.435 91.4672 232.419 91.8883 231.359 91.8883H231.354ZM289.301 49.0915L289.925 50.0644C288.608 50.2176 287.274 50.0842 286.014 49.6731C284.079 49.5229 282.228 48.82 280.681 47.648L284.058 47.0822C284.016 46.0723 284.381 44.7346 285.385 42.958L287.636 46.4848L293.672 45.4801C292.573 47.0614 291.061 48.3106 289.301 49.0915ZM378.226 89.7204L378.85 90.6933C377.533 90.8436 376.2 90.7102 374.939 90.3021C373.004 90.1519 371.153 89.449 369.606 88.277L372.983 87.7112C372.941 86.7013 373.306 85.3636 374.31 83.587L376.561 87.1137L382.597 86.1091C381.498 87.6904 379.986 88.9395 378.226 89.7204ZM448.325 56.2824L448.949 57.2553C447.632 57.4086 446.298 57.2751 445.037 56.8641C443.094 56.7092 441.237 55.9969 439.689 54.8125L443.066 54.2468C443.024 53.2369 443.388 51.8991 444.393 50.1225L446.644 53.6493L452.675 52.6447C451.586 54.2338 450.081 55.4924 448.325 56.2824ZM495.713 14.3475H482.5C482.877 14.9516 483.087 15.646 483.105 16.3585C483.124 17.0709 482.951 17.7753 482.605 18.3984C482.259 19.0214 481.753 19.5403 481.138 19.901C480.524 20.2616 479.824 20.451 479.112 20.4492H440.63C439.57 20.4492 438.553 20.0281 437.804 19.2784C437.055 18.5288 436.634 17.5121 436.634 16.4519C436.634 15.3917 437.055 14.375 437.804 13.6254C438.553 12.8757 439.57 12.4546 440.63 12.4546H453.843C453.553 11.9857 453.363 11.4616 453.286 10.9156C453.209 10.3695 453.246 9.81344 453.395 9.28254C453.544 8.75164 453.802 8.25751 454.152 7.83147C454.502 7.40542 454.937 7.05674 455.428 6.80753H451.094C450.035 6.80753 449.018 6.3864 448.269 5.63675C447.52 4.88711 447.099 3.87036 447.099 2.8102C447.099 1.75005 447.52 0.733315 448.269 -0.0163269C449.018 -0.765976 450.035 -1.18713 451.094 -1.18713H489.587C490.483 -1.18938 491.353 -0.890251 492.058 -0.337837C492.763 0.214569 493.261 0.988152 493.474 1.85847C493.686 2.72878 493.6 3.64525 493.228 4.46043C492.857 5.27563 492.222 5.94216 491.426 6.35282H495.713C496.772 6.35282 497.789 6.77396 498.538 7.52361C499.287 8.27325 499.708 9.28999 499.708 10.3502C499.708 11.4103 499.287 12.427 498.538 13.1767C497.789 13.9263 496.772 14.3475 495.713 14.3475Z" fill="#34F06F"/>
</g>
<path opacity="0.1" d="M328.479 386C345.331 386 358.991 381.729 358.991 376.461C358.991 371.193 345.331 366.923 328.479 366.923C311.628 366.923 297.967 371.193 297.967 376.461C297.967 381.729 311.628 386 328.479 386Z" fill="#34F06F"/>
<path opacity="0.1" d="M375.021 322.561C384.094 322.561 391.448 320.262 391.448 317.427C391.448 314.591 384.094 312.293 375.021 312.293C365.949 312.293 358.595 314.591 358.595 317.427C358.595 320.262 365.949 322.561 375.021 322.561Z" fill="#34F06F"/>
<path opacity="0.1" d="M459.929 336.943C469.002 336.943 476.356 334.644 476.356 331.809C476.356 328.973 469.002 326.675 459.929 326.675C450.857 326.675 443.503 328.973 443.503 331.809C443.503 334.644 450.857 336.943 459.929 336.943Z" fill="#34F06F"/>
<path opacity="0.1" d="M492.651 380.364C509.502 380.364 523.163 376.093 523.163 370.825C523.163 365.557 509.502 361.286 492.651 361.286C475.799 361.286 462.139 365.557 462.139 370.825C462.139 376.093 475.799 380.364 492.651 380.364Z" fill="#34F06F"/>
<path d="M572.982 121.219C570.677 116.672 567.569 128.495 567.569 129.896C567.569 130.499 566.882 131.186 566.095 131.773C565.963 131.873 565.831 131.968 565.693 132.058C565.448 131.589 565.051 131.217 564.567 131.001C561.861 130.245 557.808 134.639 557.808 134.639C557.808 134.639 550.445 137.52 546.09 138.276C541.735 139.033 537.982 142.068 537.982 142.068C537.982 142.068 530.921 144.648 528.369 143.284C526.751 142.417 521.878 141.919 517.951 141.629C517.909 141.544 517.872 141.459 517.835 141.375C516.851 139.34 515.568 137.463 514.03 135.807C512.703 134.385 511.154 133.074 510.425 131.271C510.362 131.112 510.309 130.953 510.256 130.789C512.983 128.294 515.821 125.031 515.874 122.208C515.932 119.035 511.213 118.443 507.28 118.507C506.276 118.507 505.288 118.507 504.4 118.575C503.827 117.688 503.133 116.886 502.339 116.191L502.233 115.487L500.901 106.742C499.391 104.214 497.197 102.164 494.574 100.828C491.95 99.492 489.002 98.9248 486.07 99.1914C486.07 99.1914 474.443 100.503 473.661 105.658C473.204 108.491 472.597 111.297 471.842 114.065C471.763 114.335 471.7 114.552 471.652 114.721C470.553 115.022 469.744 115.249 469.327 115.397C465.257 115.826 460.315 117.238 460.019 121.547C459.723 125.856 460.019 129.478 462.403 132.016C462.799 132.777 463.217 133.528 463.539 134.321C464.162 135.9 464.388 137.608 464.198 139.295C464.008 140.982 463.408 142.596 462.451 143.997C460.812 146.335 458.28 147.863 456.298 149.909C454.625 151.612 453.544 153.809 453.217 156.175L452.963 156.212C451.571 158.421 450.503 160.82 449.792 163.334C448.888 166.972 441.833 174.554 441.833 174.554C441.833 174.554 435.089 183.172 432.235 184.389C429.38 185.605 428.329 186.662 428.329 186.662L426.822 187.72C426.822 187.72 425.623 189.539 424.423 190.295C423.223 191.051 406.981 203.487 406.981 203.487C406.981 203.487 399.323 206.363 398.271 208.637C398.002 209.213 398.382 210.223 399.096 211.371L398.372 211.757C396.416 212.814 394.001 214.051 391.987 214.929C391.989 214.897 391.989 214.866 391.987 214.834C391.987 214.834 390.777 212.238 389.783 209.837C389.609 209.409 389.434 208.986 389.255 208.584C390.195 208.658 390.787 208.721 390.787 208.721C390.787 208.721 390.386 204.677 391.591 204.492C392.796 204.306 390.719 201.055 390.719 201.055L390.19 198.025C390.19 198.025 391.395 190.543 390.19 188.925C388.985 187.307 387.59 182.866 387.59 182.866C387.59 182.866 388.79 179.022 387.59 177.811C386.39 176.6 385.787 172.957 385.787 172.957C385.787 172.957 384.783 165.28 382.183 160.426C379.583 155.572 375.169 146.276 375.169 146.276L371.766 135.173C371.766 135.173 361.554 116.37 351.539 109.909C341.523 103.448 327.227 102.507 327.227 102.507C327.179 102.385 327.126 102.269 327.079 102.147C326.694 101.172 326.369 100.174 326.106 99.1597C326.064 98.9905 326.032 98.8213 325.995 98.6309C329.513 95.6145 331.831 91.4338 332.526 86.8508C333.22 82.2678 332.246 77.5877 329.779 73.6634C329.631 73.4308 329.478 73.2087 329.32 72.9867C330.322 72.4503 331.182 71.6811 331.825 70.7435C332.469 69.8059 332.879 68.7275 333.019 67.5987C333.336 64.8175 329.848 62.4064 327.792 60.9682C327.586 60.8202 327.369 60.6774 327.153 60.5452L326.878 60.376L326.508 60.1645C326.391 60.1011 326.27 60.0323 326.143 59.9742L325.863 59.8314C324.478 59.1217 322.942 58.7588 321.386 58.7739C319.457 58.8374 317.607 59.5988 315.683 59.7151C311.402 59.9795 306.994 57.0713 303.025 58.7263C300.108 59.9319 298.226 63.3582 295.097 63.6913C294.22 63.7864 293.337 63.612 292.455 63.6595C292.012 63.6467 291.574 63.7467 291.181 63.9502C290.788 64.1537 290.453 64.454 290.208 64.8228C289.86 65.4837 289.976 66.2874 290.066 67.0329C290.448 70.2924 290.059 73.5961 288.929 76.6773C285.943 75.5722 276.652 79.6277 276.007 81.436C275.515 82.8319 272.038 86.8451 269.712 89.436L269.12 90.0916C269.1 89.8106 269.143 89.5286 269.247 89.2668L263.433 92.9046C263.433 92.9046 257.429 94.1048 255.225 99.165C253.021 104.225 246.647 105.457 246.647 105.457L242.646 112.125C242.646 112.125 232.631 116.355 232.028 129.103C231.426 141.851 239.612 141.031 239.612 141.031C243.011 142.041 259.231 141.031 259.231 141.031C259.231 141.031 272.053 132.54 273.052 138.805C274.051 145.071 278.063 166.089 281.07 168.315C284.078 170.541 285.473 178.218 285.473 178.218C285.473 178.218 279.659 190.147 284.072 196.613C286.888 200.861 289.236 205.401 291.075 210.154L291.715 210.318L291.308 211.423L288.877 217.938C288.877 217.938 294.083 221.269 293.882 222.892C293.681 224.515 292.481 231.177 292.481 231.177C292.481 231.177 297.291 240.473 296.487 242.091C295.684 243.709 296.577 246.738 296.577 246.738C296.577 246.738 299.891 266.952 302.491 272.208C304.117 275.643 305.124 279.337 305.467 283.122C305.467 283.122 303.3 287.97 304.5 289.588C305.7 291.206 305.467 294.035 305.467 294.035C305.467 294.035 305.277 297.472 305.467 298.487C305.657 299.502 306.08 303.129 306.677 303.737C307.275 304.345 307.486 321.123 315.662 338.106V342.151C315.662 342.151 313.86 344.372 315.662 346.381C316.191 346.952 318.094 346.873 320.562 346.46C320.747 346.815 320.932 347.19 321.127 347.581C322.339 349.937 323.288 352.42 323.955 354.984C324.003 355.169 324.04 355.354 324.077 355.539C322.935 356.068 322.084 356.861 322.375 358.093C323.125 361.265 319.975 370.222 319.975 370.222C319.975 370.222 316.667 375.224 318.77 377.498C320.874 379.771 339.198 381.442 339.948 379.47C340.699 377.498 337.834 365.194 337.834 365.194L335.123 355.999L334.964 355.301C334.393 352.816 333.41 348.427 332.639 344.678C332.559 344.287 332.485 343.906 332.406 343.531C334.806 342.838 336.481 342.304 336.481 342.304C336.481 342.304 332.877 337.45 333.675 335.431C334.473 333.411 331.476 300.057 331.476 300.057C331.476 300.057 330.155 296.06 330.942 293.839C331.73 291.619 328.336 288.182 328.336 288.182L329.742 250.789C329.742 250.789 338.955 280.499 349.567 287.579C349.567 287.579 362.987 289.192 365.793 284.137C365.941 283.872 366.079 283.608 366.211 283.291C366.338 283.455 366.459 283.619 366.57 283.788C366.982 284.395 367.35 285.031 367.67 285.691C367.818 285.987 367.95 286.278 368.066 286.564C368.066 286.564 371.094 295.352 371.797 299.143C372.5 302.934 379.958 296.261 382.215 294.913C384.471 293.564 383.113 284.153 379.958 281.271C378.372 279.849 377.981 277.348 377.532 274.44L377.416 272.853C377.416 272.853 377.363 272.785 377.257 272.668C376.845 270.146 376.263 267.434 374.852 264.89C373.267 262.088 370.677 261.506 368.272 261.718C367.322 261.802 366.42 262.173 365.685 262.781C364.95 263.389 364.416 264.205 364.155 265.123L363.938 265.229C363.417 265.225 362.897 265.267 362.384 265.356C362.384 265.356 362.384 260.306 361.38 257.673C360.376 255.04 361.782 247.368 361.782 247.368C361.782 247.368 362.189 245.348 360.984 241.509C359.779 237.67 360.386 216.039 360.386 216.039C360.001 214.45 359.536 212.881 358.991 211.339C358.928 211.164 358.859 210.99 358.79 210.81C358.889 210.683 358.954 210.535 358.981 210.376C359.181 208.558 356.375 202.292 359.979 200.272C363.584 198.252 358.394 189.359 358.394 189.359L357.189 162.678C357.189 162.678 353.257 155.487 353.812 153.885L359.995 161.462C359.995 161.462 364.224 169.552 364.403 170.763C364.583 171.974 365.407 174.993 366.607 174.601C367.807 174.21 368.409 180.264 368.409 180.264C368.409 180.264 371.612 187.138 371.015 189.56C370.418 191.981 371.813 194.207 371.813 194.207C371.813 194.207 375.016 199.664 374.62 201.689C374.223 203.714 376.39 209.689 376.417 209.768C376.417 209.768 376.496 210.102 376.607 210.651C376.966 212.391 377.664 216.267 377.447 217.959C377.12 220.179 376.068 235.793 384.181 232.462C385.141 232.064 386.025 231.5 386.792 230.797C387.171 231.124 387.637 231.334 388.134 231.399C391.961 231.928 400.116 223.384 404.17 218.815L404.735 218.176C405.634 219.117 406.263 219.725 406.263 219.725L410.491 217.61C410.491 217.61 436.59 207.125 439.142 202.577C441.695 198.03 456.626 188.174 456.626 188.174C456.626 188.174 458.967 199.542 457.318 201.213C455.733 202.8 450.77 213.448 451.6 216.827C451.631 216.985 451.684 217.139 451.758 217.282C449.359 218.947 451.758 240.325 451.758 240.325C451.758 240.325 452.509 250.175 451.188 256.827C450.902 258.509 450.888 260.227 451.145 261.913C451.674 266.339 453.397 271.204 454.1 274.297C454.38 275.513 454.501 276.459 454.338 276.988C453.587 279.415 455.395 287.6 457.192 288.811C458.989 290.022 457.794 295.156 457.794 295.156C457.794 295.156 456.441 302.886 457.794 305.16C458.055 305.602 458.284 306.061 458.481 306.535L458.127 306.984C455.638 310.156 451.785 316.242 453.238 321.789C455.352 329.768 460.453 334.119 464.253 329.466C468.053 324.813 467.73 316.575 467.73 316.575C467.73 316.575 467.73 314.989 467.826 313.107C467.826 312.71 467.884 312.303 467.921 311.891C468.292 311.918 468.665 311.918 469.036 311.891C472.207 311.589 472.641 309.617 475.643 308.406C478.645 307.195 481.351 302.061 481.351 302.061L481.504 285.67C481.504 285.67 483.005 301.004 483.903 304.768C484.802 308.533 482.846 324.48 482.846 324.48L481.345 338.756L480.595 343.906C480.986 344.863 482.143 345.577 483.708 346.106C483.629 346.455 483.549 346.83 483.46 347.237C482.852 350.093 482.069 354.164 481.948 356.538C481.747 360.483 485.056 371.904 485.748 372.004C486.44 372.104 505.378 377.461 503.189 370.587C501.001 363.713 497.481 363.11 497.989 360.483C498.316 358.743 497.772 352.689 497.36 348.808C497.318 348.369 497.27 347.967 497.233 347.597C499.062 347.597 500.288 347.549 500.288 347.549L499.987 341.633C499.987 341.633 505.848 318.743 505.272 314.349C504.696 309.955 507.212 300.184 507.212 300.184C507.212 300.184 509.468 281.239 509.326 278.125C509.183 275.011 512.032 263.954 512.032 263.954C514.246 256.283 516.011 248.488 517.317 240.61C519.267 228.333 514.008 216.05 514.008 216.05C514.008 216.05 513.961 215.833 513.892 215.452C513.364 212.74 511.387 201.631 514.008 197.253C517.016 192.251 517.914 181.946 517.914 181.946C517.914 181.946 525.578 170.118 524.827 167.088C524.827 167.088 549.462 159.051 550.963 156.476C552.464 153.901 562.977 148.455 562.977 148.455L570.191 146.165C570.191 146.165 569.863 144.532 569.329 142.337L569.826 141.925C571.555 140.487 573.595 138.89 574.144 138.89C575.08 138.916 575.281 125.766 572.982 121.219ZM281.271 105.045H276.467C276.467 105.045 275.41 105.573 273.872 106.462C273.417 106.715 272.931 106.99 272.418 107.313C273.042 105.198 273.66 103.183 273.66 103.183L277.466 99.1808C277.466 99.1808 277 98.8636 276.298 98.3242C276.572 98.1973 276.868 98.0599 277.18 97.933C278.042 97.5312 278.97 97.2893 279.918 97.2192C281.874 97.2192 286.229 90.0916 286.229 90.0916C287.164 88.061 287.995 85.9838 288.718 83.8683C288.999 84.206 289.309 84.5191 289.643 84.8042C289.808 85.344 290.113 85.8309 290.526 86.2159C291.324 86.9667 292.37 87.5378 292.777 88.5583C293.406 90.1128 292.249 92.0639 293.105 93.5126C293.485 94.0568 293.996 94.4968 294.59 94.7922C295.991 95.6276 297.423 96.4049 298.871 97.1557L300.007 97.7479V97.8907C299.981 99.4452 299.907 101.111 299.754 102.797C299.754 102.972 299.717 103.146 299.701 103.326C299.701 103.326 289.881 98.9958 287.883 100.815C285.885 102.634 282.275 102.226 282.275 102.226C282.275 102.226 283.073 105.045 281.271 105.045Z" fill="url(#paint0_linear)"/>
<path d="M335.546 118.433L313.723 131.255C313.723 131.255 287.476 124.445 294.696 118.628C297.909 116.043 299.257 110.517 299.754 105.177C299.907 103.506 299.981 101.851 300.007 100.312C300.051 97.5982 299.949 94.8835 299.701 92.1803C299.701 92.1803 330.139 86.9775 326.333 94.7923C325.408 96.6905 325.482 99.0593 326.111 101.566C326.374 102.572 326.699 103.561 327.084 104.527C329.837 111.49 335.546 118.433 335.546 118.433Z" fill="#FFCCD0"/>
<path opacity="0.1" d="M326.333 94.7922C325.409 96.6904 325.483 99.0592 326.111 101.565C322.669 104.538 318.271 106.172 313.723 106.166C308.718 106.166 306.799 101.904 303.401 98.7631C303.136 98.5146 301.508 99.1914 301.287 98.9323C301.361 94.3586 299.701 92.1961 299.701 92.1961C299.701 92.1961 330.155 86.9773 326.333 94.7922Z" fill="black"/>
<path d="M332.75 86.5278C332.747 91.1108 331.092 95.5389 328.087 98.9989C325.083 102.459 320.932 104.719 316.397 105.363C311.861 106.007 307.245 104.992 303.397 102.505C299.55 100.018 296.728 96.2258 295.45 91.8246C294.173 87.4234 294.526 82.7089 296.444 78.5469C298.362 74.385 301.716 71.055 305.891 69.1687C310.066 67.2824 314.782 66.9664 319.171 68.2787C323.56 69.591 327.329 72.4436 329.785 76.3124C331.723 79.3664 332.752 82.9099 332.75 86.5278Z" fill="#FFCCD0"/>
<path opacity="0.1" d="M329.785 76.3125C329.447 76.4802 329.093 76.6114 328.728 76.7038C327.227 77.0845 325.657 76.9205 324.119 76.7725C323.876 76.7216 323.623 76.7532 323.4 76.8624C323.13 77.0369 323.062 77.3911 322.961 77.7084C322.544 78.9404 321.27 79.6595 320.044 80.0825C317.54 80.9286 314.839 80.9968 312.296 80.2781C311.958 80.1519 311.598 80.0962 311.239 80.1142C310.409 80.2146 309.917 81.1082 309.785 81.9331C309.653 82.7579 309.732 83.6356 309.42 84.4023C308.892 85.7453 307.38 86.3587 306.07 86.9509C304.759 87.5431 303.316 88.4895 303.253 89.933C303.21 90.7632 303.649 91.5193 303.781 92.3441C303.881 93.0703 303.763 93.8096 303.442 94.4686C303.121 95.1275 302.612 95.6763 301.979 96.0454C301.681 97.5402 301.284 99.0134 300.79 100.455C298.797 98.6174 297.221 96.3752 296.165 93.8785C295.109 91.3818 294.598 88.6883 294.667 85.9782C294.735 83.2681 295.382 80.6039 296.563 78.164C297.744 75.7241 299.433 73.5648 301.516 71.8305C303.598 70.0962 306.027 68.827 308.64 68.1079C311.253 67.3888 313.989 67.2363 316.666 67.6607C319.342 68.085 321.897 69.0764 324.16 70.5685C326.422 72.0606 328.34 74.0189 329.785 76.3125Z" fill="black"/>
<path d="M327.813 63.7284C325.963 62.3449 323.718 61.5908 321.407 61.5764C319.478 61.6399 317.628 62.3907 315.705 62.507C311.423 62.7714 307.016 59.9056 303.046 61.5288C300.129 62.7238 298.247 66.1184 295.118 66.4515C294.241 66.5413 293.358 66.3721 292.476 66.4144C291.593 66.4567 290.647 66.7899 290.23 67.5671C289.961 68.2672 289.911 69.0324 290.087 69.7614C290.482 73.118 290.04 76.5202 288.803 79.6649C288.205 81.1718 287.412 82.7369 287.693 84.3337C287.974 85.534 288.666 86.5981 289.648 87.3423C289.815 87.8784 290.119 88.3615 290.531 88.7434C291.329 89.4837 292.375 90.0495 292.782 91.0594C293.411 92.6086 292.254 94.5385 293.11 95.9767C293.491 96.5162 294.002 96.9508 294.595 97.2404C296.382 98.2979 298.207 99.2849 300.071 100.201C300.609 98.6461 301.042 97.0563 301.366 95.4427C301.999 95.0736 302.508 94.5248 302.829 93.8659C303.149 93.207 303.268 92.4676 303.168 91.7414C303.02 90.9272 302.581 90.1552 302.639 89.3304C302.708 87.8869 304.14 86.9351 305.456 86.3429C306.772 85.7507 308.273 85.1374 308.813 83.7997C309.124 83.0277 309.04 82.1553 309.172 81.3304C309.304 80.5056 309.796 79.6067 310.625 79.5062C310.986 79.4899 311.345 79.5475 311.682 79.6754C314.227 80.3897 316.927 80.3197 319.431 79.4745C320.662 79.0568 321.936 78.3324 322.348 77.1004C322.449 76.7885 322.517 76.4289 322.792 76.2544C323.013 76.1449 323.264 76.1132 323.506 76.1646C325.044 76.3126 326.619 76.4712 328.114 76.1011C329.418 75.7238 330.581 74.9711 331.46 73.9368C332.339 72.9026 332.894 71.6325 333.056 70.2849C333.357 67.5354 329.859 65.156 327.813 63.7284Z" fill="#E3787D"/>
<path opacity="0.1" d="M327.813 63.7284C327.075 63.2113 326.287 62.7686 325.461 62.4065C325.852 62.6286 326.244 62.8665 326.613 63.1256C328.659 64.5532 332.158 66.9431 331.835 69.6979C331.675 71.0454 331.121 72.3156 330.243 73.3501C329.365 74.3845 328.202 75.1372 326.899 75.5142C325.398 75.8896 323.828 75.7257 322.29 75.5776C322.047 75.5291 321.795 75.5606 321.571 75.6675C321.296 75.842 321.233 76.1962 321.127 76.5135C320.72 77.7508 319.447 78.4699 318.215 78.8876C315.711 79.7382 313.007 79.8082 310.462 79.0885C310.124 78.9618 309.765 78.9043 309.405 78.9193C308.575 79.0198 308.083 79.9186 307.951 80.7435C307.819 81.5683 307.904 82.4408 307.592 83.2127C307.063 84.5505 305.546 85.1691 304.23 85.7613C302.914 86.3535 301.487 87.2999 301.419 88.7434C301.376 89.5683 301.81 90.3297 301.947 91.1545C302.047 91.8807 301.929 92.62 301.608 93.279C301.287 93.9379 300.778 94.4867 300.145 94.8558C299.819 96.4562 299.388 98.0335 298.855 99.5775C299.257 99.7837 299.648 100 300.05 100.196C300.588 98.6409 301.021 97.051 301.345 95.4374C301.978 95.0683 302.487 94.5195 302.808 93.8606C303.128 93.2017 303.247 92.4623 303.147 91.7361C302.999 90.9219 302.56 90.1499 302.618 89.3251C302.687 87.8816 304.119 86.9298 305.435 86.3376C306.751 85.7454 308.252 85.1321 308.792 83.7944C309.103 83.0224 309.019 82.1499 309.151 81.3251C309.283 80.5002 309.775 79.6014 310.604 79.5009C310.965 79.4846 311.324 79.5422 311.661 79.6701C314.206 80.3844 316.906 80.3144 319.41 79.4692C320.641 79.0515 321.915 78.3271 322.327 77.0951C322.428 76.7831 322.496 76.4236 322.771 76.2491C322.992 76.1396 323.243 76.1079 323.485 76.1592C325.023 76.3073 326.598 76.4659 328.093 76.0958C329.397 75.7184 330.56 74.9658 331.439 73.9315C332.318 72.8973 332.873 71.6272 333.035 70.2796C333.357 67.5354 329.859 65.156 327.813 63.7284Z" fill="black"/>
<path d="M286.229 92.582C286.229 92.582 281.874 99.646 279.918 99.646C278.97 99.7167 278.043 99.9567 277.18 100.355C276.315 100.713 275.475 101.128 274.664 101.597L267.603 94.2369C267.603 94.2369 268.502 93.2852 269.717 91.9475C272.043 89.383 275.531 85.4016 276.012 84.0163C276.763 81.9013 289.225 76.7988 289.833 80.2569C290.441 83.7149 286.229 92.582 286.229 92.582Z" fill="#FFCCD0"/>
<path d="M406.548 217.414C406.548 217.414 405.618 218.53 404.154 220.164C400.1 224.69 391.945 233.155 388.118 232.637C382.918 231.934 385.714 218.112 388.821 217.509C390.708 217.144 395.164 214.903 398.388 213.189C400.502 212.079 402.04 211.196 402.04 211.196L406.548 217.414Z" fill="#CE828D"/>
<path d="M384.165 233.689C376.052 236.999 377.104 221.528 377.432 219.312C377.675 217.636 376.951 213.792 376.591 212.068C376.48 211.54 376.401 211.196 376.401 211.196L378.457 205.993C378.457 205.993 388.499 206.189 388.499 207.542C388.499 208.098 389.086 209.657 389.773 211.307C390.766 213.686 391.977 216.261 391.977 216.261C391.977 216.261 392.278 230.39 384.165 233.689Z" fill="#FFCCD0"/>
<path d="M335.498 357.516C335.498 357.516 323.03 364.427 324.23 359.319C324.467 357.942 324.391 356.529 324.008 355.184C323.34 352.638 322.392 350.173 321.18 347.835C319.949 345.35 318.823 343.541 318.823 343.541C318.823 343.541 331.439 335.573 331.592 338.582C331.854 340.737 332.226 342.878 332.707 344.996C333.479 348.728 334.462 353.059 335.033 355.523L335.498 357.516Z" fill="#FF748E"/>
<path opacity="0.1" d="M335.498 357.516C335.498 357.516 323.03 364.427 324.23 359.319C324.467 357.942 324.391 356.529 324.008 355.185C325.433 354.616 326.942 354.285 328.474 354.206C330.118 353.001 334.193 355.068 335.033 355.523L335.498 357.516Z" fill="black"/>
<path d="M328.474 354.809C328.474 354.809 321.677 355.11 322.428 358.267C323.178 361.424 320.028 370.285 320.028 370.285C320.028 370.285 316.719 375.245 318.823 377.503C320.926 379.761 339.251 381.41 340.001 379.454C340.752 377.498 337.887 365.331 337.887 365.331L335.192 356.231C335.192 356.231 330.313 353.455 328.474 354.809Z" fill="#4D507F"/>
<path d="M378.457 287.69L369.091 290.334C368.751 288.998 368.275 287.701 367.67 286.463C367.35 285.808 366.982 285.177 366.57 284.576C365.085 282.429 362.871 280.716 359.731 281.678C352.86 283.793 359.731 268.079 359.731 268.079C359.731 268.079 361.592 267.285 363.468 266.397L363.907 266.18C365.423 265.435 366.866 264.652 367.22 264.198C367.897 263.341 374.144 270.098 376.517 272.721C377.077 273.34 377.416 273.731 377.416 273.731L377.854 279.626L378.457 287.69Z" fill="#FF748E"/>
<path opacity="0.1" d="M378.457 287.69L369.091 290.334C368.751 288.998 368.275 287.701 367.67 286.463C368.05 285.21 369.07 283.1 371.549 283.418C374.403 283.788 374.001 273.805 369.995 271.399C365.989 268.993 363.584 268.845 363.584 268.845C363.328 268.054 363.288 267.209 363.468 266.397L363.906 266.18C365.423 265.435 366.866 264.652 367.22 264.198C367.897 263.341 374.144 270.098 376.517 272.721C376.987 275.312 377.194 277.749 377.854 279.626L378.457 287.69Z" fill="black"/>
<path d="M364.187 268.856C363.968 268.18 363.904 267.463 364.001 266.759C364.097 266.055 364.351 265.382 364.744 264.79C365.136 264.198 365.658 263.702 366.269 263.339C366.88 262.977 367.564 262.757 368.272 262.696C370.677 262.49 373.293 263.071 374.852 265.868C378.309 272.034 376.803 279.251 379.958 282.106C383.113 284.962 384.466 294.268 382.215 295.626C379.963 296.985 372.5 303.589 371.797 299.83C371.094 296.071 368.066 287.362 368.066 287.362C368.066 287.362 368.669 283 372.146 283.449C375.006 283.819 374.604 273.837 370.598 271.431C366.591 269.025 364.187 268.877 364.187 268.877V268.856Z" fill="#4D507F"/>
<path opacity="0.1" d="M332.707 344.996C329.483 345.926 324.822 347.19 321.18 347.835C319.949 345.35 318.823 343.541 318.823 343.541C318.823 343.541 331.439 335.573 331.592 338.582C331.854 340.737 332.226 342.878 332.707 344.996Z" fill="black"/>
<path opacity="0.1" d="M366.57 284.586C365.085 282.439 362.871 280.726 359.731 281.689C352.86 283.804 359.731 268.089 359.731 268.089C359.731 268.089 361.893 267.169 363.907 266.191C365.149 266.106 367.3 266.233 367.992 267.904C368.97 270.257 369.181 279.494 366.57 284.586Z" fill="black"/>
<path d="M365.793 284.935C362.987 289.942 349.567 288.34 349.567 288.34C338.955 281.329 329.742 251.857 329.742 251.857L328.336 288.927C328.336 288.927 331.74 292.327 330.942 294.537C330.144 296.747 331.545 300.745 331.545 300.745C331.545 300.745 334.547 333.802 333.743 335.811C332.94 337.82 336.55 342.621 336.55 342.621C336.55 342.621 317.523 348.633 315.715 346.629C313.908 344.625 315.715 342.399 315.715 342.399V338.386C307.512 321.556 307.306 304.927 306.73 304.324C306.154 303.722 305.731 300.094 305.52 299.121C305.309 298.149 305.52 294.706 305.52 294.706C305.52 294.706 305.752 291.904 304.553 290.302C303.353 288.7 305.52 283.888 305.52 283.888C305.176 280.134 304.169 276.471 302.544 273.07C299.944 267.862 296.63 247.822 296.63 247.822C296.63 247.822 295.737 244.814 296.54 243.217C297.344 241.62 292.534 232.399 292.534 232.399C292.534 232.399 293.739 225.784 293.935 224.182C294.13 222.58 288.929 219.27 288.929 219.27L291.361 212.814L293.935 205.94C293.935 205.94 353.616 207.14 356.021 207.939C357.184 208.325 358.246 210.524 359.039 212.698C359.584 214.225 360.05 215.78 360.434 217.356C360.434 217.356 359.831 238.791 361.031 242.598C362.231 246.405 361.829 248.415 361.829 248.415C361.829 248.415 360.434 256.028 361.428 258.63C362.421 261.231 362.432 266.249 362.432 266.249C362.432 266.249 366.438 265.445 367.437 267.835C368.436 270.225 368.589 279.928 365.793 284.935Z" fill="#AACAF5"/>
<path d="M485.753 371.988C485.061 371.893 481.752 360.567 481.953 356.655C482.075 354.302 482.857 350.267 483.465 347.433C483.866 345.577 484.189 344.261 484.189 344.261L496.974 345.657C496.974 345.657 497.143 347.053 497.349 349.009C497.761 352.853 498.306 358.854 497.978 360.578C497.45 363.19 500.98 363.787 503.179 370.598C505.378 377.408 486.456 372.094 485.753 371.988Z" fill="#4D507F"/>
<path d="M468.93 307.973C468.248 309.083 467.952 311.563 467.826 313.651C467.704 315.528 467.73 317.093 467.73 317.093C467.73 317.093 468.032 325.31 464.226 329.91C460.421 334.51 455.315 330.212 453.212 322.302C451.753 316.803 455.611 310.785 458.101 307.624C459.195 306.238 460.019 305.403 460.019 305.403C460.019 305.403 470.215 305.868 468.93 307.973Z" fill="#4D507F"/>
<path d="M474.686 117.528C474.686 117.528 460.521 116.428 460.019 123.741C459.517 131.054 460.765 136.685 471.61 137.578C482.455 138.472 478.544 117.671 478.544 117.671L474.686 117.528Z" fill="#575A89"/>
<path d="M500.901 121.198C500.901 121.198 514.796 119.03 514.695 124.444C514.595 129.859 504.088 136.896 504.088 136.896L500.901 121.198Z" fill="#575A89"/>
<path opacity="0.15" d="M475.209 117.528C475.209 117.528 461.05 116.428 460.548 123.741C460.046 131.054 461.288 136.685 472.133 137.578C482.979 138.472 479.073 117.671 479.073 117.671L475.209 117.528Z" fill="black"/>
<path opacity="0.15" d="M502.08 121.198C502.08 121.198 515.975 119.03 515.874 124.444C515.774 129.859 505.261 136.896 505.261 136.896L502.08 121.198Z" fill="black"/>
<path d="M478.671 115.456C474.782 117.019 471.124 119.105 467.799 121.658C467.329 121.945 466.975 122.389 466.8 122.911C466.772 123.332 466.781 123.755 466.827 124.175C466.742 126.29 463.545 126.47 462.107 128.04C461.087 129.15 461.103 130.895 461.578 132.323C462.054 133.75 462.958 135.009 463.529 136.405C464.151 137.97 464.378 139.664 464.188 141.337C463.998 143.011 463.397 144.611 462.44 145.996C460.802 148.317 458.27 149.83 456.288 151.86C453.645 154.594 452.023 159.04 454.126 162.234C455.411 164.19 457.763 165.211 459.137 167.099C460.617 169.145 460.722 171.889 460.368 174.39C460.014 176.891 459.258 179.35 459.237 181.877C459.19 186.816 462.054 191.5 466.045 194.414C470.035 197.327 475.03 198.644 479.95 198.908C481.7 199.008 483.518 198.977 485.109 198.247C486.699 197.517 487.947 196.132 489.036 194.726C492.318 190.499 494.838 185.733 496.483 180.64C497.196 178.435 497.788 176.093 499.321 174.358C500.443 173.228 501.747 172.295 503.179 171.598L510.219 167.654C512.529 166.358 515.06 164.783 515.668 162.208C516.355 159.289 514.326 155.894 515.975 153.388C516.503 152.574 517.37 152.019 517.978 151.273C519.685 149.116 519.035 145.933 517.824 143.464C516.838 141.442 515.556 139.58 514.019 137.938C512.692 136.532 511.144 135.236 510.415 133.444C509.854 132.069 509.833 130.52 509.331 129.124C508.274 126.216 505.409 124.445 503.486 122.028C501.9 120.024 500.933 117.534 499.078 115.784C496.07 112.939 492.735 113.848 489.036 113.959C487.207 114.018 485.505 113.341 483.703 113.309C481.589 113.251 480.664 114.657 478.671 115.456Z" fill="#663D5C"/>
<path d="M502.65 120.521L471.541 117.349C471.541 117.349 471.652 116.978 471.843 116.291C472.59 113.554 473.192 110.78 473.645 107.979C474.443 102.903 486.07 101.602 486.07 101.602C489.001 101.332 491.948 101.894 494.574 103.223C497.2 104.552 499.398 106.594 500.917 109.116L502.233 117.766L502.65 120.521Z" fill="#FF748E"/>
<path d="M508.538 154.197L503.734 166.517L483.454 169.975C483.454 169.975 459.723 164.867 470.685 154.197C471.96 152.972 473.141 151.652 474.216 150.247C475.288 148.865 476.148 147.331 476.768 145.695C478.523 140.799 475.796 138.419 475.796 138.419C475.796 138.419 495.769 129.251 496.07 139.619C496.136 141.953 496.834 144.224 498.089 146.192C498.786 147.28 499.607 148.282 500.536 149.179C502.85 151.359 505.569 153.064 508.538 154.197Z" fill="#CE828D"/>
<path d="M574.081 140.973C573.552 140.973 571.491 142.559 569.763 143.976C568.357 145.134 567.168 146.181 567.168 146.181L563.865 135.263C564.64 134.865 565.386 134.411 566.095 133.904C566.882 133.322 567.569 132.635 567.569 132.043C567.569 130.652 570.677 118.93 572.982 123.44C575.286 127.95 575.08 140.973 574.081 140.973Z" fill="#CE828D"/>
<path opacity="0.1" d="M335.546 118.432L313.723 131.255C313.723 131.255 287.476 124.444 294.696 118.628C297.909 116.042 299.257 110.517 299.754 105.177C304.13 112.648 311.307 113.108 314.589 112.849C315.578 112.78 316.571 112.785 317.56 112.759C322.105 112.632 326.28 105.912 327.073 104.526C329.837 111.49 335.546 118.432 335.546 118.432Z" fill="black"/>
<path opacity="0.1" d="M358.991 212.756C358.991 212.846 358.991 212.93 358.991 212.999C358.79 214.802 350.376 217.811 350.376 217.811C350.376 217.811 311.725 222.617 308.321 219.397C305.15 216.436 293.131 213.306 291.324 212.841L293.898 205.967C293.898 205.967 353.579 207.167 355.984 207.965C357.136 208.378 358.198 210.577 358.991 212.756Z" fill="black"/>
<path d="M358.378 190.966C358.378 190.966 363.584 199.775 359.964 201.784C356.343 203.793 359.166 209.996 358.965 211.799C358.764 213.602 350.35 216.605 350.35 216.605C350.35 216.605 311.699 221.417 308.295 218.191C304.891 214.966 291.065 211.577 291.065 211.577C289.224 206.862 286.876 202.363 284.062 198.157C279.654 191.743 285.462 179.92 285.462 179.92C285.462 179.92 284.062 172.312 281.06 170.102C278.058 167.891 274.062 147.085 273.074 140.872C272.085 134.66 259.253 143.077 259.253 143.077C259.253 143.077 243.032 144.082 239.634 143.077C239.566 143.058 239.501 143.028 239.443 142.987C236.917 141.28 252.847 122.837 252.847 122.837C252.847 122.837 264.866 120.637 264.66 117.021C264.522 114.493 270.362 110.792 273.882 108.799C275.399 107.937 276.483 107.397 276.483 107.397H281.287C283.089 107.397 282.291 104.595 282.291 104.595C282.291 104.595 285.896 104.997 287.899 103.194C289.902 101.391 299.717 105.684 299.717 105.684C304.088 113.235 311.313 113.679 314.606 113.436C315.594 113.372 316.588 113.378 317.576 113.346C322.644 113.208 327.248 104.886 327.248 104.886C327.248 104.886 341.571 105.811 351.56 112.225C361.549 118.639 371.787 137.266 371.787 137.266C371.787 137.266 356.766 155.905 354.346 155.508C351.925 155.112 357.141 164.523 357.141 164.523L358.378 190.966Z" fill="#DCE6F2"/>
<path opacity="0.1" d="M273.867 108.809C273.306 110.697 272.667 112.886 272.455 113.822C272.059 115.625 267.857 117.433 267.857 117.433C267.857 117.433 263.846 122.837 264.247 123.842C264.649 124.846 260.844 128.648 259.237 132.254C257.63 135.86 240.834 143.077 240.834 143.077C240.368 143.103 239.902 143.073 239.443 142.988C236.917 141.28 252.847 122.837 252.847 122.837C252.847 122.837 264.866 120.637 264.66 117.021C264.506 114.504 270.347 110.803 273.867 108.809Z" fill="black"/>
<path opacity="0.1" d="M277.18 100.355C276.315 100.713 275.475 101.129 274.664 101.597L267.603 94.237C267.603 94.237 268.502 93.2852 269.717 91.9475C269.802 94.6388 275.045 98.7842 277.18 100.355Z" fill="black"/>
<path d="M269.252 91.7837L263.439 95.3898C263.439 95.3898 257.429 96.5794 255.225 101.592C253.021 106.604 246.647 107.81 246.647 107.81L242.646 114.425C242.646 114.425 232.631 118.655 232.028 131.255C231.426 143.855 239.639 143.077 239.639 143.077C239.639 143.077 256.462 135.865 258.063 132.254C259.665 128.643 263.476 124.852 263.074 123.842C262.672 122.832 266.678 117.433 266.678 117.433C266.678 117.433 270.907 115.625 271.282 113.822C271.657 112.019 273.687 105.563 273.687 105.563L277.492 101.592C277.492 101.592 267.852 94.9879 269.252 91.7837Z" fill="#DCE6F2"/>
<path opacity="0.1" d="M389.794 211.307C386.77 211.053 378.039 210.472 376.58 212.068C376.469 211.54 376.39 211.196 376.39 211.196L378.446 205.993C378.446 205.993 388.488 206.189 388.488 207.542C388.52 208.098 389.107 209.657 389.794 211.307Z" fill="black"/>
<path d="M364.387 131.255L371.787 137.266L375.19 148.286C375.19 148.286 379.598 157.502 382.204 162.313C384.81 167.125 385.809 174.734 385.809 174.734C385.809 174.734 386.406 178.34 387.611 179.54C388.816 180.74 387.611 184.552 387.611 184.552C387.611 184.552 389.011 188.957 390.211 190.564C391.411 192.172 390.211 199.579 390.211 199.579L390.74 202.583C390.74 202.583 392.812 205.792 391.612 205.988C390.412 206.183 390.808 210.218 390.808 210.218C390.808 210.218 376.987 208.817 376.39 211.222C376.39 211.222 374.186 205.211 374.588 203.207C374.99 201.203 371.781 195.804 371.781 195.804C371.781 195.804 370.381 193.599 370.983 191.193C371.586 188.788 368.378 181.977 368.378 181.977C368.378 181.977 367.775 175.966 366.575 176.367C365.376 176.769 364.572 173.766 364.371 172.56C364.171 171.355 359.964 163.344 359.964 163.344L351.555 153.124L364.387 131.255Z" fill="#DCE6F2"/>
<path opacity="0.1" d="M498.089 146.192C495.011 148.552 491.219 149.789 487.341 149.699C483.464 149.608 479.734 148.196 476.768 145.695C478.523 140.799 475.796 138.419 475.796 138.419C475.796 138.419 495.769 129.251 496.07 139.619C496.136 141.953 496.834 144.224 498.089 146.192Z" fill="black"/>
<path d="M487.735 149.1C497.152 149.1 504.786 141.463 504.786 132.042C504.786 122.622 497.152 114.985 487.735 114.985C478.319 114.985 470.685 122.622 470.685 132.042C470.685 141.463 478.319 149.1 487.735 149.1Z" fill="#CE828D"/>
<path opacity="0.1" d="M508.538 154.197L503.734 166.517L483.454 169.975C483.454 169.975 459.723 164.867 470.685 154.197C471.96 152.972 473.141 151.652 474.216 150.247C479.406 163.239 488.185 162.012 488.185 162.012C500.341 159.712 500.727 151.585 500.557 149.179C502.865 151.357 505.576 153.061 508.538 154.197Z" fill="black"/>
<path opacity="0.1" d="M569.763 143.976C568.357 145.134 567.168 146.181 567.168 146.181L563.865 135.262C564.64 134.865 565.386 134.411 566.095 133.904C567.522 135.744 568.896 140.465 569.763 143.976Z" fill="black"/>
<path opacity="0.1" d="M406.548 217.414C406.548 217.414 405.618 218.53 404.154 220.164C402.442 218.403 399.714 215.437 398.388 213.189C400.502 212.079 402.04 211.196 402.04 211.196L406.548 217.414Z" fill="black"/>
<path d="M570.106 148.185L562.892 150.453C562.892 150.453 552.379 155.852 550.878 158.385C549.377 160.917 524.743 168.901 524.743 168.901C525.493 171.905 517.83 183.627 517.83 183.627C517.83 183.627 516.931 193.848 513.924 198.807C511.281 203.148 513.268 214.141 513.807 216.843C513.876 217.224 513.924 217.441 513.924 217.441C513.924 217.441 453.238 221.348 451.737 218.641C451.662 218.5 451.609 218.348 451.579 218.191C450.749 214.844 455.722 204.291 457.297 202.715C458.946 201.06 456.605 189.792 456.605 189.792C456.605 189.792 441.674 199.558 439.121 204.068C436.568 208.579 410.433 218.947 410.433 218.947L406.204 221.062C406.204 221.062 397.193 212.349 398.245 210.091C399.297 207.833 406.997 205.01 406.997 205.01C406.997 205.01 423.218 192.69 424.439 191.934C425.376 191.223 426.187 190.36 426.838 189.38L428.345 188.322C428.345 188.322 429.402 187.265 432.25 186.07C435.099 184.875 441.864 176.304 441.864 176.304C441.864 176.304 448.92 168.79 449.824 165.2C450.535 162.705 451.603 160.325 452.995 158.136C456.296 157.6 459.396 156.199 461.98 154.075C466.457 150.496 473.962 150.485 474.062 150.485C479.231 163.868 488.169 162.646 488.169 162.646C502.492 159.944 500.467 149.137 500.467 149.137C500.467 149.137 510.647 143.262 512.898 143.416C515.15 143.569 525.821 144.013 528.374 145.367C530.927 146.721 537.988 144.167 537.988 144.167C537.988 144.167 541.74 141.158 546.095 140.407C550.45 139.656 557.813 136.801 557.813 136.801C557.813 136.801 561.867 132.444 564.573 133.195C567.279 133.946 570.106 148.185 570.106 148.185Z" fill="#FF748E"/>
<path opacity="0.1" d="M513.945 217.462C513.945 217.462 453.259 221.369 451.758 218.662C451.683 218.521 451.63 218.369 451.6 218.212C451.647 218.158 451.701 218.108 451.758 218.064L461.526 219.011C461.526 219.011 465.949 211.751 467.789 207.542C467.789 207.542 474.29 196.121 474.29 192.367C474.29 192.367 503.279 191.765 507.64 189.66C507.64 189.66 508.448 215.569 510.811 217.055L513.818 216.864C513.897 217.245 513.945 217.462 513.945 217.462Z" fill="black"/>
<path opacity="0.1" d="M468.93 307.973C468.248 309.083 467.952 311.563 467.826 313.651C464.48 313.477 459.422 311.833 459.422 311.833C459.208 310.361 458.762 308.934 458.101 307.603C459.195 306.217 460.019 305.382 460.019 305.382C460.019 305.382 470.215 305.868 468.93 307.973Z" fill="black"/>
<path opacity="0.1" d="M497.349 348.998C493.65 348.998 487.233 348.787 483.465 347.412C483.867 345.556 484.189 344.24 484.189 344.24L496.974 345.657C496.974 345.657 497.17 347.042 497.349 348.998Z" fill="black"/>
<path d="M517.254 241.805C515.947 249.617 514.182 257.345 511.968 264.949C511.968 264.949 509.114 275.91 509.262 278.992C509.41 282.075 507.148 300.861 507.148 300.861C507.148 300.861 504.595 310.479 505.198 314.836C505.8 319.193 499.912 341.887 499.912 341.887L500.214 347.745C500.214 347.745 482.339 348.501 480.537 344.139L481.287 339.031L482.788 324.909C482.788 324.909 484.744 309.126 483.845 305.345C482.947 301.564 481.504 286.437 481.504 286.437L481.351 302.664C481.351 302.664 478.65 307.777 475.642 308.977C472.635 310.178 472.186 312.15 469.036 312.435C465.886 312.721 459.422 310.632 459.422 310.632C459.177 308.939 458.616 307.307 457.768 305.821C456.415 303.568 457.768 295.902 457.768 295.902C457.768 295.902 458.967 290.794 457.165 289.594C455.363 288.393 453.561 280.277 454.311 277.871C454.475 277.342 454.353 276.412 454.073 275.227C453.37 272.161 451.668 267.344 451.119 262.955C450.867 261.272 450.891 259.56 451.187 257.885C452.535 251.27 451.785 241.493 451.785 241.493C451.785 241.493 449.385 220.306 451.785 218.651L461.552 219.603C461.552 219.603 465.976 212.344 467.815 208.135C467.815 208.135 474.316 196.714 474.316 192.954C474.316 192.954 503.306 192.357 507.666 190.252C507.666 190.252 508.475 216.161 510.837 217.642L513.961 217.451C513.961 217.451 519.204 229.634 517.254 241.805Z" fill="#575A89"/>
<path d="M503.041 298.069C503.003 298.628 502.837 299.171 502.555 299.656C501.662 301.617 499.722 304.61 498.623 305.244C496.821 306.302 488.713 302.389 488.581 300.962C488.562 299.986 488.687 299.014 488.951 298.075C489.141 297.281 489.331 296.679 489.331 296.679C489.331 296.679 500.6 299.238 502.545 298.032H502.576C502.872 297.81 503.015 297.853 503.041 298.069Z" fill="#CE828D"/>
<path opacity="0.1" d="M481.536 179.577C481.488 181.576 481.536 186.181 481.536 189.433C481.536 191.463 481.573 192.965 481.573 192.965H473.692C473.692 192.965 473.618 191.59 473.539 189.433C473.449 186.942 473.354 183.421 473.37 179.773C473.37 178.847 473.37 177.917 473.402 176.986C473.455 174.29 473.587 171.656 473.84 169.451C474.813 160.88 466.578 151.474 466.578 151.474C468.476 149.222 473.449 150.417 473.449 150.417C473.449 150.417 476.24 158.438 478.412 164.375C479.825 168.328 480.838 172.413 481.435 176.568C481.545 177.257 481.591 177.955 481.573 178.652C481.562 178.847 481.552 179.154 481.536 179.577Z" fill="black"/>
<path d="M482.138 179.577C482.091 181.576 482.138 186.181 482.138 189.433C482.138 191.463 482.175 192.965 482.175 192.965H474.29C474.29 192.965 474.221 191.59 474.142 189.433C474.052 186.942 473.957 183.421 473.972 179.773C473.972 178.847 473.972 177.917 474.004 176.986C474.057 174.29 474.189 171.656 474.443 169.451C475.415 160.88 467.176 151.474 467.176 151.474C469.078 149.222 474.046 150.417 474.046 150.417C474.046 150.417 476.832 158.438 479.009 164.375C480.42 168.329 481.432 172.414 482.032 176.568C482.142 177.257 482.188 177.955 482.17 178.652C482.165 178.847 482.149 179.154 482.138 179.577Z" fill="#575A89"/>
<path opacity="0.1" d="M514.77 174.263C514.627 174.987 514.495 176.177 514.357 177.568C514.072 180.375 513.771 184.008 513.3 186.355C513.036 187.635 512.714 188.523 512.317 188.687L510.383 189.433L508.216 190.263L505.372 190.712L505.901 189.433C506.239 188.634 506.699 187.529 507.18 186.355C508.279 183.68 509.474 180.619 509.553 179.815C509.59 179.461 509.712 178.646 509.854 177.568C509.981 176.627 510.119 175.484 510.224 174.263C510.526 170.937 510.6 167.03 509.553 165.015C507.677 161.409 503.211 147.873 503.211 147.873C503.564 146.898 504.271 146.091 505.191 145.612C506.111 145.133 507.178 145.017 508.179 145.288C508.179 145.288 512.254 158.702 512.323 160.51C512.391 162.319 515.372 171.254 514.77 174.263Z" fill="black"/>
<path d="M514.167 174.263C514.024 174.987 513.892 176.177 513.755 177.568C513.475 180.375 513.173 184.008 512.698 186.356C512.433 187.635 512.111 188.523 511.715 188.687L509.823 189.433C509.051 189.756 508.328 190.187 507.677 190.712L504.543 191.199C504.543 191.199 505.029 190.215 505.356 189.433C505.684 188.65 506.155 187.529 506.635 186.356C507.735 183.68 508.935 180.619 509.009 179.815C509.046 179.461 509.167 178.646 509.31 177.568C509.437 176.627 509.574 175.484 509.685 174.263C509.986 170.937 510.055 167.03 509.009 165.015C507.138 161.409 502.666 147.873 502.666 147.873C503.02 146.898 503.727 146.091 504.647 145.612C505.567 145.133 506.633 145.017 507.634 145.288C507.634 145.288 511.709 158.702 511.783 160.51C511.857 162.319 514.77 171.254 514.167 174.263Z" fill="#575A89"/>
<path d="M482.181 178.689C482.181 178.847 482.149 179.154 482.138 179.577L473.972 179.773C473.972 178.847 473.972 177.917 474.004 176.986L482.043 176.605C482.153 177.294 482.199 177.992 482.181 178.689Z" fill="white"/>
<path d="M482.181 192.965H474.29C474.29 192.965 474.221 191.59 474.142 189.433H482.144C482.165 191.463 482.181 192.965 482.181 192.965Z" fill="white"/>
<path d="M514.167 174.263C514.024 174.987 513.892 176.177 513.755 177.568H509.289C509.416 176.626 509.553 175.484 509.664 174.263H514.167Z" fill="white"/>
<path d="M512.677 186.355C512.412 187.635 512.09 188.523 511.693 188.687L509.801 189.433H505.335C505.673 188.634 506.133 187.529 506.614 186.355H512.677Z" fill="white"/>
<path opacity="0.05" d="M339.541 131.255C339.541 131.255 341.386 147.498 347.178 149.1C352.971 150.702 350.075 143.088 350.075 143.088L345.17 136.896L339.541 131.255Z" fill="black"/>
<path opacity="0.05" d="M301.085 160.452C301.085 160.452 323.099 182.453 332.633 178.186C342.168 173.919 311.365 176.23 301.085 160.452Z" fill="black"/>
<path opacity="0.05" d="M326.111 190.263C326.111 190.263 340.794 191.146 345.17 186.355C349.546 181.565 326.111 190.263 326.111 190.263Z" fill="black"/>
<path opacity="0.05" d="M315.578 208.965C314.933 208.505 342.179 207.648 349.552 202.091C356.925 196.534 333.22 221.607 315.578 208.965Z" fill="black"/>
<path opacity="0.05" d="M269.226 122.414C269.226 122.414 275.04 128.315 275.568 133.074C276.097 137.832 269.226 122.414 269.226 122.414Z" fill="black"/>
<path opacity="0.05" d="M283.977 127.538C283.977 127.538 283.449 143.204 289.891 146.181C296.334 149.158 281.868 139.376 283.977 127.538Z" fill="black"/>
<path opacity="0.05" d="M368.066 169.584C368.066 169.584 379.572 164.825 381.417 167.918C383.261 171.011 379.831 171.535 379.831 171.535L368.066 169.584Z" fill="black"/>
<path opacity="0.05" d="M383.008 184.917C378.251 187.894 374.683 187.635 375.027 190.268C375.37 192.901 375.793 191.881 379.007 191.204C382.22 190.527 383.008 184.917 383.008 184.917Z" fill="black"/>
<path opacity="0.05" d="M386.512 197.174C386.512 197.174 380.788 202.112 378.996 202.376C377.204 202.641 386.512 197.174 386.512 197.174Z" fill="black"/>
<path opacity="0.1" d="M467.794 237.417C467.044 236.671 492.55 237.417 498.607 235.83C498.607 235.83 501.678 240.309 495.795 241.366C489.913 242.424 463.846 244.01 463.846 244.01C463.846 244.01 471.737 241.372 467.794 237.417Z" fill="black"/>
<path opacity="0.1" d="M460.971 269.031C460.04 270.617 456.938 273.102 454.1 275.201C453.397 272.134 451.695 267.317 451.145 262.929L456.653 260.338C456.473 260.338 462.815 265.869 460.971 269.031Z" fill="black"/>
<path opacity="0.1" d="M433.884 188.444C433.884 188.444 450.955 185.62 456.214 179.772C456.214 179.772 454.227 189.792 433.884 188.444Z" fill="black"/>
<path opacity="0.1" d="M429.608 198.427C429.608 198.427 432.251 199.484 436.722 198.427C441.193 197.369 429.608 198.427 429.608 198.427Z" fill="black"/>
<path opacity="0.1" d="M467.176 197.174C467.176 197.174 457.593 205.179 459.929 206.94C462.266 208.7 467.176 197.174 467.176 197.174Z" fill="black"/>
<path opacity="0.1" d="M467.176 182.353C467.176 182.353 458.883 182.189 460.971 186.356C463.058 190.522 467.176 182.353 467.176 182.353Z" fill="black"/>
<path opacity="0.1" d="M482.788 127.77C483.307 127.715 483.808 127.549 484.258 127.284C486.354 126.325 488.708 126.085 490.954 126.602C494.173 127.352 496.852 129.594 499.992 130.636C501.799 131.239 504.22 131.191 505.113 129.504C505.901 128.008 504.971 126.216 504.056 124.788C502.471 122.255 500.732 119.617 498.094 118.179C496.576 117.439 494.955 116.934 493.285 116.682C489.934 116.032 486.499 115.535 483.111 115.979C480.468 116.328 472.82 118.094 474.025 122.16C474.628 124.196 476.752 123.91 478.343 124.603C479.855 125.269 481.102 127.812 482.788 127.77Z" fill="black"/>
<path d="M482.788 126.57C483.306 126.51 483.806 126.344 484.258 126.084C486.353 125.122 488.708 124.883 490.954 125.402C494.173 126.152 496.852 128.389 499.992 129.436C501.799 130.039 504.22 129.991 505.113 128.304C505.901 126.803 504.971 125.016 504.056 123.588C502.471 121.055 500.732 118.417 498.094 116.979C496.577 116.236 494.955 115.732 493.285 115.482C489.934 114.832 486.499 114.335 483.111 114.774C480.468 115.123 472.82 116.889 474.025 120.96C474.628 122.996 476.752 122.705 478.343 123.403C479.855 124.064 481.102 126.596 482.788 126.57Z" fill="#663D5C"/>
<path opacity="0.1" d="M502.65 120.521L471.541 117.349C471.541 117.349 471.652 116.978 471.843 116.291C478.37 114.562 494.506 111.199 502.233 117.745L502.65 120.521Z" fill="black"/>
<path d="M469.004 117.766C469.004 117.766 497.481 108.413 504.791 121.504C504.791 121.467 489.654 123.693 469.004 117.766Z" fill="#575A89"/>
<path opacity="0.1" d="M482.461 277.03C482.21 277.155 481.92 277.175 481.654 277.086C481.388 276.996 481.169 276.805 481.044 276.554C480.818 276.036 480.743 275.464 480.827 274.905L480.97 272.399C481.187 268.581 481.409 264.711 482.593 261.073C483.927 257.226 486.093 253.72 488.935 250.804" fill="black"/>
<path opacity="0.1" d="M478.143 201.308C478.143 201.308 492.413 197.607 495.78 198.897C499.146 200.187 498.01 202.191 495.78 202.392C493.549 202.593 478.143 201.308 478.143 201.308Z" fill="black"/>
<path opacity="0.1" d="M473.972 211.201C477.144 213.406 502.65 213.406 502.65 213.406L473.972 211.201Z" fill="black"/>
<path opacity="0.1" d="M356.676 217.811C356.676 217.811 357.733 220.418 350.931 223.019C344.129 225.62 356.676 217.811 356.676 217.811Z" fill="black"/>
<path opacity="0.1" d="M351.571 237.649C351.571 237.649 342.67 237.448 345.72 241.657C348.77 245.866 351.571 237.649 351.571 237.649Z" fill="black"/>
<path opacity="0.1" d="M296.895 220.068C296.895 220.068 310.911 227.629 316.72 228.433C322.528 229.237 306.107 231.748 296.895 220.068Z" fill="black"/>
<path opacity="0.1" d="M308.908 281.927C308.908 281.927 309.605 285.533 315.567 287.336C321.529 289.139 326.09 287.737 326.138 287.336C326.185 286.934 308.908 281.927 308.908 281.927Z" fill="black"/>
<path opacity="0.1" d="M324.832 361.202C324.832 361.202 332.195 364.903 333.844 361.202H324.832Z" fill="black"/>
<path opacity="0.1" d="M375.455 288.235C375.455 288.235 374.239 292.158 371.998 292.295L375.455 288.235Z" fill="black"/>
<path opacity="0.1" d="M505.098 127.099C504.21 128.791 501.784 128.833 499.976 128.23C496.837 127.173 494.162 124.952 490.938 124.196C488.692 123.68 486.338 123.919 484.242 124.878C483.793 125.144 483.292 125.31 482.773 125.364C481.087 125.391 479.839 122.863 478.333 122.192C476.747 121.494 474.633 121.779 474.015 119.744C473.99 119.666 473.971 119.586 473.957 119.506C473.848 119.984 473.868 120.482 474.015 120.949C474.617 122.985 476.742 122.694 478.333 123.392C479.839 124.053 481.087 126.565 482.773 126.565C483.29 126.505 483.791 126.339 484.242 126.078C486.337 125.117 488.692 124.877 490.938 125.396C494.157 126.147 496.837 128.384 499.976 129.43C501.784 130.028 504.204 129.986 505.098 128.299C505.388 127.722 505.472 127.064 505.335 126.432C505.289 126.665 505.209 126.889 505.098 127.099Z" fill="black"/>
<path opacity="0.1" d="M503.041 298.069C503.003 298.628 502.837 299.171 502.555 299.656L488.93 298.069C489.12 297.276 489.31 296.673 489.31 296.673C489.31 296.673 500.579 299.233 502.523 298.027H502.555L503.041 298.069Z" fill="black"/>
<path d="M488.813 295.352C488.761 295.505 488.544 297.408 488.544 297.408L503.681 299.159V297.572L488.813 295.352Z" fill="#575A89"/>
<path opacity="0.1" d="M80.1994 312.092C89.1461 312.092 96.3988 311.095 96.3988 309.866C96.3988 308.636 89.1461 307.64 80.1994 307.64C71.2527 307.64 64 308.636 64 309.866C64 311.095 71.2527 312.092 80.1994 312.092Z" fill="#34F06F"/>
<path opacity="0.1" d="M142.254 318.389C151.201 318.389 158.453 317.392 158.453 316.163C158.453 314.934 151.201 313.937 142.254 313.937C133.307 313.937 126.054 314.934 126.054 316.163C126.054 317.392 133.307 318.389 142.254 318.389Z" fill="#34F06F"/>
<path opacity="0.1" d="M215.344 309.866C224.291 309.866 231.543 308.869 231.543 307.64C231.543 306.41 224.291 305.414 215.344 305.414C206.397 305.414 199.145 306.41 199.145 307.64C199.145 308.869 206.397 309.866 215.344 309.866Z" fill="#34F06F"/>
<path opacity="0.1" d="M117.418 335.663C123.779 335.663 128.935 334.955 128.935 334.082C128.935 333.209 123.779 332.501 117.418 332.501C111.058 332.501 105.902 333.209 105.902 334.082C105.902 334.955 111.058 335.663 117.418 335.663Z" fill="#34F06F"/>
<path opacity="0.1" d="M181.82 334.082C188.18 334.082 193.336 333.374 193.336 332.501C193.336 331.628 188.18 330.92 181.82 330.92C175.459 330.92 170.303 331.628 170.303 332.501C170.303 333.374 175.459 334.082 181.82 334.082Z" fill="#34F06F"/>
<path d="M142.597 315.661C142.597 315.661 119.871 241.15 146.154 211.307C165.81 188.983 188.119 191.654 198.114 194.414C200.7 195.102 203.105 196.345 205.163 198.056C207.221 199.767 208.883 201.905 210.032 204.322C213.526 211.862 212.892 224.103 188.236 238.384C146.947 262.3 144.368 295.103 144.368 295.103L142.597 315.661Z" fill="#34F06F"/>
<path d="M194.557 205.01C194.557 205.01 127.587 225.959 142.598 315.687" stroke="#565987" stroke-miterlimit="10"/>
<path d="M155.441 212.491C155.441 212.491 164.663 218.71 161.73 228.052" stroke="#565987" stroke-miterlimit="10"/>
<path d="M187.839 218.027C187.839 218.027 182.2 212.29 175.34 215.452" stroke="#565987" stroke-miterlimit="10"/>
<path d="M161.365 246.881C161.365 246.881 151.466 241.853 148.908 248.15" stroke="#565987" stroke-miterlimit="10"/>
<path d="M136.868 257.356C136.868 257.356 144.305 256.764 144.437 260.322" stroke="#565987" stroke-miterlimit="10"/>
<path d="M141.683 316.253C141.683 316.253 168.289 262.114 175.599 263.283C179.071 263.849 180.673 267.264 181.413 270.685C182.312 275.123 181.805 279.731 179.964 283.867C176.17 292.544 166.027 309.004 141.683 316.253Z" fill="#34F06F"/>
<path d="M175.403 273.562C175.403 273.562 147.47 314.08 142.074 315.862" stroke="#565987" stroke-miterlimit="10"/>
<path d="M177.972 279.891H171.45" stroke="#565987" stroke-miterlimit="10"/>
<path d="M170.16 294.712L159.944 295.151" stroke="#565987" stroke-miterlimit="10"/>
<path d="M163.945 282.852L165.055 288.177" stroke="#565987" stroke-miterlimit="10"/>
<path d="M153.078 299.058L153.274 303.901" stroke="#565987" stroke-miterlimit="10"/>
<path d="M142.471 316.253C142.471 316.253 115.865 262.114 108.555 263.283C105.083 263.849 103.481 267.264 102.741 270.685C101.845 275.123 102.351 279.73 104.189 283.867C107.984 292.544 118.127 309.004 142.471 316.253Z" fill="#34F06F"/>
<path d="M108.75 273.562C108.75 273.562 136.678 314.08 142.048 315.862" stroke="#565987" stroke-miterlimit="10"/>
<path d="M106.182 279.891H112.704" stroke="#565987" stroke-miterlimit="10"/>
<path d="M113.993 294.712L124.21 295.151" stroke="#565987" stroke-miterlimit="10"/>
<path d="M120.209 282.852L119.099 288.177" stroke="#565987" stroke-miterlimit="10"/>
<path d="M131.075 299.058L130.88 303.901" stroke="#565987" stroke-miterlimit="10"/>
<path d="M188.157 328.901C188.881 328.312 189.41 327.517 189.674 326.622C189.789 326.171 189.748 325.695 189.555 325.272C189.363 324.849 189.032 324.504 188.617 324.295C187.644 323.925 186.603 324.597 185.815 325.279C185.028 325.961 184.129 326.733 183.099 326.59C183.629 326.11 184.025 325.5 184.25 324.821C184.474 324.142 184.518 323.416 184.378 322.714C184.333 322.425 184.21 322.152 184.024 321.926C183.495 321.35 182.501 321.599 181.857 322.053C179.801 323.497 179.214 326.283 179.214 328.8C179.008 327.896 179.182 326.95 179.177 326.019C179.172 325.088 178.918 324.063 178.12 323.56C177.633 323.299 177.087 323.17 176.534 323.185C175.609 323.153 174.584 323.243 173.95 323.92C173.168 324.761 173.368 326.167 174.05 327.092C174.732 328.018 175.773 328.599 176.725 329.207C177.491 329.664 178.145 330.288 178.638 331.031C178.693 331.137 178.74 331.247 178.781 331.359H184.568C185.87 330.706 187.077 329.879 188.157 328.901Z" fill="#34F06F"/>
<path d="M86.7689 307.09C87.4907 306.497 88.0174 305.701 88.2805 304.805C88.3977 304.354 88.3566 303.877 88.1643 303.453C87.9719 303.028 87.6398 302.683 87.2234 302.474C86.2509 302.104 85.215 302.775 84.4275 303.457C83.64 304.139 82.7362 304.916 81.7056 304.768C82.2361 304.289 82.633 303.679 82.8572 303C83.0814 302.32 83.1253 301.594 82.9846 300.893C82.9396 300.603 82.8173 300.331 82.6305 300.105C82.102 299.529 81.1136 299.777 80.4635 300.232C78.4129 301.675 77.8209 304.462 77.8209 306.979C77.6148 306.074 77.7892 305.128 77.7839 304.203C77.7786 303.277 77.5249 302.241 76.7268 301.739C76.24 301.478 75.6934 301.348 75.1413 301.363C74.2163 301.332 73.191 301.427 72.5568 302.098C71.7745 302.939 71.9807 304.351 72.6625 305.271C73.3443 306.191 74.3802 306.778 75.3051 307.417C76.0712 307.872 76.7252 308.494 77.2184 309.236C77.2754 309.341 77.3232 309.451 77.3611 309.564H83.1485C84.4625 308.908 85.6806 308.076 86.7689 307.09Z" fill="#34F06F"/>
<path d="M120.558 328.901C121.282 328.312 121.811 327.517 122.075 326.622C122.191 326.171 122.149 325.695 121.957 325.272C121.764 324.849 121.433 324.504 121.018 324.295C120.045 323.925 119.004 324.597 118.216 325.279C117.429 325.961 116.525 326.733 115.495 326.59C116.024 326.109 116.421 325.5 116.646 324.821C116.871 324.142 116.917 323.416 116.779 322.714C116.732 322.424 116.608 322.152 116.419 321.926C115.891 321.35 114.903 321.599 114.258 322.053C112.202 323.497 111.615 326.283 111.615 328.8C111.404 327.896 111.578 326.95 111.578 326.019C111.578 325.088 111.314 324.063 110.521 323.56C110.034 323.299 109.488 323.17 108.935 323.185C108.011 323.153 106.98 323.243 106.351 323.92C105.569 324.761 105.77 326.167 106.451 327.092C107.133 328.018 108.169 328.599 109.126 329.207C109.892 329.664 110.546 330.288 111.039 331.031C111.094 331.137 111.14 331.246 111.176 331.359H116.99C118.285 330.705 119.485 329.878 120.558 328.901Z" fill="#34F06F"/>
<path d="M216.396 284.813C216.396 284.813 218.563 287.653 215.392 291.941C212.22 296.229 209.604 299.872 210.661 302.516C210.661 302.516 215.45 294.585 219.345 294.447C223.24 294.31 220.677 289.609 216.396 284.813Z" fill="#34F06F"/>
<path opacity="0.1" d="M216.396 284.813C216.584 285.087 216.731 285.386 216.834 285.702C220.64 290.17 222.648 294.342 219.012 294.447C215.608 294.542 211.523 300.628 210.555 302.167C210.585 302.286 210.624 302.403 210.672 302.516C210.672 302.516 215.46 294.585 219.355 294.447C223.251 294.31 220.677 289.609 216.396 284.813Z" fill="black"/>
<path d="M220.428 288.43C220.428 289.43 220.317 290.244 220.18 290.244C220.043 290.244 219.926 289.43 219.926 288.43C219.926 287.431 220.069 287.901 220.206 287.901C220.344 287.901 220.428 287.431 220.428 288.43Z" fill="#FFD037"/>
<path d="M221.808 289.609C220.931 290.085 220.164 290.376 220.101 290.254C220.037 290.133 220.693 289.646 221.57 289.197C222.448 288.747 222.099 289.065 222.167 289.197C222.236 289.329 222.691 289.149 221.808 289.609Z" fill="#FFD037"/>
<path d="M204.927 284.813C204.927 284.813 202.76 287.653 205.931 291.941C209.102 296.229 211.745 299.872 210.688 302.516C210.688 302.516 205.899 294.585 202.004 294.447C198.109 294.31 200.667 289.609 204.927 284.813Z" fill="#34F06F"/>
<path opacity="0.1" d="M204.927 284.813C204.738 285.087 204.589 285.386 204.483 285.702C200.683 290.17 198.669 294.342 202.31 294.447C205.714 294.542 209.8 300.628 210.767 302.167C210.737 302.286 210.698 302.403 210.651 302.516C210.651 302.516 205.862 294.585 201.967 294.447C198.072 294.31 200.667 289.609 204.927 284.813Z" fill="black"/>
<path d="M200.894 288.43C200.894 289.43 201.005 290.244 201.142 290.244C201.28 290.244 201.396 289.43 201.396 288.43C201.396 287.431 201.253 287.901 201.116 287.901C200.979 287.901 200.894 287.431 200.894 288.43Z" fill="#FFD037"/>
<path d="M199.509 289.609C200.387 290.085 201.153 290.376 201.217 290.254C201.28 290.133 200.625 289.646 199.747 289.197C198.87 288.747 199.219 289.065 199.15 289.197C199.081 289.329 198.632 289.149 199.509 289.609Z" fill="#FFD037"/>
<path d="M201.586 302.146C201.586 302.146 207.654 301.961 209.483 300.655C211.311 299.349 218.816 297.8 219.271 299.888C219.726 301.977 228.393 310.278 221.538 310.336C214.683 310.394 205.619 309.279 203.796 308.158C201.972 307.037 201.586 302.146 201.586 302.146Z" fill="#A8A8A8"/>
<path opacity="0.2" d="M221.66 309.607C214.789 309.665 205.741 308.549 203.917 307.428C202.527 306.582 201.972 303.542 201.803 302.141H201.602C201.602 302.141 201.983 307.037 203.812 308.152C205.64 309.268 214.705 310.384 221.554 310.331C223.531 310.331 224.197 309.612 224.197 308.57C223.89 309.205 223.135 309.596 221.66 309.607Z" fill="black"/>
</g>
<defs>
<linearGradient id="paint0_linear" x1="403.382" y1="380.358" x2="403.382" y2="58.261" gradientUnits="userSpaceOnUse">
<stop stop-color="#808080" stop-opacity="0.25"/>
<stop offset="0.54" stop-color="#808080" stop-opacity="0.12"/>
<stop offset="1" stop-color="#808080" stop-opacity="0.1"/>
</linearGradient>
<clipPath id="clip0">
<rect width="594" height="386" fill="white"/>
</clipPath>
<clipPath id="clip1">
<rect width="601" height="436" fill="white" transform="translate(-1 -50)"/>
</clipPath>
</defs>
</svg>
