<svg width="131" height="108" viewBox="0 0 131 108" fill="none" xmlns="http://www.w3.org/2000/svg">
<path fill-rule="evenodd" clip-rule="evenodd" d="M86.6851 86.7328C87.0199 98.5345 96.8099 108 108.838 108C121.077 108 131 98.1987 131 86.1081C131 74.0176 121.077 64.2163 108.838 64.2163C107.788 64.2163 106.754 64.2885 105.743 64.4281C103.027 74.3402 95.9569 82.4842 86.6851 86.7328Z" fill="#C1FFC8"/>
<path fill-rule="evenodd" clip-rule="evenodd" d="M86.4311 21.6647C82.1436 19.9136 77.444 18.9473 72.5161 18.9473C52.3888 18.9473 36.0724 35.0651 36.0724 54.9473C36.0724 71.506 47.3898 85.4535 62.8004 89.6538C57.8045 91.4516 52.411 92.4323 46.7857 92.4323C20.9467 92.4323 0 71.7406 0 46.2162C0 20.6917 20.9467 0 46.7857 0C63.4928 0 78.1545 8.65052 86.4311 21.6647Z" fill="#C1FFC8"/>
<g clip-path="url(#clip0)">
<path d="M74.6895 66.4505C77.3113 65.8079 79.2505 64.1237 79.2505 62.1882C79.2505 60.2526 77.3113 58.5684 74.6895 57.9258V66.4505Z" fill="#34F06F"/>
<path d="M72.409 30.3478C58.5769 30.3478 47.3237 41.5785 47.3237 55.3828C47.3237 69.187 58.5769 80.4177 72.409 80.4177C86.2411 80.4177 97.4943 69.187 97.4943 55.3828C97.4943 41.5785 86.2411 30.3478 72.409 30.3478ZM83.8114 62.1883C83.8114 66.5854 79.8876 70.262 74.6895 71.1077V73.59C74.6895 74.8479 73.6695 75.8659 72.409 75.8659C71.1485 75.8659 70.1285 74.8479 70.1285 73.59V71.1077C64.9304 70.262 61.0066 66.5854 61.0066 62.1883C61.0066 60.9304 62.0266 59.9124 63.2871 59.9124C64.5476 59.9124 65.5675 60.9304 65.5675 62.1883C65.5675 64.1239 67.5067 65.8081 70.1285 66.4506V57.4523C64.9304 56.6066 61.0066 52.9299 61.0066 48.5329C61.0066 44.1359 64.9304 40.4592 70.1285 39.6135V37.1534C70.1285 35.8954 71.1485 34.8775 72.409 34.8775C73.6695 34.8775 74.6895 35.8954 74.6895 37.1534V39.6135C79.8876 40.4592 83.8114 44.1359 83.8114 48.5329C83.8114 49.7909 82.7914 50.8088 81.5309 50.8088C80.2704 50.8088 79.2505 49.7909 79.2505 48.5329C79.2505 46.5973 77.3113 44.9132 74.6895 44.2706V53.2689C79.8876 54.1145 83.8114 57.7911 83.8114 62.1883Z" fill="#34F06F"/>
<path d="M70.1285 44.2704C67.5067 44.9129 65.5675 46.5971 65.5675 48.5327C65.5675 50.4683 67.5067 52.1524 70.1285 52.795V44.2704Z" fill="#34F06F"/>
<path d="M72.409 16.5407C51.0317 16.5407 33.4887 34.0485 33.4887 55.3828C33.4887 76.7171 51.0317 94.2248 72.409 94.2248C93.7863 94.2248 111.329 76.7171 111.329 55.3828C111.329 34.0485 93.7863 16.5407 72.409 16.5407ZM72.409 84.9695C56.0625 84.9695 42.7627 71.6964 42.7627 55.3828C42.7627 39.0691 56.0625 25.796 72.409 25.796C88.7555 25.796 102.055 39.0691 102.055 55.3828C102.055 71.6964 88.7555 84.9695 72.409 84.9695Z" fill="#34F06F"/>
</g>
<defs>
<clipPath id="clip0">
<rect width="77.8406" height="77.6841" fill="white" transform="translate(33.4887 16.5407)"/>
</clipPath>
</defs>
</svg>
