<svg width="131" height="108" viewBox="0 0 131 108" fill="none" xmlns="http://www.w3.org/2000/svg">
<circle cx="108.5" cy="22.5" r="22.5" fill="#C1FFC8"/>
<path fill-rule="evenodd" clip-rule="evenodd" d="M93.0542 47H42V87H86.9267C78.3957 99.6675 63.9209 108 47.5 108C21.2665 108 0 86.7335 0 60.5C0 34.2665 21.2665 13 47.5 13C69.0437 13 87.2376 27.3425 93.0542 47Z" fill="#C1FFC8"/>
<g clip-path="url(#clip0)">
<path d="M56.4602 14C54.9248 14 53.6801 15.2422 53.6801 16.7745V22.3233H59.2401V16.7745C59.2401 15.2422 57.9954 14 56.4602 14Z" fill="#34F06F"/>
<path d="M95.3804 14C93.845 14 92.6003 15.2422 92.6003 16.7745V22.3233H98.1603V16.7745C98.1605 15.2422 96.9158 14 95.3804 14Z" fill="#34F06F"/>
<path d="M106.501 22.3233H98.1605V33.4211C98.1605 34.9534 96.9158 36.1956 95.3804 36.1956C93.845 36.1956 92.6003 34.9534 92.6003 33.4211V22.3233H59.2401V33.4211C59.2401 34.9534 57.9954 36.1956 56.46 36.1956C54.9246 36.1956 53.6799 34.9534 53.6799 33.4211V22.3233H45.3401C40.734 22.3233 37 26.0498 37 30.6466V83.3609C37 87.9577 40.734 91.6842 45.3401 91.6842H106.501C111.107 91.6842 114.841 87.9577 114.841 83.3609V30.6466C114.841 26.0498 111.107 22.3233 106.501 22.3233ZM109.28 83.3609C109.28 84.8932 108.036 86.1354 106.5 86.1354H45.3401C43.8046 86.1354 42.56 84.8932 42.56 83.3609V47.2932H109.28V83.3609Z" fill="#34F06F"/>
<path d="M97.3236 52.1239C97.34 51.8063 97.228 51.4833 96.985 51.2408C96.742 50.9982 96.4183 50.8864 96.1001 50.9028C96.0813 50.902 96.0628 50.9 96.0437 50.9H88.9883C88.3443 50.9 87.8222 51.421 87.8222 52.0638C87.8222 52.7066 88.3443 53.2276 88.9883 53.2276H93.3448L81.8164 64.733L77.4689 60.3942C77.2503 60.176 76.9536 60.0534 76.6443 60.0534C76.3351 60.0534 76.0384 60.176 75.8197 60.3942L54.8557 81.3163C54.4003 81.7708 54.4003 82.5077 54.8557 82.9623C55.0834 83.1894 55.3818 83.303 55.6803 83.303C55.9787 83.303 56.2772 83.1894 56.5049 82.9621L76.6443 62.863L80.9918 67.2017C81.4472 67.6562 82.1856 67.6562 82.6411 67.2017L94.9941 54.8736V58.8085C94.9941 59.4513 95.5162 59.9724 96.1603 59.9724C96.8043 59.9724 97.3264 59.4513 97.3264 58.8085V52.1802C97.3264 52.1612 97.3245 52.1427 97.3236 52.1239Z" fill="#34F06F"/>
</g>
<defs>
<clipPath id="clip0">
<rect width="77.8406" height="77.6842" fill="white" transform="translate(37 14)"/>
</clipPath>
</defs>
</svg>
