<svg width="131" height="108" viewBox="0 0 131 108" fill="none" xmlns="http://www.w3.org/2000/svg">
<circle cx="108.5" cy="22.5" r="22.5" fill="#ADE1B3"/>
<path fill-rule="evenodd" clip-rule="evenodd" d="M86.2345 33H52V82.6111H89.5507C81.5961 97.7078 65.75 108 47.5 108C21.2665 108 0 86.7335 0 60.5C0 34.2665 21.2665 13 47.5 13C63.4848 13 77.6254 20.8958 86.2345 33Z" fill="#ADE1B3"/>
<g clip-path="url(#clip0)">
<path d="M94.3543 21.6875H48.2293C43.0462 21.6875 38.8335 25.9003 38.8335 31.0833V86.6042C38.8335 91.7873 43.0462 96 48.2293 96H94.3543C99.5374 96 103.75 91.7873 103.75 86.6042V31.0833C103.75 25.9003 99.5374 21.6875 94.3543 21.6875ZM55.9168 41.3333H73.0002C74.8862 41.3333 76.4168 42.864 76.4168 44.75C76.4168 46.636 74.8862 48.1667 73.0002 48.1667H55.9168C54.0308 48.1667 52.5002 46.636 52.5002 44.75C52.5002 42.864 54.0308 41.3333 55.9168 41.3333ZM90.0835 75.5H55.9168C54.0308 75.5 52.5002 73.9693 52.5002 72.0833C52.5002 70.1973 54.0308 68.6667 55.9168 68.6667H90.0835C91.9695 68.6667 93.5002 70.1973 93.5002 72.0833C93.5002 73.9693 91.9695 75.5 90.0835 75.5ZM90.0835 61.8333H55.9168C54.0308 61.8333 52.5002 60.3027 52.5002 58.4167C52.5002 56.5307 54.0308 55 55.9168 55H90.0835C91.9695 55 93.5002 56.5307 93.5002 58.4167C93.5002 60.3027 91.9695 61.8333 90.0835 61.8333Z" fill="#3BC14A"/>
<path d="M55.0624 32.7917C53.1764 32.7917 51.6458 31.261 51.6458 29.375V17.4167C51.6458 15.5307 53.1764 14 55.0624 14C56.9484 14 58.4791 15.5307 58.4791 17.4167V29.375C58.4791 31.261 56.9484 32.7917 55.0624 32.7917Z" fill="#43A64E"/>
<path d="M71.2917 32.7917C69.4057 32.7917 67.875 31.261 67.875 29.375V17.4167C67.875 15.5307 69.4057 14 71.2917 14C73.1777 14 74.7083 15.5307 74.7083 17.4167V29.375C74.7083 31.261 73.1777 32.7917 71.2917 32.7917Z" fill="#43A64E"/>
<path d="M87.5209 32.7917C85.6349 32.7917 84.1042 31.261 84.1042 29.375V17.4167C84.1042 15.5307 85.6349 14 87.5209 14C89.4069 14 90.9376 15.5307 90.9376 17.4167V29.375C90.9376 31.261 89.4069 32.7917 87.5209 32.7917Z" fill="#43A64E"/>
</g>
<defs>
<clipPath id="clip0">
<rect x="32" y="14" width="82" height="82" fill="white"/>
</clipPath>
</defs>
</svg>
