<svg width="131" height="108" viewBox="0 0 131 108" fill="none" xmlns="http://www.w3.org/2000/svg">
<path fill-rule="evenodd" clip-rule="evenodd" d="M110.01 73.0348C110.005 72.6898 110 72.3443 110 72C110 68.3248 108.689 65.0705 106.675 63.0729C107.277 63.0246 107.886 63 108.5 63C120.926 63 131 73.0736 131 85.5C131 97.9264 120.926 108 108.5 108C96.0736 108 86 97.9264 86 85.5C86 84.2705 86.0986 83.064 86.2884 81.8881C86.5087 82.2862 87.0288 82.5 88 82.5C110.168 84.3866 110.09 78.7764 110.01 73.0348Z" fill="#ADE1B3"/>
<path fill-rule="evenodd" clip-rule="evenodd" d="M87.9682 72.3839C90.5259 68.2333 92.4628 63.6594 93.6497 58.7916C91.6735 60.1887 89.4016 60.8551 87.4621 60.8746C87.9454 64.0172 88 67.518 88 70.5294C88 71.1421 87.99 71.762 87.9682 72.3839ZM75.8702 85.6007C67.9537 91.5049 58.135 95 47.5 95C21.2665 95 0 73.7335 0 47.5C0 21.2665 21.2665 0 47.5 0C62.7708 0 76.3585 7.20618 85.048 18.4035C78.2762 17.6324 71.4936 17.1565 73 24.5C75.2813 35.6213 79.4212 41.2617 82.2731 45.1472C84.7513 48.5235 86.2569 50.5748 84.7257 53.7459C83.7297 52.6506 82.4321 52 80.7419 52C72.8627 59.335 69.1488 63.1729 68.1236 64.5002C66.1471 59.9753 62.7984 57 59 57C52.9249 57 48 64.6112 48 74C48 83.3888 52.9249 91 59 91C64.7057 91 69.3968 84.2863 69.9462 75.6917C71.3144 79.789 73.3485 83.6222 75.8702 85.6007Z" fill="#ADE1B3"/>
<path d="M58.0625 49.875C45.3269 49.875 35 60.2019 35 72.9375C35 85.6731 45.3269 96 58.0625 96C70.7981 96 81.125 85.6731 81.125 72.9375C81.125 60.2019 70.7981 49.875 58.0625 49.875ZM60.625 82.7929V85.75C60.625 87.1645 59.477 88.3125 58.0625 88.3125C56.648 88.3125 55.5 87.1645 55.5 85.75V82.8339C54.6749 82.5981 53.901 82.2445 53.204 81.7832C52.0304 80.9991 51.7126 79.4052 52.4967 78.2265C53.286 77.0529 54.8747 76.7454 56.0535 77.5193C56.5865 77.8729 57.2835 78.0625 58.0625 78.0625C59.6308 78.0625 60.625 77.222 60.625 76.7812C60.625 76.3405 59.6308 75.5 58.0625 75.5C53.8241 75.5 50.375 72.6249 50.375 69.0938C50.375 66.3109 52.5224 63.9636 55.5 63.0821V60.125C55.5 58.7105 56.648 57.5625 58.0625 57.5625C59.477 57.5625 60.625 58.7105 60.625 60.125V63.0411C61.4501 63.2769 62.224 63.6305 62.921 64.0918C64.0946 64.8759 64.4124 66.4698 63.6283 67.6485C62.8441 68.8221 61.2554 69.1348 60.0715 68.3557C59.5385 68.0021 58.8415 67.8125 58.0625 67.8125C56.4942 67.8125 55.5 68.653 55.5 69.0938C55.5 69.5345 56.4942 70.375 58.0625 70.375C62.3009 70.375 65.75 73.2501 65.75 76.7812C65.75 79.5641 63.6026 81.9114 60.625 82.7929Z" fill="#3BC14A"/>
<path d="M97.8735 62.1186L91.375 55.6252L84.8765 62.1186C84.6715 62.3236 84.5177 62.5696 84.3281 62.7849C85.553 65.9419 86.25 69.3551 86.25 72.9375C86.25 73.8036 86.1988 74.6595 86.1219 75.5051H101.625V71.1796C101.625 67.751 100.292 64.5376 97.8735 62.1186Z" fill="#3BC14A"/>
<path d="M81.125 24.25V28.5704C81.125 31.9887 82.4575 35.2073 84.8765 37.6314L91.375 44.1299L97.8735 37.6314C100.292 35.2073 101.625 31.9939 101.625 28.5704V24.25H81.125Z" fill="#3BC14A"/>
<path d="M81.125 24.25V28.5704C81.125 31.9887 82.4575 35.2073 84.8765 37.6314L91.375 44.1299L97.8735 37.6314C100.292 35.2073 101.625 31.9939 101.625 28.5704V24.25H81.125Z" fill="#3BC14A"/>
<path d="M114.438 80.625H111.875V71.1796C111.875 65.0194 109.477 59.2281 105.12 54.8719L100.123 49.875L105.12 44.873C109.477 40.5219 111.875 34.7306 111.875 28.5704V19.125H114.438C115.852 19.125 117 17.9821 117 16.5625C117 15.1531 115.852 14 114.438 14H68.3125C66.898 14 65.75 15.148 65.75 16.5625C65.75 17.977 66.898 19.125 68.3125 19.125H70.875V28.5704C70.875 34.7306 73.2735 40.5219 77.6297 44.8781L82.6266 49.875L78.7009 53.8008C79.8745 55.0666 80.9302 56.4299 81.8579 57.8905L88.0643 51.6893C88.5409 51.2075 88.8125 50.5566 88.8125 49.875C88.8125 49.1985 88.5409 48.5425 88.0643 48.0607L81.2531 41.2547C77.8655 37.8671 76 33.3622 76 28.5704V19.125H106.75V28.5704C106.75 33.3622 104.885 37.862 101.497 41.2547L94.6857 48.0659C94.2091 48.5476 93.9375 49.1985 93.9375 49.875C93.9375 50.5566 94.2091 51.2075 94.6857 51.6893L101.497 58.4953C104.885 61.888 106.75 66.3929 106.75 71.1796V80.625H85.1584C84.651 82.4136 83.9745 84.1254 83.1391 85.75H114.438C115.852 85.75 117 84.602 117 83.1875C117 81.773 115.852 80.625 114.438 80.625Z" fill="#3BC14A"/>
</svg>
