<svg width="131" height="109" viewBox="0 0 131 109" fill="none" xmlns="http://www.w3.org/2000/svg">
<circle cx="108.5" cy="22.73" r="22.5" fill="#C1FFC8"/>
<path fill-rule="evenodd" clip-rule="evenodd" d="M86.2345 33.23H52V82.8411H89.5507C81.5961 97.9378 65.75 108.23 47.5 108.23C21.2665 108.23 0 86.9635 0 60.73C0 34.4965 21.2665 13.23 47.5 13.23C63.4848 13.23 77.6254 21.1258 86.2345 33.23Z" fill="#C1FFC8"/>
<g clip-path="url(#clip0)">
<path d="M94.3541 21.9175H48.2291C43.046 21.9175 38.8333 26.1302 38.8333 31.3133V86.8341C38.8333 92.0172 43.046 96.23 48.2291 96.23H94.3541C99.5372 96.23 103.75 92.0172 103.75 86.8341V31.3133C103.75 26.1302 99.5372 21.9175 94.3541 21.9175ZM55.9166 41.5633H72.9999C74.8859 41.5633 76.4166 43.094 76.4166 44.98C76.4166 46.866 74.8859 48.3966 72.9999 48.3966H55.9166C54.0306 48.3966 52.4999 46.866 52.4999 44.98C52.4999 43.094 54.0306 41.5633 55.9166 41.5633ZM90.0833 75.73H55.9166C54.0306 75.73 52.4999 74.1993 52.4999 72.3133C52.4999 70.4273 54.0306 68.8966 55.9166 68.8966H90.0833C91.9693 68.8966 93.4999 70.4273 93.4999 72.3133C93.4999 74.1993 91.9693 75.73 90.0833 75.73ZM90.0833 62.0633H55.9166C54.0306 62.0633 52.4999 60.5326 52.4999 58.6466C52.4999 56.7606 54.0306 55.23 55.9166 55.23H90.0833C91.9693 55.23 93.4999 56.7606 93.4999 58.6466C93.4999 60.5326 91.9693 62.0633 90.0833 62.0633Z" fill="#34F06F"/>
<path d="M55.0624 33.0216C53.1764 33.0216 51.6458 31.491 51.6458 29.605V17.6466C51.6458 15.7606 53.1764 14.23 55.0624 14.23C56.9484 14.23 58.4791 15.7606 58.4791 17.6466V29.605C58.4791 31.491 56.9484 33.0216 55.0624 33.0216Z" fill="#00E347"/>
<path d="M71.2917 33.0216C69.4057 33.0216 67.875 31.491 67.875 29.605V17.6466C67.875 15.7606 69.4057 14.23 71.2917 14.23C73.1777 14.23 74.7083 15.7606 74.7083 17.6466V29.605C74.7083 31.491 73.1777 33.0216 71.2917 33.0216Z" fill="#00E347"/>
<path d="M87.5209 33.0216C85.6349 33.0216 84.1042 31.491 84.1042 29.605V17.6466C84.1042 15.7606 85.6349 14.23 87.5209 14.23C89.4069 14.23 90.9376 15.7606 90.9376 17.6466V29.605C90.9376 31.491 89.4069 33.0216 87.5209 33.0216Z" fill="#00E347"/>
</g>
<defs>
<clipPath id="clip0">
<rect width="82" height="82" fill="white" transform="translate(32 14.23)"/>
</clipPath>
</defs>
</svg>
