<svg width="131" height="109" viewBox="0 0 131 109" fill="none" xmlns="http://www.w3.org/2000/svg">
<path fill-rule="evenodd" clip-rule="evenodd" d="M91.7301 30.3762C85.9905 26.5012 79.0182 24.23 71.5 24.23C51.8939 24.23 36 39.6762 36 58.73C36 75.1803 47.8472 88.9416 63.7022 92.395C58.646 94.2296 53.1898 95.23 47.5 95.23C21.2665 95.23 0 73.9635 0 47.73C0 21.4965 21.2665 0.22998 47.5 0.22998C67.6091 0.22998 84.7996 12.7259 91.7301 30.3762Z" fill="#C1FFC8"/>
<path fill-rule="evenodd" clip-rule="evenodd" d="M86.4137 90.047C88.4271 100.408 97.5501 108.23 108.5 108.23C120.926 108.23 131 98.1564 131 85.73C131 73.3036 120.926 63.23 108.5 63.23C107.891 63.23 107.288 63.2542 106.691 63.3016C105.07 75.1986 97.2116 85.1823 86.4137 90.047Z" fill="#C1FFC8"/>
<path d="M107.055 61.0436C105.737 60.8859 104.542 61.8269 104.385 63.1444C102.411 79.6865 88.3224 92.1616 71.6139 92.1616C63.69 92.1616 56.0289 89.3158 50.0425 84.1477C45.0846 79.8686 41.5318 74.2344 39.8033 68.0072L42.6729 69.5837C43.8359 70.2218 45.2967 69.7976 45.9348 68.6346C46.5735 67.4717 46.1487 66.0109 44.9858 65.3728L37.6143 61.3232C36.4519 60.6851 34.993 61.1087 34.353 62.2698L30.2985 69.6325C29.6585 70.7949 30.082 72.2556 31.2438 72.8956C32.3173 73.4468 33.7731 73.1559 34.5069 71.9503L35.4503 70.2381C37.5198 76.9983 41.4768 83.1011 46.9026 87.7849C53.7617 93.7056 62.537 96.9663 71.6139 96.9663C90.7542 96.9663 106.893 82.6706 109.156 63.7137C109.313 62.3961 108.372 61.2006 107.055 61.0436Z" fill="#34F06F"/>
<path d="M110.547 41.9484C109.33 41.4235 107.916 41.9846 107.39 43.2033L106.635 44.9531C104.084 38.7284 99.8486 33.1918 94.4552 29.1022C87.8395 24.0855 79.9413 21.4342 71.6139 21.4342C62.8899 21.4342 54.3773 24.4728 47.6452 29.9906C41.0057 35.4327 36.3788 43.0275 34.6171 51.3755C34.3431 52.6737 35.1739 53.948 36.472 54.222C36.639 54.2577 36.8054 54.274 36.97 54.274C38.0817 54.274 39.0795 53.4982 39.3178 52.3678C40.8549 45.0851 44.8938 38.4581 50.6907 33.7067C56.5663 28.8908 63.9972 26.2382 71.6139 26.2382C78.884 26.2382 85.7788 28.5523 91.5518 32.9303C96.516 36.6946 100.354 41.8595 102.532 47.6501L99.4901 46.3413C98.2714 45.8177 96.8582 46.3801 96.3339 47.5988C95.8097 48.8175 96.3727 50.2307 97.5914 50.7549L105.319 54.0781C105.628 54.2114 105.95 54.2746 106.267 54.2746C107.198 54.2746 108.082 53.7309 108.474 52.8232L111.802 45.1058C112.327 43.8871 111.766 42.4739 110.547 41.9484Z" fill="#34F06F"/>
<path d="M63.1952 46.7486L56.0915 58.3185C55.9519 58.6 55.6685 58.7639 55.3739 58.7639C55.2544 58.7639 55.133 58.737 55.0192 58.6801C54.6063 58.4755 54.1684 58.3785 53.7367 58.3785C52.6713 58.3785 51.6472 58.9691 51.1417 59.9882L50.7144 60.8503C50.005 62.2823 50.5912 64.0183 52.0225 64.7278L78.3829 77.7891C78.7958 77.9937 79.2337 78.0906 79.6654 78.0906C80.7308 78.0906 81.7549 77.5001 82.2604 76.4809L82.6877 75.6189C83.3971 74.1869 82.8109 72.4508 81.3795 71.7414C80.9835 71.545 80.8215 71.0651 81.0173 70.6691L85.9201 58.0088C88.2987 51.8673 85.6005 44.9256 79.6998 42.0015C77.8887 41.1044 75.9587 40.6759 74.0544 40.6759C69.754 40.6759 65.5837 42.8586 63.1952 46.7486Z" fill="#34F06F"/>
<path d="M68.0179 81.3594C69.891 82.1965 71.6396 81.3913 72.5636 80.2678L66.1323 77.0815C65.6518 78.7444 66.412 80.5637 68.0179 81.3594Z" fill="#34F06F"/>
<path d="M84.7334 39.508C84.7591 39.4617 84.7854 39.4154 84.8091 39.3678C85.6449 37.6805 84.9549 35.6354 83.2683 34.7996C81.2826 34.0752 79.4877 34.5638 78.7 36.3405C78.6763 36.3893 78.6575 36.4387 78.6362 36.4875C79.7373 36.7859 80.8102 37.1901 81.8325 37.6968C82.8654 38.2086 83.8344 38.8173 84.7334 39.508Z" fill="#34F06F"/>
</svg>
