<svg width="131" height="108" viewBox="0 0 131 108" fill="none" xmlns="http://www.w3.org/2000/svg">
<circle cx="108.5" cy="22.5" r="22.5" fill="#ADE1B3"/>
<path fill-rule="evenodd" clip-rule="evenodd" d="M93.0542 47H42V87H86.9267C78.3957 99.6675 63.9209 108 47.5 108C21.2665 108 0 86.7335 0 60.5C0 34.2665 21.2665 13 47.5 13C69.0437 13 87.2376 27.3425 93.0542 47Z" fill="#ADE1B3"/>
<g clip-path="url(#clip0)">
<path d="M56.4603 14C54.9248 14 53.6802 15.2422 53.6802 16.7745V22.3233H59.2402V16.7745C59.2402 15.2422 57.9955 14 56.4603 14Z" fill="#3BC14A"/>
<path d="M95.3807 14C93.8452 14 92.6006 15.2422 92.6006 16.7745V22.3233H98.1606V16.7745C98.1607 15.2422 96.9161 14 95.3807 14Z" fill="#3BC14A"/>
<path d="M106.501 22.3232H98.1605V33.421C98.1605 34.9534 96.9158 36.1955 95.3804 36.1955C93.845 36.1955 92.6003 34.9534 92.6003 33.421V22.3232H59.2401V33.421C59.2401 34.9534 57.9954 36.1955 56.46 36.1955C54.9246 36.1955 53.6799 34.9534 53.6799 33.421V22.3232H45.3401C40.734 22.3232 37 26.0497 37 30.6465V83.3608C37 87.9577 40.734 91.6841 45.3401 91.6841H106.501C111.107 91.6841 114.841 87.9577 114.841 83.3608V30.6465C114.841 26.0497 111.107 22.3232 106.501 22.3232ZM109.28 83.3608C109.28 84.8932 108.036 86.1353 106.5 86.1353H45.3401C43.8046 86.1353 42.56 84.8932 42.56 83.3608V47.2931H109.28V83.3608Z" fill="#3BC14A"/>
<path d="M97.3237 52.1238C97.34 51.8062 97.228 51.4832 96.985 51.2407C96.742 50.9981 96.4184 50.8863 96.1001 50.9027C96.0814 50.9019 96.0628 50.8999 96.0437 50.8999H88.9884C88.3443 50.8999 87.8222 51.4209 87.8222 52.0637C87.8222 52.7065 88.3443 53.2276 88.9884 53.2276H93.3448L81.8164 64.7329L77.469 60.3942C77.2503 60.1759 76.9536 60.0533 76.6444 60.0533C76.3351 60.0533 76.0384 60.1759 75.8198 60.3942L54.8557 81.3162C54.4003 81.7707 54.4003 82.5077 54.8557 82.9622C55.0835 83.1893 55.3819 83.3029 55.6803 83.3029C55.9787 83.3029 56.2773 83.1893 56.5049 82.962L76.6444 62.8629L80.9918 67.2016C81.4472 67.6561 82.1856 67.6561 82.6412 67.2016L94.9941 54.8736V58.8084C94.9941 59.4512 95.5162 59.9723 96.1603 59.9723C96.8044 59.9723 97.3265 59.4512 97.3265 58.8084V52.1801C97.3265 52.1611 97.3245 52.1426 97.3237 52.1238Z" fill="#3BC14A"/>
</g>
<defs>
<clipPath id="clip0">
<rect x="37" y="14" width="77.8406" height="77.6842" fill="white"/>
</clipPath>
</defs>
</svg>
