<svg width="131" height="108" viewBox="0 0 131 108" fill="none" xmlns="http://www.w3.org/2000/svg">
<path fill-rule="evenodd" clip-rule="evenodd" d="M91.7301 30.1462C85.9905 26.2713 79.0182 24 71.5 24C51.8939 24 36 39.4462 36 58.5C36 74.9503 47.8472 88.7116 63.7022 92.1651C58.646 93.9996 53.1898 95 47.5 95C21.2665 95 0 73.7335 0 47.5C0 21.2665 21.2665 0 47.5 0C67.6091 0 84.7996 12.4959 91.7301 30.1462Z" fill="#ADE1B3"/>
<path fill-rule="evenodd" clip-rule="evenodd" d="M86.4136 89.817C88.427 100.178 97.55 108 108.5 108C120.926 108 131 97.9264 131 85.5C131 73.0736 120.926 63 108.5 63C107.891 63 107.288 63.0242 106.691 63.0717C105.07 74.9686 97.2114 84.9523 86.4136 89.817Z" fill="#ADE1B3"/>
<path d="M107.055 60.8136C105.737 60.656 104.542 61.5969 104.385 62.9144C102.411 79.4566 88.3223 91.9317 71.6137 91.9317C63.6899 91.9317 56.0288 89.0858 50.0424 83.9177C45.0845 79.6386 41.5317 74.0044 39.8031 67.7772L42.6728 69.3537C43.8358 69.9918 45.2966 69.5677 45.9347 68.4047C46.5734 67.2417 46.1486 65.7809 44.9856 65.1428L37.6142 61.0933C36.4518 60.4552 34.9929 60.8787 34.3529 62.0398L30.2984 69.4025C29.6584 70.5649 30.0819 72.0257 31.2437 72.6656C32.3172 73.2168 33.773 72.9259 34.5068 71.7204L35.4502 70.0081C37.5197 76.7683 41.4766 82.8711 46.9025 87.555C53.7616 93.4757 62.5369 96.7363 71.6137 96.7363C90.754 96.7363 106.893 82.4407 109.155 63.4837C109.312 62.1662 108.372 60.9706 107.055 60.8136Z" fill="#3BC14A"/>
<path d="M110.547 41.7185C109.329 41.1936 107.915 41.7547 107.39 42.9734L106.635 44.7232C104.084 38.4985 99.8482 32.9619 94.4549 28.8723C87.8391 23.8556 79.9409 21.2043 71.6135 21.2043C62.8895 21.2043 54.377 24.2429 47.6449 29.7607C41.0054 35.2028 36.3784 42.7976 34.6167 51.1456C34.3427 52.4438 35.1735 53.7181 36.4716 53.9921C36.6387 54.0278 36.8051 54.0441 36.9696 54.0441C38.0813 54.0441 39.0791 53.2683 39.3175 52.1378C40.8546 44.8552 44.8935 38.2282 50.6903 33.4768C56.5659 28.6609 63.9968 26.0083 71.6135 26.0083C78.8837 26.0083 85.7784 28.3224 91.5515 32.7004C96.5156 36.4646 100.354 41.6296 102.532 47.4202L99.4897 46.1114C98.2711 45.5878 96.8578 46.1502 96.3336 47.3689C95.8093 48.5876 96.3724 50.0008 97.591 50.525L105.318 53.8482C105.628 53.9815 105.95 54.0447 106.267 54.0447C107.197 54.0447 108.082 53.501 108.474 52.5933L111.802 44.8759C112.327 43.6572 111.765 42.244 110.547 41.7185Z" fill="#3BC14A"/>
<path d="M63.1952 46.5188L56.0915 58.0886C55.9519 58.3702 55.6685 58.5341 55.3739 58.5341C55.2544 58.5341 55.133 58.5072 55.0192 58.4502C54.6063 58.2457 54.1684 58.1487 53.7367 58.1487C52.6713 58.1487 51.6472 58.7393 51.1417 59.7584L50.7144 60.6205C50.005 62.0525 50.5912 63.7885 52.0225 64.4979L78.3829 77.5592C78.7958 77.7638 79.2337 77.8608 79.6654 77.8608C80.7308 77.8608 81.7549 77.2702 82.2604 76.2511L82.6877 75.389C83.3971 73.957 82.8109 72.221 81.3795 71.5116C80.9835 71.3151 80.8215 70.8353 81.0173 70.4393L85.9201 57.779C88.2987 51.6374 85.6005 44.6958 79.6998 41.7717C77.8887 40.8746 75.9587 40.446 74.0544 40.446C69.754 40.446 65.5837 42.6288 63.1952 46.5188Z" fill="#3BC14A"/>
<path d="M68.0179 81.1295C69.891 81.9665 71.6396 81.1614 72.5636 80.0378L66.1323 76.8516C65.6518 78.5144 66.412 80.3337 68.0179 81.1295Z" fill="#3BC14A"/>
<path d="M84.7334 39.2779C84.7591 39.2316 84.7854 39.1853 84.8091 39.1378C85.6449 37.4505 84.9549 35.4054 83.2683 34.5696C81.2826 33.8451 79.4877 34.3337 78.7 36.1105C78.6763 36.1593 78.6575 36.2087 78.6362 36.2575C79.7373 36.5559 80.8102 36.96 81.8325 37.4668C82.8654 37.9785 83.8344 38.5873 84.7334 39.2779Z" fill="#3BC14A"/>
</svg>
