<svg width="600" height="298" viewBox="0 0 600 298" fill="none" xmlns="http://www.w3.org/2000/svg">
<g clip-path="url(#clip0)">
<g clip-path="url(#clip1)">
<path d="M51.75 275H47.5834C46.8934 275 46.3334 274.44 46.3334 273.75V269.583C46.3334 268.893 46.8934 268.333 47.5834 268.333H51.75C52.44 268.333 53 268.893 53 269.583V273.75C53 274.44 52.44 275 51.75 275Z" fill="#34F06F" fill-opacity="0.39"/>
<path d="M51.75 285H47.5834C46.8934 285 46.3334 284.44 46.3334 283.75V279.583C46.3334 278.893 46.8934 278.333 47.5834 278.333H51.75C52.44 278.333 53 278.893 53 279.583V283.75C53 284.44 52.44 285 51.75 285Z" fill="#34F06F" fill-opacity="0.39"/>
<path d="M40.0834 275H35.9166C35.2266 275 34.6666 274.44 34.6666 273.75V269.583C34.6666 268.893 35.2266 268.333 35.9166 268.333H40.0834C40.7734 268.333 41.3334 268.893 41.3334 269.583V273.75C41.3334 274.44 40.7734 275 40.0834 275Z" fill="#34F06F" fill-opacity="0.39"/>
<path d="M40.0834 285H35.9166C35.2266 285 34.6666 284.44 34.6666 283.75V279.583C34.6666 278.893 35.2266 278.333 35.9166 278.333H40.0834C40.7734 278.333 41.3334 278.893 41.3334 279.583V283.75C41.3334 284.44 40.7734 285 40.0834 285Z" fill="#34F06F" fill-opacity="0.39"/>
<path d="M28.4166 275H24.25C23.56 275 23 274.44 23 273.75V269.583C23 268.893 23.56 268.333 24.25 268.333H28.4166C29.1066 268.333 29.6666 268.893 29.6666 269.583V273.75C29.6666 274.44 29.1066 275 28.4166 275Z" fill="#34F06F" fill-opacity="0.39"/>
<path d="M23 255H24.6666V251.667C24.6666 250.747 25.4133 250 26.3334 250H28C28.9201 250 29.6666 250.747 29.6666 251.667V255H46.3334V251.667C46.3334 250.747 47.0799 250 48 250H49.6666C50.5867 250 51.3334 250.747 51.3334 251.667V255H53C55.7567 255 58 257.243 58 260V285C58 287.757 55.7567 290 53 290H23C20.2433 290 18 287.757 18 285V260C18 257.243 20.2433 255 23 255ZM21.3334 285C21.3334 285.918 22.0817 286.667 23 286.667H53C53.9183 286.667 54.6666 285.918 54.6666 285V266.733H21.3334V285Z" fill="#03FC51"/>
</g>
<path d="M84.1152 269.184C84.1152 270.57 83.8581 271.798 83.3438 272.865C82.8294 273.933 82.097 274.757 81.1465 275.336C80.2025 275.909 79.125 276.195 77.9141 276.195C76.7031 276.195 75.6289 275.919 74.6914 275.365C73.7539 274.805 73.0215 274.008 72.4941 272.973C71.9733 271.938 71.6999 270.749 71.6738 269.408V268.607C71.6738 267.214 71.9277 265.987 72.4355 264.926C72.9499 263.858 73.6823 263.035 74.6328 262.455C75.5898 261.876 76.6771 261.586 77.8945 261.586C79.099 261.586 80.1732 261.872 81.1172 262.445C82.0612 263.018 82.7936 263.835 83.3145 264.896C83.8418 265.951 84.1087 267.162 84.1152 268.529V269.184ZM80.6289 268.588C80.6289 267.175 80.3913 266.104 79.916 265.375C79.4473 264.639 78.7734 264.271 77.8945 264.271C76.1758 264.271 75.2676 265.561 75.1699 268.139L75.1602 269.184C75.1602 270.577 75.3913 271.648 75.8535 272.396C76.3158 273.145 77.0026 273.52 77.9141 273.52C78.7799 273.52 79.4473 273.152 79.916 272.416C80.3848 271.68 80.6224 270.622 80.6289 269.242V268.588ZM92.123 268.412L91.0391 268.334C90.0039 268.334 89.3398 268.66 89.0469 269.311V276H85.7559V265.434H88.8418L88.9492 266.791C89.5026 265.756 90.2741 265.238 91.2637 265.238C91.6152 265.238 91.9212 265.277 92.1816 265.355L92.123 268.412ZM92.7285 270.639C92.7285 269.571 92.9043 268.627 93.2559 267.807C93.6074 266.986 94.112 266.355 94.7695 265.912C95.4271 265.463 96.1921 265.238 97.0645 265.238C98.1647 265.238 99.0241 265.609 99.6426 266.352L99.7598 265.434H102.748V275.6C102.748 276.531 102.53 277.338 102.094 278.021C101.664 278.712 101.039 279.239 100.219 279.604C99.3984 279.975 98.4479 280.16 97.3672 280.16C96.5924 280.16 95.8405 280.014 95.1113 279.721C94.3887 279.428 93.8353 279.047 93.4512 278.578L94.8281 276.645C95.4401 277.367 96.2474 277.729 97.25 277.729C98.7083 277.729 99.4375 276.98 99.4375 275.482V275.15C98.806 275.847 98.0085 276.195 97.0449 276.195C95.7559 276.195 94.7142 275.704 93.9199 274.721C93.1257 273.731 92.7285 272.41 92.7285 270.756V270.639ZM96.0293 270.844C96.0293 271.71 96.1921 272.396 96.5176 272.904C96.8431 273.406 97.2988 273.656 97.8848 273.656C98.5944 273.656 99.112 273.419 99.4375 272.943V268.5C99.1185 268.018 98.6074 267.777 97.9043 267.777C97.3184 267.777 96.8594 268.041 96.5273 268.568C96.1953 269.089 96.0293 269.848 96.0293 270.844ZM110.57 276C110.453 275.785 110.349 275.469 110.258 275.053C109.652 275.814 108.806 276.195 107.719 276.195C106.723 276.195 105.876 275.896 105.18 275.297C104.483 274.691 104.135 273.933 104.135 273.021C104.135 271.876 104.558 271.01 105.404 270.424C106.251 269.838 107.481 269.545 109.096 269.545H110.111V268.988C110.111 268.018 109.691 267.533 108.852 267.533C108.07 267.533 107.68 267.917 107.68 268.686H104.389C104.389 267.663 104.822 266.833 105.688 266.195C106.56 265.557 107.67 265.238 109.018 265.238C110.365 265.238 111.43 265.567 112.211 266.225C112.992 266.882 113.393 267.784 113.412 268.93V273.607C113.425 274.577 113.575 275.32 113.861 275.834V276H110.57ZM108.51 273.852C108.92 273.852 109.258 273.764 109.525 273.588C109.799 273.412 109.994 273.214 110.111 272.992V271.303H109.154C108.008 271.303 107.436 271.817 107.436 272.846C107.436 273.145 107.536 273.389 107.738 273.578C107.94 273.76 108.197 273.852 108.51 273.852ZM118.266 265.434L118.373 266.674C119.102 265.717 120.108 265.238 121.391 265.238C122.491 265.238 123.311 265.567 123.852 266.225C124.398 266.882 124.682 267.872 124.701 269.193V276H121.4V269.33C121.4 268.796 121.293 268.406 121.078 268.158C120.863 267.904 120.473 267.777 119.906 267.777C119.262 267.777 118.783 268.031 118.471 268.539V276H115.18V265.434H118.266ZM130.004 276H126.703V265.434H130.004V276ZM126.508 262.709C126.508 262.24 126.677 261.856 127.016 261.557C127.354 261.257 127.794 261.107 128.334 261.107C128.874 261.107 129.314 261.257 129.652 261.557C129.991 261.856 130.16 262.24 130.16 262.709C130.16 263.178 129.991 263.562 129.652 263.861C129.314 264.161 128.874 264.311 128.334 264.311C127.794 264.311 127.354 264.161 127.016 263.861C126.677 263.562 126.508 263.178 126.508 262.709ZM135.922 273.461H140.736V276H131.762V274.164L136.449 267.973H131.967V265.434H140.629V267.211L135.922 273.461ZM147.289 276.195C145.668 276.195 144.356 275.714 143.354 274.75C142.351 273.78 141.85 272.52 141.85 270.971V270.697C141.85 269.617 142.048 268.663 142.445 267.836C142.849 267.009 143.435 266.371 144.203 265.922C144.971 265.466 145.883 265.238 146.938 265.238C148.422 265.238 149.594 265.701 150.453 266.625C151.312 267.543 151.742 268.826 151.742 270.473V271.752H145.199C145.316 272.344 145.574 272.81 145.971 273.148C146.368 273.487 146.882 273.656 147.514 273.656C148.555 273.656 149.369 273.292 149.955 272.562L151.459 274.34C151.049 274.906 150.466 275.359 149.711 275.697C148.962 276.029 148.155 276.195 147.289 276.195ZM146.918 267.777C145.954 267.777 145.382 268.415 145.199 269.691H148.52V269.438C148.533 268.91 148.399 268.503 148.119 268.217C147.839 267.924 147.439 267.777 146.918 267.777ZM160.639 270.434V276H158.764V261.781H164.008C165.564 261.781 166.781 262.178 167.66 262.973C168.546 263.767 168.988 264.818 168.988 266.127C168.988 267.507 168.555 268.572 167.689 269.32C166.83 270.062 165.596 270.434 163.988 270.434H160.639ZM160.639 268.9H164.008C165.01 268.9 165.779 268.666 166.312 268.197C166.846 267.722 167.113 267.038 167.113 266.146C167.113 265.3 166.846 264.623 166.312 264.115C165.779 263.607 165.046 263.344 164.115 263.324H160.639V268.9ZM175.346 276.195C173.913 276.195 172.748 275.727 171.85 274.789C170.951 273.845 170.502 272.585 170.502 271.01V270.678C170.502 269.63 170.701 268.695 171.098 267.875C171.501 267.048 172.061 266.404 172.777 265.941C173.5 265.473 174.281 265.238 175.121 265.238C176.495 265.238 177.562 265.691 178.324 266.596C179.086 267.501 179.467 268.796 179.467 270.482V271.234H172.309C172.335 272.276 172.637 273.119 173.217 273.764C173.803 274.402 174.545 274.721 175.443 274.721C176.081 274.721 176.622 274.59 177.064 274.33C177.507 274.07 177.895 273.725 178.227 273.295L179.33 274.154C178.445 275.515 177.117 276.195 175.346 276.195ZM175.121 266.723C174.392 266.723 173.78 266.99 173.285 267.523C172.79 268.051 172.484 268.793 172.367 269.75H177.66V269.613C177.608 268.695 177.361 267.986 176.918 267.484C176.475 266.977 175.876 266.723 175.121 266.723ZM187.719 273.197C187.719 272.709 187.533 272.331 187.162 272.064C186.798 271.791 186.156 271.557 185.238 271.361C184.327 271.166 183.601 270.932 183.061 270.658C182.527 270.385 182.13 270.059 181.869 269.682C181.615 269.304 181.488 268.855 181.488 268.334C181.488 267.468 181.853 266.736 182.582 266.137C183.318 265.538 184.255 265.238 185.395 265.238C186.592 265.238 187.562 265.548 188.305 266.166C189.053 266.785 189.428 267.576 189.428 268.539H187.611C187.611 268.044 187.4 267.618 186.977 267.26C186.56 266.902 186.033 266.723 185.395 266.723C184.737 266.723 184.223 266.866 183.852 267.152C183.48 267.439 183.295 267.813 183.295 268.275C183.295 268.712 183.467 269.04 183.812 269.262C184.158 269.483 184.779 269.695 185.678 269.896C186.583 270.098 187.315 270.339 187.875 270.619C188.435 270.899 188.848 271.238 189.115 271.635C189.389 272.025 189.525 272.504 189.525 273.07C189.525 274.014 189.148 274.773 188.393 275.346C187.637 275.912 186.658 276.195 185.453 276.195C184.607 276.195 183.858 276.046 183.207 275.746C182.556 275.447 182.045 275.03 181.674 274.496C181.309 273.956 181.127 273.373 181.127 272.748H182.934C182.966 273.354 183.207 273.835 183.656 274.193C184.112 274.545 184.711 274.721 185.453 274.721C186.137 274.721 186.684 274.584 187.094 274.311C187.51 274.031 187.719 273.66 187.719 273.197ZM198.031 273.197C198.031 272.709 197.846 272.331 197.475 272.064C197.11 271.791 196.469 271.557 195.551 271.361C194.639 271.166 193.913 270.932 193.373 270.658C192.839 270.385 192.442 270.059 192.182 269.682C191.928 269.304 191.801 268.855 191.801 268.334C191.801 267.468 192.165 266.736 192.895 266.137C193.63 265.538 194.568 265.238 195.707 265.238C196.905 265.238 197.875 265.548 198.617 266.166C199.366 266.785 199.74 267.576 199.74 268.539H197.924C197.924 268.044 197.712 267.618 197.289 267.26C196.872 266.902 196.345 266.723 195.707 266.723C195.049 266.723 194.535 266.866 194.164 267.152C193.793 267.439 193.607 267.813 193.607 268.275C193.607 268.712 193.78 269.04 194.125 269.262C194.47 269.483 195.092 269.695 195.99 269.896C196.895 270.098 197.628 270.339 198.188 270.619C198.747 270.899 199.161 271.238 199.428 271.635C199.701 272.025 199.838 272.504 199.838 273.07C199.838 274.014 199.46 274.773 198.705 275.346C197.95 275.912 196.97 276.195 195.766 276.195C194.919 276.195 194.171 276.046 193.52 275.746C192.868 275.447 192.357 275.03 191.986 274.496C191.622 273.956 191.439 273.373 191.439 272.748H193.246C193.279 273.354 193.52 273.835 193.969 274.193C194.424 274.545 195.023 274.721 195.766 274.721C196.449 274.721 196.996 274.584 197.406 274.311C197.823 274.031 198.031 273.66 198.031 273.197ZM201.713 270.619C201.713 269.584 201.915 268.653 202.318 267.826C202.729 266.999 203.295 266.361 204.018 265.912C204.747 265.463 205.577 265.238 206.508 265.238C207.947 265.238 209.109 265.736 209.994 266.732C210.886 267.729 211.332 269.053 211.332 270.707V270.834C211.332 271.863 211.133 272.787 210.736 273.607C210.346 274.421 209.783 275.056 209.047 275.512C208.318 275.967 207.478 276.195 206.527 276.195C205.095 276.195 203.933 275.697 203.041 274.701C202.156 273.705 201.713 272.387 201.713 270.746V270.619ZM203.529 270.834C203.529 272.006 203.799 272.947 204.34 273.656C204.887 274.366 205.616 274.721 206.527 274.721C207.445 274.721 208.174 274.363 208.715 273.646C209.255 272.924 209.525 271.915 209.525 270.619C209.525 269.46 209.249 268.523 208.695 267.807C208.148 267.084 207.419 266.723 206.508 266.723C205.616 266.723 204.896 267.077 204.35 267.787C203.803 268.497 203.529 269.512 203.529 270.834ZM220.121 276C220.017 275.792 219.932 275.421 219.867 274.887C219.027 275.759 218.025 276.195 216.859 276.195C215.818 276.195 214.962 275.902 214.291 275.316C213.627 274.724 213.295 273.975 213.295 273.07C213.295 271.97 213.712 271.117 214.545 270.512C215.385 269.9 216.563 269.594 218.08 269.594H219.838V268.764C219.838 268.132 219.649 267.631 219.271 267.26C218.894 266.882 218.337 266.693 217.602 266.693C216.957 266.693 216.417 266.856 215.98 267.182C215.544 267.507 215.326 267.901 215.326 268.363H213.51C213.51 267.836 213.695 267.328 214.066 266.84C214.444 266.345 214.952 265.954 215.59 265.668C216.234 265.382 216.941 265.238 217.709 265.238C218.926 265.238 219.88 265.544 220.57 266.156C221.26 266.762 221.618 267.598 221.645 268.666V273.529C221.645 274.499 221.768 275.271 222.016 275.844V276H220.121ZM217.123 274.623C217.689 274.623 218.227 274.477 218.734 274.184C219.242 273.891 219.61 273.51 219.838 273.041V270.873H218.422C216.208 270.873 215.102 271.521 215.102 272.816C215.102 273.383 215.29 273.826 215.668 274.145C216.046 274.464 216.531 274.623 217.123 274.623ZM226.439 276H224.633V261H226.439V276Z" fill="#03FC51"/>
<g clip-path="url(#clip2)">
<path d="M600 0V332H493.22C491.71 332 490.2 331.99 488.69 331.97L487.61 331.955C486.385 331.94 485.16 331.915 483.935 331.88C480.185 331.79 476.442 331.646 472.705 331.449C410.25 328.204 349.435 310.112 294.78 279.241C164.395 205.585 0 238.434 0 238.434V0H600Z" fill="#34F06F"/>
<path opacity="0.1" d="M126.18 0L94.135 22.0332L58.52 46.5201L54.7 49.149L25.5 69.2243L0 86.7557V41.3423L11.5 33.4354L13.945 31.7528L25.5 23.8109L28.08 22.0332L60.13 0H126.18Z" fill="black"/>
<path opacity="0.1" d="M212.5 0L162 34.7223L113.52 68.0525L109.7 70.6814L106.165 73.1101L0 146.1V100.682L40.11 73.1101L66.5 54.9678L68.945 53.2853L114.4 22.0332L146.45 0H212.5Z" fill="black"/>
<path d="M574 167.252H389V43.5657H574V167.252ZM390 166.25H573V44.5672H390V166.25Z" fill="white"/>
<path d="M452 95.644H430V153.732H452V95.644Z" fill="#3F3D56"/>
<path d="M492.5 118.178H470.5V153.732H492.5V118.178Z" fill="#3F3D56"/>
<path d="M533 71.6079H511V153.732H533V71.6079Z" fill="#3F3D56"/>
<path d="M481.5 106.661C487.575 106.661 492.5 101.728 492.5 95.644C492.5 89.5597 487.575 84.6274 481.5 84.6274C475.425 84.6274 470.5 89.5597 470.5 95.644C470.5 101.728 475.425 106.661 481.5 106.661Z" fill="#3F3D56"/>
<path d="M162.5 73.6109H25V21.5325H162.5V73.6109ZM26 72.6094H161.5V22.534H26V72.6094Z" fill="white"/>
<path d="M315 160.742H240V124.187H315V160.742ZM241 159.741H314V125.189H241V159.741Z" fill="white"/>
<path d="M80.75 36.3047L106.75 47.822L80.75 58.8386V36.3047Z" fill="#3F3D56"/>
<path d="M260.5 147.973C263.538 147.973 266 145.507 266 142.465C266 139.422 263.538 136.956 260.5 136.956C257.462 136.956 255 139.422 255 142.465C255 145.507 257.462 147.973 260.5 147.973Z" fill="#3F3D56"/>
<path d="M277.5 147.973C280.538 147.973 283 145.507 283 142.465C283 139.422 280.538 136.956 277.5 136.956C274.462 136.956 272 139.422 272 142.465C272 145.507 274.462 147.973 277.5 147.973Z" fill="#3F3D56"/>
<path d="M294.5 147.973C297.538 147.973 300 145.507 300 142.465C300 139.422 297.538 136.956 294.5 136.956C291.462 136.956 289 139.422 289 142.465C289 145.507 291.462 147.973 294.5 147.973Z" fill="#3F3D56"/>
<path d="M276.628 84.558L271.529 91.0895C263.399 79.5373 253.665 70.1726 242.565 63.2507C233.244 57.4531 222.981 53.3335 212.242 51.078C193.724 47.1433 179.443 49.7973 179.301 49.8243L179.644 51.6191C179.783 51.5924 193.702 49.0066 211.863 52.8655C228.312 56.3606 251.602 66.0176 269.969 92.0484L261.927 93.7905C266.988 95.3229 273.182 99.0322 277.563 102.405C276.438 96.9874 275.802 89.7876 276.628 84.558Z" fill="white"/>
<path d="M415.372 193.92C415.261 194.009 404.09 202.819 386.204 207.862C370.037 212.421 344.963 214.716 316.639 200.259L322.945 194.969C317.754 195.973 310.548 195.578 305.103 194.635C308.617 198.906 312.527 204.981 314.227 209.995L315.704 201.835C328.27 208.268 341.238 212.017 354.279 212.967C356.516 213.13 358.756 213.212 360.998 213.211C369.715 213.201 378.389 211.986 386.774 209.6C404.991 204.447 416.396 195.439 416.51 195.349L415.372 193.92Z" fill="white"/>
<path d="M139.128 181.402C139.239 181.49 150.41 190.3 168.296 195.343C184.463 199.903 209.537 202.197 237.861 187.74L231.555 182.451C236.746 183.454 243.952 183.06 249.397 182.116C245.883 186.388 241.973 192.463 240.273 197.476L238.796 189.317C226.23 195.749 213.262 199.498 200.221 200.448C197.984 200.611 195.744 200.693 193.502 200.692C184.785 200.683 176.111 199.467 167.726 197.081C149.509 191.928 138.104 182.92 137.99 182.83L139.128 181.402Z" fill="white"/>
<path d="M113.75 204.664H36.75V127.548H113.75V204.664ZM37.8195 203.593H112.681V128.619H37.8195V203.593Z" fill="white"/>
<path d="M98.7778 151.938H51.7222V156.237H98.7778V151.938Z" fill="#3F3D56"/>
<path d="M98.7778 163.957H51.7222V168.255H98.7778V163.957Z" fill="#3F3D56"/>
<path d="M98.7778 175.975H51.7222V180.273H98.7778V175.975Z" fill="#3F3D56"/>
<path d="M342.948 55.1504C342.948 53.9619 343.3 52.8001 343.959 51.812C344.618 50.8238 345.556 50.0536 346.652 49.5988C347.748 49.144 348.955 49.025 350.119 49.2568C351.282 49.4887 352.352 50.061 353.191 50.9014C354.03 51.7418 354.601 52.8125 354.833 53.9781C355.064 55.1437 354.945 56.352 354.491 57.45C354.037 58.548 353.268 59.4865 352.281 60.1467C351.295 60.807 350.135 61.1595 348.948 61.1595C347.357 61.1577 345.832 60.524 344.707 59.3975C343.582 58.2709 342.95 56.7436 342.948 55.1504ZM343.948 55.1504C343.948 56.1408 344.241 57.109 344.791 57.9324C345.34 58.7559 346.121 59.3978 347.035 59.7768C347.948 60.1558 348.954 60.2549 349.923 60.0617C350.893 59.8685 351.784 59.3916 352.484 58.6913C353.183 57.991 353.659 57.0987 353.852 56.1273C354.045 55.156 353.946 54.1491 353.567 53.2341C353.189 52.3191 352.548 51.537 351.726 50.9868C350.904 50.4366 349.937 50.1429 348.948 50.1429C347.622 50.1444 346.351 50.6725 345.414 51.6112C344.477 52.55 343.95 53.8228 343.948 55.1504Z" fill="#3F3D56"/>
<path d="M412.791 275.851L403.959 266.368L413.428 257.523L422.26 267.006L412.791 275.851ZM405.366 266.417L412.84 274.442L420.852 266.957L413.379 258.933L405.366 266.417Z" fill="#3F3D56"/>
<path d="M178.791 111.604L169.959 102.121L179.428 93.2756L188.26 102.759L178.791 111.604ZM171.366 102.17L178.84 110.194L186.852 102.71L179.379 94.6855L171.366 102.17Z" fill="#3F3D56"/>
<path d="M502.016 225.509C520.502 225.509 535.488 210.5 535.488 191.986C535.488 173.472 520.502 158.464 502.016 158.464C483.53 158.464 468.544 173.472 468.544 191.986C468.544 210.5 483.53 225.509 502.016 225.509Z" fill="#2F2E41"/>
<path d="M496.056 226.298C508.203 226.298 518.051 216.436 518.051 204.27C518.051 192.104 508.203 182.242 496.056 182.242C483.908 182.242 474.061 192.104 474.061 204.27C474.061 216.436 483.908 226.298 496.056 226.298Z" fill="#A0616A"/>
<path d="M496.056 223.979C496.056 223.979 503.773 243.689 497.599 247.167C491.425 250.645 488.338 251.031 488.338 251.031L481.778 262.239L477.919 273.832L508.79 274.992L530.399 240.597C530.399 240.597 519.98 235.187 514.578 211.999L496.056 223.979Z" fill="#A0616A"/>
<path d="M536.38 241.177C536.38 241.177 532.455 238.594 528.822 239.499C527.046 239.889 525.313 240.451 523.646 241.177C523.646 241.177 503.58 268.615 492.776 269.388C492.776 269.388 478.498 273.253 481.971 267.456C485.444 261.659 493.054 249.458 493.054 249.458C493.054 249.458 479.27 252.77 479.27 257.408C479.27 262.046 476.569 270.548 476.569 270.548C476.569 270.548 463.449 283.687 476.569 299.146C489.689 314.604 484.672 328.516 484.672 328.516L542.554 318.082L536.38 241.177Z" fill="#D0CDE1"/>
<path d="M483.935 331.88C480.185 331.79 476.442 331.646 472.705 331.449L474.945 297.057L475.41 289.872L485.83 309.581C485.83 309.581 486.76 316.467 487.985 326.276C488.055 326.802 488.12 327.333 488.19 327.879C488.35 329.201 488.52 330.568 488.69 331.97L487.61 331.955C486.385 331.94 485.16 331.915 483.935 331.88Z" fill="#D0CDE1"/>
<path d="M515.885 175.374C523.534 175.374 529.735 169.164 529.735 161.503C529.735 153.842 523.534 147.631 515.885 147.631C508.235 147.631 502.034 153.842 502.034 161.503C502.034 169.164 508.235 175.374 515.885 175.374Z" fill="#2F2E41"/>
<path d="M497.417 153.989C497.417 150.56 498.686 147.253 500.977 144.705C503.268 142.158 506.42 140.55 509.825 140.193C509.346 140.143 508.864 140.118 508.382 140.118C504.709 140.118 501.186 141.579 498.588 144.181C495.991 146.782 494.532 150.31 494.532 153.989C494.532 157.668 495.991 161.196 498.588 163.798C501.186 166.399 504.709 167.861 508.382 167.861C508.864 167.86 509.346 167.835 509.825 167.786C506.42 167.428 503.268 165.82 500.977 163.273C498.686 160.725 497.417 157.418 497.417 153.989Z" fill="#2F2E41"/>
<path d="M520.656 197.81C522.621 190.406 514.225 181.745 501.904 178.466C489.582 175.187 478.001 178.531 476.037 185.935C474.072 193.339 482.468 201.999 494.789 205.278C507.111 208.557 518.692 205.214 520.656 197.81Z" fill="#2F2E41"/>
<path d="M541.62 306.416C541.17 311.013 540.745 314.969 540.425 317.829C540.395 318.054 540.375 318.269 540.35 318.48C540.045 321.159 539.855 322.721 539.855 322.721L535.27 332H510.83C512.24 328.775 513.57 325.766 514.76 323.092C514.99 322.586 515.21 322.09 515.425 321.609C518.1 315.665 519.98 311.699 520.365 311.319C521.91 309.772 526.735 243.497 526.735 243.497C526.735 243.497 530.475 240.287 534.575 240.242H534.58C537.445 240.207 540.49 241.724 542.555 246.972C545.925 255.545 543.545 286.837 541.62 306.416Z" fill="#D0CDE1"/>
<path d="M519.594 206.975C520.66 206.975 521.523 205.245 521.523 203.11C521.523 200.976 520.66 199.246 519.594 199.246C518.529 199.246 517.665 200.976 517.665 203.11C517.665 205.245 518.529 206.975 519.594 206.975Z" fill="#A0616A"/>
</g>
</g>
<defs>
<clipPath id="clip0">
<rect width="600" height="298" fill="white"/>
</clipPath>
<clipPath id="clip1">
<rect width="40" height="40" fill="white" transform="matrix(-1 0 0 1 58 250)"/>
</clipPath>
<clipPath id="clip2">
<rect width="600" height="332" fill="white"/>
</clipPath>
</defs>
</svg>
