<svg width="592" height="395" viewBox="0 0 592 395" fill="none" xmlns="http://www.w3.org/2000/svg">
<g clip-path="url(#clip0)">
<path d="M425.957 63.5144C603.246 -24.8776 403.781 479.408 340.018 348.943C255.025 221.754 156.789 404.058 112.909 328.056C69.0299 252.054 223.166 232.799 199.705 83.2277C214.576 -105.05 315.756 106.265 425.957 63.5144Z" fill="#E9FAF4"/>
<path d="M456.551 357.223C456.187 360.285 438.679 360.722 417.446 358.198C396.213 355.675 379.295 351.146 379.659 348.083C380.024 345.02 389.438 343.83 410.671 346.354C434.644 346.55 456.915 354.16 456.551 357.223Z" fill="#D6D6D6"/>
<g clip-path="url(#clip1)">
<path d="M9.74602 181.923C9.79022 182.999 9.94291 183.921 10.13 184.798C10.3099 185.676 10.5488 186.478 10.8024 187.255C11.3261 188.79 11.9704 190.151 12.7164 191.371C14.2032 193.811 16.065 195.721 18.2107 197.226C20.3578 198.729 22.7839 199.837 25.5842 200.413C26.9835 200.705 28.4791 200.856 30.0971 200.832C30.9155 200.809 31.7446 200.767 32.6349 200.641C33.3165 200.551 34.0191 200.43 34.7722 200.236C34.8873 200.36 35.0133 200.482 35.1455 200.598C35.1455 200.598 39.174 204.777 39.8236 207.02C40.466 209.265 40.7737 205.077 41.8336 205.494C42.6592 205.817 38.3063 202.02 35.4457 199.795C35.4447 199.791 35.4438 199.788 35.4465 199.783C27.0241 192.622 15.1306 185.426 15.1306 185.426C15.1306 185.426 31.9428 192.556 35.1834 197.715C35.1483 197.536 35.1113 197.356 35.0754 197.181C34.895 196.3 34.6548 195.501 34.3976 194.725C33.8748 193.193 33.2251 191.833 32.4831 190.615C30.9991 188.171 29.1386 186.258 26.9996 184.741C24.8587 183.225 22.4344 182.116 19.6372 181.538C18.2411 181.244 16.7432 181.099 15.1211 181.121C14.3041 181.143 13.4719 181.188 12.5807 181.317C11.6917 181.432 10.7743 181.602 9.74602 181.923Z" fill="#84E8C6"/>
</g>
<ellipse rx="16.3666" ry="3.9838" transform="matrix(0.989138 0.146987 -0.146781 0.989169 25.4191 209.75)" fill="#E9FAF4"/>
<g clip-path="url(#clip2)">
<path d="M112.442 226.623C112.506 228.191 112.729 229.534 113.001 230.812C113.263 232.092 113.611 233.26 113.981 234.391C114.744 236.628 115.682 238.611 116.769 240.388C118.935 243.942 121.648 246.726 124.774 248.918C127.902 251.108 131.436 252.723 135.516 253.561C137.555 253.986 139.734 254.206 142.091 254.172C143.283 254.137 144.491 254.076 145.788 253.894C146.781 253.762 147.805 253.586 148.902 253.303C149.07 253.484 149.253 253.662 149.446 253.831C149.446 253.831 155.315 259.92 156.261 263.187C157.197 266.458 157.645 260.356 159.189 260.963C160.392 261.434 154.051 255.903 149.883 252.661C149.882 252.655 149.88 252.65 149.884 252.644C137.614 242.211 120.287 231.727 120.287 231.727C120.287 231.727 144.78 242.115 149.501 249.631C149.45 249.369 149.396 249.108 149.344 248.852C149.081 247.569 148.731 246.405 148.356 245.275C147.594 243.043 146.648 241.062 145.567 239.287C143.405 235.725 140.694 232.939 137.578 230.729C134.459 228.521 130.927 226.905 126.852 226.063C124.818 225.634 122.636 225.423 120.273 225.456C119.082 225.487 117.87 225.552 116.572 225.741C115.276 225.909 113.94 226.155 112.442 226.623Z" fill="#84E8C6"/>
</g>
<ellipse rx="25.116" ry="6.11349" transform="matrix(0.989138 0.146987 -0.146781 0.989169 134.587 265.874)" fill="#E9FAF4"/>
<g clip-path="url(#clip3)">
<path d="M85.5997 347.745C85.6428 348.794 85.7917 349.694 85.9742 350.549C86.1497 351.406 86.3827 352.188 86.6301 352.945C87.141 354.443 87.7694 355.771 88.4971 356.96C89.9473 359.34 91.7634 361.204 93.8564 362.672C95.9508 364.138 98.3173 365.219 101.049 365.781C102.414 366.065 103.873 366.213 105.451 366.19C106.249 366.167 107.058 366.126 107.926 366.003C108.591 365.915 109.277 365.797 110.011 365.608C110.123 365.729 110.246 365.848 110.375 365.961C110.375 365.961 114.305 370.038 114.938 372.226C115.565 374.415 115.865 370.33 116.899 370.736C117.704 371.052 113.458 367.349 110.668 365.178C110.667 365.174 110.666 365.171 110.669 365.166C102.453 358.181 90.852 351.162 90.852 351.162C90.852 351.162 107.251 358.117 110.412 363.149C110.378 362.974 110.342 362.799 110.307 362.628C110.131 361.769 109.897 360.989 109.646 360.232C109.136 358.738 108.502 357.412 107.778 356.223C106.331 353.839 104.516 351.973 102.429 350.494C100.341 349.015 97.9763 347.933 95.2479 347.369C93.8861 347.082 92.425 346.941 90.8428 346.963C90.0458 346.984 89.234 347.028 88.3648 347.154C87.4976 347.266 86.6027 347.431 85.5997 347.745Z" fill="#84E8C6"/>
</g>
<ellipse rx="16.3754" ry="3.98594" transform="matrix(0.989138 0.146987 -0.146781 0.989169 101.522 374.981)" fill="#E9FAF4"/>
<g clip-path="url(#clip4)">
<path d="M554.81 305.362C554.852 306.384 554.997 307.26 555.175 308.093C555.346 308.927 555.573 309.689 555.814 310.426C556.311 311.885 556.923 313.178 557.632 314.336C559.044 316.653 560.812 318.467 562.85 319.897C564.889 321.324 567.193 322.377 569.853 322.924C571.182 323.201 572.602 323.344 574.139 323.322C574.916 323.299 575.704 323.26 576.549 323.14C577.197 323.055 577.864 322.94 578.579 322.756C578.689 322.874 578.808 322.989 578.934 323.099C578.934 323.099 582.76 327.069 583.377 329.199C583.987 331.331 584.279 327.353 585.286 327.749C586.07 328.056 581.936 324.45 579.219 322.337C579.218 322.333 579.217 322.33 579.22 322.326C571.22 315.524 559.924 308.69 559.924 308.69C559.924 308.69 575.892 315.462 578.97 320.362C578.937 320.191 578.901 320.021 578.867 319.854C578.696 319.017 578.468 318.258 578.224 317.522C577.727 316.067 577.11 314.775 576.405 313.618C574.996 311.296 573.229 309.48 571.197 308.039C569.164 306.599 566.861 305.546 564.205 304.997C562.879 304.717 561.456 304.58 559.916 304.601C559.139 304.622 558.349 304.664 557.503 304.787C556.658 304.897 555.787 305.057 554.81 305.362Z" fill="#84E8C6"/>
</g>
<ellipse rx="15.9445" ry="3.88104" transform="matrix(0.989138 0.146987 -0.146781 0.989169 570.313 331.882)" fill="#E9FAF4"/>
<g clip-path="url(#clip5)">
<path d="M513.661 71.3888C513.721 72.8309 513.925 74.0671 514.176 75.2423C514.417 76.42 514.737 77.4944 515.077 78.5353C515.779 80.5933 516.643 82.418 517.643 84.0522C519.635 87.3225 522.131 89.8833 525.007 91.9008C527.885 93.9151 531.137 95.4007 534.89 96.172C536.765 96.5631 538.77 96.7656 540.939 96.7342C542.036 96.7024 543.147 96.6461 544.34 96.4781C545.254 96.3569 546.196 96.1948 547.205 95.935C547.359 96.1016 547.528 96.2645 547.705 96.42C547.705 96.42 553.105 102.022 553.976 105.028C554.837 108.037 555.249 102.423 556.67 102.982C557.776 103.415 551.942 98.3267 548.108 95.3438C548.106 95.3389 548.105 95.3341 548.109 95.328C536.82 85.7294 520.878 76.0843 520.878 76.0843C520.878 76.0843 543.413 85.6412 547.756 92.5565C547.709 92.3155 547.66 92.0751 547.611 91.8396C547.37 90.6595 547.048 89.5881 546.703 88.5484C546.002 86.4953 545.131 84.6725 544.137 83.0394C542.148 79.763 539.654 77.1992 536.787 75.1665C533.917 73.1344 530.668 71.6482 526.919 70.8733C525.048 70.4785 523.04 70.2845 520.866 70.3147C519.771 70.3435 518.655 70.4035 517.461 70.577C516.269 70.7317 515.039 70.9583 513.661 71.3888Z" fill="#84E8C6"/>
</g>
<ellipse rx="21.7417" ry="5.29213" transform="matrix(0.989138 0.146987 -0.146781 0.989169 535.456 108.214)" fill="#E9FAF4"/>
<g clip-path="url(#clip6)">
<path d="M399.875 332.363C399.875 332.363 399.875 332.363 399.875 334.037C399.875 335.711 411.037 337.386 413.269 337.386C415.502 337.386 418.85 336.827 421.082 335.711C423.873 334.595 426.663 335.153 426.663 335.153L427.222 336.269L438.383 335.711L437.825 331.246L399.875 332.363Z" fill="#425A6B"/>
<path d="M399.875 332.363C399.875 332.363 404.339 334.595 407.13 335.153C410.479 335.711 415.502 336.269 418.85 335.153C422.199 334.037 425.547 334.037 427.222 334.037C429.454 334.037 437.826 332.363 437.826 332.363V325.107L417.734 323.433C417.734 323.433 412.153 329.572 407.13 329.572C402.107 329.572 399.875 330.131 399.875 332.363Z" fill="#344A5E"/>
<path d="M454.569 339.618C455.127 339.618 455.127 340.176 455.127 340.734C454.569 342.408 452.894 345.199 452.894 345.199V345.757C452.336 347.431 451.22 349.106 449.546 350.222C447.871 351.338 437.267 351.338 436.151 349.663C435.035 347.989 435.593 346.873 435.593 346.873L438.942 344.64L451.22 337.385L453.453 338.501H454.011L454.569 339.618Z" fill="#425A6B"/>
<path d="M452.336 333.479C452.336 333.479 453.452 337.386 453.452 338.502C453.452 338.502 454.568 340.735 452.336 342.967C450.104 345.199 451.22 345.757 450.103 346.315C448.987 346.874 443.406 351.338 434.477 346.874C434.477 346.874 435.035 344.641 436.151 342.967C437.267 341.292 441.732 337.386 440.616 332.363C439.499 327.34 449.545 329.014 449.545 329.014L452.336 333.479Z" fill="#344A5E"/>
<path d="M417.734 323.433C417.734 323.433 422.199 326.782 426.106 327.898C430.013 329.014 438.384 327.898 439.5 326.782L433.919 273.763L435.593 239.719L426.106 200.094L408.247 196.187C408.247 196.187 403.224 209.582 406.014 216.837C408.805 224.093 414.386 247.533 414.944 254.23C415.502 257.578 416.06 264.834 417.176 272.647C418.851 284.925 420.525 297.761 421.083 310.04C421.083 312.272 421.642 314.504 422.199 316.178C421.641 316.736 422.199 319.527 417.734 323.433Z" fill="#425A6B"/>
<path d="M409.921 203.442C409.921 203.442 409.362 205.116 408.805 206.233C408.805 206.233 409.363 207.907 409.921 207.907C410.479 208.465 412.153 210.697 412.711 211.814C412.711 213.488 411.037 213.488 411.037 212.93C410.478 212.93 407.688 209.023 407.688 209.023C407.688 209.023 405.455 210.697 404.898 212.93C404.898 212.93 404.898 209.581 404.898 208.465C404.898 208.465 403.782 204 404.339 202.326L409.921 203.442Z" fill="#FABEBE"/>
<path d="M438.942 326.224C438.942 326.782 438.383 326.782 438.383 327.34C437.267 327.898 433.919 328.456 431.128 328.456V327.897C432.244 320.642 427.779 302.783 426.105 297.202C424.431 292.179 423.315 281.575 423.873 274.32C424.431 267.623 424.989 262.6 424.431 254.787C423.315 246.974 423.315 225.766 423.315 225.766L432.802 231.347L434.477 239.16L432.802 273.204L438.942 326.224Z" fill="#344A5E"/>
<path d="M438.942 133.122C438.942 133.122 435.035 132.006 435.035 130.89C435.035 129.773 437.267 128.099 438.383 127.541C439.499 126.983 442.848 120.286 443.406 117.495C443.965 115.263 450.662 116.937 452.894 119.728C455.126 122.519 455.684 124.751 459.033 126.425C461.823 128.099 466.288 129.215 468.52 133.122C470.753 137.029 474.659 147.075 475.776 149.865C476.892 152.655 479.124 160.469 479.124 166.608C478.566 172.747 474.101 204.001 472.985 207.349C471.869 210.698 466.846 225.766 461.265 222.976C456.242 220.186 454.568 219.069 454.568 219.069L440.058 144.842L454.01 133.122H438.942Z" fill="#344A5E"/>
<path d="M454.01 195.629C454.01 195.629 458.475 207.349 455.685 222.418C452.336 238.045 451.22 269.298 451.778 272.646C452.894 275.995 455.126 307.248 454.568 313.945C454.568 321.201 454.568 320.643 456.242 323.991C457.917 327.34 452.336 335.711 452.336 335.711C452.336 335.711 450.661 332.921 446.197 333.479C441.732 333.479 437.267 334.037 437.267 331.246C437.267 328.456 438.941 321.2 437.267 317.293C435.593 313.945 432.244 295.528 432.802 279.901C433.361 264.274 431.686 248.089 430.57 243.066C429.454 238.044 422.757 225.208 422.757 225.208V197.303C422.757 197.303 450.662 196.745 454.01 195.629Z" fill="#425A6B"/>
<path d="M407.689 134.239C407.689 134.239 405.456 144.284 404.34 148.749C403.224 153.214 399.875 167.166 400.433 169.956C400.991 172.747 403.782 185.583 403.223 188.932C402.107 192.281 402.107 205.675 403.223 207.907C403.223 207.907 403.782 204.559 406.572 204.559C409.362 204.559 410.479 204.559 411.037 205.117L412.711 188.374L415.501 156.563L407.689 134.239Z" fill="#E8EAE8"/>
<path d="M431.129 89.0329L440.058 90.1489L442.849 94.6135C442.849 94.6135 443.407 107.45 441.174 113.589L442.29 126.425L422.757 132.006L425.547 120.844V116.38C425.547 116.38 422.199 109.124 421.083 103.544C420.525 99.0786 419.409 86.8003 431.129 89.0329Z" fill="#FABEBE"/>
<path d="M441.732 114.147C441.732 114.147 439.499 119.728 432.802 121.96C428.338 123.635 425.547 125.309 423.873 126.983L425.547 121.402V116.938C425.547 116.938 427.779 119.17 431.686 120.286C436.709 120.844 441.732 114.147 441.732 114.147Z" fill="#DEA0A0"/>
<path d="M423.315 106.334C423.873 108.008 423.315 109.682 422.199 110.24C421.083 110.24 419.966 108.566 419.966 106.892C419.408 105.218 419.966 103.543 421.082 102.985C422.199 102.985 423.315 104.102 423.315 106.334Z" fill="#FABEBE"/>
<path d="M422.199 107.45C422.199 107.45 421.083 101.869 421.641 99.0787C422.199 96.2884 422.199 95.7301 422.757 95.1719C422.757 94.6136 424.989 91.8233 428.895 91.265C432.802 90.7067 437.825 90.7067 439.499 91.8233C440.615 92.3816 442.29 94.6136 441.732 96.2879C441.732 96.8462 441.732 97.4039 442.29 97.9622C442.849 98.5204 442.849 101.311 442.849 102.985C442.849 105.775 443.965 107.45 443.965 107.45L446.197 102.985C446.197 102.985 448.987 87.9164 440.058 88.4747C440.058 88.4747 435.594 80.6615 426.664 85.6844C416.618 90.149 418.85 99.6365 422.199 107.45Z" fill="#344A5E"/>
<path d="M446.197 104.102C446.197 106.334 445.081 107.45 443.965 107.45C442.848 107.45 442.29 105.776 442.29 103.543C442.29 101.311 443.406 100.195 444.523 100.195C445.639 100.195 446.755 102.427 446.197 104.102Z" fill="#FABEBE"/>
<path d="M426.106 123.635C426.106 123.635 418.85 126.983 414.944 128.099C411.037 129.774 409.363 130.89 407.688 133.68C407.688 133.68 408.804 148.191 409.363 151.539C410.479 154.888 411.595 159.911 411.595 162.701C412.154 165.491 412.711 173.863 411.595 177.77C410.479 181.677 410.479 190.048 411.037 194.513L415.502 197.303C415.502 197.303 438.383 195.629 442.849 195.07C447.314 194.512 454.01 191.722 454.569 186.699C455.127 181.676 452.336 177.211 452.336 177.211C452.336 177.211 451.778 158.794 451.778 154.887C451.778 150.98 454.01 135.354 462.382 133.122C462.382 133.122 457.917 128.099 454.01 126.983C450.103 125.867 442.29 118.053 442.29 118.053C439.5 122.518 435.035 125.308 430.012 126.983L426.106 123.635Z" fill="#ACB2BA"/>
<path d="M411.595 194.513C411.595 194.513 431.128 200.652 454.01 189.49V195.629C454.01 195.629 438.383 202.326 427.222 201.768C416.06 201.768 411.595 198.978 411.595 198.978V194.513Z" fill="#CED6E0"/>
<path d="M470.195 178.886C467.962 184.467 461.824 182.793 461.824 182.793C461.265 182.793 448.987 173.863 436.709 158.795C436.709 158.795 443.965 153.772 443.965 149.865C443.965 149.865 450.103 156.004 451.778 157.678L456.801 162.143L453.452 148.19C454.568 142.051 457.359 134.796 462.94 133.122C462.94 133.122 467.404 133.68 469.078 150.98C470.195 167.724 472.428 173.305 470.195 178.886Z" fill="#E8EAE8"/>
<path d="M456.243 162.143C456.801 162.702 457.359 162.702 457.917 162.702C458.475 162.702 459.033 163.26 459.591 163.26C460.15 163.26 460.15 163.26 460.708 163.26C461.266 163.26 461.266 163.26 461.824 163.818C462.94 164.376 464.056 165.492 464.614 166.051C465.172 166.609 465.73 167.167 465.73 167.167C465.73 167.167 465.73 167.167 465.172 167.167C465.172 167.167 464.613 166.608 464.056 166.608C463.498 166.608 462.94 166.05 462.94 165.492C462.381 164.934 461.824 164.934 461.265 164.376C460.707 164.376 460.707 163.818 460.707 163.818C460.707 163.818 460.149 163.818 459.591 163.26C459.033 163.26 458.475 162.702 457.917 162.702C456.801 162.143 456.243 162.143 456.243 162.143Z" fill="#BFC2BF"/>
<path d="M430.012 126.983L436.709 135.355L445.081 120.844L442.29 118.054C439.5 120.844 435.035 124.193 430.012 126.983Z" fill="#E8EAE8"/>
<path d="M426.106 120.844L430.013 126.983L422.757 133.68C422.757 129.216 423.873 125.309 426.106 120.844Z" fill="#E8EAE8"/>
<path d="M445.081 129.216L455.685 129.774C459.033 129.216 462.94 130.332 466.289 138.146C466.847 139.262 469.637 137.03 470.195 137.587C469.637 135.913 468.521 134.239 467.963 133.123C465.73 129.216 461.266 127.542 457.917 126.426C454.569 124.751 454.01 121.961 451.778 119.728C449.546 116.938 442.849 115.264 442.291 117.496C441.733 119.728 438.384 126.426 437.268 127.542C436.152 128.1 433.919 129.774 433.919 130.89C433.919 132.006 437.826 133.123 437.826 133.123H440.617C441.732 130.89 443.406 129.216 445.081 129.216Z" fill="#425A6B"/>
<path d="M449.546 128.099C446.755 128.099 443.965 128.658 441.174 129.774C440.058 130.332 439.5 130.89 438.942 131.448C437.267 133.68 444.523 133.122 447.313 132.564C449.546 131.448 455.685 129.215 457.917 129.215C460.708 129.215 465.173 136.471 465.73 136.471C465.73 136.471 464.614 128.099 456.801 127.541C455.126 128.099 451.778 128.658 449.546 128.099Z" fill="#344A5E"/>
<path d="M442.849 145.959C442.849 145.959 442.29 147.633 443.407 149.866C444.523 151.54 443.965 154.33 443.965 154.33L438.384 157.12L435.035 150.982C435.035 150.982 432.803 147.633 433.919 143.726C435.035 139.819 435.035 139.819 435.035 139.819C435.035 139.819 433.919 139.261 433.919 138.703C433.919 138.703 432.803 143.168 430.013 140.936L430.571 139.262C430.571 138.703 431.129 138.146 431.129 138.146L433.362 135.913C433.362 135.913 434.478 135.355 434.478 135.913L435.036 134.797C435.036 133.681 436.152 133.681 436.71 134.239L440.059 136.471L438.943 132.007C439.501 131.448 439.501 130.891 440.617 130.891C441.175 130.891 441.733 130.891 441.733 130.891C441.733 130.891 442.849 130.891 443.407 132.007C443.966 132.565 445.082 136.471 445.64 137.588C445.64 138.146 445.64 138.704 445.64 139.262L442.849 145.959Z" fill="#FABEBE"/>
<path d="M433.919 135.355C433.919 135.355 434.477 135.355 433.919 135.355C435.035 135.913 435.035 135.913 435.593 136.471C436.151 136.471 436.151 137.029 436.709 137.029C437.267 137.029 437.267 137.587 437.267 137.587C437.267 137.587 437.267 137.587 436.709 137.587C436.151 137.587 436.151 137.029 435.593 137.029C435.035 136.471 435.035 135.913 433.919 135.355C433.919 135.355 434.477 135.913 433.919 135.355Z" fill="#F5B54C"/>
<path d="M441.732 130.89C441.732 130.89 441.732 131.448 442.29 132.006C442.29 132.564 442.849 133.68 443.406 134.239C443.406 134.797 443.965 135.355 443.965 135.355C443.965 135.913 443.965 135.913 444.523 136.471C444.523 137.029 444.523 137.587 444.523 137.587C444.523 137.587 444.523 137.028 443.965 136.471C443.965 135.912 443.406 134.796 443.406 134.238C442.848 133.122 442.848 132.564 442.848 132.006C441.732 131.448 441.732 130.89 441.732 130.89Z" fill="#F5B54C"/>
</g>
<ellipse cx="272.764" cy="306.141" rx="99.2605" ry="15.5" transform="rotate(-2.10842 272.764 306.141)" fill="#D6E9E2"/>
<g filter="url(#filter0_i)">
<path d="M354.003 211.844L389.824 191.314L375.225 302.073L374.288 301.95L304.506 240.341L354.003 211.844Z" fill="#DCDFEE"/>
</g>
<path d="M389.885 190.845L389.824 191.313L354.003 211.844L360.207 164.777L361.144 164.901L389.885 190.845Z" fill="#C6C8D5"/>
<g filter="url(#filter1_i)">
<path d="M374.288 301.95L181.805 276.579L264.372 235.766L264.933 235.124L282.83 252.969L304.506 240.341L374.288 301.95Z" fill="#E3E5F1"/>
</g>
<path d="M231.041 147.038L235.362 114.255L364.62 131.292L360.207 164.777L354.003 211.844L304.506 240.341L282.83 252.969L264.933 235.124L224.744 194.807L231.041 147.038Z" fill="#39D39F"/>
<g filter="url(#filter2_i)">
<path d="M224.744 194.807L264.933 235.124L264.371 235.766L181.805 276.579L180.868 276.455L195.467 165.696L224.744 194.807Z" fill="#DCDFEE"/>
</g>
<path d="M231.04 147.038L224.744 194.807L195.467 165.696L195.529 165.227L231.04 147.038Z" fill="#C6C8D5"/>
<path d="M279.094 154.801L258.019 152.023C255.433 151.682 253.612 149.309 253.953 146.722C254.294 144.136 256.667 142.315 259.254 142.656L280.329 145.434C282.915 145.775 284.736 148.148 284.395 150.735C284.054 153.321 281.681 155.142 279.094 154.801Z" fill="#ACB2BA"/>
<path d="M330.173 182.975L255.241 173.098C252.654 172.757 250.834 170.384 251.175 167.797C251.516 165.211 253.889 163.39 256.475 163.731L331.408 173.608C333.995 173.949 335.815 176.322 335.474 178.909C335.133 181.495 332.76 183.316 330.173 182.975Z" fill="#ACB2BA"/>
<path d="M327.396 204.049L252.463 194.172C249.876 193.832 248.056 191.458 248.397 188.872C248.738 186.285 251.111 184.465 253.697 184.806L328.63 194.683C331.217 195.024 333.037 197.397 332.696 199.983C332.355 202.57 329.982 204.39 327.396 204.049Z" fill="#ACB2BA"/>
</g>
<defs>
<filter id="filter0_i" x="297.716" y="181.097" width="92.1076" height="124.976" filterUnits="userSpaceOnUse" color-interpolation-filters="sRGB">
<feFlood flood-opacity="0" result="BackgroundImageFix"/>
<feBlend mode="normal" in="SourceGraphic" in2="BackgroundImageFix" result="shape"/>
<feColorMatrix in="SourceAlpha" type="matrix" values="0 0 0 0 0 0 0 0 0 0 0 0 0 0 0 0 0 0 127 0" result="hardAlpha"/>
<feOffset dy="4"/>
<feGaussianBlur stdDeviation="2"/>
<feComposite in2="hardAlpha" operator="arithmetic" k2="-1" k3="1"/>
<feColorMatrix type="matrix" values="0 0 0 0 0 0 0 0 0 0 0 0 0 0 0 0 0 0 0.1 0"/>
<feBlend mode="normal" in2="shape" result="effect1_innerShadow"/>
</filter>
<filter id="filter1_i" x="181.805" y="225.063" width="199.273" height="80.887" filterUnits="userSpaceOnUse" color-interpolation-filters="sRGB">
<feFlood flood-opacity="0" result="BackgroundImageFix"/>
<feBlend mode="normal" in="SourceGraphic" in2="BackgroundImageFix" result="shape"/>
<feColorMatrix in="SourceAlpha" type="matrix" values="0 0 0 0 0 0 0 0 0 0 0 0 0 0 0 0 0 0 127 0" result="hardAlpha"/>
<feOffset dy="4"/>
<feGaussianBlur stdDeviation="2"/>
<feComposite in2="hardAlpha" operator="arithmetic" k2="-1" k3="1"/>
<feColorMatrix type="matrix" values="0 0 0 0 0 0 0 0 0 0 0 0 0 0 0 0 0 0 0.05 0"/>
<feBlend mode="normal" in2="shape" result="effect1_innerShadow"/>
</filter>
<filter id="filter2_i" x="180.868" y="165.696" width="91.8732" height="124.945" filterUnits="userSpaceOnUse" color-interpolation-filters="sRGB">
<feFlood flood-opacity="0" result="BackgroundImageFix"/>
<feBlend mode="normal" in="SourceGraphic" in2="BackgroundImageFix" result="shape"/>
<feColorMatrix in="SourceAlpha" type="matrix" values="0 0 0 0 0 0 0 0 0 0 0 0 0 0 0 0 0 0 127 0" result="hardAlpha"/>
<feOffset dy="4"/>
<feGaussianBlur stdDeviation="2"/>
<feComposite in2="hardAlpha" operator="arithmetic" k2="-1" k3="1"/>
<feColorMatrix type="matrix" values="0 0 0 0 0 0 0 0 0 0 0 0 0 0 0 0 0 0 0.1 0"/>
<feBlend mode="normal" in2="shape" result="effect1_innerShadow"/>
</filter>
<clipPath id="clip0">
<rect width="592" height="395" fill="white"/>
</clipPath>
<clipPath id="clip1">
<rect width="32.6182" height="32.5978" fill="white" transform="matrix(-0.251225 -0.967929 0.967841 -0.251562 14.1945 214.449)"/>
</clipPath>
<clipPath id="clip2">
<rect width="47.5206" height="47.4909" fill="white" transform="matrix(-0.251225 -0.967929 0.967841 -0.251562 118.923 274.01)"/>
</clipPath>
<clipPath id="clip3">
<rect width="31.817" height="31.7971" fill="white" transform="matrix(-0.251225 -0.967929 0.967841 -0.251562 89.9388 379.472)"/>
</clipPath>
<clipPath id="clip4">
<rect width="30.9796" height="30.9602" fill="white" transform="matrix(-0.251225 -0.967929 0.967841 -0.251562 559.035 336.255)"/>
</clipPath>
<clipPath id="clip5">
<rect width="43.7197" height="43.6923" fill="white" transform="matrix(-0.251225 -0.967929 0.967841 -0.251562 519.624 114.986)"/>
</clipPath>
<clipPath id="clip6">
<rect width="267" height="267" fill="white" transform="translate(306 84.0001)"/>
</clipPath>
</defs>
</svg>
