<svg width="546" height="431" viewBox="0 0 546 431" fill="none" xmlns="http://www.w3.org/2000/svg">
<path d="M86.7058 0L50.6021 68.6187H57.8902V124.575H21.1603L0 164.791L262.191 295.779L348.898 130.988L86.7058 0Z" fill="#F2F2F2"/>
<path d="M481.055 44.6372H79.0828V241.149H481.055V44.6372Z" fill="#3F3D56"/>
<path opacity="0.3" d="M432.176 115.248H135.482V115.914H432.176V115.248Z" fill="#34F06F"/>
<path opacity="0.3" d="M432.518 131.902H135.824V132.568H432.518V131.902Z" fill="#34F06F"/>
<path opacity="0.3" d="M432.518 165.209H135.824V165.875H432.518V165.209Z" fill="#34F06F"/>
<path opacity="0.3" d="M432.518 179.864H135.824V180.53H432.518V179.864Z" fill="#34F06F"/>
<path opacity="0.3" d="M432.518 148.556H135.824V149.222H432.518V148.556Z" fill="#34F06F"/>
<path d="M387.398 431C457.624 431 514.553 425.93 514.553 419.675C514.553 413.421 457.624 408.351 387.398 408.351C317.173 408.351 260.244 413.421 260.244 419.675C260.244 425.93 317.173 431 387.398 431Z" fill="#3F3D56"/>
<path d="M144.055 180.347L143.112 179.382L187.275 138.366L226.205 165.652L257.686 131.642L271.491 143.075L309.042 121.121L350.753 148.438L416.217 112.154L416.893 113.312L350.692 150.005L309.001 122.699L271.353 144.709L257.812 133.494L226.4 167.43L187.396 140.093L144.055 180.347Z" fill="#34F06F"/>
<path d="M271.233 396.919C274.447 408.492 285.452 415.66 285.452 415.66C285.452 415.66 291.248 404.063 288.035 392.49C284.822 380.917 273.816 373.749 273.816 373.749C273.816 373.749 268.02 385.345 271.233 396.919Z" fill="#3F3D56"/>
<path d="M275.955 394.432C284.771 402.795 285.848 415.651 285.848 415.651C285.848 415.651 272.631 414.947 263.814 406.584C254.998 398.221 253.921 385.365 253.921 385.365C253.921 385.365 267.138 386.068 275.955 394.432Z" fill="#34F06F"/>
<path opacity="0.4" d="M523.098 57.9602C535.747 57.9602 546 47.9691 546 35.6444C546 23.3197 535.747 13.3286 523.098 13.3286C510.45 13.3286 500.197 23.3197 500.197 35.6444C500.197 47.9691 510.45 57.9602 523.098 57.9602Z" fill="#34F06F"/>
<path opacity="0.4" d="M480.714 61.9571C489.586 61.9571 496.779 54.9485 496.779 46.3028C496.779 37.6571 489.586 30.6484 480.714 30.6484C471.841 30.6484 464.648 37.6571 464.648 46.3028C464.648 54.9485 471.841 61.9571 480.714 61.9571Z" fill="#34F06F"/>
<path opacity="0.4" d="M460.888 341.737C465.608 341.737 469.434 338.009 469.434 333.41C469.434 328.811 465.608 325.083 460.888 325.083C456.169 325.083 452.343 328.811 452.343 333.41C452.343 338.009 456.169 341.737 460.888 341.737Z" fill="#34F06F"/>
<path opacity="0.4" d="M315.276 383.038C318.863 383.038 321.77 380.205 321.77 376.709C321.77 373.214 318.863 370.381 315.276 370.381C311.689 370.381 308.781 373.214 308.781 376.709C308.781 380.205 311.689 383.038 315.276 383.038Z" fill="#34F06F"/>
<path opacity="0.4" d="M293.4 301.102C298.119 301.102 301.945 297.374 301.945 292.776C301.945 288.177 298.119 284.449 293.4 284.449C288.68 284.449 284.854 288.177 284.854 292.776C284.854 297.374 288.68 301.102 293.4 301.102Z" fill="#34F06F"/>
<path d="M415.769 124.241C420.677 124.241 424.656 120.364 424.656 115.581C424.656 110.799 420.677 106.922 415.769 106.922C410.861 106.922 406.882 110.799 406.882 115.581C406.882 120.364 410.861 124.241 415.769 124.241Z" fill="#34F06F"/>
<path d="M358.025 272.435L350.491 273.251C350.491 273.251 347.143 287.933 350.491 307.51C353.84 327.087 358.025 346.663 358.025 346.663C358.025 346.663 361.373 410.287 363.048 411.103C364.722 411.919 379.79 416.813 380.627 411.919C381.464 407.024 381.464 295.275 381.464 295.275L393.183 349.11C393.183 349.11 394.857 416.813 398.206 416.813C401.554 416.813 412.437 415.997 412.437 410.287C412.437 404.577 414.948 329.534 414.948 329.534C414.948 329.534 414.111 274.067 410.762 272.435C407.414 270.804 358.025 272.435 358.025 272.435Z" fill="#2F2E41"/>
<path d="M364.722 408.656C364.722 408.656 357.188 407.84 355.513 408.656C353.839 409.471 351.328 415.181 355.513 418.444C359.699 421.707 370.581 426.601 373.93 426.601C376.252 426.501 378.529 425.946 380.626 424.97L378.952 411.103L364.722 408.656Z" fill="#2F2E41"/>
<path d="M398.206 412.734L399.043 424.154C399.043 424.154 409.925 425.785 410.762 424.154C411.599 422.522 419.97 418.444 420.808 417.628C421.645 416.813 422.482 407.84 417.459 407.024C412.437 406.209 410.762 408.656 410.762 408.656L398.206 412.734Z" fill="#2F2E41"/>
<path d="M327.889 203.917C327.889 203.917 307.799 222.678 310.31 232.466C312.821 242.255 332.912 270.804 332.912 270.804C332.912 270.804 352.165 280.592 354.676 270.804C357.188 261.016 341.283 263.463 341.283 263.463L328.726 234.098L342.957 214.521L327.889 203.917Z" fill="#FFB8B8"/>
<path d="M417.659 175.375C417.659 175.375 435.96 163.907 435.537 156.028C435.113 148.149 424.08 123.307 424.08 123.307C424.08 123.307 415.449 105.821 412.018 112.967C408.587 120.113 416.528 127.72 416.528 127.72L421.653 152.089L407.723 165.038L417.659 175.375Z" fill="#FFB8B8"/>
<path d="M372.256 159.054C380.577 159.054 387.323 152.48 387.323 144.371C387.323 136.263 380.577 129.689 372.256 129.689C363.934 129.689 357.188 136.263 357.188 144.371C357.188 152.48 363.934 159.054 372.256 159.054Z" fill="#FFB8B8"/>
<path d="M364.722 153.344L367.233 168.842L385.649 165.58C385.649 165.58 384.812 150.081 384.812 148.45C384.812 146.819 364.722 153.344 364.722 153.344Z" fill="#FFB8B8"/>
<path d="M363.884 168.842C363.884 168.842 384.812 163.948 387.323 165.58C389.835 167.211 402.391 168.842 402.391 168.842L416.622 190.05L412.436 216.968C412.436 216.968 411.599 260.2 413.273 267.541C414.948 274.882 424.156 275.698 404.902 277.329C385.649 278.961 382.301 276.514 368.907 279.776C355.513 283.039 344.631 278.145 347.98 274.882C351.328 271.619 357.188 219.415 350.491 214.521C343.794 209.627 341.283 184.34 341.283 184.34C341.283 184.34 363.884 172.921 363.884 168.842Z" fill="#D0CDE1"/>
<path d="M399.88 171.289L402.391 168.842L407.414 163.948C407.414 163.948 423.737 170.882 422.9 173.329C422.063 175.776 416.622 190.05 416.622 190.05L409.088 192.497L399.88 171.289Z" fill="#D0CDE1"/>
<path d="M351.328 185.972L341.283 184.341C341.283 184.341 333.749 192.497 331.238 195.76C328.726 199.023 323.704 207.18 323.704 207.18L341.283 219.415L354.676 205.549L351.328 185.972Z" fill="#D0CDE1"/>
<path d="M377.514 126.584L377.36 125.407C376.336 125.402 375.317 125.558 374.344 125.869C374.245 125.16 374.308 124.438 374.53 123.756C373.542 124.003 372.599 124.402 371.739 124.938L371.13 122.792L362.762 126.81C359.758 128.253 356.591 129.838 354.874 132.64C352.959 135.763 353.293 139.777 354.601 143.184C355.91 146.592 358.085 149.607 359.828 152.824C360.489 154.207 361.285 155.526 362.203 156.763C365.361 160.6 371.51 161.375 375.964 159.06C377.658 158.264 379.009 156.909 379.777 155.236C380.101 154.198 380.356 153.14 380.539 152.07C381.089 149.877 381.729 145.351 383.557 143.964C384.361 143.353 385.955 145.377 386.622 144.625C388.335 142.694 387.975 139.715 386.911 137.382C385.89 135.039 384.697 132.771 383.341 130.595C382.766 129.721 377.496 126.443 377.514 126.584Z" fill="#2F2E41"/>
<path d="M52.4213 76.6121H8.66919V119.245H52.4213V76.6121Z" fill="#3F3D56"/>
</svg>
