<svg width="40" height="40" viewBox="0 0 40 40" fill="none" xmlns="http://www.w3.org/2000/svg">
<g clip-path="url(#clip0)">
<path d="M33.75 25.0001H29.5834C28.8934 25.0001 28.3334 24.4401 28.3334 23.7501V19.5835C28.3334 18.8935 28.8934 18.3335 29.5834 18.3335H33.75C34.44 18.3335 35 18.8935 35 19.5835V23.7501C35 24.4401 34.44 25.0001 33.75 25.0001Z" fill="white"/>
<path d="M33.75 35.0001H29.5834C28.8934 35.0001 28.3334 34.4401 28.3334 33.7501V29.5835C28.3334 28.8935 28.8934 28.3335 29.5834 28.3335H33.75C34.44 28.3335 35 28.8935 35 29.5835V33.7501C35 34.4401 34.44 35.0001 33.75 35.0001Z" fill="white"/>
<path d="M22.0835 25.0001H17.9166C17.2266 25.0001 16.6666 24.4401 16.6666 23.7501V19.5835C16.6666 18.8935 17.2266 18.3335 17.9166 18.3335H22.0835C22.7735 18.3335 23.3335 18.8935 23.3335 19.5835V23.7501C23.3335 24.4401 22.7735 25.0001 22.0835 25.0001Z" fill="white"/>
<path d="M22.0835 35.0001H17.9166C17.2266 35.0001 16.6666 34.4401 16.6666 33.7501V29.5835C16.6666 28.8935 17.2266 28.3335 17.9166 28.3335H22.0835C22.7735 28.3335 23.3335 28.8935 23.3335 29.5835V33.7501C23.3335 34.4401 22.7735 35.0001 22.0835 35.0001Z" fill="white"/>
<path d="M10.4165 25.0001H6.24994C5.55994 25.0001 4.99994 24.4401 4.99994 23.7501V19.5835C4.99994 18.8935 5.55994 18.3335 6.24994 18.3335H10.4165C11.1065 18.3335 11.6665 18.8935 11.6665 19.5835V23.7501C11.6665 24.4401 11.1065 25.0001 10.4165 25.0001Z" fill="white"/>
<path d="M5 5H6.66656V1.66656C6.66656 0.746765 7.41333 0 8.33344 0H10C10.9201 0 11.6666 0.746765 11.6666 1.66656V5H28.3334V1.66656C28.3334 0.746765 29.0799 0 30 0H31.6666C32.5867 0 33.3334 0.746765 33.3334 1.66656V5H35C37.7567 5 40 7.24335 40 10V35C40 37.7567 37.7567 40 35 40H5C2.24335 40 0 37.7567 0 35V10C0 7.24335 2.24335 5 5 5ZM3.33344 35C3.33344 35.9183 4.08173 36.6666 5 36.6666H35C35.9183 36.6666 36.6666 35.9183 36.6666 35V16.7334H3.33344V35Z" fill="white"/>
</g>
<defs>
<clipPath id="clip0">
<rect width="40" height="40" transform="matrix(-1 0 0 1 40 0)" fill="white"/>
</clipPath>
</defs>
</svg>
