<svg width="583" height="455" viewBox="0 0 583 455" fill="none" xmlns="http://www.w3.org/2000/svg">
<g clip-path="url(#clip0)">
<path d="M524.991 238.677C754.435 335.226 110.502 558.188 182.602 390.566C234.193 205.395 -19.9949 261.099 16.4909 157.034C52.9767 52.9687 197.573 184.082 320.891 39.2166C512.491 -100.823 393.991 168.677 524.991 238.677Z" fill="#E9FAF4"/>
</g>
<path d="M436.704 363.079C434.876 363.079 433.395 364.604 433.395 366.434C433.395 368.22 434.832 369.789 436.704 369.789C438.576 369.789 440.057 368.221 440.057 366.434C440.057 364.604 438.533 363.079 436.704 363.079Z" fill="#D0DCD8"/>
<path d="M437.27 337.677C431.392 337.677 428.693 341.162 428.693 343.515C428.693 345.215 430.13 345.999 431.305 345.999C433.656 345.999 432.699 342.644 437.14 342.644C439.317 342.644 441.058 343.603 441.058 345.607C441.058 347.96 438.62 349.31 437.183 350.53C435.921 351.62 434.266 353.406 434.266 357.153C434.266 359.419 434.875 360.073 436.661 360.073C438.794 360.073 439.229 359.114 439.229 358.286C439.229 356.02 439.273 354.713 441.668 352.84C442.843 351.925 446.544 348.962 446.544 344.866C446.544 340.77 442.843 337.677 437.27 337.677Z" fill="#D0DCD8"/>
<path d="M208.867 202.079C207.039 202.079 205.558 203.604 205.558 205.434C205.558 207.22 206.995 208.789 208.867 208.789C210.739 208.789 212.22 207.221 212.22 205.434C212.22 203.604 210.696 202.079 208.867 202.079Z" fill="#D0DCD8"/>
<path d="M209.433 176.677C203.555 176.677 200.856 180.162 200.856 182.515C200.856 184.215 202.293 184.999 203.468 184.999C205.819 184.999 204.862 181.644 209.303 181.644C211.48 181.644 213.221 182.603 213.221 184.607C213.221 186.96 210.783 188.31 209.346 189.53C208.084 190.62 206.429 192.406 206.429 196.153C206.429 198.419 207.039 199.073 208.824 199.073C210.957 199.073 211.393 198.114 211.393 197.286C211.393 195.02 211.436 193.713 213.831 191.84C215.006 190.925 218.707 187.962 218.707 183.866C218.707 179.77 215.006 176.677 209.433 176.677Z" fill="#D0DCD8"/>
<path d="M221.858 313.079C220.029 313.079 218.549 314.604 218.549 316.434C218.549 318.22 219.986 319.789 221.858 319.789C223.73 319.789 225.21 318.221 225.21 316.434C225.21 314.604 223.687 313.079 221.858 313.079Z" fill="#D0DCD8"/>
<path d="M222.424 287.677C216.546 287.677 213.847 291.162 213.847 293.515C213.847 295.215 215.283 295.999 216.459 295.999C218.81 295.999 217.852 292.644 222.293 292.644C224.47 292.644 226.212 293.603 226.212 295.607C226.212 297.96 223.774 299.31 222.337 300.53C221.074 301.62 219.42 303.406 219.42 307.153C219.42 309.419 220.029 310.073 221.814 310.073C223.948 310.073 224.383 309.114 224.383 308.286C224.383 306.02 224.427 304.713 226.822 302.84C227.997 301.925 231.698 298.962 231.698 294.866C231.698 290.77 227.997 287.677 222.424 287.677Z" fill="#D0DCD8"/>
<path d="M427.71 191.079C425.882 191.079 424.401 192.604 424.401 194.434C424.401 196.22 425.838 197.789 427.71 197.789C429.583 197.789 431.063 196.221 431.063 194.434C431.063 192.604 429.539 191.079 427.71 191.079Z" fill="#D0DCD8"/>
<path d="M428.277 165.677C422.399 165.677 419.699 169.162 419.699 171.515C419.699 173.215 421.136 173.999 422.312 173.999C424.663 173.999 423.705 170.644 428.146 170.644C430.323 170.644 432.065 171.603 432.065 173.607C432.065 175.96 429.626 177.31 428.19 178.53C426.927 179.62 425.272 181.406 425.272 185.153C425.272 187.419 425.882 188.073 427.667 188.073C429.8 188.073 430.236 187.114 430.236 186.286C430.236 184.02 430.28 182.713 432.674 180.84C433.85 179.925 437.551 176.962 437.551 172.866C437.551 168.77 433.85 165.677 428.277 165.677Z" fill="#D0DCD8"/>
<path d="M399.731 48.0791C397.902 48.0791 396.422 49.6041 396.422 51.4341C396.422 53.2205 397.858 54.7891 399.731 54.7891C401.603 54.7891 403.083 53.2206 403.083 51.4341C403.083 49.6041 401.559 48.0791 399.731 48.0791Z" fill="#D0DCD8"/>
<path d="M400.297 22.6768C394.419 22.6768 391.719 26.1624 391.719 28.5153C391.719 30.2146 393.156 30.9989 394.332 30.9989C396.683 30.9989 395.725 27.6439 400.166 27.6439C402.343 27.6439 404.085 28.6025 404.085 30.6068C404.085 32.9598 401.646 34.3104 400.21 35.5304C398.947 36.6196 397.292 38.4061 397.292 42.1533C397.292 44.4189 397.902 45.0725 399.687 45.0725C401.82 45.0725 402.256 44.114 402.256 43.2861C402.256 41.0204 402.3 39.7133 404.694 37.8398C405.87 36.9248 409.571 33.9619 409.571 29.8661C409.571 25.7704 405.87 22.6768 400.297 22.6768Z" fill="#D0DCD8"/>
<path d="M479.674 280.079C477.845 280.079 476.365 281.604 476.365 283.434C476.365 285.22 477.801 286.789 479.674 286.789C481.546 286.789 483.026 285.221 483.026 283.434C483.026 281.604 481.502 280.079 479.674 280.079Z" fill="#D0DCD8"/>
<path d="M480.239 254.677C474.362 254.677 471.662 258.162 471.662 260.515C471.662 262.215 473.099 262.999 474.274 262.999C476.626 262.999 475.668 259.644 480.109 259.644C482.286 259.644 484.028 260.603 484.028 262.607C484.028 264.96 481.589 266.31 480.152 267.53C478.89 268.62 477.235 270.406 477.235 274.153C477.235 276.419 477.845 277.073 479.63 277.073C481.763 277.073 482.199 276.114 482.199 275.286C482.199 273.02 482.242 271.713 484.637 269.84C485.813 268.925 489.514 265.962 489.514 261.866C489.514 257.77 485.813 254.677 480.239 254.677Z" fill="#D0DCD8"/>
<path d="M215.862 430.079C214.034 430.079 212.553 431.604 212.553 433.434C212.553 435.22 213.99 436.789 215.862 436.789C217.734 436.789 219.215 435.221 219.215 433.434C219.215 431.604 217.691 430.079 215.862 430.079Z" fill="#D0DCD8"/>
<path d="M216.428 404.677C210.551 404.677 207.851 408.162 207.851 410.515C207.851 412.215 209.288 412.999 210.463 412.999C212.815 412.999 211.857 409.644 216.298 409.644C218.475 409.644 220.216 410.603 220.216 412.607C220.216 414.96 217.778 416.31 216.341 417.53C215.079 418.62 213.424 420.406 213.424 424.153C213.424 426.419 214.034 427.073 215.819 427.073C217.952 427.073 218.388 426.114 218.388 425.286C218.388 423.02 218.431 421.713 220.826 419.84C222.002 418.925 225.703 415.962 225.703 411.866C225.703 407.77 222.002 404.677 216.428 404.677Z" fill="#D0DCD8"/>
<path d="M113.935 162.079C112.106 162.079 110.626 163.604 110.626 165.434C110.626 167.22 112.063 168.789 113.935 168.789C115.807 168.789 117.288 167.221 117.288 165.434C117.288 163.604 115.764 162.079 113.935 162.079Z" fill="#D0DCD8"/>
<path d="M114.501 136.677C108.623 136.677 105.924 140.162 105.924 142.515C105.924 144.215 107.361 144.999 108.536 144.999C110.887 144.999 109.929 141.644 114.371 141.644C116.548 141.644 118.289 142.603 118.289 144.607C118.289 146.96 115.851 148.31 114.414 149.53C113.152 150.62 111.497 152.406 111.497 156.153C111.497 158.419 112.106 159.073 113.892 159.073C116.025 159.073 116.46 158.114 116.46 157.286C116.46 155.02 116.504 153.713 118.899 151.84C120.074 150.925 123.775 147.962 123.775 143.866C123.775 139.77 120.074 136.677 114.501 136.677Z" fill="#D0DCD8"/>
<g clip-path="url(#clip1)">
<path d="M289.129 396.812L287.463 393.477L289.684 391.81L297.46 394.032L289.129 396.812Z" fill="#425A6B"/>
<path d="M319.121 285.096C319.121 285.096 316.344 297.879 316.899 300.658C316.899 303.437 316.343 311.219 314.677 315.665C313.011 320.111 313.011 325.669 313.011 325.669C313.011 325.669 311.9 339.009 308.568 348.457C308.568 348.457 306.902 361.24 308.012 364.02L308.568 370.133C308.568 370.133 303.014 379.582 302.459 384.029C302.459 384.029 299.126 394.589 292.461 395.701C292.461 395.701 289.129 396.812 289.129 394.033C289.129 394.033 287.463 393.477 288.018 392.922C288.018 392.922 287.463 391.81 288.018 390.698C288.018 390.698 291.351 384.029 291.351 383.473C291.351 382.917 295.239 376.247 295.794 373.468C296.349 370.689 296.904 370.689 296.904 370.689C296.904 370.689 297.46 363.464 296.904 353.459C295.794 343.455 296.349 326.225 296.904 321.779C297.46 317.332 299.126 308.995 298.015 301.214C296.904 293.433 297.459 279.538 297.459 279.538L319.121 285.096Z" fill="#B07288"/>
<path d="M326.341 285.651C326.341 285.651 329.673 298.99 329.118 302.881C328.562 307.327 331.895 311.774 332.45 313.442C333.006 315.109 334.672 321.223 334.672 325.669C334.672 330.116 338.005 344.011 338.56 346.234C339.671 348.458 340.782 359.573 340.226 361.797C339.671 364.02 339.671 365.132 339.671 367.355C339.671 369.578 340.226 372.913 340.226 375.136C340.226 377.359 341.893 390.143 342.448 390.143C342.448 390.143 345.225 394.034 348.002 394.034C350.224 394.034 349.669 392.366 349.669 392.366C349.669 392.366 351.335 392.922 351.89 391.81C351.89 391.81 353.001 391.81 353.557 390.699C353.557 390.699 354.112 384.585 353.001 379.583C351.335 374.581 349.669 370.134 349.669 368.467C349.669 366.8 350.224 365.132 349.113 364.021C349.113 364.021 349.113 354.572 350.224 345.123C351.334 335.675 351.334 317.889 348.557 310.664C348.557 310.664 346.336 287.876 348.557 279.539L326.341 285.651Z" fill="#B07288"/>
<path d="M315.233 163.375V187.274H332.45V153.926L315.233 163.375Z" fill="#895266"/>
<path d="M327.452 171.156C327.452 171.156 326.341 173.38 324.675 176.158C323.564 178.937 322.453 183.94 322.453 183.94C322.453 183.94 319.121 172.268 316.899 171.712L310.79 178.381L323.564 214.508L330.784 182.272C330.784 182.828 333.005 171.712 327.452 171.156Z" fill="#48B9A5"/>
<path d="M316.899 172.268L318.01 172.824C318.565 172.824 318.565 173.38 318.565 173.38L319.121 174.491C319.121 175.047 319.121 175.602 318.565 175.602H317.454L316.899 172.268Z" fill="#48B9A5"/>
<path d="M327.452 171.156L325.785 171.712C325.785 171.712 325.23 171.712 325.23 172.268L324.674 173.38C324.674 173.936 324.674 174.491 325.23 174.491H326.341L327.452 171.156Z" fill="#48B9A5"/>
<path d="M327.452 171.156C327.452 171.156 330.229 175.047 330.229 181.716L333.005 167.266L330.784 166.154C330.784 166.154 331.34 168.933 327.452 171.156Z" fill="#67C5B8"/>
<path d="M315.788 178.937C315.788 178.937 315.233 173.935 316.899 172.267C316.899 172.267 314.677 168.377 314.677 166.154C314.677 166.154 311.9 172.267 315.788 178.937Z" fill="#67C5B8"/>
<path d="M296.904 253.415L290.795 279.537L300.237 287.874L300.792 286.207L316.343 288.43V286.207L329.674 288.986V287.874L344.114 288.986L343.558 286.763L355.222 285.095L347.446 247.301L337.449 222.29L305.791 231.183L296.904 253.415Z" fill="#425A6B"/>
<path d="M306.902 253.415L302.458 286.207H300.792L306.902 253.415Z" fill="#344A5E"/>
<path d="M292.461 253.415C292.461 253.415 306.902 255.639 310.234 255.083C313.566 254.527 315.233 252.304 315.788 248.413C316.899 244.522 322.453 226.181 322.453 226.181V210.063L309.123 170.045C309.123 170.045 306.902 175.047 297.46 175.603C297.46 175.603 298.015 204.505 298.015 205.06C298.015 205.616 298.015 227.293 298.015 227.293C298.015 227.293 292.461 248.968 292.461 253.415Z" fill="#ACB2BA"/>
<path d="M304.68 174.491C304.68 174.491 305.791 200.613 323.009 212.841V207.839C319.121 196.723 316.344 182.272 313.567 166.154L304.68 174.491Z" fill="#CED6E0"/>
<path d="M354.667 251.192C348.557 252.303 343.003 252.859 339.115 252.859C335.227 252.859 331.895 250.636 330.229 247.857C320.787 231.183 325.23 212.285 325.23 212.285L335.783 178.937C333.561 175.602 333.006 172.268 335.227 169.489C335.227 169.489 353 173.38 354.111 178.937L347.446 187.83V206.172L354.667 251.192Z" fill="#ACB2BA"/>
<path d="M332.45 166.154L323.008 208.95C323.008 208.95 323.008 216.176 324.119 221.178C324.119 221.178 325.785 209.506 331.339 203.393C336.893 197.279 343.558 173.935 343.558 173.935L332.45 166.154Z" fill="#CED6E0"/>
<path d="M316.004 151.147C316.559 154.482 317.114 157.817 316.559 161.152C316.559 164.486 315.449 167.821 313.782 170.6C312.116 173.379 308.784 175.602 306.007 175.602L309.895 168.377C307.118 160.04 307.673 150.591 311.561 142.81C312.117 142.254 312.117 141.698 313.227 141.698C313.783 141.698 314.338 142.254 314.338 142.254C314.338 142.81 314.893 143.366 314.893 143.366C314.893 146.145 315.448 148.924 316.004 151.147Z" fill="#344A5E"/>
<path d="M340.997 167.821C340.997 168.933 340.997 170.6 340.441 171.712C339.886 172.823 339.331 173.935 337.664 174.491C335.998 175.046 334.332 174.491 333.221 175.602C332.111 176.158 332.111 177.826 332.111 178.937C332.111 180.049 332.666 181.161 333.221 181.716C331.555 180.049 331 177.27 331 175.046C331 172.823 331.555 170.044 331 167.821C331 166.709 329.889 165.042 330.444 163.93C330.444 162.819 331 161.707 331 161.151C331.555 158.372 331.555 156.149 331.555 153.37C331.555 150.591 328.223 143.922 329.333 141.698L333.221 145.033C337.109 147.256 339.331 151.147 339.886 155.037C341.552 158.928 341.552 163.375 340.997 167.821Z" fill="#344A5E"/>
<path d="M325.445 167.822C323.223 168.933 321.002 168.933 319.336 167.822C316.004 166.154 311.005 162.264 311.56 153.927C312.671 133.362 319.336 136.696 322.668 134.474C326.556 137.252 332.666 132.806 333.776 153.927C333.776 161.708 328.778 165.598 325.445 167.822Z" fill="#B07288"/>
<path d="M334.331 155.195C334.506 152.746 333.655 150.689 332.431 150.601C331.207 150.514 330.073 152.429 329.898 154.878C329.723 157.328 330.574 159.385 331.798 159.472C333.022 159.56 334.156 157.645 334.331 155.195Z" fill="#B07288"/>
<path d="M310.427 155.181C310.602 157.631 311.736 159.546 312.96 159.458C314.184 159.37 315.034 157.314 314.859 154.864C314.684 152.414 313.55 150.499 312.326 150.587C311.102 150.674 310.252 152.731 310.427 155.181Z" fill="#B07288"/>
<path d="M321.002 140.031C321.002 140.031 330.444 140.031 332.666 146.145C334.887 152.815 335.443 157.817 338.775 161.152C342.107 164.487 341.552 172.268 339.331 173.38C337.109 174.491 333.776 180.605 337.109 184.495C337.109 184.495 334.887 179.493 338.219 175.602C338.219 175.602 337.664 180.049 340.996 182.272C343.773 183.939 342.662 178.381 347.106 177.27C351.549 176.158 354.326 178.381 355.437 180.049C355.437 180.049 352.104 175.046 347.661 175.046C347.661 175.046 349.883 173.935 352.104 174.49C352.104 174.49 350.994 173.379 347.106 172.823C343.218 172.267 345.995 169.488 344.329 165.042C343.218 160.596 338.774 151.703 337.664 147.812C336.553 143.921 332.11 131.138 321.557 131.694C311.004 132.805 312.116 138.919 308.783 144.477C306.006 150.035 303.784 156.149 303.784 161.707C303.784 161.707 304.34 163.375 302.674 165.042C302.674 165.042 304.34 165.042 304.896 161.707C304.896 161.707 306.562 166.709 300.453 170.6C300.453 170.6 305.451 169.489 306.007 165.042C306.007 165.042 310.45 169.488 306.007 171.712C301.564 173.935 299.342 173.935 298.786 177.825C298.786 177.825 299.342 174.49 303.785 173.934C303.785 173.934 301.563 175.046 301.008 177.825C301.008 177.825 303.23 175.046 303.785 175.046C303.785 175.046 304.896 176.158 301.563 179.493C301.563 179.493 314.337 176.158 311.561 167.821C309.339 159.484 309.339 152.258 311.561 147.812C313.782 142.254 316.559 139.475 321.002 140.031Z" fill="#425A6B"/>
<path d="M297.46 175.602C297.46 175.602 302.458 178.937 301.903 186.163C301.903 191.721 304.125 211.73 304.125 211.73L331.34 219.511L328.563 232.85C328.563 232.85 319.676 229.515 316.344 228.959C313.011 228.403 296.905 226.736 296.905 226.736C296.905 226.736 294.128 227.292 293.017 222.845C291.906 218.954 289.684 205.06 291.351 197.834C293.017 191.165 293.572 174.491 297.46 175.602Z" fill="#E8EAE8"/>
<path d="M292.461 213.397C291.351 213.397 290.795 212.841 291.906 211.73L297.46 210.063H300.237L296.349 208.951C296.349 208.951 291.35 211.175 290.795 208.951L292.461 207.84L296.904 206.172L300.792 206.728L298.015 203.949C298.015 203.949 295.238 204.505 294.683 203.949C294.683 203.949 291.35 205.061 290.795 203.393L293.572 201.726H299.126L302.458 203.393L301.348 200.615C301.348 200.615 296.904 197.836 297.46 195.056C297.46 195.056 298.015 194.5 300.236 195.612C301.903 197.28 304.679 199.503 304.679 199.503C304.679 199.503 306.346 204.505 309.122 205.617C311.899 206.728 316.343 209.508 323.563 209.508L323.007 217.289C323.007 217.289 318.564 216.733 317.453 216.177C316.342 215.621 314.121 215.621 312.454 215.621C310.788 215.621 304.123 213.398 302.457 212.842C300.791 212.286 298.014 212.286 298.014 212.286L292.461 213.397Z" fill="#B07288"/>
<path d="M345.225 190.054C344.114 197.279 346.891 206.728 346.891 206.728C346.891 206.728 335.783 208.951 333.005 208.395C330.228 207.839 319.676 209.507 319.676 209.507C322.453 223.402 324.674 223.957 324.674 223.957C324.674 223.957 351.334 221.734 355.222 220.623C359.11 218.955 359.11 210.618 359.11 203.948C359.11 199.502 355.777 188.386 354.111 181.161C354.111 179.493 353.556 178.382 353.001 177.27C347.446 179.493 345.225 183.94 345.225 190.054Z" fill="#E8EAE8"/>
<path d="M352.445 201.726C353.556 201.17 354.111 202.837 353.556 203.393L350.223 205.06L346.891 206.728C346.891 206.728 343.558 207.284 340.226 207.839C341.892 206.172 343.003 202.281 343.003 200.614C343.003 200.058 343.558 199.502 343.558 198.946L346.335 193.388C346.891 192.277 348.001 192.832 348.001 193.944C348.001 194.5 346.335 196.723 346.335 196.723L350.223 194.5C351.334 193.944 352.445 195.056 351.334 195.611L347.446 198.39L345.224 201.169L351.333 197.278C352.444 196.722 354.11 197.834 352.999 198.945L350.778 201.169L346.89 203.947L352.445 201.726Z" fill="#B07288"/>
<path d="M319.121 286.763L316.899 286.207L318.01 255.083L319.121 286.763Z" fill="#344A5E"/>
<path d="M331.895 287.875H329.673L329.118 255.083L331.895 287.875Z" fill="#344A5E"/>
<path d="M346.336 286.207L343.558 286.763L340.226 254.526L346.336 286.207Z" fill="#344A5E"/>
<path d="M307.457 363.464C307.457 363.464 308.013 365.687 307.457 367.91C306.902 369.578 305.235 375.136 304.68 376.247C304.125 377.359 301.348 385.696 300.237 386.808C299.127 387.919 298.016 387.919 296.349 387.364C294.683 386.808 291.351 383.473 291.351 383.473C291.351 383.473 288.018 388.475 287.463 390.698C287.463 390.698 291.906 388.475 294.128 391.81C296.349 394.589 294.683 395.145 294.683 395.145C294.683 395.145 289.685 398.479 287.463 393.477C287.463 393.477 286.907 397.368 290.24 398.479C293.572 399.591 299.681 395.701 300.237 394.589C300.792 393.477 301.347 389.03 301.347 387.919C301.347 386.808 304.68 380.693 304.68 380.693V387.919H306.346C306.346 387.919 307.457 377.915 308.012 376.247C308.012 375.691 308.568 375.136 309.123 374.58C310.789 372.356 310.789 370.133 310.789 367.91C309.679 365.131 309.123 364.019 307.457 363.464Z" fill="#425A6B"/>
<path d="M354.111 382.917C353.001 382.361 346.891 385.14 346.891 385.14C346.891 385.14 343.558 386.807 342.448 385.696C341.337 385.14 340.781 381.25 340.781 381.25C340.781 380.694 340.781 380.138 340.781 379.582C340.226 377.359 340.226 375.691 339.671 375.136C339.115 372.913 339.115 369.578 339.115 367.355C339.115 366.244 339.115 365.132 339.115 364.576C338.005 365.688 338.005 369.022 338.005 370.134C338.56 371.802 339.115 377.915 339.671 379.027C339.671 380.695 339.671 389.032 341.337 392.367C343.003 395.701 348.558 396.813 349.668 395.701C350.224 394.59 352.445 392.923 353.001 391.255C354.667 389.03 354.111 382.917 354.111 382.917ZM353.556 390.698C353.556 391.809 351.889 391.809 351.889 391.809C351.334 392.92 350.223 392.365 349.668 392.365C349.668 392.365 350.223 393.476 348.001 394.032C346.891 394.032 345.225 392.921 344.113 391.809C344.113 390.698 344.669 389.586 345.224 389.03C346.89 387.919 351.333 387.919 353.555 389.586C353.556 390.142 353.556 390.698 353.556 390.698ZM353 379.026C353 378.47 351.334 371.245 350.223 368.465C350.223 367.909 349.668 367.909 349.668 367.354C349.668 367.91 349.668 367.91 349.668 368.465C349.668 369.577 350.223 372.356 351.889 375.691C352.445 377.358 353 378.47 353 380.137C353 383.473 354.667 389.03 353 379.026Z" fill="#425A6B"/>
</g>
<path d="M377.112 403.46C377.271 407.876 352.585 412.349 321.975 413.451C291.365 414.553 266.422 411.866 266.263 407.451C266.104 403.036 279.169 399.279 309.779 398.177C343.754 393.177 376.953 399.045 377.112 403.46Z" fill="#D6D6D6"/>
<g clip-path="url(#clip2)">
<path d="M377.749 120.579C375.921 120.579 374.44 122.104 374.44 123.934C374.44 125.72 375.877 127.289 377.749 127.289C379.622 127.289 381.102 125.721 381.102 123.934C381.102 122.104 379.578 120.579 377.749 120.579Z" fill="#39D39F"/>
<path d="M378.316 95.1772C372.438 95.1772 369.738 98.6629 369.738 101.016C369.738 102.715 371.175 103.499 372.351 103.499C374.702 103.499 373.744 100.144 378.185 100.144C380.362 100.144 382.104 101.103 382.104 103.107C382.104 105.46 379.665 106.811 378.229 108.031C376.966 109.12 375.311 110.907 375.311 114.654C375.311 116.919 375.921 117.573 377.706 117.573C379.84 117.573 380.275 116.614 380.275 115.787C380.275 113.521 380.319 112.214 382.713 110.34C383.889 109.425 387.59 106.462 387.59 102.367C387.59 98.2709 383.889 95.1772 378.316 95.1772Z" fill="#39D39F"/>
<path d="M378.729 77.6768C361.056 77.6768 346.752 91.9889 346.752 109.677V139.177C346.752 140.558 347.87 141.677 349.25 141.677H378.729C396.402 141.677 410.706 127.365 410.706 109.677C410.706 91.9913 396.404 77.6768 378.729 77.6768ZM378.729 136.677H351.748V109.677C351.748 94.7546 363.816 82.6768 378.729 82.6768C393.641 82.6768 405.71 94.7526 405.71 109.677C405.71 124.599 393.643 136.677 378.729 136.677Z" fill="#39D39F"/>
</g>
<g clip-path="url(#clip3)">
<path d="M3.74577 229.923C3.78997 230.999 3.94267 231.921 4.12978 232.798C4.30966 233.677 4.54855 234.478 4.80213 235.255C5.32586 236.79 5.97011 238.151 6.71618 239.371C8.20292 241.811 10.0647 243.721 12.2105 245.226C14.3575 246.729 16.7837 247.838 19.5839 248.413C20.9832 248.705 22.4789 248.856 24.0969 248.832C24.9153 248.809 25.7444 248.767 26.6346 248.641C27.3163 248.551 28.0189 248.43 28.772 248.236C28.8871 248.361 29.013 248.482 29.1452 248.598C29.1452 248.598 33.1738 252.778 33.8234 255.021C34.4657 257.265 34.7735 253.077 35.8333 253.494C36.6589 253.817 32.306 250.021 29.4454 247.795C29.4445 247.791 29.4436 247.788 29.4462 247.783C21.0238 240.622 9.13036 233.426 9.13036 233.426C9.13036 233.426 25.9425 240.556 29.1831 245.716C29.148 245.536 29.1111 245.356 29.0751 245.181C28.8948 244.3 28.6545 243.501 28.3974 242.725C27.8746 241.193 27.2249 239.833 26.4829 238.615C24.9988 236.171 23.1384 234.258 20.9993 232.741C18.8584 231.225 16.4341 230.116 13.637 229.538C12.2409 229.244 10.743 229.099 9.1209 229.122C8.30384 229.143 7.47163 229.188 6.58048 229.317C5.69147 229.433 4.77401 229.602 3.74577 229.923Z" fill="#84E8C6"/>
</g>
<ellipse rx="16.3666" ry="3.9838" transform="matrix(0.989138 0.146987 -0.146781 0.989169 19.4191 257.75)" fill="#E9FAF4"/>
<g clip-path="url(#clip4)">
<path d="M106.442 274.623C106.506 276.19 106.729 277.534 107.001 278.811C107.263 280.091 107.611 281.259 107.981 282.391C108.744 284.628 109.682 286.611 110.769 288.387C112.935 291.942 115.648 294.725 118.774 296.918C121.902 299.108 125.436 300.722 129.516 301.561C131.555 301.986 133.734 302.206 136.091 302.172C137.283 302.137 138.491 302.076 139.788 301.893C140.781 301.762 141.805 301.585 142.902 301.303C143.07 301.484 143.253 301.661 143.446 301.83C143.446 301.83 149.315 307.919 150.261 311.187C151.197 314.458 151.645 308.356 153.189 308.963C154.392 309.434 148.051 303.903 143.883 300.661C143.882 300.655 143.88 300.65 143.884 300.643C131.614 290.21 114.287 279.727 114.287 279.727C114.287 279.727 138.78 290.114 143.501 297.631C143.45 297.369 143.396 297.108 143.344 296.852C143.081 295.569 142.731 294.404 142.356 293.274C141.594 291.043 140.648 289.061 139.567 287.286C137.405 283.725 134.694 280.938 131.578 278.729C128.459 276.52 124.927 274.905 120.852 274.063C118.818 273.633 116.636 273.423 114.273 273.455C113.082 273.487 111.87 273.552 110.572 273.741C109.276 273.909 107.94 274.155 106.442 274.623Z" fill="#84E8C6"/>
</g>
<ellipse rx="25.116" ry="6.11349" transform="matrix(0.989138 0.146987 -0.146781 0.989169 128.588 313.874)" fill="#E9FAF4"/>
<g clip-path="url(#clip5)">
<path d="M79.5997 395.745C79.6428 396.794 79.7917 397.694 79.9742 398.549C80.1497 399.406 80.3827 400.188 80.6301 400.946C81.141 402.443 81.7694 403.771 82.4971 404.96C83.9473 407.34 85.7634 409.204 87.8564 410.672C89.9508 412.138 92.3173 413.219 95.0488 413.781C96.4137 414.065 97.8726 414.213 99.4509 414.19C100.249 414.167 101.058 414.126 101.926 414.003C102.591 413.915 103.277 413.797 104.011 413.608C104.123 413.729 104.246 413.848 104.375 413.961C104.375 413.961 108.305 418.038 108.938 420.226C109.565 422.416 109.865 418.33 110.899 418.736C111.704 419.052 107.458 415.349 104.668 413.178C104.667 413.174 104.666 413.171 104.669 413.166C96.4533 406.181 84.852 399.162 84.852 399.162C84.852 399.162 101.251 406.117 104.412 411.149C104.378 410.974 104.342 410.799 104.307 410.628C104.131 409.769 103.897 408.989 103.646 408.233C103.136 406.738 102.502 405.412 101.778 404.223C100.331 401.839 98.5159 399.973 96.4294 398.494C94.3411 397.015 91.9763 395.933 89.2479 395.37C87.8861 395.082 86.425 394.941 84.8428 394.963C84.0458 394.984 83.234 395.028 82.3648 395.154C81.4976 395.266 80.6027 395.431 79.5997 395.745Z" fill="#84E8C6"/>
</g>
<ellipse rx="16.3754" ry="3.98594" transform="matrix(0.989138 0.146987 -0.146781 0.989169 95.5217 422.982)" fill="#E9FAF4"/>
<g clip-path="url(#clip6)">
<path d="M548.81 353.362C548.852 354.384 548.997 355.26 549.175 356.093C549.346 356.927 549.573 357.689 549.814 358.426C550.311 359.885 550.923 361.178 551.632 362.336C553.044 364.653 554.812 366.467 556.85 367.897C558.889 369.324 561.193 370.377 563.853 370.924C565.182 371.201 566.602 371.344 568.139 371.322C568.916 371.299 569.704 371.26 570.549 371.14C571.197 371.055 571.864 370.94 572.579 370.756C572.689 370.874 572.808 370.989 572.934 371.099C572.934 371.099 576.76 375.069 577.377 377.199C577.987 379.331 578.279 375.353 579.286 375.749C580.07 376.056 575.936 372.45 573.219 370.337C573.218 370.333 573.217 370.33 573.22 370.326C565.22 363.524 553.924 356.69 553.924 356.69C553.924 356.69 569.892 363.462 572.97 368.362C572.937 368.191 572.901 368.021 572.867 367.854C572.696 367.017 572.468 366.258 572.224 365.522C571.727 364.067 571.11 362.775 570.405 361.618C568.996 359.296 567.229 357.48 565.197 356.039C563.164 354.599 560.861 353.546 558.205 352.997C556.879 352.717 555.456 352.58 553.916 352.601C553.139 352.622 552.349 352.664 551.503 352.787C550.658 352.897 549.787 353.057 548.81 353.362Z" fill="#84E8C6"/>
</g>
<ellipse rx="15.9445" ry="3.88104" transform="matrix(0.989138 0.146987 -0.146781 0.989169 564.313 379.882)" fill="#E9FAF4"/>
<g clip-path="url(#clip7)">
<path d="M507.661 119.388C507.721 120.83 507.925 122.067 508.176 123.242C508.417 124.42 508.737 125.494 509.077 126.535C509.779 128.593 510.643 130.418 511.643 132.052C513.636 135.322 516.131 137.883 519.007 139.9C521.885 141.915 525.137 143.4 528.89 144.172C530.766 144.563 532.77 144.765 534.939 144.734C536.036 144.702 537.147 144.646 538.34 144.478C539.254 144.356 540.196 144.194 541.205 143.935C541.359 144.101 541.528 144.264 541.705 144.42C541.705 144.42 547.105 150.022 547.976 153.028C548.837 156.037 549.249 150.423 550.67 150.981C551.776 151.415 545.942 146.326 542.108 143.343C542.107 143.339 542.105 143.334 542.109 143.328C530.82 133.729 514.879 124.084 514.879 124.084C514.879 124.084 537.413 133.641 541.756 140.556C541.709 140.315 541.66 140.075 541.611 139.839C541.37 138.659 541.048 137.588 540.703 136.548C540.002 134.495 539.132 132.672 538.137 131.039C536.148 127.763 533.654 125.199 530.787 123.166C527.918 121.134 524.668 119.648 520.919 118.873C519.048 118.478 517.04 118.284 514.866 118.314C513.771 118.343 512.655 118.403 511.461 118.577C510.269 118.731 509.04 118.958 507.661 119.388Z" fill="#84E8C6"/>
</g>
<ellipse rx="21.7417" ry="5.29213" transform="matrix(0.989138 0.146987 -0.146781 0.989169 529.456 156.214)" fill="#E9FAF4"/>
<defs>
<clipPath id="clip0">
<rect x="11.7476" width="567.594" height="455" fill="white"/>
</clipPath>
<clipPath id="clip1">
<rect x="189.864" y="131.677" width="266.809" height="267" fill="white"/>
</clipPath>
<clipPath id="clip2">
<rect x="346.752" y="77.6768" width="63.9542" height="64" fill="white"/>
</clipPath>
<clipPath id="clip3">
<rect width="32.6182" height="32.5978" transform="matrix(-0.251225 -0.967929 0.967841 -0.251562 8.19434 262.449)" fill="white"/>
</clipPath>
<clipPath id="clip4">
<rect width="47.5206" height="47.4909" transform="matrix(-0.251225 -0.967929 0.967841 -0.251562 112.923 322.01)" fill="white"/>
</clipPath>
<clipPath id="clip5">
<rect width="31.817" height="31.7971" transform="matrix(-0.251225 -0.967929 0.967841 -0.251562 83.939 427.472)" fill="white"/>
</clipPath>
<clipPath id="clip6">
<rect width="30.9796" height="30.9602" transform="matrix(-0.251225 -0.967929 0.967841 -0.251562 553.035 384.255)" fill="white"/>
</clipPath>
<clipPath id="clip7">
<rect width="43.7197" height="43.6923" transform="matrix(-0.251225 -0.967929 0.967841 -0.251562 513.624 162.985)" fill="white"/>
</clipPath>
</defs>
</svg>
