<svg width="131" height="108" viewBox="0 0 131 108" fill="none" xmlns="http://www.w3.org/2000/svg">
<g filter="url(#filter0_b)">
<path fill-rule="evenodd" clip-rule="evenodd" d="M108.5 45C120.926 45 131 34.9264 131 22.5C131 10.0736 120.926 0 108.5 0C96.0736 0 86 10.0736 86 22.5C86 23.345 86.0466 24.1792 86.1373 25H108V44.9946C108.166 44.9982 108.333 45 108.5 45Z" fill="#ADE1B3"/>
<path fill-rule="evenodd" clip-rule="evenodd" d="M36 25H79.0602C70.6694 17.535 59.6143 13 47.5 13C21.2665 13 0 34.2665 0 60.5C0 86.7335 21.2665 108 47.5 108C59.109 108 69.7453 103.835 77.9964 96.9188C75.6835 97.3276 72.7746 97.5 70 97.5C68.765 97.5 67.5681 97.5306 66.447 97.5593C62.174 97.6687 59 97.75 59 96C59 94.2506 63.4263 91.1956 68.2193 90H67V86H68V79H76V86H77V90H76.2706C79.0051 90.663 81.0848 91.8968 81.9953 93.1548C86.3587 88.547 89.8089 83.0654 92.0559 77H36V25Z" fill="#ADE1B3"/>
<g filter="url(#filter1_b)">
<path d="M108.836 23.043H35.1641C34.8667 23.043 34.5816 23.1611 34.3713 23.3713C34.1611 23.5816 34.043 23.8667 34.043 24.1641V78.3155C34.0429 78.4627 34.0718 78.6085 34.1281 78.7446C34.1844 78.8806 34.267 79.0043 34.3711 79.1084C34.4753 79.2125 34.5989 79.2951 34.7349 79.3514C34.871 79.4077 35.0168 79.4366 35.1641 79.4366H67.1799L65.5297 89.151C63.4666 89.4861 61.5896 90.5434 60.2339 92.1342C58.8781 93.725 58.1317 95.7458 58.1279 97.8359C58.1279 98.1333 58.246 98.4184 58.4563 98.6287C58.6665 98.8389 58.9517 98.957 59.249 98.957H84.7484C85.0458 98.957 85.3309 98.8389 85.5412 98.6287C85.7514 98.4184 85.8695 98.1333 85.8695 97.8359C85.8659 95.7463 85.1199 93.7258 83.7648 92.1351C82.4097 90.5444 80.5335 89.4868 78.471 89.151L76.8201 79.4366H108.836C108.983 79.4366 109.129 79.4077 109.265 79.3514C109.401 79.2951 109.525 79.2125 109.629 79.1084C109.733 79.0043 109.816 78.8806 109.872 78.7446C109.928 78.6085 109.957 78.4627 109.957 78.3155V24.1641C109.957 23.8667 109.839 23.5816 109.629 23.3713C109.418 23.1611 109.133 23.043 108.836 23.043ZM54.1157 66.5055H89.8843C90.0316 66.5056 90.1774 66.4767 90.3135 66.4204C90.4495 66.3641 90.5731 66.2815 90.6773 66.1774C90.7814 66.0732 90.8639 65.9496 90.9203 65.8136C90.9766 65.6775 91.0055 65.5317 91.0054 65.3844V29.1289H103.871V69.5075H40.1289V29.1289H52.9946V65.3844C52.9945 65.5317 53.0234 65.6775 53.0797 65.8136C53.1361 65.9496 53.2186 66.0732 53.3228 66.1774C53.4269 66.2815 53.5505 66.3641 53.6865 66.4204C53.8226 66.4767 53.9684 66.5056 54.1157 66.5055ZM88.7632 25.2852V64.2633H55.2368V25.2852H88.7632ZM83.5345 96.7149H60.4688C60.7349 95.1913 61.5295 93.8103 62.7128 92.8145C63.8961 91.8186 65.3925 91.2716 66.9391 91.2695H77.0609C78.6081 91.2709 80.1052 91.8175 81.2892 92.8135C82.4732 93.8094 83.2682 95.1908 83.5345 96.7149ZM76.1775 89.0274H67.8225L69.4554 79.4366H74.5446L76.1775 89.0274ZM107.715 77.1944H36.2852V25.2852H52.9946V26.8867H39.0078C38.7105 26.8867 38.4253 27.0048 38.2151 27.2151C38.0048 27.4253 37.8867 27.7105 37.8867 28.0078V70.6286C37.8867 70.9259 38.0048 71.2111 38.2151 71.4213C38.4253 71.6316 38.7105 71.7497 39.0078 71.7497H104.992C105.29 71.7497 105.575 71.6316 105.785 71.4213C105.995 71.2111 106.113 70.9259 106.113 70.6286V28.0078C106.113 27.7105 105.995 27.4253 105.785 27.2151C105.575 27.0048 105.29 26.8867 104.992 26.8867H91.0054V25.2852H107.715V77.1944Z" fill="#3BC14A" stroke="#3BC14A" stroke-width="0.5"/>
<path d="M101.148 42.1548C101.446 42.1548 101.731 42.0367 101.941 41.8264C102.151 41.6162 102.27 41.331 102.27 41.0337V35.498C102.27 35.2007 102.151 34.9156 101.941 34.7053C101.731 34.4951 101.446 34.377 101.148 34.377C100.851 34.377 100.566 34.4951 100.356 34.7053C100.145 34.9156 100.027 35.2007 100.027 35.498V41.0337C100.027 41.331 100.145 41.6162 100.356 41.8264C100.566 42.0367 100.851 42.1548 101.148 42.1548Z" fill="#3BC14A" stroke="#3BC14A" stroke-width="0.5"/>
<path d="M81.0937 56.8263V55.1857C81.6117 55.3125 82.0945 55.5545 82.5063 55.8936L83.2961 54.8045C82.6785 54.2662 81.907 53.936 81.0911 53.8609V53.217H80.0994V53.8525C78.797 54.0172 77.936 54.8577 77.936 56.0268C77.936 57.2677 78.8175 57.729 80.0994 58.057V59.7591C79.5043 59.6153 78.954 59.3264 78.4979 58.918L77.626 59.9539C78.3117 60.5789 79.176 60.9734 80.0975 61.082V61.7591H81.0918V61.1127C82.6113 61 83.4928 60.1384 83.4928 58.8859C83.4928 57.6162 82.5396 57.1562 81.0937 56.8263ZM80.0994 56.5598C79.651 56.4061 79.4633 56.2113 79.4633 55.8731C79.4725 55.7005 79.5407 55.5363 79.6565 55.408C79.7723 55.2798 79.9287 55.1952 80.0994 55.1684V56.5598ZM81.0937 59.8206V58.3036C81.7196 58.4779 81.9656 58.6624 81.9656 59.0519C81.9656 59.4311 81.6683 59.7489 81.0937 59.8206Z" fill="#3BC14A" stroke="#3BC14A" stroke-width="0.5"/>
<path d="M78.353 41.0342H82.7836C83.0809 41.0342 83.3661 40.9161 83.5763 40.7058C83.7866 40.4956 83.9047 40.2104 83.9047 39.9131C83.9047 39.6158 83.7866 39.3306 83.5763 39.1204C83.3661 38.9101 83.0809 38.792 82.7836 38.792H78.353C78.0557 38.792 77.7705 38.9101 77.5603 39.1204C77.3501 39.3306 77.2319 39.6158 77.2319 39.9131C77.2319 40.2104 77.3501 40.4956 77.5603 40.7058C77.7705 40.9161 78.0557 41.0342 78.353 41.0342Z" fill="#3BC14A" stroke="#3BC14A" stroke-width="0.5"/>
<path d="M78.353 45.8953H82.7836C83.0809 45.8953 83.3661 45.7771 83.5763 45.5669C83.7866 45.3567 83.9047 45.0715 83.9047 44.7742C83.9047 44.4768 83.7866 44.1917 83.5763 43.9814C83.3661 43.7712 83.0809 43.6531 82.7836 43.6531H78.353C78.0557 43.6531 77.7705 43.7712 77.5603 43.9814C77.3501 44.1917 77.2319 44.4768 77.2319 44.7742C77.2319 45.0715 77.3501 45.3567 77.5603 45.5669C77.7705 45.7771 78.0557 45.8953 78.353 45.8953Z" fill="#3BC14A" stroke="#3BC14A" stroke-width="0.5"/>
<path d="M78.353 36.1733H82.7836C83.0809 36.1733 83.3661 36.0552 83.5763 35.845C83.7866 35.6347 83.9047 35.3496 83.9047 35.0522C83.9047 34.7549 83.7866 34.4698 83.5763 34.2595C83.3661 34.0493 83.0809 33.9312 82.7836 33.9312H78.353C78.0557 33.9312 77.7705 34.0493 77.5603 34.2595C77.3501 34.4698 77.2319 34.7549 77.2319 35.0522C77.2319 35.3496 77.3501 35.6347 77.5603 35.845C77.7705 36.0552 78.0557 36.1733 78.353 36.1733Z" fill="#3BC14A" stroke="#3BC14A" stroke-width="0.5"/>
<path d="M78.353 31.3115H82.7836C83.0809 31.3115 83.3661 31.1934 83.5763 30.9832C83.7866 30.7729 83.9047 30.4878 83.9047 30.1904C83.9047 29.8931 83.7866 29.6079 83.5763 29.3977C83.3661 29.1875 83.0809 29.0693 82.7836 29.0693H78.353C78.0557 29.0693 77.7705 29.1875 77.5603 29.3977C77.3501 29.6079 77.2319 29.8931 77.2319 30.1904C77.2319 30.4878 77.3501 30.7729 77.5603 30.9832C77.7705 31.1934 78.0557 31.3115 78.353 31.3115Z" fill="#3BC14A" stroke="#3BC14A" stroke-width="0.5"/>
<path d="M61.2163 50.7563H82.7836C83.0809 50.7563 83.3661 50.6382 83.5763 50.428C83.7866 50.2177 83.9047 49.9326 83.9047 49.6353C83.9047 49.3379 83.7866 49.0528 83.5763 48.8425C83.3661 48.6323 83.0809 48.5142 82.7836 48.5142H61.2163C60.919 48.5142 60.6338 48.6323 60.4236 48.8425C60.2133 49.0528 60.0952 49.3379 60.0952 49.6353C60.0952 49.9326 60.2133 50.2177 60.4236 50.428C60.6338 50.6382 60.919 50.7563 61.2163 50.7563Z" fill="#3BC14A" stroke="#3BC14A" stroke-width="0.5"/>
<path d="M61.2163 55.6187H73.5214C73.8188 55.6187 74.1039 55.5005 74.3142 55.2903C74.5244 55.08 74.6425 54.7949 74.6425 54.4976C74.6425 54.2002 74.5244 53.9151 74.3142 53.7048C74.1039 53.4946 73.8188 53.3765 73.5214 53.3765H61.2163C60.919 53.3765 60.6338 53.4946 60.4236 53.7048C60.2133 53.9151 60.0952 54.2002 60.0952 54.4976C60.0952 54.7949 60.2133 55.08 60.4236 55.2903C60.6338 55.5005 60.919 55.6187 61.2163 55.6187Z" fill="#3BC14A" stroke="#3BC14A" stroke-width="0.5"/>
<path d="M61.2163 60.4793H73.5214C73.8188 60.4793 74.1039 60.3611 74.3142 60.1509C74.5244 59.9406 74.6425 59.6555 74.6425 59.3582C74.6425 59.0608 74.5244 58.7757 74.3142 58.5654C74.1039 58.3552 73.8188 58.2371 73.5214 58.2371H61.2163C60.919 58.2371 60.6338 58.3552 60.4236 58.5654C60.2133 58.7757 60.0952 59.0608 60.0952 59.3582C60.0952 59.6555 60.2133 59.9406 60.4236 60.1509C60.6338 60.3611 60.919 60.4793 61.2163 60.4793Z" fill="#3BC14A" stroke="#3BC14A" stroke-width="0.5"/>
<path d="M67.6226 44.124C69.1113 44.124 70.5667 43.6826 71.8045 42.8554C73.0424 42.0283 74.0072 40.8527 74.5769 39.4773C75.1467 38.1018 75.2957 36.5883 75.0053 35.1282C74.7148 33.668 73.9979 32.3268 72.9452 31.274C71.8925 30.2213 70.5512 29.5044 69.0911 29.214C67.6309 28.9235 66.1174 29.0726 64.742 29.6423C63.3665 30.2121 62.1909 31.1768 61.3638 32.4147C60.5367 33.6526 60.0952 35.1079 60.0952 36.5967C60.0974 38.5924 60.8912 40.5057 62.3024 41.9169C63.7135 43.3281 65.6269 44.1218 67.6226 44.124ZM67.6226 31.3115C68.6679 31.3115 69.6897 31.6215 70.5588 32.2022C71.428 32.783 72.1054 33.6084 72.5054 34.5741C72.9054 35.5399 73.0101 36.6025 72.8062 37.6278C72.6022 38.653 72.0989 39.5947 71.3597 40.3339C70.6206 41.073 69.6789 41.5764 68.6536 41.7803C67.6284 41.9842 66.5658 41.8795 65.6 41.4795C64.6343 41.0795 63.8089 40.4021 63.2281 39.533C62.6474 38.6638 62.3374 37.642 62.3374 36.5967C62.3389 35.1954 62.8962 33.852 63.8871 32.8612C64.8779 31.8704 66.2213 31.3131 67.6226 31.3115Z" fill="#3BC14A" stroke="#3BC14A" stroke-width="0.5"/>
<path d="M65.4573 39.4175C65.6677 39.6274 65.9528 39.7453 66.2501 39.7453C66.5473 39.7453 66.8324 39.6274 67.0428 39.4175L71.098 35.3617C71.2051 35.2582 71.2904 35.1345 71.3492 34.9977C71.4079 34.8609 71.4388 34.7138 71.4401 34.5649C71.4413 34.4161 71.4129 34.2685 71.3565 34.1307C71.3001 33.9929 71.2169 33.8678 71.1116 33.7625C71.0063 33.6573 70.8811 33.5741 70.7433 33.5177C70.6055 33.4614 70.4579 33.433 70.309 33.4344C70.1602 33.4357 70.0131 33.4667 69.8763 33.5254C69.7395 33.5842 69.6158 33.6696 69.5125 33.7767L66.2497 37.0407L65.7328 36.5231C65.5224 36.3128 65.2372 36.1948 64.9398 36.1948C64.6423 36.1949 64.3571 36.3131 64.1469 36.5234C63.9366 36.7338 63.8185 37.019 63.8186 37.3164C63.8187 37.6138 63.9369 37.899 64.1472 38.1093L65.4573 39.4175Z" fill="#3BC14A"/>
<path d="M84.1768 65.1768C84.2744 65.0791 84.2744 64.9209 84.1768 64.8232L82.5858 63.2322C82.4882 63.1346 82.3299 63.1346 82.2322 63.2322C82.1346 63.3299 82.1346 63.4882 82.2322 63.5858L83.6464 65L82.2322 66.4142C82.1346 66.5118 82.1346 66.6701 82.2322 66.7678C82.3299 66.8654 82.4882 66.8654 82.5858 66.7678L84.1768 65.1768ZM56 65.25H84V64.75H56V65.25Z" fill="#3BC14A"/>
</g>
</g>
<defs>
<filter id="filter0_b" x="-4" y="-4" width="139" height="116" filterUnits="userSpaceOnUse" color-interpolation-filters="sRGB">
<feFlood flood-opacity="0" result="BackgroundImageFix"/>
<feGaussianBlur in="BackgroundImage" stdDeviation="2"/>
<feComposite in2="SourceAlpha" operator="in" result="effect1_backgroundBlur"/>
<feBlend mode="normal" in="SourceGraphic" in2="effect1_backgroundBlur" result="shape"/>
</filter>
<filter id="filter1_b" x="27" y="16" width="90" height="90" filterUnits="userSpaceOnUse" color-interpolation-filters="sRGB">
<feFlood flood-opacity="0" result="BackgroundImageFix"/>
<feGaussianBlur in="BackgroundImage" stdDeviation="2"/>
<feComposite in2="SourceAlpha" operator="in" result="effect1_backgroundBlur"/>
<feBlend mode="normal" in="SourceGraphic" in2="effect1_backgroundBlur" result="shape"/>
</filter>
</defs>
</svg>
