<svg width="131" height="108" viewBox="0 0 131 108" fill="none" xmlns="http://www.w3.org/2000/svg">
<path fill-rule="evenodd" clip-rule="evenodd" d="M86.6851 86.7329C87.0198 98.5345 96.8098 108 108.838 108C121.077 108 131 98.1987 131 86.1082C131 74.0176 121.077 64.2163 108.838 64.2163C107.788 64.2163 106.754 64.2885 105.743 64.4281C103.027 74.3402 95.9568 82.4843 86.6851 86.7329Z" fill="#ADE1B3"/>
<path fill-rule="evenodd" clip-rule="evenodd" d="M86.4311 21.6647C82.1436 19.9136 77.444 18.9473 72.5161 18.9473C52.3888 18.9473 36.0724 35.0651 36.0724 54.9473C36.0724 71.506 47.3898 85.4535 62.8004 89.6538C57.8045 91.4516 52.411 92.4323 46.7857 92.4323C20.9467 92.4323 0 71.7406 0 46.2162C0 20.6917 20.9467 0 46.7857 0C63.4928 0 78.1545 8.65052 86.4311 21.6647Z" fill="#ADE1B3"/>
<g clip-path="url(#clip0)">
<path d="M74.6895 66.4504C77.3113 65.8078 79.2504 64.1237 79.2504 62.1881C79.2504 60.2525 77.3113 58.5683 74.6895 57.9258V66.4504Z" fill="#3BC14A"/>
<path d="M72.4091 30.3479C58.577 30.3479 47.3237 41.5786 47.3237 55.3828C47.3237 69.1871 58.577 80.4177 72.4091 80.4177C86.2411 80.4177 97.4944 69.1871 97.4944 55.3828C97.4944 41.5786 86.2411 30.3479 72.4091 30.3479ZM83.8115 62.1884C83.8115 66.5854 79.8877 70.2621 74.6896 71.1078V73.59C74.6896 74.848 73.6696 75.8659 72.4091 75.8659C71.1486 75.8659 70.1286 74.848 70.1286 73.59V71.1078C64.9304 70.2621 61.0066 66.5854 61.0066 62.1884C61.0066 60.9304 62.0266 59.9125 63.2871 59.9125C64.5476 59.9125 65.5676 60.9304 65.5676 62.1884C65.5676 64.124 67.5068 65.8081 70.1286 66.4507V57.4524C64.9304 56.6067 61.0066 52.93 61.0066 48.533C61.0066 44.1359 64.9304 40.4593 70.1286 39.6136V37.1535C70.1286 35.8955 71.1486 34.8776 72.4091 34.8776C73.6696 34.8776 74.6896 35.8955 74.6896 37.1535V39.6136C79.8877 40.4593 83.8115 44.1359 83.8115 48.533C83.8115 49.7909 82.7915 50.8089 81.531 50.8089C80.2705 50.8089 79.2505 49.7909 79.2505 48.533C79.2505 46.5974 77.3114 44.9132 74.6896 44.2707V53.269C79.8877 54.1145 83.8115 57.7912 83.8115 62.1884Z" fill="#3BC14A"/>
<path d="M70.1286 44.2705C67.5068 44.9131 65.5676 46.5972 65.5676 48.5328C65.5676 50.4684 67.5068 52.1526 70.1286 52.7951V44.2705Z" fill="#3BC14A"/>
<path d="M72.4091 16.5408C51.0318 16.5408 33.4888 34.0485 33.4888 55.3828C33.4888 76.7171 51.0318 94.2249 72.4091 94.2249C93.7863 94.2249 111.329 76.7171 111.329 55.3828C111.329 34.0485 93.7863 16.5408 72.4091 16.5408ZM72.4091 84.9695C56.0625 84.9695 42.7627 71.6965 42.7627 55.3828C42.7627 39.0692 56.0625 25.7961 72.4091 25.7961C88.7556 25.7961 102.055 39.0692 102.055 55.3828C102.055 71.6965 88.7556 84.9695 72.4091 84.9695Z" fill="#3BC14A"/>
</g>
<defs>
<clipPath id="clip0">
<rect x="33.4888" y="16.5408" width="77.8406" height="77.6841" fill="white"/>
</clipPath>
</defs>
</svg>
