<svg width="25" height="25" viewBox="0 0 25 25" fill="none" xmlns="http://www.w3.org/2000/svg">
<circle cx="12.5" cy="12.5" r="12.5" fill="#C4C4C4"/>
<path d="M19.9967 20.0003V19.9997H20.0002V14.8652C20.0002 12.3534 19.4595 10.4185 16.523 10.4185C15.1113 10.4185 14.164 11.1931 13.7772 11.9275H13.7364V10.653H10.9521V19.9997H13.8513V15.3715C13.8513 14.153 14.0823 12.9746 15.5914 12.9746C17.0783 12.9746 17.1005 14.3653 17.1005 15.4497V20.0003H19.9967Z" fill="#333333"/>
<path d="M6.23096 10.6533H9.13362V20.0001H6.23096V10.6533Z" fill="#333333"/>
<path d="M7.68117 6C6.75308 6 6 6.75308 6 7.68117C6 8.60925 6.75308 9.37808 7.68117 9.37808C8.60925 9.37808 9.36233 8.60925 9.36233 7.68117C9.36175 6.75308 8.60867 6 7.68117 6V6Z" fill="#333333"/>
</svg>
