<svg width="248" height="40" viewBox="0 0 248 40" fill="none" xmlns="http://www.w3.org/2000/svg">
<g clip-path="url(#clip0)">
<path d="M33.75 25.0001H29.5834C28.8934 25.0001 28.3334 24.4401 28.3334 23.7501V19.5835C28.3334 18.8935 28.8934 18.3335 29.5834 18.3335H33.75C34.44 18.3335 35 18.8935 35 19.5835V23.7501C35 24.4401 34.44 25.0001 33.75 25.0001Z" fill="white"/>
<path d="M33.75 35.0001H29.5834C28.8934 35.0001 28.3334 34.4401 28.3334 33.7501V29.5835C28.3334 28.8935 28.8934 28.3335 29.5834 28.3335H33.75C34.44 28.3335 35 28.8935 35 29.5835V33.7501C35 34.4401 34.44 35.0001 33.75 35.0001Z" fill="white"/>
<path d="M22.0835 25.0001H17.9166C17.2266 25.0001 16.6666 24.4401 16.6666 23.7501V19.5835C16.6666 18.8935 17.2266 18.3335 17.9166 18.3335H22.0835C22.7735 18.3335 23.3335 18.8935 23.3335 19.5835V23.7501C23.3335 24.4401 22.7735 25.0001 22.0835 25.0001Z" fill="white"/>
<path d="M22.0835 35.0001H17.9166C17.2266 35.0001 16.6666 34.4401 16.6666 33.7501V29.5835C16.6666 28.8935 17.2266 28.3335 17.9166 28.3335H22.0835C22.7735 28.3335 23.3335 28.8935 23.3335 29.5835V33.7501C23.3335 34.4401 22.7735 35.0001 22.0835 35.0001Z" fill="white"/>
<path d="M10.4165 25.0001H6.24994C5.55994 25.0001 4.99994 24.4401 4.99994 23.7501V19.5835C4.99994 18.8935 5.55994 18.3335 6.24994 18.3335H10.4165C11.1065 18.3335 11.6665 18.8935 11.6665 19.5835V23.7501C11.6665 24.4401 11.1065 25.0001 10.4165 25.0001Z" fill="white"/>
<path d="M5 5H6.66656V1.66656C6.66656 0.746765 7.41333 0 8.33344 0H10C10.9201 0 11.6666 0.746765 11.6666 1.66656V5H28.3334V1.66656C28.3334 0.746765 29.0799 0 30 0H31.6666C32.5867 0 33.3334 0.746765 33.3334 1.66656V5H35C37.7567 5 40 7.24335 40 10V35C40 37.7567 37.7567 40 35 40H5C2.24335 40 0 37.7567 0 35V10C0 7.24335 2.24335 5 5 5ZM3.33344 35C3.33344 35.9183 4.08173 36.6666 5 36.6666H35C35.9183 36.6666 36.6666 35.9183 36.6666 35V16.7334H3.33344V35Z" fill="white"/>
</g>
<path d="M66.1152 19.1836C66.1152 20.5703 65.8581 21.7975 65.3438 22.8652C64.8294 23.9329 64.097 24.7565 63.1465 25.3359C62.2025 25.9089 61.125 26.1953 59.9141 26.1953C58.7031 26.1953 57.6289 25.9186 56.6914 25.3652C55.7539 24.8053 55.0215 24.0078 54.4941 22.9727C53.9733 21.9375 53.6999 20.7493 53.6738 19.4082V18.6074C53.6738 17.2142 53.9277 15.987 54.4355 14.9258C54.9499 13.8581 55.6823 13.0345 56.6328 12.4551C57.5898 11.8757 58.6771 11.5859 59.8945 11.5859C61.099 11.5859 62.1732 11.8724 63.1172 12.4453C64.0612 13.0182 64.7936 13.8353 65.3145 14.8965C65.8418 15.9512 66.1087 17.1621 66.1152 18.5293V19.1836ZM62.6289 18.5879C62.6289 17.1751 62.3913 16.1042 61.916 15.375C61.4473 14.6393 60.7734 14.2715 59.8945 14.2715C58.1758 14.2715 57.2676 15.5605 57.1699 18.1387L57.1602 19.1836C57.1602 20.5768 57.3913 21.6478 57.8535 22.3965C58.3158 23.1452 59.0026 23.5195 59.9141 23.5195C60.7799 23.5195 61.4473 23.1517 61.916 22.416C62.3848 21.6803 62.6224 20.6224 62.6289 19.2422V18.5879ZM74.123 18.4121L73.0391 18.334C72.0039 18.334 71.3398 18.6595 71.0469 19.3105V26H67.7559V15.4336H70.8418L70.9492 16.791C71.5026 15.7559 72.2741 15.2383 73.2637 15.2383C73.6152 15.2383 73.9212 15.2773 74.1816 15.3555L74.123 18.4121ZM74.7285 20.6387C74.7285 19.571 74.9043 18.627 75.2559 17.8066C75.6074 16.9863 76.112 16.3548 76.7695 15.9121C77.4271 15.4629 78.1921 15.2383 79.0645 15.2383C80.1647 15.2383 81.0241 15.6094 81.6426 16.3516L81.7598 15.4336H84.748V25.5996C84.748 26.5306 84.5299 27.3379 84.0938 28.0215C83.6641 28.7116 83.0391 29.2389 82.2188 29.6035C81.3984 29.9746 80.4479 30.1602 79.3672 30.1602C78.5924 30.1602 77.8405 30.0137 77.1113 29.7207C76.3887 29.4277 75.8353 29.0469 75.4512 28.5781L76.8281 26.6445C77.4401 27.3672 78.2474 27.7285 79.25 27.7285C80.7083 27.7285 81.4375 26.9798 81.4375 25.4824V25.1504C80.806 25.847 80.0085 26.1953 79.0449 26.1953C77.7559 26.1953 76.7142 25.7038 75.9199 24.7207C75.1257 23.7311 74.7285 22.4095 74.7285 20.7559V20.6387ZM78.0293 20.8438C78.0293 21.7096 78.1921 22.3965 78.5176 22.9043C78.8431 23.4056 79.2988 23.6562 79.8848 23.6562C80.5944 23.6562 81.112 23.4186 81.4375 22.9434V18.5C81.1185 18.0182 80.6074 17.7773 79.9043 17.7773C79.3184 17.7773 78.8594 18.041 78.5273 18.5684C78.1953 19.0892 78.0293 19.8477 78.0293 20.8438ZM92.5703 26C92.4531 25.7852 92.349 25.4694 92.2578 25.0527C91.6523 25.8145 90.806 26.1953 89.7188 26.1953C88.7227 26.1953 87.8763 25.8958 87.1797 25.2969C86.4831 24.6914 86.1348 23.9329 86.1348 23.0215C86.1348 21.8757 86.5579 21.0098 87.4043 20.4238C88.2507 19.8379 89.4811 19.5449 91.0957 19.5449H92.1113V18.9883C92.1113 18.0182 91.6914 17.5332 90.8516 17.5332C90.0703 17.5332 89.6797 17.9173 89.6797 18.6855H86.3887C86.3887 17.6634 86.8216 16.8333 87.6875 16.1953C88.5599 15.5573 89.6699 15.2383 91.0176 15.2383C92.3652 15.2383 93.4297 15.5671 94.2109 16.2246C94.9922 16.8822 95.3926 17.7839 95.4121 18.9297V23.6074C95.4251 24.5775 95.5749 25.3197 95.8613 25.834V26H92.5703ZM90.5098 23.8516C90.9199 23.8516 91.2585 23.7637 91.5254 23.5879C91.7988 23.4121 91.9941 23.2135 92.1113 22.9922V21.3027H91.1543C90.0085 21.3027 89.4355 21.8171 89.4355 22.8457C89.4355 23.1452 89.5365 23.3893 89.7383 23.5781C89.9401 23.7604 90.1973 23.8516 90.5098 23.8516ZM100.266 15.4336L100.373 16.6738C101.102 15.7168 102.108 15.2383 103.391 15.2383C104.491 15.2383 105.311 15.5671 105.852 16.2246C106.398 16.8822 106.682 17.8717 106.701 19.1934V26H103.4V19.3301C103.4 18.7962 103.293 18.4056 103.078 18.1582C102.863 17.9043 102.473 17.7773 101.906 17.7773C101.262 17.7773 100.783 18.0312 100.471 18.5391V26H97.1797V15.4336H100.266ZM112.004 26H108.703V15.4336H112.004V26ZM108.508 12.709C108.508 12.2402 108.677 11.8561 109.016 11.5566C109.354 11.2572 109.794 11.1074 110.334 11.1074C110.874 11.1074 111.314 11.2572 111.652 11.5566C111.991 11.8561 112.16 12.2402 112.16 12.709C112.16 13.1777 111.991 13.5618 111.652 13.8613C111.314 14.1608 110.874 14.3105 110.334 14.3105C109.794 14.3105 109.354 14.1608 109.016 13.8613C108.677 13.5618 108.508 13.1777 108.508 12.709ZM117.922 23.4609H122.736V26H113.762V24.1641L118.449 17.9727H113.967V15.4336H122.629V17.2109L117.922 23.4609ZM129.289 26.1953C127.668 26.1953 126.356 25.7135 125.354 24.75C124.351 23.7799 123.85 22.5202 123.85 20.9707V20.6973C123.85 19.6165 124.048 18.6628 124.445 17.8359C124.849 17.0091 125.435 16.3711 126.203 15.9219C126.971 15.4661 127.883 15.2383 128.938 15.2383C130.422 15.2383 131.594 15.7005 132.453 16.625C133.312 17.543 133.742 18.8255 133.742 20.4727V21.752H127.199C127.316 22.3444 127.574 22.8099 127.971 23.1484C128.368 23.487 128.882 23.6562 129.514 23.6562C130.555 23.6562 131.369 23.2917 131.955 22.5625L133.459 24.3398C133.049 24.9062 132.466 25.3587 131.711 25.6973C130.962 26.0293 130.155 26.1953 129.289 26.1953ZM128.918 17.7773C127.954 17.7773 127.382 18.4154 127.199 19.6914H130.52V19.4375C130.533 18.9102 130.399 18.5033 130.119 18.2168C129.839 17.9238 129.439 17.7773 128.918 17.7773ZM143.049 20.7168V26H140.578V11.7812H146.018C147.606 11.7812 148.866 12.1947 149.797 13.0215C150.734 13.8483 151.203 14.9421 151.203 16.3027C151.203 17.696 150.744 18.7799 149.826 19.5547C148.915 20.3294 147.635 20.7168 145.988 20.7168H143.049ZM143.049 18.7344H146.018C146.896 18.7344 147.567 18.5293 148.029 18.1191C148.492 17.7025 148.723 17.1035 148.723 16.3223C148.723 15.554 148.488 14.9421 148.02 14.4863C147.551 14.0241 146.906 13.7865 146.086 13.7734H143.049V18.7344ZM157.658 26.1953C156.154 26.1953 154.934 25.7233 153.996 24.7793C153.065 23.8288 152.6 22.5658 152.6 20.9902V20.6973C152.6 19.6426 152.801 18.7018 153.205 17.875C153.615 17.0417 154.188 16.3939 154.924 15.9316C155.66 15.4694 156.48 15.2383 157.385 15.2383C158.824 15.2383 159.934 15.6973 160.715 16.6152C161.503 17.5332 161.896 18.832 161.896 20.5117V21.4688H154.992C155.064 22.3411 155.354 23.0312 155.861 23.5391C156.376 24.0469 157.02 24.3008 157.795 24.3008C158.882 24.3008 159.768 23.8613 160.451 22.9824L161.73 24.2031C161.307 24.8346 160.741 25.3262 160.031 25.6777C159.328 26.0228 158.537 26.1953 157.658 26.1953ZM157.375 17.1426C156.724 17.1426 156.197 17.3704 155.793 17.8262C155.396 18.2819 155.142 18.9167 155.031 19.7305H159.553V19.5547C159.501 18.7604 159.289 18.1615 158.918 17.7578C158.547 17.3477 158.033 17.1426 157.375 17.1426ZM169.67 23.1289C169.67 22.7057 169.494 22.3835 169.143 22.1621C168.798 21.9408 168.221 21.7454 167.414 21.5762C166.607 21.4069 165.933 21.1921 165.393 20.9316C164.208 20.3587 163.615 19.5286 163.615 18.4414C163.615 17.5299 163.999 16.7682 164.768 16.1562C165.536 15.5443 166.512 15.2383 167.697 15.2383C168.96 15.2383 169.979 15.5508 170.754 16.1758C171.535 16.8008 171.926 17.6113 171.926 18.6074H169.553C169.553 18.1517 169.383 17.7741 169.045 17.4746C168.706 17.1686 168.257 17.0156 167.697 17.0156C167.176 17.0156 166.75 17.1361 166.418 17.377C166.092 17.6178 165.93 17.9401 165.93 18.3438C165.93 18.7083 166.083 18.9915 166.389 19.1934C166.695 19.3952 167.313 19.6003 168.244 19.8086C169.175 20.0104 169.904 20.2546 170.432 20.541C170.965 20.821 171.359 21.1595 171.613 21.5566C171.874 21.9538 172.004 22.4355 172.004 23.002C172.004 23.9525 171.61 24.724 170.822 25.3164C170.035 25.9023 169.003 26.1953 167.727 26.1953C166.861 26.1953 166.089 26.0391 165.412 25.7266C164.735 25.4141 164.208 24.9844 163.83 24.4375C163.452 23.8906 163.264 23.3014 163.264 22.6699H165.568C165.601 23.2298 165.812 23.6628 166.203 23.9688C166.594 24.2682 167.111 24.418 167.756 24.418C168.381 24.418 168.856 24.3008 169.182 24.0664C169.507 23.8255 169.67 23.513 169.67 23.1289ZM180.002 23.1289C180.002 22.7057 179.826 22.3835 179.475 22.1621C179.13 21.9408 178.553 21.7454 177.746 21.5762C176.939 21.4069 176.265 21.1921 175.725 20.9316C174.54 20.3587 173.947 19.5286 173.947 18.4414C173.947 17.5299 174.331 16.7682 175.1 16.1562C175.868 15.5443 176.844 15.2383 178.029 15.2383C179.292 15.2383 180.311 15.5508 181.086 16.1758C181.867 16.8008 182.258 17.6113 182.258 18.6074H179.885C179.885 18.1517 179.715 17.7741 179.377 17.4746C179.038 17.1686 178.589 17.0156 178.029 17.0156C177.508 17.0156 177.082 17.1361 176.75 17.377C176.424 17.6178 176.262 17.9401 176.262 18.3438C176.262 18.7083 176.415 18.9915 176.721 19.1934C177.027 19.3952 177.645 19.6003 178.576 19.8086C179.507 20.0104 180.236 20.2546 180.764 20.541C181.298 20.821 181.691 21.1595 181.945 21.5566C182.206 21.9538 182.336 22.4355 182.336 23.002C182.336 23.9525 181.942 24.724 181.154 25.3164C180.367 25.9023 179.335 26.1953 178.059 26.1953C177.193 26.1953 176.421 26.0391 175.744 25.7266C175.067 25.4141 174.54 24.9844 174.162 24.4375C173.785 23.8906 173.596 23.3014 173.596 22.6699H175.9C175.933 23.2298 176.145 23.6628 176.535 23.9688C176.926 24.2682 177.443 24.418 178.088 24.418C178.713 24.418 179.188 24.3008 179.514 24.0664C179.839 23.8255 180.002 23.513 180.002 23.1289ZM183.967 20.6191C183.967 19.584 184.172 18.653 184.582 17.8262C184.992 16.9928 185.568 16.3548 186.311 15.9121C187.053 15.4629 187.906 15.2383 188.869 15.2383C190.295 15.2383 191.451 15.6973 192.336 16.6152C193.228 17.5332 193.71 18.7507 193.781 20.2676L193.791 20.8242C193.791 21.8659 193.589 22.7969 193.186 23.6172C192.788 24.4375 192.215 25.0723 191.467 25.5215C190.725 25.9707 189.865 26.1953 188.889 26.1953C187.398 26.1953 186.203 25.7005 185.305 24.7109C184.413 23.7148 183.967 22.39 183.967 20.7363V20.6191ZM186.34 20.8242C186.34 21.9115 186.564 22.7643 187.014 23.3828C187.463 23.9948 188.088 24.3008 188.889 24.3008C189.689 24.3008 190.311 23.9883 190.754 23.3633C191.203 22.7383 191.428 21.8236 191.428 20.6191C191.428 19.5514 191.197 18.7051 190.734 18.0801C190.279 17.4551 189.657 17.1426 188.869 17.1426C188.094 17.1426 187.479 17.4518 187.023 18.0703C186.568 18.6823 186.34 19.6003 186.34 20.8242ZM202.111 26C202.007 25.7982 201.916 25.4694 201.838 25.0137C201.083 25.8014 200.158 26.1953 199.064 26.1953C198.003 26.1953 197.137 25.8926 196.467 25.2871C195.796 24.6816 195.461 23.9329 195.461 23.041C195.461 21.9147 195.878 21.0521 196.711 20.4531C197.551 19.8477 198.749 19.5449 200.305 19.5449H201.76V18.8516C201.76 18.3047 201.607 17.8685 201.301 17.543C200.995 17.2109 200.529 17.0449 199.904 17.0449C199.364 17.0449 198.921 17.1816 198.576 17.4551C198.231 17.722 198.059 18.0638 198.059 18.4805H195.686C195.686 17.901 195.878 17.3607 196.262 16.8594C196.646 16.3516 197.167 15.9544 197.824 15.668C198.488 15.3815 199.227 15.2383 200.041 15.2383C201.278 15.2383 202.264 15.5508 203 16.1758C203.736 16.7943 204.113 17.6667 204.133 18.793V23.5586C204.133 24.5091 204.266 25.2676 204.533 25.834V26H202.111ZM199.504 24.291C199.973 24.291 200.412 24.1771 200.822 23.9492C201.239 23.7214 201.551 23.4154 201.76 23.0312V21.0391H200.48C199.602 21.0391 198.941 21.1921 198.498 21.498C198.055 21.804 197.834 22.237 197.834 22.7969C197.834 23.2526 197.984 23.6172 198.283 23.8906C198.589 24.1576 198.996 24.291 199.504 24.291ZM209.143 26H206.77V11H209.143V26Z" fill="white"/>
<defs>
<clipPath id="clip0">
<rect width="40" height="40" transform="matrix(-1 0 0 1 40 0)" fill="white"/>
</clipPath>
</defs>
</svg>
