<svg width="40" height="40" viewBox="0 0 40 40" fill="none" xmlns="http://www.w3.org/2000/svg">
<g clip-path="url(#clip0)">
<path d="M36.319 34.979H3.68102C1.65133 34.979 0 33.3278 0 31.2955C0 29.2658 1.65133 27.6145 3.68102 27.6145H36.319C38.3487 27.6145 40 29.2658 40 31.2955C40 33.3278 38.3487 34.979 36.319 34.979Z" fill="white"/>
<path d="M36.319 23.6821H3.68102C1.65133 23.6821 0 22.0309 0 19.9986C0 17.9689 1.65133 16.3176 3.68102 16.3176H36.319C38.3487 16.3176 40 17.9689 40 19.9986C40 22.0309 38.3487 23.6821 36.319 23.6821V23.6821Z" fill="white"/>
<path d="M36.319 12.3855H3.68102C1.65133 12.3855 0 10.7342 0 8.70198C0 6.6723 1.65133 5.02097 3.68102 5.02097H36.319C38.3487 5.02097 40 6.6723 40 8.70198C40 10.7342 38.3487 12.3855 36.319 12.3855Z" fill="white"/>
</g>
<defs>
<clipPath id="clip0">
<rect width="40" height="40" transform="matrix(1 0 0 -1 0 40)" fill="white"/>
</clipPath>
</defs>
</svg>
