<svg width="564" height="440" viewBox="0 0 564 440" fill="none" xmlns="http://www.w3.org/2000/svg">
<g clip-path="url(#clip0)">
<path d="M542.833 82.5V394.167C542.833 414.417 526.417 430.833 506.167 430.833H47.8333C27.5829 430.833 11.1667 414.417 11.1667 394.167V82.5H542.833Z" fill="#F5F5F5"/>
<path d="M515.333 82.5V394.167C515.333 414.417 498.917 430.833 478.667 430.833H506.167C526.417 430.833 542.833 414.417 542.833 394.167V82.5H515.333Z" fill="#949494"/>
<path d="M542.833 45.8334V82.5H11.1667V45.8334C11.1667 25.5829 27.5829 9.16669 47.8333 9.16669H506.167C526.417 9.16669 542.833 25.5829 542.833 45.8334Z" fill="#B3B3B3"/>
<path d="M506.167 9.16669H478.667C498.917 9.16669 515.333 25.5829 515.333 45.8334V82.5H542.833V45.8334C542.833 25.5829 526.417 9.16669 506.167 9.16669Z" fill="#949494"/>
<path d="M249.5 55H304.5C309.563 55 313.667 50.896 313.667 45.8334C313.667 40.7707 309.563 36.6667 304.5 36.6667H249.5C244.437 36.6667 240.333 40.7707 240.333 45.8334C240.333 50.896 244.437 55 249.5 55Z" fill="#CCCCCC"/>
<path d="M506.167 0H47.8333C22.5328 0.0303061 2.03031 20.5328 2 45.8333V394.167C2.03031 419.467 22.5328 439.97 47.8333 440H506.167C531.467 439.97 551.97 419.467 552 394.167V45.8333C551.97 20.5328 531.467 0.0303061 506.167 0ZM47.8333 18.3333H506.167C521.355 18.3333 533.667 30.6455 533.667 45.8333V73.3333H20.3333V45.8333C20.3333 30.6455 32.6455 18.3333 47.8333 18.3333ZM506.167 421.667H47.8333C32.6455 421.667 20.3333 409.355 20.3333 394.167V91.6667H533.667V394.167C533.667 409.355 521.355 421.667 506.167 421.667Z" fill="#CCCCCC"/>
<path d="M167 293.333C167 298.396 171.104 302.5 176.167 302.5C181.229 302.5 185.333 298.396 185.333 293.333V275H203.667C208.729 275 212.833 270.896 212.833 265.833C212.833 260.771 208.729 256.667 203.667 256.667H185.333V238.333C185.333 233.271 181.229 229.167 176.167 229.167C171.104 229.167 167 233.271 167 238.333V256.667H119.233L183.977 151.47C186.304 147.192 184.881 141.841 180.735 139.286C176.59 136.73 171.169 137.862 168.393 141.863L103.622 247.069C100.146 252.726 100 259.82 103.241 265.615C106.482 271.41 112.602 275 119.242 275H167V293.333Z" fill="#CCCCCC"/>
<path d="M442 256.667H423.667V238.333C423.667 233.271 419.563 229.167 414.5 229.167C409.437 229.167 405.333 233.271 405.333 238.333V256.667H357.566L422.31 151.47C424.244 148.682 424.48 145.053 422.923 142.038C421.366 139.023 418.271 137.115 414.878 137.079C411.484 137.042 408.349 138.883 406.727 141.863L341.955 247.069C338.479 252.726 338.334 259.82 341.574 265.615C344.815 271.41 350.936 275 357.575 275H405.333V293.333C405.333 298.396 409.437 302.5 414.5 302.5C419.563 302.5 423.667 298.396 423.667 293.333V275H442C447.063 275 451.167 270.896 451.167 265.833C451.167 260.771 447.063 256.667 442 256.667Z" fill="#CCCCCC"/>
<path d="M267.833 302.5H286.167C306.417 302.5 322.833 286.084 322.833 265.833V174.167C322.833 153.916 306.417 137.5 286.167 137.5H267.833C247.583 137.5 231.167 153.916 231.167 174.167V265.833C231.167 286.084 247.583 302.5 267.833 302.5ZM249.5 174.167C249.5 164.041 257.708 155.833 267.833 155.833H286.167C296.292 155.833 304.5 164.041 304.5 174.167V265.833C304.5 275.959 296.292 284.167 286.167 284.167H267.833C257.708 284.167 249.5 275.959 249.5 265.833V174.167Z" fill="#CCCCCC"/>
<path d="M387 348.333H167C161.937 348.333 157.833 352.437 157.833 357.5C157.833 362.563 161.937 366.667 167 366.667H387C392.063 366.667 396.167 362.563 396.167 357.5C396.167 352.437 392.063 348.333 387 348.333Z" fill="#CCCCCC"/>
<path d="M304.5 385H249.5C244.437 385 240.333 389.104 240.333 394.167C240.333 399.229 244.437 403.333 249.5 403.333H304.5C309.563 403.333 313.667 399.229 313.667 394.167C313.667 389.104 309.563 385 304.5 385Z" fill="#CCCCCC"/>
</g>
<defs>
<clipPath id="clip0">
<rect width="564" height="440" fill="white"/>
</clipPath>
</defs>
</svg>
