<svg width="598" height="325" viewBox="0 0 598 325" fill="none" xmlns="http://www.w3.org/2000/svg">
<g clip-path="url(#clip0)">
<path d="M300.919 325C463.071 325 594.522 316.303 594.522 305.574C594.522 294.845 463.071 286.147 300.919 286.147C138.766 286.147 7.31557 294.845 7.31557 305.574C7.31557 316.303 138.766 325 300.919 325Z" fill="#F2F2F2"/>
<path d="M289.666 92.9053C241.83 92.9053 207.484 123.579 207.484 195.15C207.484 276.263 241.83 297.735 289.666 297.735C337.502 297.735 373.893 274.219 373.893 195.15C373.893 110.628 337.502 92.9053 289.666 92.9053ZM289.98 270.81C256.848 270.81 239.538 251.383 239.538 195.202C239.538 145.63 257.556 119.489 290.689 119.489C323.821 119.489 341.839 136.66 341.839 195.202C341.839 249.967 323.112 270.81 289.98 270.81Z" fill="#2F2E41"/>
<path d="M178.84 241.16H159.062V182.95C159.062 179.858 157.833 176.893 155.645 174.707C153.458 172.521 150.491 171.293 147.398 171.293H142.763C141.232 171.293 139.715 171.594 138.3 172.18C136.885 172.766 135.599 173.625 134.516 174.707C133.433 175.79 132.574 177.075 131.987 178.489C131.401 179.903 131.1 181.419 131.1 182.95V241.16H75.3121C74.1644 241.16 73.0362 240.863 72.037 240.299C71.0377 239.735 70.2013 238.922 69.609 237.94C69.0166 236.957 68.6883 235.838 68.656 234.692C68.6237 233.545 68.8885 232.41 69.4246 231.396L128.469 119.704C129.206 118.312 129.652 116.785 129.781 115.215C129.91 113.645 129.72 112.066 129.222 110.572C128.723 109.078 127.927 107.7 126.882 106.522C125.836 105.344 124.562 104.39 123.137 103.717L119.652 102.072C116.945 100.795 113.851 100.606 111.009 101.545C108.167 102.484 105.796 104.48 104.385 107.118L32.3716 241.757C31.1453 244.05 30.5038 246.61 30.5038 249.209C30.5038 251.285 30.9128 253.341 31.7077 255.258C32.5025 257.176 33.6675 258.919 35.1362 260.387C36.6048 261.855 38.3484 263.019 40.2673 263.813C42.1862 264.608 44.2428 265.017 46.3198 265.017H131.1V301.825C131.1 303.66 131.461 305.477 132.164 307.172C132.866 308.867 133.896 310.408 135.194 311.705C136.493 313.003 138.034 314.032 139.73 314.734C141.427 315.437 143.245 315.798 145.081 315.798H145.081C146.917 315.798 148.735 315.437 150.431 314.734C152.127 314.032 153.668 313.003 154.967 311.705C156.265 310.408 157.295 308.867 157.997 307.172C158.7 305.477 159.062 303.66 159.062 301.825V265.017H178.84C182.005 265.017 185.041 263.76 187.279 261.523C189.518 259.286 190.775 256.252 190.775 253.088C190.775 249.924 189.518 246.89 187.279 244.653C185.041 242.416 182.005 241.16 178.84 241.16Z" fill="#59DF83"/>
<path d="M545.077 241.16H525.299V182.95C525.299 179.858 524.07 176.893 521.882 174.707C519.695 172.521 516.728 171.293 513.635 171.293H509C507.468 171.293 505.952 171.594 504.537 172.18C503.122 172.766 501.836 173.625 500.753 174.707C499.67 175.79 498.81 177.075 498.224 178.489C497.638 179.903 497.336 181.419 497.336 182.95V241.16H441.549C440.401 241.16 439.273 240.863 438.274 240.299C437.275 239.735 436.438 238.922 435.846 237.94C435.253 236.957 434.925 235.838 434.893 234.692C434.861 233.545 435.125 232.41 435.661 231.396L494.706 119.704C495.442 118.312 495.889 116.785 496.018 115.215C496.147 113.645 495.957 112.066 495.459 110.572C494.96 109.078 494.164 107.7 493.118 106.522C492.073 105.344 490.799 104.39 489.374 103.717L485.888 102.072C483.182 100.795 480.088 100.606 477.246 101.545C474.404 102.484 472.032 104.48 470.621 107.118L398.608 241.757C397.382 244.05 396.741 246.61 396.741 249.209C396.741 253.402 398.407 257.422 401.373 260.387C404.339 263.351 408.362 265.017 412.557 265.017H497.336V301.825C497.336 305.531 498.809 309.085 501.431 311.705C504.053 314.326 507.609 315.798 511.317 315.798C515.025 315.798 518.582 314.326 521.204 311.705C523.825 309.085 525.298 305.531 525.298 301.825V265.017H545.077C548.242 265.017 551.278 263.76 553.516 261.523C555.754 259.286 557.012 256.252 557.012 253.088C557.012 249.924 555.754 246.89 553.516 244.653C551.278 242.416 548.242 241.16 545.077 241.16Z" fill="#59DF83"/>
<path d="M184.296 234.343H164.518V176.134C164.518 174.603 164.216 173.087 163.63 171.673C163.044 170.258 162.185 168.973 161.102 167.891C160.018 166.808 158.733 165.95 157.317 165.364C155.902 164.778 154.386 164.476 152.854 164.476H148.219C145.126 164.476 142.159 165.705 139.972 167.891C137.784 170.077 136.556 173.042 136.556 176.134V234.343H80.7681C79.6204 234.343 78.4923 234.047 77.493 233.483C76.4938 232.918 75.6574 232.106 75.065 231.123C74.4726 230.141 74.1443 229.022 74.1121 227.876C74.0798 226.729 74.3445 225.594 74.8807 224.579L133.925 112.888C134.662 111.495 135.108 109.968 135.237 108.399C135.366 106.829 135.176 105.25 134.678 103.755C134.179 102.261 133.383 100.884 132.338 99.7056C131.292 98.5275 130.018 97.5734 128.593 96.9009L125.108 95.2558C122.401 93.9785 119.307 93.7898 116.465 94.729C113.623 95.6682 111.252 97.6632 109.841 100.301L37.8276 234.941C36.6013 237.234 35.9598 239.793 35.9598 242.393V242.393C35.9598 246.585 37.6261 250.606 40.5922 253.57C43.5583 256.535 47.5812 258.2 51.7759 258.2H136.556V295.008C136.556 296.843 136.917 298.66 137.62 300.356C138.322 302.051 139.352 303.591 140.651 304.889C141.949 306.186 143.49 307.216 145.186 307.918C146.883 308.62 148.701 308.982 150.537 308.982H150.537C154.245 308.982 157.801 307.509 160.423 304.889C163.045 302.268 164.518 298.714 164.518 295.008V258.2H184.296C185.863 258.2 187.415 257.892 188.863 257.292C190.311 256.693 191.627 255.814 192.735 254.707C193.844 253.599 194.723 252.284 195.322 250.837C195.922 249.389 196.231 247.838 196.231 246.272V246.272C196.231 244.705 195.922 243.154 195.323 241.707C194.723 240.26 193.844 238.945 192.735 237.837C191.627 236.729 190.311 235.851 188.863 235.251C187.415 234.652 185.863 234.343 184.296 234.343V234.343Z" stroke="#3F3D56" stroke-miterlimit="10"/>
<path d="M555.307 234.343H535.529V176.134C535.529 173.042 534.3 170.077 532.112 167.891C529.925 165.705 526.958 164.476 523.865 164.476H519.23C517.699 164.476 516.182 164.778 514.767 165.364C513.352 165.95 512.066 166.808 510.983 167.891C509.9 168.973 509.04 170.258 508.454 171.673C507.868 173.087 507.566 174.603 507.566 176.134V234.343H451.779C450.631 234.343 449.503 234.047 448.504 233.483C447.505 232.918 446.668 232.106 446.076 231.123C445.484 230.141 445.155 229.022 445.123 227.876C445.091 226.729 445.355 225.594 445.892 224.579L504.936 112.888C505.673 111.495 506.119 109.968 506.248 108.399C506.377 106.829 506.187 105.25 505.689 103.755C505.19 102.261 504.394 100.884 503.348 99.7056C502.303 98.5275 501.029 97.5734 499.604 96.9009L496.118 95.2558C493.412 93.9785 490.318 93.7898 487.476 94.729C484.634 95.6682 482.262 97.6632 480.851 100.301L408.839 234.941C407.612 237.234 406.971 239.793 406.971 242.393C406.971 246.585 408.637 250.606 411.603 253.57C414.569 256.535 418.592 258.2 422.787 258.2H507.566V295.008C507.566 298.714 509.039 302.268 511.661 304.889C514.283 307.509 517.84 308.982 521.548 308.982V308.982C525.256 308.982 528.812 307.509 531.434 304.889C534.056 302.268 535.529 298.714 535.529 295.008V258.2H555.307C556.874 258.2 558.426 257.892 559.874 257.292C561.322 256.693 562.638 255.814 563.746 254.707C564.854 253.599 565.734 252.284 566.333 250.837C566.933 249.389 567.242 247.838 567.242 246.272V246.272C567.242 243.108 565.984 240.074 563.746 237.837C561.508 235.6 558.472 234.343 555.307 234.343V234.343Z" stroke="#3F3D56" stroke-miterlimit="10"/>
<path d="M300.578 86.7706C252.742 86.7706 218.396 117.444 218.396 189.015C218.396 270.129 252.742 291.6 300.578 291.6C348.414 291.6 384.806 268.084 384.806 189.015C384.806 104.493 348.414 86.7706 300.578 86.7706ZM300.892 264.676C267.76 264.676 250.45 245.249 250.45 189.067C250.45 139.496 268.469 113.354 301.601 113.354C334.733 113.354 352.751 130.525 352.751 189.067C352.751 243.832 334.025 264.676 300.892 264.676V264.676Z" stroke="#3F3D56" stroke-miterlimit="10"/>
<path d="M262.234 17.3292C266.2 17.3292 269.415 14.1161 269.415 10.1525C269.415 6.18885 266.2 2.97571 262.234 2.97571C258.268 2.97571 255.054 6.18885 255.054 10.1525C255.054 14.1161 258.268 17.3292 262.234 17.3292Z" fill="#2F2E41"/>
<path d="M279.748 52.1628C290.872 52.1628 299.889 40.4857 299.889 26.0814C299.889 11.677 290.872 0 279.748 0C268.625 0 259.607 11.677 259.607 26.0814C259.607 40.4857 268.625 52.1628 279.748 52.1628Z" fill="#2F2E41"/>
<path opacity="0.1" d="M279.748 44.2858C269.658 44.2858 261.302 34.6784 259.836 22.1429C259.683 23.4502 259.607 24.7652 259.607 26.0813C259.607 40.4857 268.625 52.1627 279.748 52.1627C290.872 52.1627 299.889 40.4857 299.889 26.0813C299.89 24.7652 299.813 23.4502 299.661 22.1429C298.194 34.6784 289.838 44.2858 279.748 44.2858Z" fill="black"/>
<path d="M320.733 102.462C320.3 104.238 318.435 105.661 316.37 106.655C312.027 108.745 306.671 109.369 301.476 109.578C300.15 109.658 298.82 109.634 297.499 109.504C294.938 109.257 292.536 108.153 290.68 106.372C290.548 106.285 290.44 106.167 290.365 106.028C290.291 105.888 290.253 105.732 290.256 105.574C290.258 105.416 290.301 105.261 290.379 105.124C290.458 104.987 290.57 104.872 290.705 104.79C293.471 101.753 298.086 99.8911 302.736 98.5504C306.262 97.5338 312.41 94.9006 316.256 95.256C319.98 95.6002 321.279 100.219 320.733 102.462Z" fill="#3F3D56"/>
<path opacity="0.1" d="M320.733 102.462C320.3 104.238 318.435 105.661 316.37 106.655C312.027 108.745 306.671 109.369 301.476 109.578C300.15 109.658 298.82 109.634 297.499 109.504C294.938 109.257 292.536 108.153 290.68 106.372C290.548 106.285 290.44 106.167 290.365 106.028C290.291 105.888 290.253 105.732 290.256 105.574C290.258 105.416 290.301 105.261 290.379 105.124C290.458 104.987 290.57 104.872 290.705 104.79C293.471 101.753 298.086 99.8911 302.736 98.5504C306.262 97.5338 312.41 94.9006 316.256 95.256C319.98 95.6002 321.279 100.219 320.733 102.462Z" fill="black"/>
<path d="M265.52 89.1847C264.194 91.7811 263.954 94.7974 264.853 97.5706C265.766 100.323 267.477 102.742 269.767 104.522C275.385 109.024 283.118 109.643 290.319 109.581C296.63 109.526 302.931 109.094 309.19 108.288C311.288 108.102 313.349 107.624 315.314 106.867C317.664 105.851 319.729 103.987 320.566 101.568C321.402 99.149 320.808 96.1872 318.821 94.5729C317.075 93.1546 314.668 92.9595 312.422 92.8246L299.571 92.0528C300.841 90.7687 302.531 90.0424 304.077 89.1088C306.129 87.8703 307.491 85.7908 308.983 83.9161C311.281 81.1711 313.781 78.6019 316.463 76.2298C316.881 78.6276 318.399 80.5966 320.185 82.2511C321.971 83.9055 324.03 85.2375 325.886 86.8127C330.383 90.6279 333.621 95.8061 338.35 99.3294C341.603 98.4751 344.644 96.9576 347.282 94.8723L345.444 91.5449C345.291 91.2025 345.053 90.9051 344.752 90.6811C344.232 90.3612 343.561 90.5261 342.957 90.4355C341.342 90.1936 340.637 88.3306 340.003 86.8267C338.264 82.6981 334.934 79.4949 332.09 76.0326C329.991 73.4769 328.128 70.7355 326.526 67.8425C325.571 66.1171 324.696 64.3206 323.4 62.8342C322.103 61.3477 320.286 60.179 318.313 60.1748C316.57 60.1711 314.962 61.0557 313.463 61.9455C308.898 64.6558 304.505 67.6468 300.311 70.9011C298.115 72.6043 295.934 74.4038 293.359 75.4482C292.275 75.8879 291.132 76.1884 290.092 76.7233C288.27 77.6604 286.888 79.2457 285.399 80.653C280.091 85.6725 272.823 88.9246 265.52 89.1847Z" fill="#3F3D56"/>
<path d="M292.39 53.458C292.33 54.9923 292.004 56.5045 291.425 57.9269C291.131 58.6363 290.695 59.2776 290.143 59.811C289.59 60.3443 288.934 60.7582 288.214 61.0269C287.193 61.3004 286.122 61.3352 285.085 61.1284C284.18 61.034 283.309 60.7372 282.535 60.2602C281.33 59.4322 280.729 57.9549 280.51 56.509C280.291 55.0649 280.389 53.5893 280.249 52.1347C280.113 50.9598 279.889 49.7966 279.58 48.6549C279.486 48.275 279.389 47.8969 279.295 47.5188C279.202 47.1407 279.111 46.7626 279.027 46.3846C278.95 46.0292 278.878 45.6721 278.816 45.3133C278.766 45.0105 278.72 44.7059 278.687 44.3996C278.656 43.4914 278.505 42.5914 278.237 41.7232C277.985 41.1601 277.67 40.6274 277.298 40.1355C277.139 39.908 276.984 39.6804 276.843 39.4441C276.432 38.83 276.242 38.0954 276.301 37.3593C276.318 37.2456 276.346 37.1336 276.384 37.025C276.398 36.983 276.414 36.941 276.431 36.9008C276.589 36.858 276.733 36.7774 276.853 36.6661C276.972 36.5547 277.062 36.416 277.116 36.2618C277.176 35.9307 277.148 35.5895 277.034 35.2728C276.903 34.8304 276.724 34.4036 276.499 34.0003C276.352 33.7342 275.853 33.2546 275.85 32.95C275.843 32.3373 277.041 31.8437 277.526 31.6022C279.007 30.861 280.658 30.5264 282.311 30.6324C283.37 30.7042 284.519 31.0298 285.104 31.9172C285.629 32.7172 285.559 33.7534 285.784 34.6829C285.807 34.818 285.864 34.945 285.95 35.0522C286.064 35.1563 286.208 35.2224 286.361 35.2413C286.621 35.2929 286.887 35.3035 287.15 35.2728H287.151C287.221 35.2673 287.29 35.2574 287.358 35.243C287.767 35.1676 288.154 35.0006 288.489 34.7547C288.707 34.6969 288.926 34.6496 289.146 34.6129C289.155 34.612 289.164 34.6102 289.173 34.6076C290.05 37.3751 290.164 40.342 290.882 43.1602C291.237 44.5623 291.747 45.9469 291.819 47.3893C291.824 47.4523 291.826 47.517 291.828 47.5818C291.838 48.0457 291.801 48.513 291.821 48.9751C291.827 49.1832 291.851 49.3904 291.891 49.5948C291.969 49.9234 292.067 50.2472 292.183 50.5645L292.188 50.5803C292.222 50.6818 292.253 50.7851 292.279 50.8884C292.299 50.9636 292.316 51.0371 292.33 51.1124L292.332 51.1177C292.462 51.8911 292.481 52.6791 292.39 53.458Z" fill="#FBBEBE"/>
<path d="M280.098 35.3587C285.805 35.3587 290.432 30.7349 290.432 25.0311C290.432 19.3274 285.805 14.7036 280.098 14.7036C274.392 14.7036 269.765 19.3274 269.765 25.0311C269.765 30.7349 274.392 35.3587 280.098 35.3587Z" fill="#FBBEBE"/>
<path d="M345.702 81.3004C345.403 78.4828 344.401 75.7853 342.788 73.455C343.056 75.0479 343.324 76.6402 343.594 78.2319C343.259 78.3287 342.903 78.3257 342.571 78.2234C342.238 78.1211 341.942 77.9239 341.72 77.656C341.284 77.113 340.952 76.4956 340.737 75.8338C339.563 72.9211 338.028 70.1672 336.168 67.6366C329.589 67.0887 323.086 64.3633 317.302 61.1862C311.515 58.011 306.1 54.2038 300.39 50.8937C299.4 50.2957 298.369 49.7692 297.304 49.3183C295.518 48.6024 293.512 48.2313 291.819 47.3893C291.705 47.3333 291.591 47.2738 291.479 47.2126C291.096 47.0046 290.734 46.7614 290.397 46.4861C290.214 46.3381 290.041 46.1791 289.878 46.01C289.033 45.0275 288.363 43.9073 287.897 42.6982C286.988 40.6887 286.664 38.2644 285.757 36.2549C286.174 35.8654 286.643 35.535 287.15 35.2729H287.151C287.225 35.2344 287.298 35.1976 287.374 35.1626C287.733 34.9937 288.106 34.8572 288.489 34.7548C288.707 34.697 288.926 34.6497 289.146 34.613C289.155 34.6121 289.164 34.6103 289.172 34.6077C290.196 34.4411 291.244 34.524 292.229 34.8493C293.668 35.3359 294.882 36.3074 296.092 37.2264C298.058 38.6107 299.944 40.1057 301.74 41.704C302.739 42.6597 303.649 43.7099 304.723 44.5782C305.615 45.2663 306.556 45.8893 307.538 46.4424C313.347 49.9012 319.157 53.3595 324.967 56.8171C326.934 57.9882 328.903 59.1592 330.826 60.3985C333.747 62.282 336.563 64.323 339.378 66.3622C341.036 67.563 342.694 68.7644 344.352 69.9664C344.896 70.3131 345.373 70.7541 345.762 71.2687C346.105 71.8529 346.318 72.5043 346.387 73.1784C346.803 75.9018 346.568 78.685 345.702 81.3004Z" fill="#FBBEBE"/>
<path d="M294.952 61.2247C294.255 64.3492 291.096 66.238 289.444 68.9826C287.391 72.3889 288.228 76.3484 288.999 80.2501C287.591 81.4632 286.182 82.6762 284.773 83.8892C283.995 84.5562 283.218 85.2266 282.381 85.8165C281.16 86.6339 279.884 87.3662 278.563 88.008C277.316 88.6487 276.069 89.2899 274.822 89.9317C273.662 90.5832 272.434 91.1034 271.159 91.4826C268.702 92.1128 266.093 91.6716 263.662 90.9417C263.375 90.8666 263.099 90.7542 262.842 90.6074C262.69 90.517 262.558 90.3974 262.453 90.2555C262.214 89.8261 262.126 89.3282 262.206 88.843C262.453 84.754 263.453 80.7507 264.45 76.7773C264.982 74.3935 265.699 72.0543 266.592 69.7808C267.468 67.8327 268.475 65.9461 269.606 64.1339C270.854 61.8539 272.333 59.7077 274.019 57.7291C274.84 56.9676 275.531 56.0771 276.065 55.093C276.687 53.6751 276.447 52.049 276.573 50.5051C276.669 49.3451 276.978 48.2126 277.482 47.1635V47.1618C277.752 46.5967 278.077 46.0596 278.452 45.5584C278.622 45.954 278.792 46.349 278.962 46.7434C279.074 47.0025 279.185 47.261 279.295 47.5189C279.438 47.8515 279.581 48.1829 279.722 48.5131C280.13 49.4619 280.538 50.41 280.944 51.3576C281.384 52.551 282.011 53.6672 282.801 54.6641C283.162 55.1747 283.65 55.5828 284.216 55.8488C284.782 56.1148 285.407 56.2295 286.031 56.1817C286.655 56.1339 287.256 55.9253 287.775 55.5761C288.293 55.227 288.713 54.7493 288.992 54.1898C289.581 53.1452 290.007 52.0173 290.257 50.8447C290.602 49.4169 290.65 47.9332 290.397 46.4861C289.975 43.6995 288.789 40.8533 287.927 38.2644C287.576 37.4012 287.373 36.4852 287.327 35.5547C287.328 35.4501 287.339 35.3459 287.358 35.2431C287.363 35.2169 287.369 35.1889 287.374 35.1626C287.733 34.9937 288.106 34.8572 288.489 34.7548C288.707 34.697 288.926 34.6497 289.146 34.613C289.905 38.716 290.664 42.819 291.425 46.922C291.442 47.0183 291.462 47.1145 291.479 47.2126C291.588 47.8007 291.698 48.3888 291.821 48.9752C291.931 49.5074 292.05 50.0377 292.183 50.5646L292.188 50.5804C292.234 50.7589 292.281 50.9357 292.33 51.1125L292.332 51.1178C292.467 51.6009 292.617 52.0805 292.787 52.5531C293.817 55.401 295.612 58.2682 294.952 61.2247Z" fill="#59DF83"/>
<path d="M336.888 105.134C336.856 105.736 336.972 106.337 337.228 106.883C337.874 108.064 339.426 108.332 340.769 108.443C348.613 109.087 356.504 108.847 364.294 107.727C364.716 107.698 365.126 107.57 365.491 107.355C366.599 106.579 365.916 104.688 364.707 104.082C363.497 103.477 362.062 103.623 360.735 103.36C359.417 103.029 358.161 102.485 357.018 101.749C354.327 100.204 351.675 98.5931 349.063 96.9163C347.507 95.9179 345.672 94.8525 343.92 95.4444C339.175 97.0487 336.857 100.018 336.888 105.134Z" fill="#3F3D56"/>
<path d="M279.067 46.1658V46.1675C279.055 46.241 279.042 46.3128 279.027 46.3846C279.007 46.5036 278.985 46.6244 278.962 46.7434C278.745 47.8549 278.478 48.9612 278.172 50.0604C277.331 53.0974 276.205 56.0854 275.088 59.0296C272.089 66.924 269.09 74.819 266.091 82.7146C265.334 84.7031 264.579 86.6934 263.719 88.6416C263.432 89.291 263.136 89.9456 262.842 90.6073C261.788 92.9756 260.775 95.421 260.439 97.9416C260.126 99.6005 260.089 101.3 260.332 102.971C260.668 104.623 261.672 106.237 263.243 106.848C264.01 107.147 265.108 107.548 264.898 108.344C264.784 108.782 264.287 108.996 263.84 109.069C263.25 109.163 262.647 109.126 262.073 108.961C261.5 108.796 260.969 108.506 260.52 108.113C259.681 107.369 259.036 106.212 257.921 106.088C257.148 106.004 256.437 106.466 255.73 106.79C252.843 108.108 249.481 107.186 246.449 106.249C246.687 105.022 247.92 104.213 249.144 103.968C250.369 103.722 251.635 103.897 252.883 103.863C253.283 103.885 253.68 103.783 254.02 103.571C254.325 103.291 254.538 102.927 254.633 102.524C255.438 100.142 256.036 97.6954 256.421 95.211C256.824 92.6151 256.992 89.9789 257.567 87.4146C258.013 85.4138 258.703 83.4761 259.295 81.5121C260.44 77.4684 261.38 73.3695 262.112 69.2311C262.481 67.5118 262.746 65.7716 262.905 64.0201C263.005 62.5672 262.958 61.1074 263.098 59.6598C263.333 57.7764 263.726 55.9162 264.273 54.0987C264.809 52.1154 265.344 50.1334 265.879 48.1525C266.672 45.2205 267.523 42.1748 269.534 39.8957C270.232 39.0934 271.088 38.4429 272.048 37.9847C273.008 37.5264 274.052 37.2701 275.116 37.2316C275.514 37.2311 275.912 37.2739 276.301 37.3593C276.366 37.3751 276.431 37.3908 276.496 37.4083C276.92 37.5192 277.327 37.6877 277.706 37.909C278.326 37.5151 278.641 37.6534 279.053 38.2608C279.414 38.9036 279.584 39.6359 279.543 40.3718C279.578 42.3142 279.418 44.2551 279.067 46.1658Z" fill="#FBBEBE"/>
<path d="M279.748 48.4868L279.722 48.5131L279.58 48.6549L278.172 50.0605L277.482 47.1635L275.116 37.2316C275.514 37.2311 275.912 37.2739 276.301 37.3594C276.318 37.2456 276.346 37.1336 276.384 37.025L276.496 37.4084L277.298 40.1355L278.816 45.3133L279.067 46.1658V46.1675L279.748 48.4868Z" fill="#59DF83"/>
<path d="M288.684 16.8014C288.683 17.7211 288.5 18.6315 288.147 19.4806C287.793 20.3297 287.276 21.1009 286.624 21.7501C286.388 21.9863 286.135 22.205 285.867 22.4044C284.658 23.315 283.186 23.8079 281.673 23.8086H273.27C271.414 23.8057 269.634 23.0666 268.322 21.7534C267.01 20.4403 266.274 18.6605 266.274 16.8048C266.274 14.9492 267.01 13.1694 268.322 11.8563C269.634 10.5431 271.414 9.80395 273.27 9.80109H281.673C283.529 9.80592 285.309 10.5448 286.622 11.8564C287.936 13.1679 288.677 14.9457 288.684 16.8014Z" fill="#2F2E41"/>
<path d="M296.562 17.3292C300.527 17.3292 303.742 14.1161 303.742 10.1525C303.742 6.18885 300.527 2.97571 296.562 2.97571C292.596 2.97571 289.381 6.18885 289.381 10.1525C289.381 14.1161 292.596 17.3292 296.562 17.3292Z" fill="#2F2E41"/>
<path opacity="0.1" d="M296.386 2.97571C296.298 2.97571 296.211 2.9792 296.124 2.98235C297.981 3.04984 299.74 3.83481 301.03 5.17209C302.321 6.50937 303.042 8.29471 303.042 10.1525C303.042 12.0102 302.321 13.7956 301.03 15.1328C299.74 16.4701 297.981 17.2551 296.124 17.3226C296.211 17.3257 296.298 17.3292 296.386 17.3292C298.291 17.3292 300.117 16.5731 301.464 15.2272C302.811 13.8813 303.567 12.0559 303.567 10.1525C303.567 8.24907 302.811 6.42364 301.464 5.07773C300.117 3.73183 298.291 2.97571 296.386 2.97571Z" fill="black"/>
<path opacity="0.1" d="M262.234 2.97571C262.322 2.97571 262.41 2.9792 262.497 2.98235C260.639 3.04984 258.88 3.83481 257.59 5.17209C256.3 6.50937 255.579 8.29471 255.579 10.1525C255.579 12.0102 256.3 13.7956 257.59 15.1328C258.88 16.4701 260.639 17.2551 262.497 17.3226C262.41 17.3257 262.322 17.3292 262.234 17.3292C260.331 17.3275 258.506 16.5707 257.161 15.225C255.815 13.8792 255.06 12.0548 255.06 10.1525C255.06 8.25017 255.815 6.42569 257.161 5.07997C258.506 3.73424 260.331 2.97738 262.234 2.97571Z" fill="black"/>
<path opacity="0.1" d="M285.867 22.4044C284.658 23.315 283.186 23.8079 281.673 23.8086H273.27C271.757 23.8079 270.285 23.315 269.076 22.4044H285.867Z" fill="black"/>
<path d="M340.127 74.4066C340.127 74.4066 341.937 79.6199 343.594 78.2318L342.273 71.4174L340.127 74.4066Z" fill="#FBBEBE"/>
<path d="M560.414 233.39C562.1 234.002 563.906 234.215 565.688 234.012C567.471 233.808 569.181 233.193 570.685 232.216C572.19 231.239 573.446 229.926 574.356 228.38C575.266 226.835 575.804 225.1 575.928 223.311C576.053 221.522 575.76 219.729 575.072 218.073C574.385 216.417 573.322 214.943 571.967 213.767C570.613 212.591 569.003 211.746 567.266 211.298C565.529 210.85 563.712 210.812 561.957 211.186L562.247 217.145L559.426 212.038C556.657 213.338 554.519 215.683 553.479 218.559C553.11 219.566 552.886 220.62 552.813 221.691C552.635 224.201 553.281 226.702 554.652 228.813C556.024 230.924 558.047 232.531 560.414 233.39Z" fill="#57B894"/>
<path d="M574.372 302.505C573.376 297.437 577.691 292.944 581.953 290.024C586.216 287.103 591.196 284.234 592.65 279.278C594.74 272.155 588.514 265.632 583.669 260.007C580.074 255.833 576.987 251.247 574.472 246.346C573.464 244.381 572.538 242.327 572.272 240.135C571.89 236.978 572.905 233.836 573.928 230.824C577.334 220.792 580.975 210.844 584.853 200.979" stroke="#3F3D56" stroke-miterlimit="10"/>
<path d="M560.891 231.856C562.577 232.468 564.383 232.681 566.165 232.477C567.948 232.274 569.658 231.659 571.162 230.682C572.667 229.705 573.923 228.392 574.833 226.846C575.743 225.301 576.281 223.565 576.405 221.777C576.53 219.988 576.237 218.195 575.549 216.539C574.862 214.882 573.799 213.408 572.444 212.233C571.09 211.057 569.48 210.212 567.743 209.764C566.006 209.316 564.189 209.278 562.434 209.651L562.724 215.61L559.903 210.503C557.134 211.804 554.996 214.149 553.957 217.025C553.588 218.032 553.363 219.086 553.29 220.156C553.112 222.667 553.758 225.168 555.129 227.279C556.501 229.39 558.524 230.997 560.891 231.856V231.856Z" stroke="#3F3D56" stroke-miterlimit="10"/>
<path d="M572.956 198.922C573.618 197.097 574.729 195.468 576.186 194.185C577.643 192.902 579.4 192.006 581.294 191.58L582.248 197.245L584.016 191.295C586.471 191.332 588.852 192.147 590.813 193.623C592.774 195.1 594.215 197.161 594.928 199.509C595.641 201.858 595.589 204.372 594.779 206.689C593.969 209.006 592.443 211.005 590.422 212.399C588.401 213.792 585.989 214.508 583.534 214.442C581.08 214.377 578.71 213.533 576.766 212.033C574.822 210.534 573.406 208.455 572.721 206.099C572.036 203.742 572.119 201.229 572.956 198.922H572.956Z" fill="#57B894"/>
<path d="M573.593 196.876C574.254 195.051 575.365 193.422 576.822 192.139C578.279 190.856 580.036 189.96 581.93 189.534L582.884 195.199L584.652 189.25C587.107 189.286 589.488 190.101 591.449 191.578C593.41 193.054 594.851 195.115 595.564 197.464C596.277 199.812 596.225 202.326 595.415 204.643C594.605 206.96 593.079 208.959 591.058 210.353C589.037 211.747 586.625 212.462 584.171 212.397C581.716 212.331 579.346 211.487 577.402 209.988C575.459 208.488 574.042 206.41 573.357 204.053C572.673 201.696 572.755 199.183 573.592 196.876H573.593Z" stroke="#3F3D56" stroke-miterlimit="10"/>
<path d="M581.636 260.122C584.309 261.092 587.247 261.044 589.888 259.988C592.529 258.932 594.688 256.941 595.955 254.396C597.222 251.851 597.508 248.929 596.758 246.186C596.008 243.444 594.274 241.074 591.887 239.527L590.529 244.099L589.565 238.367C589.556 238.363 589.546 238.359 589.536 238.356C588.105 237.837 586.587 237.604 585.067 237.671C583.546 237.738 582.054 238.104 580.676 238.748C579.297 239.392 578.059 240.301 577.032 241.423C576.005 242.546 575.209 243.859 574.69 245.289C574.171 246.719 573.939 248.236 574.007 249.756C574.076 251.275 574.443 252.766 575.088 254.144C575.733 255.521 576.643 256.758 577.766 257.784C578.89 258.81 580.205 259.604 581.635 260.122H581.636Z" fill="#57B894"/>
<path d="M582.187 258.05C584.861 259.02 587.798 258.972 590.439 257.916C593.08 256.86 595.24 254.869 596.507 252.324C597.774 249.779 598.059 246.857 597.309 244.114C596.559 241.372 594.825 239.002 592.439 237.455L591.08 242.027L590.116 236.295C590.107 236.291 590.097 236.287 590.087 236.284C588.657 235.765 587.138 235.532 585.618 235.599C584.098 235.667 582.605 236.033 581.227 236.676C579.848 237.32 578.61 238.229 577.583 239.351C576.556 240.474 575.76 241.787 575.241 243.217C574.722 244.647 574.49 246.165 574.559 247.684C574.627 249.203 574.994 250.694 575.639 252.072C576.284 253.449 577.194 254.686 578.318 255.712C579.441 256.738 580.756 257.532 582.187 258.05H582.187Z" stroke="#3F3D56" stroke-miterlimit="10"/>
<path d="M569.576 279.349C570.036 281.963 571.381 284.341 573.386 286.082C575.391 287.823 577.935 288.822 580.589 288.911C583.244 289 585.849 288.175 587.966 286.572C590.084 284.97 591.587 282.689 592.221 280.111C592.856 277.533 592.585 274.816 591.453 272.414C590.321 270.013 588.397 268.073 586.004 266.921C583.611 265.769 580.894 265.474 578.309 266.086C575.725 266.698 573.429 268.18 571.808 270.283L576.969 278.047L569.917 273.926C569.37 275.68 569.253 277.54 569.576 279.349Z" fill="#57B894"/>
<path d="M570.053 277.815C570.513 280.429 571.858 282.806 573.863 284.547C575.868 286.288 578.412 287.287 581.066 287.377C583.721 287.466 586.326 286.64 588.444 285.038C590.561 283.436 592.064 281.155 592.698 278.577C593.333 275.999 593.062 273.282 591.93 270.88C590.798 268.478 588.874 266.539 586.481 265.387C584.088 264.235 581.371 263.94 578.786 264.552C576.202 265.164 573.906 266.646 572.285 268.749L577.446 276.512L570.394 272.392C569.847 274.146 569.73 276.006 570.053 277.815V277.815Z" stroke="#3F3D56" stroke-miterlimit="10"/>
<path d="M5.0135 261.593C6.12128 261.996 7.30747 262.136 8.47856 262.002C9.64965 261.868 10.7736 261.464 11.7619 260.822C12.7502 260.18 13.5758 259.317 14.1735 258.302C14.7713 257.287 15.125 256.146 15.2066 254.971C15.2883 253.796 15.0957 252.618 14.644 251.53C14.1924 250.441 13.4941 249.473 12.6041 248.701C11.714 247.928 10.6567 247.373 9.51535 247.079C8.37401 246.784 7.17987 246.759 6.02706 247.005L6.21756 250.92L4.36417 247.564C2.54518 248.419 1.13994 249.96 0.457243 251.849C0.214789 252.511 0.0673957 253.203 0.019459 253.907C-0.0975276 255.556 0.326713 257.199 1.22789 258.586C2.12907 259.973 3.45807 261.029 5.0135 261.593Z" fill="#57B894"/>
<path d="M14.1841 307.003C13.5298 303.673 16.3648 300.721 19.1651 298.803C21.9654 296.884 25.2374 294.999 26.1929 291.743C27.5661 287.063 23.4758 282.777 20.2922 279.081C17.9303 276.339 15.902 273.326 14.2497 270.106C13.5313 268.841 13.0421 267.459 12.8044 266.025C12.5534 263.95 13.2202 261.886 13.8919 259.908C16.1298 253.316 18.5224 246.78 21.0699 240.299" stroke="#3F3D56" stroke-miterlimit="10"/>
<path d="M5.32694 260.585C6.43472 260.988 7.62091 261.128 8.79199 260.994C9.96308 260.86 11.0871 260.456 12.0753 259.814C13.0636 259.172 13.8892 258.309 14.487 257.294C15.0847 256.279 15.4384 255.138 15.52 253.963C15.6017 252.788 15.4091 251.61 14.9575 250.522C14.5058 249.433 13.8075 248.465 12.9175 247.693C12.0275 246.92 10.9701 246.365 9.82879 246.071C8.68745 245.776 7.49331 245.751 6.34049 245.997L6.531 249.912L4.67761 246.556C2.85862 247.411 1.45337 248.952 0.770674 250.841C0.528223 251.503 0.380832 252.195 0.332892 252.899C0.215898 254.548 0.640136 256.191 1.54132 257.578C2.4425 258.965 3.7715 260.021 5.32694 260.585V260.585Z" stroke="#3F3D56" stroke-miterlimit="10"/>
<path d="M13.2538 238.947C13.6886 237.748 14.4182 236.678 15.3756 235.835C16.3329 234.992 17.4871 234.403 18.7319 234.123L19.3586 237.845L20.5204 233.936C22.1335 233.96 23.6973 234.496 24.9859 235.466C26.2746 236.436 27.2214 237.79 27.6898 239.333C28.1582 240.876 28.1238 242.528 27.5916 244.05C27.0595 245.572 26.0571 246.886 24.7292 247.802C23.4013 248.717 21.8166 249.187 20.2039 249.144C18.5912 249.101 17.0339 248.547 15.7569 247.562C14.4799 246.576 13.5493 245.211 13.0994 243.662C12.6495 242.114 12.7036 240.463 13.2538 238.947Z" fill="#57B894"/>
<path d="M13.6718 237.603C14.1065 236.404 14.8362 235.334 15.7935 234.491C16.7508 233.648 17.9051 233.059 19.1498 232.779L19.7765 236.501L20.9383 232.592C22.5514 232.616 24.1152 233.152 25.4038 234.122C26.6925 235.092 27.6393 236.446 28.1077 237.989C28.5761 239.532 28.5417 241.184 28.0095 242.706C27.4774 244.228 26.475 245.542 25.1471 246.458C23.8192 247.373 22.2345 247.843 20.6218 247.8C19.0091 247.757 17.4518 247.203 16.1748 246.218C14.8978 245.232 13.9672 243.867 13.5173 242.318C13.0674 240.77 13.1215 239.119 13.6718 237.603V237.603Z" stroke="#3F3D56" stroke-miterlimit="10"/>
<path d="M18.9562 279.157C20.7131 279.794 22.643 279.762 24.3781 279.068C26.1132 278.375 27.5322 277.067 28.3647 275.395C29.1971 273.722 29.3848 271.802 28.8918 270.001C28.3989 268.199 27.2599 266.642 25.6919 265.625L24.7992 268.629L24.1662 264.863C24.1599 264.86 24.1534 264.858 24.1468 264.856C23.2071 264.515 22.2092 264.361 21.2103 264.405C20.2113 264.45 19.2309 264.69 18.3249 265.113C17.419 265.536 16.6053 266.133 15.9304 266.871C15.2555 267.608 14.7327 268.471 14.3917 269.41C14.0507 270.35 13.8983 271.347 13.9432 272.346C13.988 273.344 14.2293 274.324 14.6532 275.229C15.0771 276.134 15.6753 276.947 16.4137 277.621C17.152 278.295 18.016 278.817 18.9562 279.157Z" fill="#57B894"/>
<path d="M19.3183 277.795C21.0752 278.432 23.0051 278.401 24.7402 277.707C26.4753 277.013 27.8944 275.705 28.7268 274.033C29.5592 272.361 29.7469 270.441 29.254 268.639C28.761 266.838 27.622 265.28 26.054 264.264L25.1613 267.268L24.5283 263.502C24.522 263.499 24.5155 263.497 24.5089 263.495C23.5694 263.154 22.5719 263.002 21.5735 263.046C20.5751 263.091 19.5953 263.332 18.6899 263.755C16.8615 264.609 15.4476 266.155 14.7593 268.051C14.071 269.948 14.1647 272.04 15.0196 273.867C15.8746 275.694 17.4209 277.107 19.3183 277.795V277.795Z" stroke="#3F3D56" stroke-miterlimit="10"/>
<path d="M11.0328 291.789C11.3349 293.507 12.2188 295.069 13.5362 296.213C14.8537 297.356 16.5247 298.013 18.2688 298.071C20.013 298.13 21.7244 297.588 23.1158 296.535C24.5073 295.482 25.4944 293.983 25.9114 292.29C26.3284 290.596 26.15 288.811 25.4062 287.233C24.6625 285.655 23.3984 284.381 21.8262 283.624C20.2539 282.867 18.4691 282.673 16.7709 283.075C15.0728 283.477 13.5646 284.451 12.4994 285.832L15.8904 290.933L11.2571 288.226C10.8978 289.379 10.8209 290.601 11.0328 291.789Z" fill="#57B894"/>
<path d="M11.3462 290.781C11.6483 292.499 12.5322 294.061 13.8497 295.205C15.1672 296.348 16.8381 297.005 18.5823 297.063C20.3265 297.122 22.0378 296.58 23.4293 295.527C24.8208 294.474 25.8078 292.975 26.2248 291.282C26.6418 289.588 26.4635 287.803 25.7197 286.225C24.9759 284.647 23.7119 283.373 22.1396 282.616C20.5674 281.859 18.7825 281.665 17.0844 282.067C15.3862 282.469 13.8781 283.443 12.8129 284.824L16.2038 289.925L11.5705 287.218C11.2113 288.371 11.1344 289.593 11.3462 290.781V290.781Z" stroke="#3F3D56" stroke-miterlimit="10"/>
<path d="M267.692 189.758C272.917 189.758 277.154 184.279 277.154 177.52C277.154 170.761 272.917 165.281 267.692 165.281C262.466 165.281 258.23 170.761 258.23 177.52C258.23 184.279 262.466 189.758 267.692 189.758Z" fill="#2F2E41"/>
<path d="M319.177 190.036C324.402 190.036 328.639 184.557 328.639 177.798C328.639 171.039 324.402 165.56 319.177 165.56C313.951 165.56 309.714 171.039 309.714 177.798C309.714 184.557 313.951 190.036 319.177 190.036Z" fill="#2F2E41"/>
<path d="M311.941 213.957C311.941 219.486 304.215 223.97 294.686 223.97C285.158 223.97 277.432 219.486 277.432 213.957C277.432 209.167 283.226 205.162 290.968 204.183C292.201 204.02 293.443 203.94 294.686 203.943C296.77 203.937 298.847 204.161 300.881 204.611C307.349 206.052 311.941 209.695 311.941 213.957Z" fill="#2F2E41"/>
<path d="M269.918 186.977C275.144 186.977 279.38 181.497 279.38 174.738C279.38 167.979 275.144 162.5 269.918 162.5C264.692 162.5 260.456 167.979 260.456 174.738C260.456 181.497 264.692 186.977 269.918 186.977Z" stroke="#3F3D56" stroke-miterlimit="10"/>
<path d="M321.403 187.255C326.629 187.255 330.865 181.776 330.865 175.017C330.865 168.257 326.629 162.778 321.403 162.778C316.177 162.778 311.941 168.257 311.941 175.017C311.941 181.776 316.177 187.255 321.403 187.255Z" stroke="#3F3D56" stroke-miterlimit="10"/>
<path d="M296.913 221.188C306.442 221.188 314.167 216.705 314.167 211.175C314.167 205.645 306.442 201.162 296.913 201.162C287.383 201.162 279.658 205.645 279.658 211.175C279.658 216.705 287.383 221.188 296.913 221.188Z" stroke="#3F3D56" stroke-miterlimit="10"/>
<path d="M301.087 205.445C301.092 206.145 300.829 206.82 300.352 207.332C300.127 207.578 299.854 207.774 299.549 207.909C299.245 208.044 298.916 208.114 298.582 208.115H293.017C292.331 208.092 291.682 207.797 291.213 207.297C290.744 206.797 290.492 206.131 290.512 205.445C290.509 204.903 290.668 204.372 290.968 203.92C292.2 203.747 293.442 203.662 294.686 203.665C296.772 203.658 298.851 203.897 300.881 204.377C301.019 204.717 301.089 205.079 301.087 205.445Z" fill="white"/>
<path d="M269.918 174.182C271.455 174.182 272.701 172.937 272.701 171.401C272.701 169.864 271.455 168.619 269.918 168.619C268.381 168.619 267.135 169.864 267.135 171.401C267.135 172.937 268.381 174.182 269.918 174.182Z" fill="white"/>
<path d="M321.681 174.182C323.218 174.182 324.464 172.937 324.464 171.401C324.464 169.864 323.218 168.619 321.681 168.619C320.144 168.619 318.898 169.864 318.898 171.401C318.898 172.937 320.144 174.182 321.681 174.182Z" fill="white"/>
<path opacity="0.3" d="M324.464 200.327C326.001 200.327 327.247 199.082 327.247 197.546C327.247 196.01 326.001 194.765 324.464 194.765C322.927 194.765 321.681 196.01 321.681 197.546C321.681 199.082 322.927 200.327 324.464 200.327Z" fill="#59DF83"/>
<path opacity="0.3" d="M256.56 200.327C258.097 200.327 259.343 199.082 259.343 197.546C259.343 196.01 258.097 194.765 256.56 194.765C255.023 194.765 253.777 196.01 253.777 197.546C253.777 199.082 255.023 200.327 256.56 200.327Z" fill="#59DF83"/>
</g>
<defs>
<clipPath id="clip0">
<rect width="598" height="325" fill="white"/>
</clipPath>
</defs>
</svg>
