<svg width="680" height="441" viewBox="0 0 680 441" fill="none" xmlns="http://www.w3.org/2000/svg">
<g clip-path="url(#clip0)">
<path d="M319.25 420.678C179.414 600.501 132.69 -23.1277 264.765 81.0563C417.269 171.314 427.552 -67.078 511.495 -9.72258C595.439 47.6329 444.836 144.035 544.625 288.07C624.056 491.378 412.315 321.591 319.25 420.678Z" fill="#E9FAF4"/>
<g clip-path="url(#clip1)">
<path d="M635.81 335.362C635.852 336.384 635.997 337.26 636.175 338.093C636.346 338.927 636.573 339.689 636.814 340.426C637.311 341.885 637.923 343.178 638.632 344.336C640.044 346.653 641.812 348.467 643.85 349.897C645.889 351.324 648.193 352.377 650.853 352.924C652.182 353.201 653.602 353.344 655.139 353.322C655.916 353.299 656.704 353.26 657.549 353.14C658.197 353.055 658.864 352.94 659.579 352.756C659.689 352.874 659.808 352.989 659.934 353.099C659.934 353.099 663.76 357.069 664.377 359.199C664.987 361.331 665.279 357.353 666.286 357.749C667.07 358.056 662.936 354.45 660.219 352.337C660.218 352.333 660.217 352.33 660.22 352.326C652.22 345.524 640.924 338.69 640.924 338.69C640.924 338.69 656.892 345.462 659.97 350.362C659.937 350.191 659.901 350.021 659.867 349.854C659.696 349.017 659.468 348.258 659.224 347.522C658.727 346.067 658.11 344.775 657.405 343.618C655.996 341.296 654.229 339.48 652.197 338.039C650.164 336.599 647.861 335.546 645.205 334.997C643.879 334.717 642.456 334.58 640.916 334.601C640.139 334.622 639.349 334.664 638.503 334.787C637.658 334.897 636.787 335.057 635.81 335.362Z" fill="#84E8C6"/>
</g>
<ellipse rx="15.9445" ry="3.88104" transform="matrix(0.989138 0.146987 -0.146781 0.989169 651.313 361.882)" fill="#E9FAF4"/>
<g clip-path="url(#clip2)">
<path d="M594.661 101.389C594.721 102.831 594.925 104.067 595.176 105.242C595.417 106.42 595.737 107.494 596.077 108.535C596.779 110.593 597.643 112.418 598.643 114.052C600.635 117.322 603.131 119.883 606.007 121.901C608.885 123.915 612.137 125.401 615.89 126.172C617.765 126.563 619.77 126.765 621.939 126.734C623.036 126.702 624.147 126.646 625.34 126.478C626.254 126.357 627.196 126.195 628.205 125.935C628.359 126.102 628.528 126.264 628.705 126.42C628.705 126.42 634.105 132.022 634.976 135.028C635.837 138.037 636.249 132.423 637.67 132.982C638.776 133.415 632.942 128.327 629.108 125.344C629.106 125.339 629.105 125.334 629.109 125.328C617.82 115.729 601.878 106.084 601.878 106.084C601.878 106.084 624.413 115.641 628.756 122.556C628.709 122.315 628.66 122.075 628.611 121.839C628.37 120.659 628.048 119.588 627.703 118.548C627.002 116.495 626.131 114.672 625.137 113.039C623.148 109.763 620.654 107.199 617.787 105.166C614.917 103.134 611.668 101.648 607.919 100.873C606.048 100.478 604.04 100.284 601.866 100.315C600.771 100.343 599.655 100.403 598.461 100.577C597.269 100.732 596.039 100.958 594.661 101.389Z" fill="#84E8C6"/>
</g>
<ellipse rx="21.7417" ry="5.29213" transform="matrix(0.989138 0.146987 -0.146781 0.989169 616.456 138.214)" fill="#E9FAF4"/>
<g clip-path="url(#clip3)">
<path d="M18.746 161.246C18.7902 162.322 18.9429 163.244 19.13 164.121C19.3099 165 19.5488 165.801 19.8024 166.578C20.3261 168.113 20.9704 169.474 21.7164 170.694C23.2032 173.134 25.065 175.044 27.2107 176.549C29.3578 178.052 31.7839 179.161 34.5842 179.736C35.9835 180.028 37.4791 180.179 39.0971 180.155C39.9155 180.132 40.7446 180.09 41.6349 179.964C42.3165 179.874 43.0191 179.753 43.7722 179.559C43.8873 179.684 44.0133 179.805 44.1455 179.921C44.1455 179.921 48.174 184.101 48.8236 186.344C49.466 188.588 49.7737 184.4 50.8336 184.817C51.6592 185.14 47.3063 181.344 44.4457 179.118C44.4447 179.114 44.4438 179.111 44.4465 179.106C36.0241 171.945 24.1306 164.749 24.1306 164.749C24.1306 164.749 40.9428 171.879 44.1834 177.039C44.1483 176.859 44.1113 176.679 44.0754 176.504C43.895 175.623 43.6548 174.824 43.3976 174.048C42.8748 172.516 42.2251 171.156 41.4831 169.938C39.9991 167.494 38.1386 165.581 35.9996 164.064C33.8587 162.548 31.4344 161.439 28.6372 160.861C27.2411 160.567 25.7432 160.422 24.1211 160.445C23.3041 160.466 22.4719 160.511 21.5807 160.64C20.6917 160.756 19.7743 160.925 18.746 161.246Z" fill="#84E8C6"/>
</g>
<ellipse rx="16.3666" ry="3.9838" transform="matrix(0.989138 0.146987 -0.146781 0.989169 34.4191 189.073)" fill="#E9FAF4"/>
<g clip-path="url(#clip4)">
<path d="M121.442 205.946C121.506 207.514 121.729 208.858 122.001 210.135C122.263 211.415 122.611 212.583 122.981 213.714C123.744 215.951 124.682 217.934 125.769 219.711C127.935 223.265 130.648 226.049 133.774 228.242C136.902 230.431 140.436 232.046 144.516 232.884C146.555 233.309 148.734 233.529 151.091 233.495C152.283 233.461 153.491 233.4 154.788 233.217C155.781 233.085 156.805 232.909 157.902 232.627C158.07 232.808 158.253 232.985 158.446 233.154C158.446 233.154 164.315 239.243 165.261 242.511C166.197 245.781 166.645 239.679 168.189 240.286C169.392 240.757 163.051 235.226 158.883 231.984C158.882 231.979 158.88 231.973 158.884 231.967C146.614 221.534 129.287 211.05 129.287 211.05C129.287 211.05 153.78 221.438 158.501 228.954C158.45 228.692 158.396 228.431 158.344 228.175C158.081 226.892 157.731 225.728 157.356 224.598C156.594 222.366 155.648 220.385 154.567 218.61C152.405 215.049 149.694 212.262 146.578 210.053C143.459 207.844 139.927 206.228 135.852 205.386C133.818 204.957 131.636 204.746 129.273 204.779C128.082 204.81 126.87 204.875 125.572 205.064C124.276 205.232 122.94 205.478 121.442 205.946Z" fill="#84E8C6"/>
</g>
<ellipse rx="25.116" ry="6.11349" transform="matrix(0.989138 0.146987 -0.146781 0.989169 143.587 245.197)" fill="#E9FAF4"/>
<g clip-path="url(#clip5)">
<path d="M94.5997 327.068C94.6428 328.117 94.7917 329.017 94.9742 329.872C95.1497 330.729 95.3827 331.511 95.6301 332.269C96.141 333.766 96.7694 335.094 97.4971 336.284C98.9473 338.664 100.763 340.527 102.856 341.995C104.951 343.461 107.317 344.543 110.049 345.104C111.414 345.389 112.873 345.536 114.451 345.513C115.249 345.49 116.058 345.449 116.926 345.327C117.591 345.238 118.277 345.12 119.011 344.931C119.123 345.053 119.246 345.171 119.375 345.284C119.375 345.284 123.305 349.361 123.938 351.549C124.565 353.739 124.865 349.653 125.899 350.06C126.704 350.375 122.458 346.672 119.668 344.501C119.667 344.498 119.666 344.494 119.669 344.49C111.453 337.504 99.852 330.485 99.852 330.485C99.852 330.485 116.251 337.44 119.412 342.473C119.378 342.297 119.342 342.122 119.307 341.951C119.131 341.092 118.897 340.312 118.646 339.556C118.136 338.062 117.502 336.735 116.778 335.547C115.331 333.162 113.516 331.296 111.429 329.817C109.341 328.338 106.976 327.257 104.248 326.693C102.886 326.405 101.425 326.264 99.8428 326.286C99.0458 326.307 98.234 326.351 97.3648 326.477C96.4976 326.59 95.6027 326.755 94.5997 327.068Z" fill="#84E8C6"/>
</g>
<ellipse rx="16.3754" ry="3.98594" transform="matrix(0.989138 0.146987 -0.146781 0.989169 110.522 354.305)" fill="#E9FAF4"/>
<g clip-path="url(#clip6)">
<path d="M314.74 312.368L312.954 309.986C312.954 309.986 310.571 304.626 314.145 299.267L331.415 295.694C331.415 295.694 337.37 301.649 340.347 302.84C343.325 304.031 349.876 306.413 352.258 307.009C354.64 307.009 357.022 308.2 357.022 310.582C357.022 312.964 349.875 316.537 346.302 316.537C342.729 317.133 332.605 317.133 330.223 315.942C327.841 315.346 319.504 312.368 314.74 312.368Z" fill="#344A5E"/>
<path d="M357.022 310.582C357.022 310.582 355.831 312.368 354.045 313.559C352.258 314.75 340.943 317.132 337.37 316.537C333.797 315.941 327.246 312.964 323.673 312.368C320.1 311.772 314.145 311.177 312.954 309.986V314.155L321.887 315.942L322.482 314.155C322.482 314.155 327.246 315.346 329.629 315.942C332.011 317.132 336.775 318.324 343.921 317.132C351.663 315.942 359.405 314.751 357.022 310.582Z" fill="#415A6B"/>
<path d="M247.446 245.075C247.446 245.075 251.615 261.154 255.188 272.469C258.761 283.784 259.952 298.672 258.761 304.031C257.57 309.987 253.401 338.572 253.401 349.291C253.401 360.011 253.401 362.988 253.401 362.988C253.401 362.988 258.761 366.561 264.716 364.179C270.672 361.797 272.458 357.033 272.458 357.033C272.458 357.033 270.076 348.696 271.863 342.74C273.054 336.785 275.436 316.537 277.222 311.178C279.009 305.818 280.2 299.863 280.796 296.289C280.796 292.716 282.582 279.019 282.582 271.873C282.582 264.727 284.369 249.839 284.369 249.839C284.369 249.839 306.403 248.648 315.931 246.265C315.931 246.265 314.74 262.94 314.74 271.873C314.74 280.806 314.74 299.267 314.74 299.267C314.74 299.267 317.123 300.458 321.887 300.458C326.651 300.458 332.606 297.481 334.393 298.076C334.393 298.076 333.797 277.828 333.797 270.682C333.797 263.535 336.179 249.243 337.37 243.287C338.561 237.332 336.774 230.782 332.01 227.208C326.651 224.231 294.492 217.085 283.773 215.893C273.054 214.702 273.054 214.702 273.054 214.702L247.446 245.075Z" fill="#415A6B"/>
<path d="M275.436 151.577C275.436 151.577 281.986 170.039 283.178 176.589C284.369 182.545 284.369 182.545 284.369 182.545L267.694 150.982L275.436 151.577Z" fill="#CED6E0"/>
<path d="M276.031 152.173C276.031 152.173 282.582 170.634 283.773 177.185C284.964 183.735 286.155 188.5 286.155 188.5C286.155 188.5 287.942 182.545 286.751 176.59C285.56 170.635 283.178 162.893 280.796 156.342C278.413 150.386 276.627 147.409 276.627 147.409L276.031 152.173Z" fill="#344A5E"/>
<path d="M286.75 111.677L290.919 114.654C290.919 114.654 292.11 120.014 291.515 122.396C290.919 124.183 290.919 124.183 291.515 125.97C292.111 127.16 294.492 130.138 294.492 130.138C294.492 130.138 295.088 131.925 293.897 132.521C292.706 133.116 291.514 133.116 291.514 133.116C291.514 133.116 292.11 134.903 291.514 135.499C291.514 135.499 292.705 136.094 291.514 137.881C290.324 139.072 292.11 140.858 291.514 142.645C290.919 145.027 282.582 144.431 281.391 144.431C279.008 143.836 270.671 158.724 270.671 158.724L258.761 140.858L259.952 136.689L264.716 122.396L286.75 111.677Z" fill="#FABEBE"/>
<path d="M290.324 115.25C290.324 115.25 293.897 113.463 294.492 109.295C295.088 105.126 288.537 105.721 284.964 103.935C281.986 102.744 269.48 98.5752 261.738 108.104C253.996 117.632 259.952 137.285 259.952 137.285C259.952 137.285 267.694 132.521 268.289 128.352C268.885 124.183 270.076 121.801 273.053 122.396C276.03 122.992 277.222 128.352 277.222 128.352L279.604 127.756C279.604 127.756 277.222 125.374 280.2 122.396C282.582 119.419 284.964 119.419 284.369 116.441C284.369 113.463 290.324 115.25 290.324 115.25Z" fill="#415A6B"/>
<path d="M259.952 137.285C259.952 137.285 262.929 139.667 267.098 142.049C271.267 144.431 275.436 148.004 276.627 150.386C276.627 150.386 275.436 156.342 273.054 159.915C270.671 163.488 270.671 163.488 270.671 163.488L258.761 140.858L259.952 137.285Z" fill="#F3F3F3"/>
<path d="M269.029 125.706C269.469 128.301 271.402 130.137 273.348 129.808C275.294 129.479 276.515 127.108 276.076 124.514C275.637 121.919 273.703 120.083 271.757 120.412C269.812 120.742 268.59 123.112 269.029 125.706Z" fill="#FABEBE"/>
<path d="M255.188 145.027C255.188 145.027 251.019 146.218 246.851 151.577C242.682 156.937 239.704 162.893 239.704 162.893C239.704 162.893 244.468 155.746 251.019 156.937C257.57 158.128 261.143 168.847 260.548 173.016C259.952 177.185 245.659 202.197 245.064 206.961C244.469 211.725 241.491 251.625 241.491 251.625C241.491 251.625 264.121 256.389 273.054 252.816C281.986 249.243 284.964 244.479 284.964 237.333C285.56 229.591 284.964 221.849 284.964 221.849C284.964 221.849 292.706 221.849 295.088 219.467C295.088 219.467 296.874 218.871 292.11 217.085C287.346 215.298 283.773 212.916 283.773 212.916C283.773 212.916 283.773 201.601 284.369 198.623C284.964 195.646 286.155 187.308 285.56 183.735C284.369 180.162 262.93 148.004 262.93 148.004L255.188 145.027Z" fill="#344A5E"/>
<path d="M258.761 140.262C258.761 140.262 258.761 141.453 260.548 142.644C262.334 143.835 270.076 153.96 276.627 162.297C283.177 170.634 285.56 177.78 286.155 183.736C287.346 189.691 284.369 196.242 284.369 198.624C284.369 198.624 284.964 192.073 284.964 188.5C284.964 184.927 280.796 177.185 279.605 175.994C278.414 174.803 264.121 158.128 264.121 158.128L265.312 154.555L262.334 153.364C262.334 153.364 259.357 149.791 257.57 148.004C255.188 145.622 255.188 145.027 256.379 143.835C256.974 142.644 257.57 140.858 258.761 140.262Z" fill="#415A6B"/>
<path d="M239.705 162.893C239.705 162.893 242.682 156.342 248.042 155.151C253.401 153.959 264.121 159.915 261.143 175.399C258.166 190.882 249.828 199.815 248.042 203.388C246.255 206.961 243.873 209.343 243.873 209.343C243.873 209.343 243.277 221.254 245.064 233.164C246.85 245.075 247.446 247.457 247.446 247.457C247.446 247.457 244.469 251.03 231.963 251.03C231.963 251.03 229.58 229.591 228.985 224.827C228.389 220.063 226.603 215.299 227.199 211.13C227.794 206.962 228.985 203.388 230.772 198.624C232.558 193.86 233.749 187.905 233.749 187.905C233.749 187.905 233.153 182.545 236.131 181.354C236.131 181.354 236.727 176.59 237.322 174.804C237.918 173.016 238.513 165.87 239.705 162.893Z" fill="#415A6B"/>
<path d="M286.75 227.804C286.75 226.613 286.75 224.827 287.346 223.635C287.942 222.444 287.942 221.849 287.942 224.826C287.346 230.781 287.942 232.568 287.346 235.545C287.346 235.545 295.088 220.657 293.302 223.635C292.111 226.613 288.538 235.545 288.538 235.545C288.538 235.545 294.493 228.399 293.897 229.59C293.897 230.781 288.538 237.332 287.942 239.119C287.346 240.905 290.919 247.456 298.661 248.647C290.919 249.243 284.369 249.838 284.369 249.838C284.369 249.838 286.75 235.546 286.75 227.804Z" fill="#344A5E"/>
<path d="M252.806 372.516L251.019 370.134C251.019 370.134 249.233 364.178 253.401 360.01L270.671 358.224C270.671 358.224 276.031 364.774 279.008 365.966C281.986 367.752 287.941 370.73 290.919 371.325C293.896 371.921 295.683 373.112 295.088 375.494C294.492 377.876 287.346 380.258 283.772 380.854C280.199 380.854 270.076 379.663 267.693 378.472C265.312 377.281 257.57 373.112 252.806 372.516Z" fill="#344A5E"/>
<path d="M295.088 374.898C295.088 374.898 293.897 376.685 291.515 377.281C289.133 377.876 277.818 379.663 274.245 378.471C270.672 377.876 264.716 374.303 261.143 373.707C258.166 372.517 252.211 371.325 251.02 370.134L250.424 374.303L258.761 377.281L259.357 376.09C259.357 376.09 264.121 377.876 266.503 379.067C268.885 380.258 273.649 382.045 280.796 381.449C288.537 380.258 296.875 379.662 295.088 374.898Z" fill="#415A6B"/>
<path d="M253.401 260.558C253.401 261.154 253.401 261.154 253.997 261.749C253.997 262.94 255.188 264.131 255.188 264.726C255.784 265.917 255.784 268.299 255.784 268.299L256.379 271.277C253.402 271.872 252.806 270.086 252.806 270.086L251.615 262.344L253.401 260.558Z" fill="#FABEBE"/>
<path d="M252.806 270.086C252.806 270.086 252.806 269.491 252.806 268.896C252.806 268.3 252.806 267.109 252.806 266.513C252.806 265.918 252.806 265.322 252.806 265.322C252.806 264.727 252.806 264.727 252.806 264.132C252.806 263.536 252.21 262.941 252.21 262.941C252.21 262.941 252.21 263.536 252.21 264.132C252.21 264.727 252.21 264.727 252.21 265.322C252.21 265.918 252.21 266.513 252.21 266.513C252.21 267.704 252.21 268.3 252.806 268.896C252.806 269.491 252.806 270.086 252.806 270.086Z" fill="#CC9696"/>
<path d="M236.131 272.468C236.131 268.299 239.704 265.322 243.278 265.322H251.615C255.784 265.322 258.761 268.895 258.761 272.468V287.357H236.131V272.468ZM255.188 272.468C255.188 270.682 253.997 268.895 251.615 268.895H243.278C241.491 268.895 239.704 270.086 239.704 272.468V283.188H254.593V272.468H255.188Z" fill="#656692"/>
<path d="M218.861 279.019V313.56C218.861 315.346 220.647 317.133 222.434 317.133H273.054C274.84 317.133 276.627 315.346 276.627 313.56V279.019C276.627 277.233 274.84 275.446 273.054 275.446H222.434C220.647 275.446 218.861 277.233 218.861 279.019Z" fill="#656692"/>
<path d="M236.727 249.243L245.659 246.861C245.659 246.861 247.446 251.625 248.042 252.22C248.637 252.816 251.615 257.58 252.806 259.367L253.5 260.5L252.211 261.749L252.806 270.086C252.806 270.682 252.806 272.468 251.615 273.063C250.425 273.659 249.829 272.468 249.829 272.468C249.829 272.468 249.829 273.659 248.638 273.659C247.447 273.659 246.255 271.277 246.255 271.277C246.255 271.277 246.255 273.064 244.469 273.064C243.278 273.064 242.682 270.087 242.682 270.087C242.682 270.087 242.086 270.682 241.491 271.277C240.895 271.277 239.705 270.682 239.705 268.895C239.109 267.109 237.918 258.771 238.514 256.389C237.918 254.007 236.727 249.839 236.727 249.243Z" fill="#FABEBE"/>
<path d="M249.828 272.468C249.828 272.468 249.828 271.873 249.828 272.468C249.828 271.278 249.828 271.278 249.828 270.682V270.086C249.828 270.086 249.828 270.086 249.828 269.49C249.828 268.895 249.828 268.895 249.828 268.895C249.828 268.895 249.828 268.895 249.828 269.49V270.086C249.232 271.278 249.232 271.278 249.828 272.468C249.828 271.873 249.828 272.468 249.828 272.468Z" fill="#CC9696"/>
<path d="M246.255 271.278C246.255 270.682 246.255 270.682 246.255 270.087V269.491C246.255 269.491 246.255 269.491 246.255 270.087V270.682C245.659 270.682 246.255 270.682 246.255 271.278Z" fill="#CC9696"/>
<path d="M242.682 270.087C242.682 270.087 242.682 269.491 242.682 270.087C242.682 269.491 242.682 269.491 242.682 268.896V268.3C242.682 268.3 242.682 268.3 242.682 268.896V269.491C242.086 269.491 242.682 269.491 242.682 270.087C242.682 269.491 242.682 270.087 242.682 270.087Z" fill="#CC9696"/>
<path d="M267.694 275.446H262.93V316.537H267.694V275.446Z" fill="#525375"/>
<path d="M231.962 275.446H227.198V316.537H231.962V275.446Z" fill="#525375"/>
<path d="M502.925 201.601L493.397 234.355L485.655 226.613L442.182 270.087H386.798V320.111C386.798 323.088 384.416 326.066 380.843 326.066H310.571V382.045C310.571 385.022 308.189 388 304.616 388H217.074V376.685H300.447V320.111C300.447 317.133 302.829 314.155 306.403 314.155H376.674V263.536C376.674 260.558 379.057 257.58 382.63 257.58H438.609L478.509 217.68L470.767 209.938L502.925 201.601Z" fill="#59DF83"/>
</g>
</g>
<defs>
<clipPath id="clip0">
<rect width="680" height="441" fill="white"/>
</clipPath>
<clipPath id="clip1">
<rect width="30.9796" height="30.9602" fill="white" transform="matrix(-0.251225 -0.967929 0.967841 -0.251562 640.035 366.255)"/>
</clipPath>
<clipPath id="clip2">
<rect width="43.7197" height="43.6923" fill="white" transform="matrix(-0.251225 -0.967929 0.967841 -0.251562 600.624 144.986)"/>
</clipPath>
<clipPath id="clip3">
<rect width="32.6182" height="32.5978" fill="white" transform="matrix(-0.251225 -0.967929 0.967841 -0.251562 23.1945 193.772)"/>
</clipPath>
<clipPath id="clip4">
<rect width="47.5206" height="47.4909" fill="white" transform="matrix(-0.251225 -0.967929 0.967841 -0.251562 127.923 253.333)"/>
</clipPath>
<clipPath id="clip5">
<rect width="31.817" height="31.7971" fill="white" transform="matrix(-0.251225 -0.967929 0.967841 -0.251562 98.9388 358.795)"/>
</clipPath>
<clipPath id="clip6">
<rect width="286" height="286" fill="white" transform="translate(217 102)"/>
</clipPath>
</defs>
</svg>
