<svg width="813" height="415" viewBox="0 0 813 415" fill="none" xmlns="http://www.w3.org/2000/svg">
<g clip-path="url(#clip0)">
<g clip-path="url(#clip1)">
<path d="M553.099 205.158L560.071 203.954C560.739 203.837 561.403 203.694 562.071 203.573C551.037 196.732 542.661 186.345 538.319 174.12C533.977 161.895 533.927 148.558 538.177 136.301C542.428 124.044 550.726 113.595 561.708 106.672C572.691 99.7484 585.704 96.7621 598.611 98.2035L589.474 119.921L611.122 101.04C611.172 101.053 611.222 101.069 611.27 101.09C618.359 103.583 624.886 107.447 630.48 112.461C636.074 117.475 640.624 123.54 643.871 130.31C647.118 137.08 648.998 144.423 649.404 151.919C649.81 159.415 648.734 166.917 646.237 173.998C645.874 175.027 645.443 176.011 645.03 177.006C651.141 173.939 657.004 170.368 661.785 165.796C671.464 156.532 676.767 143.748 682.694 127.998C694.435 96.7865 705.739 65.1232 716.592 33.3909C704.622 26.9209 695.353 16.3999 690.451 3.71758C685.549 -8.96474 685.335 -22.9773 689.848 -35.803C690.429 -37.4531 691.103 -39.0421 691.817 -40.6026C691.995 -40.9931 692.176 -41.3812 692.362 -41.7661C693.088 -43.2623 693.854 -44.7281 694.694 -46.1349C694.832 -46.3656 694.986 -46.5814 695.126 -46.8095C695.858 -47.9957 696.63 -49.1467 697.442 -50.2626C697.744 -50.6816 698.045 -51.0994 698.358 -51.5085C699.278 -52.71 700.23 -53.8792 701.235 -54.9954C701.571 -55.3689 701.927 -55.7179 702.272 -56.0817C703.043 -56.8951 703.836 -57.684 704.651 -58.4483C705.08 -58.8507 705.505 -59.256 705.945 -59.6441C706.058 -59.7437 706.164 -59.8524 706.277 -59.9511C706.283 -59.9439 706.288 -59.936 706.293 -59.9288C716.374 -68.7033 729.214 -73.6723 742.582 -73.9722C755.949 -74.2722 769 -69.8841 779.465 -61.5707L767.575 -33.3099L788.977 -51.9656C796.467 -42.4342 800.712 -30.7617 801.092 -18.6509C801.473 -6.54014 797.969 5.37528 791.092 15.3571C791.112 15.364 791.133 15.3694 791.152 15.3763C790.919 15.7193 790.653 16.0333 790.413 16.3702C789.962 17.0025 789.5 17.6236 789.027 18.2335C788.419 19.0155 787.787 19.7713 787.143 20.5168C786.656 21.0795 786.176 21.6469 785.669 22.1882C784.928 22.9801 784.152 23.7298 783.371 24.4754C782.914 24.9103 782.478 25.3672 782.009 25.7861C780.779 26.8838 779.506 27.9253 778.19 28.9106C777.729 29.2557 777.242 29.5602 776.772 29.8907C775.848 30.5395 774.92 31.1788 773.961 31.7709C773.366 32.1382 772.756 32.4739 772.148 32.819C771.269 33.3192 770.384 33.8038 769.48 34.2565C768.839 34.5774 768.193 34.8819 767.541 35.1788C766.613 35.6012 765.673 35.993 764.724 36.3659C764.086 36.6159 763.452 36.8691 762.806 37.0965C761.74 37.4715 760.659 37.7972 759.571 38.1091C759.022 38.2667 758.481 38.4471 757.927 38.5882C756.295 39.004 754.645 39.3579 752.975 39.6291C752.661 39.6803 752.342 39.6996 752.027 39.7454C750.643 39.9465 749.251 40.1088 747.849 40.208C747.246 40.2504 746.64 40.2565 746.035 40.2801C744.901 40.3241 743.766 40.3466 742.626 40.3222C741.96 40.3081 741.295 40.2737 740.628 40.2361C739.517 40.1734 738.406 40.0767 737.293 39.9463C736.635 39.8701 735.979 39.7946 735.32 39.695C734.128 39.5143 732.937 39.278 731.746 39.0193C731.668 39.0023 731.59 38.9921 731.511 38.9748C726.93 52.3621 722.265 65.7208 717.514 79.051C723.308 73.8471 730.106 69.8806 737.489 67.395C744.873 64.9094 752.688 63.9571 760.453 64.5964C768.219 65.2358 775.771 67.4534 782.648 71.1131C789.524 74.7728 795.58 79.7975 800.442 85.8788L780.656 107.735L807.446 97.053C813.953 110.682 814.776 126.334 809.735 140.569C807.989 145.571 805.541 150.301 802.466 154.617C795.847 163.968 786.567 171.117 775.831 175.137C765.095 179.156 753.397 179.86 742.255 177.158C731.113 174.456 721.042 168.472 713.346 159.982C705.651 151.493 700.687 140.89 699.098 129.548C698.595 130.891 698.109 132.251 697.604 133.593C692.374 147.488 685.868 164.78 672.801 177.282C663.944 185.756 653.047 191.132 642.592 195.678C635.784 198.637 628.886 201.373 621.896 203.886C614.126 208.592 605.348 211.386 596.285 212.039C585.256 215.099 574.089 217.653 562.818 219.625L555.789 220.835C549.473 221.916 542.996 223.029 536.569 224.311C537.494 224.585 538.421 224.847 539.341 225.17C550.795 229.197 560.67 236.756 567.539 246.756C574.409 256.756 577.918 268.679 577.558 280.801L533.497 294.309L573.367 300.634C569.72 309.587 563.86 317.47 556.335 323.548C548.811 329.626 539.867 333.699 530.338 335.388C520.81 337.077 511.009 336.327 501.85 333.206C492.691 330.086 484.473 324.698 477.964 317.545C478.368 318.899 478.775 320.252 479.183 321.602C479.992 324.285 480.795 326.953 481.566 329.595C492.058 365.603 487.543 393.927 468.85 409.348L458.707 397.084C476.9 382.073 471.256 351.143 466.275 334.038C465.518 331.444 464.728 328.823 463.933 326.187C457.099 303.513 449.353 277.812 459.386 254.195C474.506 218.599 518.084 211.146 553.099 205.158Z" fill="#F2F2F2"/>
<path d="M540.186 413.967H231.468C221.344 413.967 211.635 409.95 204.476 402.799C197.318 395.649 193.296 385.952 193.296 375.84V234.566C193.296 232.515 193.714 230.485 194.526 228.6C195.337 226.715 196.524 225.016 198.015 223.604L361.605 68.7164C368.145 62.5237 376.814 59.072 385.827 59.072C394.839 59.072 403.508 62.5237 410.048 68.7164L566.023 216.394C569.919 220.083 573.022 224.526 575.143 229.452C577.264 234.379 578.357 239.685 578.357 245.047V375.84C578.357 380.847 577.37 385.804 575.452 390.43C573.533 395.056 570.722 399.259 567.177 402.799C563.632 406.34 559.424 409.148 554.793 411.064C550.162 412.98 545.198 413.967 540.186 413.967Z" fill="#3F3D56"/>
<path opacity="0.1" d="M193.296 236.886H575.148V390.944C575.148 397.05 572.72 402.906 568.397 407.223C564.075 411.541 558.212 413.967 552.099 413.967H216.345C210.232 413.967 204.37 411.541 200.047 407.223C195.724 402.906 193.296 397.05 193.296 390.944V236.886Z" fill="black"/>
<path d="M506.414 115.494H264.437C252.837 115.494 243.434 124.886 243.434 136.472V378.165C243.434 389.751 252.837 399.143 264.437 399.143H506.414C518.013 399.143 527.417 389.751 527.417 378.165V136.472C527.417 124.886 518.013 115.494 506.414 115.494Z" fill="#59DF83"/>
<path opacity="0.1" d="M527.417 243.256V399.143H243.434V243.256L385.425 311.805L527.417 243.256Z" fill="black"/>
<path d="M385.425 320.619L203.489 232.786C202.364 232.243 201.119 231.994 199.871 232.062C198.623 232.131 197.413 232.515 196.354 233.178C195.295 233.842 194.422 234.763 193.817 235.855C193.212 236.948 192.895 238.176 192.895 239.424V390.544C192.895 393.567 193.491 396.561 194.649 399.354C195.808 402.147 197.506 404.685 199.646 406.823C201.786 408.961 204.327 410.656 207.124 411.813C209.92 412.97 212.917 413.566 215.944 413.566H554.907C557.934 413.566 560.931 412.97 563.727 411.813C566.524 410.656 569.065 408.961 571.205 406.823C573.345 404.685 575.043 402.147 576.202 399.354C577.36 396.561 577.956 393.567 577.956 390.544V242.013C577.956 240.49 577.569 238.991 576.831 237.658C576.092 236.325 575.027 235.201 573.735 234.391C572.443 233.582 570.967 233.113 569.444 233.029C567.921 232.946 566.402 233.249 565.028 233.912L385.425 320.619Z" fill="#3F3D56"/>
<path d="M347.32 141.535H267.902V152.753H347.32V141.535Z" fill="#F2F2F2"/>
<path d="M497.334 182.4H261.484V188.81H497.334V182.4Z" fill="#F2F2F2"/>
<path d="M497.334 204.034H261.484V210.444H497.334V204.034Z" fill="#F2F2F2"/>
<path d="M497.334 225.668H261.484V232.078H497.334V225.668Z" fill="#F2F2F2"/>
<path d="M0 414L813 414" stroke="#3F3D56" stroke-miterlimit="10"/>
<path d="M0 314.899C0 362.142 29.6726 400.37 66.3423 400.37L0 314.899Z" fill="#46455B"/>
<path d="M66.3423 400.37C66.3423 352.596 99.4552 313.938 140.376 313.938L66.3423 400.37Z" fill="#59DF83"/>
<path d="M24.0371 319.181C24.0371 364.057 42.9588 400.37 66.3424 400.37L24.0371 319.181Z" fill="#59DF83"/>
<path d="M66.3423 400.37C66.3423 339.326 104.616 289.93 151.914 289.93L66.3423 400.37Z" fill="#46455B"/>
<path d="M52.3856 400.973C52.3856 400.973 61.7941 400.683 64.6295 398.667C67.465 396.65 79.1021 394.242 79.8055 397.476C80.5089 400.711 93.9446 413.563 83.3225 413.648C72.7004 413.734 58.6415 411.996 55.8115 410.274C52.9815 408.552 52.3856 400.973 52.3856 400.973Z" fill="#A8A8A8"/>
<path opacity="0.2" d="M83.5121 412.522C72.89 412.608 58.8311 410.87 56.0011 409.148C53.8459 407.837 52.9871 403.131 52.6997 400.961C52.5007 400.969 52.3856 400.973 52.3856 400.973C52.3856 400.973 52.9815 408.552 55.8115 410.274C58.6416 411.996 72.7005 413.734 83.3225 413.648C86.3887 413.624 87.4478 412.534 87.3897 410.92C86.9637 411.895 85.7943 412.504 83.5121 412.522Z" fill="black"/>
<path d="M661 314.899C661 362.142 690.673 400.37 727.342 400.37L661 314.899Z" fill="#46455B"/>
<path d="M727.342 400.37C727.342 352.596 760.455 313.938 801.376 313.938L727.342 400.37Z" fill="#59DF83"/>
<path d="M685.037 319.181C685.037 364.057 703.959 400.37 727.342 400.37L685.037 319.181Z" fill="#59DF83"/>
<path d="M727.342 400.37C727.342 339.326 765.616 289.93 812.914 289.93L727.342 400.37Z" fill="#46455B"/>
<path d="M713.386 400.973C713.386 400.973 722.794 400.683 725.63 398.667C728.465 396.65 740.102 394.242 740.805 397.476C741.509 400.711 754.945 413.563 744.323 413.648C733.7 413.734 719.642 411.996 716.812 410.274C713.982 408.552 713.386 400.973 713.386 400.973Z" fill="#A8A8A8"/>
<path opacity="0.2" d="M744.512 412.522C733.89 412.608 719.831 410.87 717.001 409.148C714.846 407.837 713.987 403.131 713.7 400.961C713.501 400.969 713.386 400.973 713.386 400.973C713.386 400.973 713.982 408.552 716.812 410.274C719.642 411.996 733.7 413.734 744.323 413.648C747.389 413.624 748.448 412.534 748.39 410.92C747.964 411.895 746.794 412.504 744.512 412.522Z" fill="black"/>
<path d="M577.362 56.4231C576.879 60.7136 573.603 64.1697 572.389 68.3133C570.562 74.55 573.721 81.2425 578.043 86.0997C581.53 89.9776 585.753 93.1256 590.468 95.3613C595.182 97.597 600.293 98.8759 605.506 99.1239C607.037 99.2584 608.58 99.0905 610.047 98.6297C611.356 98.1035 612.535 97.2988 613.501 96.2716C616.756 93.0073 618.503 88.4844 619.199 83.9303C619.896 79.3761 619.625 74.7364 619.353 70.1374C619.354 69.1868 619.181 68.2439 618.843 67.3554C618.399 66.5091 617.789 65.7605 617.05 65.1541C614.707 63.0071 612.125 61.1342 609.357 59.5721C608.105 59.012 607.002 58.1685 606.133 57.1083C605.61 56.2002 605.271 55.1978 605.137 54.1586L604.287 49.8326C604.135 48.586 603.709 47.3884 603.039 46.3259C601.537 44.3029 598.665 44.0276 596.146 43.9289L586.916 43.5673C584.045 43.4548 580.263 42.6325 577.46 43.1956C574.843 43.7215 575.712 46.1304 576.188 48.3238C576.877 50.972 577.271 53.6883 577.362 56.4231Z" fill="#A0616A"/>
<path opacity="0.1" d="M577.362 56.4231C576.879 60.7136 573.603 64.1697 572.389 68.3133C570.562 74.55 573.721 81.2425 578.043 86.0997C581.53 89.9776 585.753 93.1256 590.468 95.3613C595.182 97.597 600.293 98.8759 605.506 99.1239C607.037 99.2584 608.58 99.0905 610.047 98.6297C611.356 98.1035 612.535 97.2988 613.501 96.2716C616.756 93.0073 618.503 88.4844 619.199 83.9303C619.896 79.3761 619.625 74.7364 619.353 70.1374C619.354 69.1868 619.181 68.2439 618.843 67.3554C618.399 66.5091 617.789 65.7605 617.05 65.1541C614.707 63.0071 612.125 61.1342 609.357 59.5721C608.105 59.012 607.002 58.1685 606.133 57.1083C605.61 56.2002 605.271 55.1978 605.137 54.1586L604.287 49.8326C604.135 48.586 603.709 47.3884 603.039 46.3259C601.537 44.3029 598.665 44.0276 596.146 43.9289L586.916 43.5673C584.045 43.4548 580.263 42.6325 577.46 43.1956C574.843 43.7215 575.712 46.1304 576.188 48.3238C576.877 50.972 577.271 53.6883 577.362 56.4231Z" fill="black"/>
<path d="M636.074 249.538C634.766 263.858 633.459 278.177 632.151 292.493C631.128 303.759 630.084 315.072 628.076 326.193C627.383 330.025 626.571 333.838 625.607 337.617C622.925 348.112 619.036 358.369 617.781 369.128C617.741 369.438 617.708 369.754 617.675 370.071C617.535 372.45 617.084 374.801 616.335 377.063C615.707 378.705 614.743 380.203 614.063 381.826C612.709 385.071 612.531 388.659 612.366 392.175C607.603 389.5 602.39 387.72 596.985 386.924C594.376 386.535 591.471 386.258 589.694 384.312C587.726 382.162 587.944 378.87 588.274 375.981C589.311 367.01 590.346 358.044 591.378 349.082C591.715 345.226 592.371 341.405 593.339 337.657C593.696 336.41 594.125 335.183 594.561 333.957C595.162 332.268 595.77 330.579 596.225 328.844C596.882 326.041 597.341 323.196 597.599 320.329C598.662 311.305 599.943 302.301 601.066 293.284L601.126 292.809C602.81 279.142 604.091 265.408 603.721 251.642C603.668 249.604 603.582 247.566 603.45 245.521C603.265 242.559 602.994 240.989 605.451 239.136C608.165 237.091 611.738 235.659 614.842 234.32C616.513 233.595 634.912 227.071 635.341 228.502C636.204 231.556 636.657 234.71 636.688 237.882C636.701 241.776 636.496 245.667 636.074 249.538Z" fill="#605D82"/>
<path opacity="0.1" d="M628.076 326.193C627.383 330.025 626.571 333.838 625.607 337.617C622.925 348.112 619.036 358.369 617.781 369.128C617.741 369.438 617.708 369.754 617.675 370.071C609.473 358.369 602.565 345.784 594.561 333.956C595.162 332.268 595.77 330.579 596.225 328.844C596.882 326.041 597.341 323.196 597.599 320.329C598.662 311.305 599.943 302.301 601.066 293.284L601.126 292.809C601.595 294.723 602.266 296.583 603.127 298.357C608.502 309.267 621.274 314.781 627.522 325.223C627.713 325.546 627.898 325.869 628.076 326.193Z" fill="black"/>
<path d="M561.521 230.257C561.792 239.008 563.194 247.679 564.594 256.322L567.481 274.153C569.062 283.912 570.707 293.87 575.331 302.611C578.79 309.149 583.773 314.729 588.281 320.595C599.364 335.017 607.69 351.353 618.199 366.197C621.253 370.512 625.62 375.178 630.833 374.277C634.254 373.686 636.739 370.841 639.429 368.647C642.599 366.061 646.421 364.168 648.916 360.926C651.411 357.684 651.899 352.296 648.519 349.989C647.296 349.312 645.998 348.781 644.651 348.408C639.411 346.417 636.02 341.307 633.862 336.139C631.704 330.971 630.397 325.415 627.521 320.608C621.274 310.166 608.5 304.652 603.123 293.738C600.112 287.625 599.825 280.58 599.595 273.771L599.008 256.413C598.944 254.515 598.894 252.541 599.666 250.806C601.723 246.186 607.933 245.755 612.961 245.17C618.668 244.501 624.197 242.759 629.254 240.035C632.15 238.473 634.98 236.482 636.529 233.581C637.943 230.935 638.138 227.831 638.303 224.836L640.044 193.38C640.194 190.674 640.331 187.875 639.376 185.338C636.978 178.968 628.924 176.886 622.117 177.19C609.45 177.756 597.757 183.198 585.813 186.874C582.855 187.806 579.852 188.588 576.815 189.218C574.134 189.755 570.89 189.532 568.334 190.393C563.787 191.924 563.903 201.855 563.258 205.974C561.927 213.997 561.345 222.127 561.521 230.257Z" fill="#605D82"/>
<path d="M629.113 375.596C630.23 376.721 630.595 378.37 630.886 379.927C632.499 388.567 633.339 397.334 633.394 406.123C633.319 406.943 633.483 407.767 633.866 408.496C634.18 408.931 634.606 409.273 635.099 409.486C638.328 411.023 642.075 408.881 644.765 406.528C649.752 402.165 653.971 396.308 654.254 389.692C654.203 387.988 654.262 386.283 654.433 384.586C654.871 382.096 656.327 379.926 657.61 377.746C659.794 374.035 661.555 370.092 662.861 365.99C663.351 364.448 663.678 362.508 662.469 361.433C662.04 361.097 661.553 360.844 661.031 360.686L646.448 355.278C645.185 354.809 642.04 362.877 641.541 363.759C640.32 365.917 639.106 367.142 636.657 367.64C634.157 368.148 631.181 367.419 628.848 368.665C624.901 370.772 626.878 373.345 629.113 375.596Z" fill="#535070"/>
<path d="M606.611 380.575C606.34 380.037 605.962 379.558 605.501 379.169C604.826 378.742 604.058 378.481 603.262 378.41C600.486 377.939 597.195 377.629 595.279 379.69C593.482 381.622 593.791 384.77 592.289 386.939C591.814 387.626 591.17 388.191 590.757 388.918C590.246 390.028 590.015 391.246 590.085 392.466C590.008 395.828 589.93 399.195 590.163 402.55C590.358 405.36 590.832 408.306 592.592 410.508C595.417 414.042 600.511 414.551 605.033 414.78L608.695 414.966C609.704 415.088 610.727 414.995 611.696 414.691C612.297 414.414 612.835 414.019 613.28 413.531C613.724 413.042 614.066 412.469 614.285 411.846C616.192 407.113 613.173 402.014 611.313 397.263C609.176 391.802 609.559 385.738 606.611 380.575Z" fill="#535070"/>
<path d="M576.301 32.2483C576.256 31.7686 576.326 31.285 576.506 30.838C577.043 29.8906 578.444 30.1485 579.5 30.4145C583.749 31.4846 588.226 30.516 592.601 30.766C596.976 31.0159 601.904 33.2005 602.784 37.4883C605.959 35.2397 608.697 32.4305 610.861 29.1989C612.075 27.384 613.134 25.3052 612.968 23.1287C612.73 19.9893 610.093 17.6415 607.651 15.6505L600.372 9.71552C599.417 8.83859 598.314 8.13788 597.114 7.64598C595.433 7.07227 593.6 7.34562 591.824 7.34675C586.525 7.35014 580.876 4.94169 576.164 7.36112C574.195 8.37177 572.714 10.1037 571.286 11.7924L564.789 19.4733C564.3 19.9628 563.943 20.5678 563.751 21.2322C563.566 22.1697 564.048 23.095 564.216 24.0357C564.523 25.7516 563.783 27.5829 564.352 29.2307C565.296 31.9664 568.622 32.3536 570.655 33.9219C571.413 34.5065 572.6 36.4874 573.503 36.4632C575.132 36.4195 576.258 33.5124 576.301 32.2483Z" fill="#3F3D56"/>
<path d="M587.323 54.8893C598.812 54.8893 608.126 45.5866 608.126 34.1111C608.126 22.6356 598.812 13.3329 587.323 13.3329C575.834 13.3329 566.521 22.6356 566.521 34.1111C566.521 45.5866 575.834 54.8893 587.323 54.8893Z" fill="#A0616A"/>
<path d="M592.196 79.5846C591.49 77.5653 590.158 75.823 588.394 74.6105C586.63 73.398 584.526 72.7783 582.385 72.8412C581.773 72.9551 581.14 72.8752 580.575 72.6127C580.256 72.3676 580.001 72.0489 579.832 71.6839C578.567 69.4119 577.55 67.0108 576.799 64.5218C576.467 63.422 576.013 62.1254 574.899 61.8395C574.438 61.7792 573.969 61.8452 573.543 62.0305C573.116 62.2159 572.748 62.5135 572.478 62.8916C571.949 63.6526 571.371 64.3783 570.747 65.0642C568.131 67.4008 563.493 65.2711 560.716 67.4148C560.262 67.7649 559.888 68.2135 559.412 68.532C558.935 68.8187 558.421 69.0388 557.884 69.1861C552.522 70.9347 547.265 72.9912 542.14 75.3453C543.987 86.4563 545.88 97.7611 550.21 108.161C552.27 113.11 554.605 117.957 556.255 123.058C559.911 134.358 560.073 146.45 560.114 158.326C560.142 166.454 560.102 174.756 557.469 182.447C556.761 184.146 556.261 185.926 555.982 187.745C555.823 189.578 556.357 191.599 557.844 192.685C558.706 193.248 559.692 193.593 560.717 193.692C565.279 194.361 569.878 193.148 574.37 192.109C586.409 189.324 598.689 187.731 610.944 186.141L631.481 183.478C632.953 183.378 634.393 183.006 635.729 182.381C639.487 180.326 639.844 174.68 637.511 171.091C636.392 169.371 634.813 167.959 633.873 166.135C632.933 164.311 632.853 161.76 634.471 160.497C637.763 157.927 636.781 153.159 636.938 148.989C637.377 137.328 637.318 125.663 636.76 113.994C636.595 111.578 636.557 109.155 636.644 106.736C637.009 102.636 637.768 98.5798 638.909 94.6246L645.149 70.0833C643.519 67.5103 640.398 65.8779 637.441 65.1367C634.484 64.3956 631.405 64.1774 628.493 63.2762C622.527 61.4298 617.216 56.7442 610.986 57.1809C610.515 57.1894 610.052 57.3024 609.63 57.5118C608.225 58.3069 608.447 60.3294 608.357 61.9399C608.159 65.503 605.535 68.481 602.637 70.5689C599.74 72.6569 596.431 74.1793 593.769 76.5605C593.298 76.9153 592.912 77.3711 592.639 77.8944C592.367 78.4177 592.215 78.9952 592.196 79.5846Z" fill="#3F3D56"/>
<path d="M509.769 102.863C508.389 103.757 506.923 104.51 505.393 105.112C503.895 105.557 502.479 106.243 501.202 107.143C500.613 107.652 500.119 108.261 499.744 108.942C499.04 110.189 498.684 111.603 498.713 113.034C498.742 114.466 499.156 115.863 499.91 117.081C500.664 118.299 501.732 119.292 503.002 119.956C504.272 120.621 505.697 120.933 507.129 120.86C509.032 120.647 510.881 120.096 512.59 119.234L527.262 112.883C529.746 111.808 532.428 110.549 533.602 108.113C533.739 107.886 533.789 107.617 533.745 107.356C533.627 107.079 533.413 106.855 533.142 106.723C529.833 104.576 526.939 101.85 524.599 98.6762C523.997 97.8598 523.26 95.9323 522.409 95.4428C519.304 93.6564 512.255 101.251 509.769 102.863Z" fill="#A0616A"/>
<path d="M666.623 97.6516L672.032 103.824C673.194 105.149 674.356 106.475 675.415 107.884C678.014 111.462 680.1 115.386 681.61 119.542C682.786 122.623 683.762 125.906 683.351 129.179C683.078 130.856 682.625 132.499 681.998 134.08C681.007 137.119 679.778 140.075 678.323 142.922C677.099 145.085 675.716 147.154 674.186 149.113C669.998 154.658 665.415 159.894 660.474 164.78C658.624 166.609 657.849 169.565 657.044 172.037C655.559 176.596 652.026 180.147 648.609 183.514C647.511 184.672 646.297 185.715 644.987 186.627C643.024 187.889 640.731 188.542 638.396 188.502C637.374 188.509 636.363 188.3 635.427 187.888C633.089 186.779 631.901 184.078 631.657 181.504C631.44 179.169 631.832 176.816 632.795 174.677C635.899 167.809 643.87 164.833 649.505 159.821C652.808 156.883 655.335 153.192 657.827 149.541C659.519 147.261 660.932 144.787 662.036 142.172C663.294 138.818 662.804 134.848 663.904 131.439C664.368 129.998 665.194 128.697 665.694 127.268C666.194 125.839 666.32 124.142 665.445 122.905C664.786 122.119 663.946 121.505 662.996 121.115C659.397 119.29 655.366 116.942 654.677 112.969C654.402 110.766 654.979 108.541 656.288 106.748C657.594 104.978 659.119 103.381 660.827 101.996C662.402 100.606 665.049 99.042 666.623 97.6516Z" fill="#A0616A"/>
<path d="M506.296 111.478C505.341 109.551 504.147 107.585 502.219 106.627C501.285 106.221 500.278 106.01 499.259 106.006C498.24 106.002 497.231 106.204 496.294 106.602C494.425 107.407 492.675 108.463 491.093 109.743L486.431 113.176C485.373 113.868 484.438 114.731 483.662 115.728C482.927 116.938 482.437 118.28 482.221 119.679C481.408 122.869 481.16 126.176 481.488 129.452C482.227 134.704 485.398 139.289 488.887 143.286C491.067 145.784 493.759 148.305 497.075 148.412C498.507 148.458 500.099 147.894 500.694 146.593C500.9 146.077 501.01 145.528 501.017 144.973C501.375 139.115 499.277 133.393 496.831 128.057C496.051 126.66 495.59 125.108 495.481 123.512C495.464 123.243 495.534 122.976 495.681 122.75C495.892 122.531 496.174 122.394 496.477 122.362C499.825 121.701 505.593 124.299 507.942 120.585C509.464 118.177 507.378 113.662 506.296 111.478Z" fill="#A0616A"/>
<path d="M575.21 25.7102C575.165 25.2304 575.235 24.7469 575.415 24.2999C575.952 23.3526 577.353 23.6104 578.409 23.8764C582.658 24.9464 587.135 23.9779 591.51 24.2279C595.885 24.4778 600.813 26.6624 601.693 30.9502C604.868 28.7016 607.606 25.8924 609.77 22.6608C610.984 20.8459 612.043 18.7671 611.877 16.5906C611.639 13.4512 609.002 11.1034 606.56 9.11243L599.281 3.17743C598.326 2.3005 597.223 1.5998 596.023 1.1079C594.342 0.534195 592.509 0.807525 590.733 0.808663C585.434 0.812061 579.785 -1.5964 575.073 0.823029C573.104 1.83368 571.623 3.56559 570.195 5.25432L563.698 12.9352C563.209 13.4247 562.852 14.0298 562.66 14.6941C562.475 15.6316 562.957 16.5569 563.125 17.4976C563.432 19.2135 562.692 21.0448 563.261 22.6927C564.206 25.4283 567.531 25.8155 569.564 27.3838C570.322 27.9684 571.509 29.9493 572.412 29.9251C574.041 29.8815 575.167 26.9743 575.21 25.7102Z" fill="#3F3D56"/>
<path d="M531.027 82.6521C530.187 83.1931 529.45 83.8786 528.849 84.6767C528.087 85.8285 527.931 87.2826 527.276 88.4986C525.874 91.1008 522.595 92.0265 520.55 94.1613C520.225 94.4549 519.999 94.8419 519.903 95.269C519.893 95.8483 520.088 96.4127 520.453 96.8632L530.317 112.353C533.602 112.642 536.753 110.587 540.038 110.859C541.265 110.961 542.521 111.385 543.697 111.022C544.54 110.649 545.329 110.167 546.045 109.588C548.005 108.35 550.616 108.206 552.261 106.572C553.839 105.005 554.041 102.552 554.022 100.329C554.048 98.3985 553.852 96.4713 553.436 94.5857C551.983 88.6401 547.431 84.0775 544.577 78.8108C543.187 76.2467 542.431 74.7457 539.49 76.5063C536.534 78.2759 533.809 80.62 531.027 82.6521Z" fill="#3F3D56"/>
<path d="M650.83 74.8189C652.684 76.0213 654.355 77.4835 655.793 79.1606C657.295 81.0961 658.146 83.4647 659.59 85.4446C660.989 87.3637 662.894 88.85 664.481 90.6172C666.888 93.2972 668.518 96.5668 670.119 99.7925C666.209 104.887 661.945 109.7 657.359 114.197C656.849 114.798 656.176 115.239 655.422 115.469C654.909 115.524 654.39 115.45 653.912 115.256C653.434 115.061 653.012 114.751 652.683 114.354C651.972 113.609 651.469 112.692 650.79 111.918C649.187 110.267 647.05 109.235 644.759 109.005C642.487 108.786 640.202 108.754 637.926 108.911C637.426 108.967 636.92 108.882 636.466 108.666C636.129 108.433 635.855 108.12 635.67 107.754C632.999 103.215 633.858 97.5152 634.801 92.3348L636.963 80.4476C637.276 78.1774 637.881 75.9569 638.762 73.841C639.581 72.0929 641.412 69.1284 643.664 69.6517C645.934 70.1793 648.92 73.4469 650.83 74.8189Z" fill="#3F3D56"/>
<path d="M255.066 152.872C273.231 152.872 287.957 138.137 287.957 119.96C287.957 101.784 273.231 87.0485 255.066 87.0485C236.901 87.0485 222.176 101.784 222.176 119.96C222.176 138.137 236.901 152.872 255.066 152.872Z" fill="white"/>
<path d="M255.066 81.4396C247.292 81.4396 239.692 83.7423 233.228 88.0565C226.764 92.3706 221.725 98.5026 218.75 105.677C215.775 112.851 214.997 120.745 216.513 128.361C218.03 135.978 221.774 142.973 227.271 148.464C232.768 153.955 239.773 157.695 247.398 159.21C255.023 160.725 262.926 159.947 270.109 156.975C277.292 154.004 283.431 148.971 287.75 142.515C292.069 136.058 294.375 128.467 294.375 120.702C294.344 110.298 290.193 100.329 282.828 92.9729C275.463 85.6164 265.482 81.47 255.066 81.4396ZM246.997 141.635L226.851 121.513L232.502 115.87L247.016 130.366L277.65 99.7683L283.3 105.412L246.997 141.635L246.997 141.635Z" fill="#57B894"/>
</g>
</g>
<defs>
<clipPath id="clip0">
<rect width="813" height="415" fill="white"/>
</clipPath>
<clipPath id="clip1">
<rect width="813" height="489" fill="white" transform="translate(0 -74)"/>
</clipPath>
</defs>
</svg>
