<svg width="590" height="433" viewBox="0 0 590 433" fill="none" xmlns="http://www.w3.org/2000/svg">
<path d="M590 420.647C588.109 437.831 488.845 436.389 488.995 420.646C490.886 403.463 590.15 404.906 590 420.647Z" fill="#E6E6E6"/>
<path d="M521.81 376.55L517.787 385.263L510.409 384.593L505.715 369.177L513.092 365.156L521.81 376.55Z" fill="#FFB8B8"/>
<path d="M547.137 396.617L547.295 402.688L535.894 403.359V395.986L547.137 396.617Z" fill="#FFB8B8"/>
<path d="M543.271 286.07L540.589 339.687L547.296 397.997L527.176 400.678L514.434 326.953L510.409 276.686L543.271 286.07Z" fill="#2F2E41"/>
<path d="M574.792 266.633C574.792 266.633 582.84 319.581 566.073 337.007C549.307 354.432 526.505 385.263 526.505 385.263L510.409 365.156L551.319 321.591L543.271 292.102L510.409 276.686L515.775 239.824L564.061 239.154L574.792 266.633Z" fill="#2F2E41"/>
<path d="M535.224 143.982C543.372 143.982 549.978 137.38 549.978 129.237C549.978 121.093 543.372 114.492 535.224 114.492C527.075 114.492 520.469 121.093 520.469 129.237C520.469 137.38 527.075 143.982 535.224 143.982Z" fill="#FFB8B8"/>
<path d="M547.966 132.588C547.966 132.588 548.637 153.365 551.99 156.046C555.343 158.727 539.918 170.12 539.918 170.12L529.858 154.035V139.29L547.966 132.588Z" fill="#FFB8B8"/>
<path d="M541.26 160.737L549.402 148.45L554.002 154.705L560.708 173.472L555.343 246.526L523.822 247.197L519.799 163.418L529.858 151.354L541.26 160.737Z" fill="#D0CDE1"/>
<path d="M507.056 165.429L501.691 164.759C501.691 164.759 500.35 165.429 499.679 170.121C499.008 174.812 490.961 216.366 490.961 216.366L501.691 267.303L513.763 251.218L506.386 223.068L513.763 194.919L507.056 165.429Z" fill="#2F2E41"/>
<path d="M575.463 164.759H579.486L589.546 219.047L580.157 261.271L570.768 245.856L573.45 229.1L572.109 214.356L567.415 205.642L575.463 164.759Z" fill="#2F2E41"/>
<path d="M515.775 382.582C515.775 382.582 519.799 381.241 519.799 383.922C519.799 386.603 517.116 394.646 517.116 394.646C517.116 394.646 521.14 419.444 515.104 418.104C509.068 416.763 504.374 405.37 503.703 402.018C503.032 398.667 499.679 381.241 499.679 381.241C499.679 381.241 494.314 368.507 497.667 367.837C501.02 367.167 510.409 364.486 510.409 364.486C510.409 364.486 505.044 381.241 515.775 382.582Z" fill="#2F2E41"/>
<path d="M535.224 403.359C535.224 403.359 545.954 396.657 547.966 402.019C549.3 405.929 550.2 409.975 550.648 414.083C550.648 414.083 553.331 422.795 542.601 421.455C531.87 420.115 533.212 420.115 532.541 416.093C531.87 412.072 535.224 403.359 535.224 403.359Z" fill="#2F2E41"/>
<path d="M543.942 129.237L541.259 128.567C541.259 128.567 539.247 117.173 534.553 118.513C529.858 119.854 517.787 121.194 517.787 115.832C517.787 110.471 529.188 105.779 535.894 106.449C542.601 107.12 554.002 109.13 553.331 119.184C552.66 129.237 548.333 139.017 548.333 139.017L547.983 133.056L543.942 129.237Z" fill="#2F2E41"/>
<path d="M529.858 168.78L541.26 160.737L529.858 151.354L525.9 156.101L529.858 168.78Z" fill="#D0CDE1"/>
<path d="M551.319 168.11L541.26 160.737L549.307 148.674L554.002 154.705L551.319 168.11Z" fill="#D0CDE1"/>
<path d="M502.362 164.759L523.823 156.046L528.852 152.36L543.942 219.047L554.002 188.887L550.984 150.349L578.816 164.759L569.427 210.334L568.085 227.76L572.109 241.835C572.109 241.835 586.193 251.888 581.498 262.612C576.804 273.335 571.439 274.005 571.439 274.005C571.439 274.005 548.637 252.558 547.295 247.196C545.954 241.835 543.942 232.451 543.942 232.451C543.942 232.451 532.541 275.346 519.128 274.676C505.715 274.005 505.715 259.931 505.715 259.931L509.068 245.186L514.433 229.771L511.751 204.302L502.362 164.759Z" fill="#2F2E41"/>
<path d="M467.731 0.265381H0.199951V299.503H467.731V0.265381Z" fill="#E6E6E6"/>
<path d="M454.362 37.7969H13.5686V151.869H454.362V37.7969Z" fill="white"/>
<path d="M216.43 54.2739H123.212V59.6216H216.43V54.2739Z" fill="#E6E6E6"/>
<path d="M267.16 73.7808H123.212V79.1284H267.16V73.7808Z" fill="#59DF83"/>
<path d="M240.527 92.1589H123.212V97.5066H240.527V92.1589Z" fill="#E6E6E6"/>
<path d="M191.698 110.468H123.212V115.815H191.698V110.468Z" fill="#E6E6E6"/>
<path d="M226.576 128.777H123.212V134.124H226.576V128.777Z" fill="#E6E6E6"/>
<path d="M92.139 52.3726H80.7246V63.7798H92.139V52.3726Z" fill="#E6E6E6"/>
<path d="M92.139 70.751H80.7246V82.1582H92.139V70.751Z" fill="#59DF83"/>
<path d="M92.139 89.1292H80.7246V100.536H92.139V89.1292Z" fill="#E6E6E6"/>
<path d="M92.139 107.507H80.7246V118.915H92.139V107.507Z" fill="#E6E6E6"/>
<path d="M92.139 125.886H80.7246V137.293H92.139V125.886Z" fill="#E6E6E6"/>
<path d="M392.719 78.3557H354.671V116.38H392.719V78.3557Z" fill="#E6E6E6"/>
<path d="M454.362 167.712H13.5686V281.784H454.362V167.712Z" fill="white"/>
<path d="M111.797 177.85H100.383V189.258H111.797V177.85Z" fill="#E6E6E6"/>
<path d="M92.139 177.85H80.7246V189.258H92.139V177.85Z" fill="#59DF83"/>
<path d="M274.258 202.796C270.779 196.909 265.952 191.932 260.173 188.274C254.394 184.615 247.829 182.38 241.018 181.751C234.206 181.122 227.343 182.118 220.991 184.657C214.64 187.195 208.982 191.204 204.483 196.354L201.701 193.925C206.584 188.334 212.725 183.981 219.619 181.225C226.513 178.469 233.963 177.387 241.357 178.07C248.751 178.752 255.877 181.179 262.15 185.151C268.422 189.122 273.661 194.525 277.437 200.915L274.258 202.796Z" fill="#E6E6E6"/>
<path d="M275.999 250.888L272.933 248.828C277.474 242.06 280.007 234.147 280.242 226.003C280.476 217.858 278.402 209.813 274.258 202.796L277.437 200.915C281.936 208.533 284.189 217.267 283.934 226.109C283.68 234.951 280.929 243.541 275.999 250.888V250.888Z" fill="#59DF83"/>
<path d="M202.086 256.031C194.45 247.508 190.196 236.49 190.125 225.051C190.054 213.611 194.171 202.541 201.701 193.925L204.483 196.354C197.547 204.292 193.754 214.49 193.819 225.028C193.885 235.566 197.803 245.717 204.837 253.568L202.086 256.031Z" fill="#59DF83"/>
<path d="M237.039 271.646C230.443 271.641 223.921 270.248 217.899 267.558C211.877 264.867 206.489 260.94 202.086 256.031L204.837 253.568C209.23 258.472 214.685 262.308 220.787 264.783C226.889 267.258 233.476 268.307 240.046 267.85C246.616 267.393 252.994 265.441 258.693 262.144C264.393 258.847 269.264 254.293 272.933 248.828L275.999 250.888C271.71 257.279 265.912 262.516 259.117 266.137C252.322 269.757 244.739 271.649 237.039 271.646Z" fill="#59DF83"/>
<path d="M392.719 202.567H354.671V240.591H392.719V202.567Z" fill="#E6E6E6"/>
<path d="M117.187 227.283H79.1393V265.307H117.187V227.283Z" fill="#E6E6E6"/>
<path d="M467.531 0H0V19.8498H467.531V0Z" fill="#59DF83"/>
<path d="M14.7602 13.8273C16.7934 13.8273 18.4416 12.1801 18.4416 10.1483C18.4416 8.11639 16.7934 6.46924 14.7602 6.46924C12.7271 6.46924 11.0789 8.11639 11.0789 10.1483C11.0789 12.1801 12.7271 13.8273 14.7602 13.8273Z" fill="white"/>
<path d="M28.7336 13.8273C30.7668 13.8273 32.4149 12.1801 32.4149 10.1483C32.4149 8.11639 30.7668 6.46924 28.7336 6.46924C26.7004 6.46924 25.0522 8.11639 25.0522 10.1483C25.0522 12.1801 26.7004 13.8273 28.7336 13.8273Z" fill="white"/>
<path d="M42.7071 13.8273C44.7403 13.8273 46.3885 12.1801 46.3885 10.1483C46.3885 8.11639 44.7403 6.46924 42.7071 6.46924C40.674 6.46924 39.0258 8.11639 39.0258 10.1483C39.0258 12.1801 40.674 13.8273 42.7071 13.8273Z" fill="white"/>
</svg>
