<svg width="213" height="41" viewBox="0 0 213 41" fill="none" xmlns="http://www.w3.org/2000/svg">
<g clip-path="url(#clip0)">
<g clip-path="url(#clip1)">
<path d="M35.75 26H31.5834C30.8934 26 30.3334 25.44 30.3334 24.75V20.5834C30.3334 19.8934 30.8934 19.3334 31.5834 19.3334H35.75C36.44 19.3334 37 19.8934 37 20.5834V24.75C37 25.44 36.44 26 35.75 26Z" fill="white"/>
<path d="M35.75 36H31.5834C30.8934 36 30.3334 35.44 30.3334 34.75V30.5834C30.3334 29.8934 30.8934 29.3334 31.5834 29.3334H35.75C36.44 29.3334 37 29.8934 37 30.5834V34.75C37 35.44 36.44 36 35.75 36Z" fill="white"/>
<path d="M24.0835 26H19.9166C19.2266 26 18.6666 25.44 18.6666 24.75V20.5834C18.6666 19.8934 19.2266 19.3334 19.9166 19.3334H24.0835C24.7735 19.3334 25.3335 19.8934 25.3335 20.5834V24.75C25.3335 25.44 24.7735 26 24.0835 26V26Z" fill="white"/>
<path d="M24.0835 36H19.9166C19.2266 36 18.6666 35.44 18.6666 34.75V30.5834C18.6666 29.8934 19.2266 29.3334 19.9166 29.3334H24.0835C24.7735 29.3334 25.3335 29.8934 25.3335 30.5834V34.75C25.3335 35.44 24.7735 36 24.0835 36V36Z" fill="white"/>
<path d="M12.4165 26H8.24994C7.55994 26 6.99994 25.44 6.99994 24.75V20.5834C6.99994 19.8934 7.55994 19.3334 8.24994 19.3334H12.4165C13.1065 19.3334 13.6665 19.8934 13.6665 20.5834V24.75C13.6665 25.44 13.1065 26 12.4165 26V26Z" fill="white"/>
<path d="M7 6H8.66656V2.66656C8.66656 1.74677 9.41333 1 10.3334 1H12C12.9201 1 13.6666 1.74677 13.6666 2.66656V6H30.3334V2.66656C30.3334 1.74677 31.0799 1 32 1H33.6666C34.5867 1 35.3334 1.74677 35.3334 2.66656V6H37C39.7567 6 42 8.24335 42 11V36C42 38.7567 39.7567 41 37 41H7C4.24335 41 2 38.7567 2 36V11C2 8.24335 4.24335 6 7 6ZM5.33344 36C5.33344 36.9183 6.08173 37.6666 7 37.6666H37C37.9183 37.6666 38.6666 36.9183 38.6666 36V17.7334H5.33344V36Z" fill="white"/>
</g>
<path d="M68.1152 20.1836C68.1152 21.5703 67.8581 22.7975 67.3438 23.8652C66.8294 24.9329 66.097 25.7565 65.1465 26.3359C64.2025 26.9089 63.125 27.1953 61.9141 27.1953C60.7031 27.1953 59.6289 26.9186 58.6914 26.3652C57.7539 25.8053 57.0215 25.0078 56.4941 23.9727C55.9733 22.9375 55.6999 21.7493 55.6738 20.4082V19.6074C55.6738 18.2142 55.9277 16.987 56.4355 15.9258C56.9499 14.8581 57.6823 14.0345 58.6328 13.4551C59.5898 12.8757 60.6771 12.5859 61.8945 12.5859C63.099 12.5859 64.1732 12.8724 65.1172 13.4453C66.0612 14.0182 66.7936 14.8353 67.3145 15.8965C67.8418 16.9512 68.1087 18.1621 68.1152 19.5293V20.1836ZM64.6289 19.5879C64.6289 18.1751 64.3913 17.1042 63.916 16.375C63.4473 15.6393 62.7734 15.2715 61.8945 15.2715C60.1758 15.2715 59.2676 16.5605 59.1699 19.1387L59.1602 20.1836C59.1602 21.5768 59.3913 22.6478 59.8535 23.3965C60.3158 24.1452 61.0026 24.5195 61.9141 24.5195C62.7799 24.5195 63.4473 24.1517 63.916 23.416C64.3848 22.6803 64.6224 21.6224 64.6289 20.2422V19.5879ZM76.123 19.4121L75.0391 19.334C74.0039 19.334 73.3398 19.6595 73.0469 20.3105V27H69.7559V16.4336H72.8418L72.9492 17.791C73.5026 16.7559 74.2741 16.2383 75.2637 16.2383C75.6152 16.2383 75.9212 16.2773 76.1816 16.3555L76.123 19.4121ZM76.7285 21.6387C76.7285 20.571 76.9043 19.627 77.2559 18.8066C77.6074 17.9863 78.112 17.3548 78.7695 16.9121C79.4271 16.4629 80.1921 16.2383 81.0645 16.2383C82.1647 16.2383 83.0241 16.6094 83.6426 17.3516L83.7598 16.4336H86.748V26.5996C86.748 27.5306 86.5299 28.3379 86.0938 29.0215C85.6641 29.7116 85.0391 30.2389 84.2188 30.6035C83.3984 30.9746 82.4479 31.1602 81.3672 31.1602C80.5924 31.1602 79.8405 31.0137 79.1113 30.7207C78.3887 30.4277 77.8353 30.0469 77.4512 29.5781L78.8281 27.6445C79.4401 28.3672 80.2474 28.7285 81.25 28.7285C82.7083 28.7285 83.4375 27.9798 83.4375 26.4824V26.1504C82.806 26.847 82.0085 27.1953 81.0449 27.1953C79.7559 27.1953 78.7142 26.7038 77.9199 25.7207C77.1257 24.7311 76.7285 23.4095 76.7285 21.7559V21.6387ZM80.0293 21.8438C80.0293 22.7096 80.1921 23.3965 80.5176 23.9043C80.8431 24.4056 81.2988 24.6562 81.8848 24.6562C82.5944 24.6562 83.112 24.4186 83.4375 23.9434V19.5C83.1185 19.0182 82.6074 18.7773 81.9043 18.7773C81.3184 18.7773 80.8594 19.041 80.5273 19.5684C80.1953 20.0892 80.0293 20.8477 80.0293 21.8438ZM94.5703 27C94.4531 26.7852 94.349 26.4694 94.2578 26.0527C93.6523 26.8145 92.806 27.1953 91.7188 27.1953C90.7227 27.1953 89.8763 26.8958 89.1797 26.2969C88.4831 25.6914 88.1348 24.9329 88.1348 24.0215C88.1348 22.8757 88.5579 22.0098 89.4043 21.4238C90.2507 20.8379 91.4811 20.5449 93.0957 20.5449H94.1113V19.9883C94.1113 19.0182 93.6914 18.5332 92.8516 18.5332C92.0703 18.5332 91.6797 18.9173 91.6797 19.6855H88.3887C88.3887 18.6634 88.8216 17.8333 89.6875 17.1953C90.5599 16.5573 91.6699 16.2383 93.0176 16.2383C94.3652 16.2383 95.4297 16.5671 96.2109 17.2246C96.9922 17.8822 97.3926 18.7839 97.4121 19.9297V24.6074C97.4251 25.5775 97.5749 26.3197 97.8613 26.834V27H94.5703ZM92.5098 24.8516C92.9199 24.8516 93.2585 24.7637 93.5254 24.5879C93.7988 24.4121 93.9941 24.2135 94.1113 23.9922V22.3027H93.1543C92.0085 22.3027 91.4355 22.8171 91.4355 23.8457C91.4355 24.1452 91.5365 24.3893 91.7383 24.5781C91.9401 24.7604 92.1973 24.8516 92.5098 24.8516ZM102.266 16.4336L102.373 17.6738C103.102 16.7168 104.108 16.2383 105.391 16.2383C106.491 16.2383 107.311 16.5671 107.852 17.2246C108.398 17.8822 108.682 18.8717 108.701 20.1934V27H105.4V20.3301C105.4 19.7962 105.293 19.4056 105.078 19.1582C104.863 18.9043 104.473 18.7773 103.906 18.7773C103.262 18.7773 102.783 19.0312 102.471 19.5391V27H99.1797V16.4336H102.266ZM114.004 27H110.703V16.4336H114.004V27ZM110.508 13.709C110.508 13.2402 110.677 12.8561 111.016 12.5566C111.354 12.2572 111.794 12.1074 112.334 12.1074C112.874 12.1074 113.314 12.2572 113.652 12.5566C113.991 12.8561 114.16 13.2402 114.16 13.709C114.16 14.1777 113.991 14.5618 113.652 14.8613C113.314 15.1608 112.874 15.3105 112.334 15.3105C111.794 15.3105 111.354 15.1608 111.016 14.8613C110.677 14.5618 110.508 14.1777 110.508 13.709ZM119.922 24.4609H124.736V27H115.762V25.1641L120.449 18.9727H115.967V16.4336H124.629V18.2109L119.922 24.4609ZM131.289 27.1953C129.668 27.1953 128.356 26.7135 127.354 25.75C126.351 24.7799 125.85 23.5202 125.85 21.9707V21.6973C125.85 20.6165 126.048 19.6628 126.445 18.8359C126.849 18.0091 127.435 17.3711 128.203 16.9219C128.971 16.4661 129.883 16.2383 130.938 16.2383C132.422 16.2383 133.594 16.7005 134.453 17.625C135.312 18.543 135.742 19.8255 135.742 21.4727V22.752H129.199C129.316 23.3444 129.574 23.8099 129.971 24.1484C130.368 24.487 130.882 24.6562 131.514 24.6562C132.555 24.6562 133.369 24.2917 133.955 23.5625L135.459 25.3398C135.049 25.9062 134.466 26.3587 133.711 26.6973C132.962 27.0293 132.155 27.1953 131.289 27.1953ZM130.918 18.7773C129.954 18.7773 129.382 19.4154 129.199 20.6914H132.52V20.4375C132.533 19.9102 132.399 19.5033 132.119 19.2168C131.839 18.9238 131.439 18.7773 130.918 18.7773ZM145.049 21.7168V27H142.578V12.7812H148.018C149.606 12.7812 150.866 13.1947 151.797 14.0215C152.734 14.8483 153.203 15.9421 153.203 17.3027C153.203 18.696 152.744 19.7799 151.826 20.5547C150.915 21.3294 149.635 21.7168 147.988 21.7168H145.049ZM145.049 19.7344H148.018C148.896 19.7344 149.567 19.5293 150.029 19.1191C150.492 18.7025 150.723 18.1035 150.723 17.3223C150.723 16.554 150.488 15.9421 150.02 15.4863C149.551 15.0241 148.906 14.7865 148.086 14.7734H145.049V19.7344ZM159.658 27.1953C158.154 27.1953 156.934 26.7233 155.996 25.7793C155.065 24.8288 154.6 23.5658 154.6 21.9902V21.6973C154.6 20.6426 154.801 19.7018 155.205 18.875C155.615 18.0417 156.188 17.3939 156.924 16.9316C157.66 16.4694 158.48 16.2383 159.385 16.2383C160.824 16.2383 161.934 16.6973 162.715 17.6152C163.503 18.5332 163.896 19.832 163.896 21.5117V22.4688H156.992C157.064 23.3411 157.354 24.0312 157.861 24.5391C158.376 25.0469 159.02 25.3008 159.795 25.3008C160.882 25.3008 161.768 24.8613 162.451 23.9824L163.73 25.2031C163.307 25.8346 162.741 26.3262 162.031 26.6777C161.328 27.0228 160.537 27.1953 159.658 27.1953ZM159.375 18.1426C158.724 18.1426 158.197 18.3704 157.793 18.8262C157.396 19.2819 157.142 19.9167 157.031 20.7305H161.553V20.5547C161.501 19.7604 161.289 19.1615 160.918 18.7578C160.547 18.3477 160.033 18.1426 159.375 18.1426ZM171.67 24.1289C171.67 23.7057 171.494 23.3835 171.143 23.1621C170.798 22.9408 170.221 22.7454 169.414 22.5762C168.607 22.4069 167.933 22.1921 167.393 21.9316C166.208 21.3587 165.615 20.5286 165.615 19.4414C165.615 18.5299 165.999 17.7682 166.768 17.1562C167.536 16.5443 168.512 16.2383 169.697 16.2383C170.96 16.2383 171.979 16.5508 172.754 17.1758C173.535 17.8008 173.926 18.6113 173.926 19.6074H171.553C171.553 19.1517 171.383 18.7741 171.045 18.4746C170.706 18.1686 170.257 18.0156 169.697 18.0156C169.176 18.0156 168.75 18.1361 168.418 18.377C168.092 18.6178 167.93 18.9401 167.93 19.3438C167.93 19.7083 168.083 19.9915 168.389 20.1934C168.695 20.3952 169.313 20.6003 170.244 20.8086C171.175 21.0104 171.904 21.2546 172.432 21.541C172.965 21.821 173.359 22.1595 173.613 22.5566C173.874 22.9538 174.004 23.4355 174.004 24.002C174.004 24.9525 173.61 25.724 172.822 26.3164C172.035 26.9023 171.003 27.1953 169.727 27.1953C168.861 27.1953 168.089 27.0391 167.412 26.7266C166.735 26.4141 166.208 25.9844 165.83 25.4375C165.452 24.8906 165.264 24.3014 165.264 23.6699H167.568C167.601 24.2298 167.812 24.6628 168.203 24.9688C168.594 25.2682 169.111 25.418 169.756 25.418C170.381 25.418 170.856 25.3008 171.182 25.0664C171.507 24.8255 171.67 24.513 171.67 24.1289ZM182.002 24.1289C182.002 23.7057 181.826 23.3835 181.475 23.1621C181.13 22.9408 180.553 22.7454 179.746 22.5762C178.939 22.4069 178.265 22.1921 177.725 21.9316C176.54 21.3587 175.947 20.5286 175.947 19.4414C175.947 18.5299 176.331 17.7682 177.1 17.1562C177.868 16.5443 178.844 16.2383 180.029 16.2383C181.292 16.2383 182.311 16.5508 183.086 17.1758C183.867 17.8008 184.258 18.6113 184.258 19.6074H181.885C181.885 19.1517 181.715 18.7741 181.377 18.4746C181.038 18.1686 180.589 18.0156 180.029 18.0156C179.508 18.0156 179.082 18.1361 178.75 18.377C178.424 18.6178 178.262 18.9401 178.262 19.3438C178.262 19.7083 178.415 19.9915 178.721 20.1934C179.027 20.3952 179.645 20.6003 180.576 20.8086C181.507 21.0104 182.236 21.2546 182.764 21.541C183.298 21.821 183.691 22.1595 183.945 22.5566C184.206 22.9538 184.336 23.4355 184.336 24.002C184.336 24.9525 183.942 25.724 183.154 26.3164C182.367 26.9023 181.335 27.1953 180.059 27.1953C179.193 27.1953 178.421 27.0391 177.744 26.7266C177.067 26.4141 176.54 25.9844 176.162 25.4375C175.785 24.8906 175.596 24.3014 175.596 23.6699H177.9C177.933 24.2298 178.145 24.6628 178.535 24.9688C178.926 25.2682 179.443 25.418 180.088 25.418C180.713 25.418 181.188 25.3008 181.514 25.0664C181.839 24.8255 182.002 24.513 182.002 24.1289ZM185.967 21.6191C185.967 20.584 186.172 19.653 186.582 18.8262C186.992 17.9928 187.568 17.3548 188.311 16.9121C189.053 16.4629 189.906 16.2383 190.869 16.2383C192.295 16.2383 193.451 16.6973 194.336 17.6152C195.228 18.5332 195.71 19.7507 195.781 21.2676L195.791 21.8242C195.791 22.8659 195.589 23.7969 195.186 24.6172C194.788 25.4375 194.215 26.0723 193.467 26.5215C192.725 26.9707 191.865 27.1953 190.889 27.1953C189.398 27.1953 188.203 26.7005 187.305 25.7109C186.413 24.7148 185.967 23.39 185.967 21.7363V21.6191ZM188.34 21.8242C188.34 22.9115 188.564 23.7643 189.014 24.3828C189.463 24.9948 190.088 25.3008 190.889 25.3008C191.689 25.3008 192.311 24.9883 192.754 24.3633C193.203 23.7383 193.428 22.8236 193.428 21.6191C193.428 20.5514 193.197 19.7051 192.734 19.0801C192.279 18.4551 191.657 18.1426 190.869 18.1426C190.094 18.1426 189.479 18.4518 189.023 19.0703C188.568 19.6823 188.34 20.6003 188.34 21.8242ZM204.111 27C204.007 26.7982 203.916 26.4694 203.838 26.0137C203.083 26.8014 202.158 27.1953 201.064 27.1953C200.003 27.1953 199.137 26.8926 198.467 26.2871C197.796 25.6816 197.461 24.9329 197.461 24.041C197.461 22.9147 197.878 22.0521 198.711 21.4531C199.551 20.8477 200.749 20.5449 202.305 20.5449H203.76V19.8516C203.76 19.3047 203.607 18.8685 203.301 18.543C202.995 18.2109 202.529 18.0449 201.904 18.0449C201.364 18.0449 200.921 18.1816 200.576 18.4551C200.231 18.722 200.059 19.0638 200.059 19.4805H197.686C197.686 18.901 197.878 18.3607 198.262 17.8594C198.646 17.3516 199.167 16.9544 199.824 16.668C200.488 16.3815 201.227 16.2383 202.041 16.2383C203.278 16.2383 204.264 16.5508 205 17.1758C205.736 17.7943 206.113 18.6667 206.133 19.793V24.5586C206.133 25.5091 206.266 26.2676 206.533 26.834V27H204.111ZM201.504 25.291C201.973 25.291 202.412 25.1771 202.822 24.9492C203.239 24.7214 203.551 24.4154 203.76 24.0312V22.0391H202.48C201.602 22.0391 200.941 22.1921 200.498 22.498C200.055 22.804 199.834 23.237 199.834 23.7969C199.834 24.2526 199.984 24.6172 200.283 24.8906C200.589 25.1576 200.996 25.291 201.504 25.291ZM211.143 27H208.77V12H211.143V27Z" fill="white"/>
</g>
<defs>
<clipPath id="clip0">
<rect width="213" height="41" fill="white"/>
</clipPath>
<clipPath id="clip1">
<rect width="40" height="40" fill="white" transform="matrix(-1 0 0 1 42 1)"/>
</clipPath>
</defs>
</svg>
