<svg width="20" height="20" viewBox="0 0 20 20" fill="none" xmlns="http://www.w3.org/2000/svg">
<path d="M19.6803 5.08083L19.0252 4.42115C18.819 4.21513 18.5447 4.10164 18.2515 4.10164C17.9585 4.10164 17.6839 4.21513 17.4777 4.42115L10.0045 11.8947L2.52262 4.41286C2.31677 4.20684 2.04213 4.09351 1.74912 4.09351C1.45611 4.09351 1.18131 4.20684 0.975292 4.41286L0.320003 5.06847C-0.106668 5.49482 -0.106668 6.1893 0.320003 6.61564L9.22804 15.5557C9.4339 15.7616 9.70821 15.9066 10.0038 15.9066H10.0072C10.3004 15.9066 10.5747 15.7614 10.7806 15.5557L19.6803 6.63987C19.8865 6.43401 19.9997 6.15141 20 5.8584C20 5.56523 19.8865 5.28652 19.6803 5.08083Z" fill="#636D7C"/>
</svg>
