<svg width="40" height="40" viewBox="0 0 40 40" fill="none" xmlns="http://www.w3.org/2000/svg">
<circle cx="20" cy="20" r="20" fill="#E34E4E"/>
<path d="M33.9982 29.2446C34.0088 29.4406 33.9356 29.64 33.7767 29.7897C33.6177 29.9394 33.4061 30.0084 33.198 29.9983C33.1857 29.9988 33.1735 30 33.161 30H28.5467C28.1255 30 27.784 29.6784 27.784 29.2817C27.784 28.8849 28.1255 28.5633 28.5467 28.5633H31.3959L23.8562 21.4619L21.0128 24.1399C20.8698 24.2746 20.6758 24.3503 20.4735 24.3503C20.2713 24.3503 20.0773 24.2746 19.9342 24.1399L6.22337 11.2262C5.92554 10.9457 5.92554 10.4908 6.22337 10.2103C6.37233 10.0701 6.5675 10 6.76267 10C6.95785 10 7.1531 10.0701 7.30198 10.2104L20.4735 22.6161L23.3169 19.9381C23.6147 19.6576 24.0976 19.6576 24.3955 19.9381L32.4746 27.5474V25.1186C32.4746 24.7219 32.8161 24.4003 33.2373 24.4003C33.6585 24.4003 34 24.7219 34 25.1186V29.2098C34 29.2215 33.9987 29.233 33.9982 29.2446Z" fill="white" stroke="white"/>
</svg>
