<svg width="40" height="40" viewBox="0 0 40 40" fill="none" xmlns="http://www.w3.org/2000/svg">
<circle cx="20" cy="20" r="20" fill="#59DF83"/>
<path d="M33.9982 10.7554C34.0088 10.5594 33.9356 10.36 33.7767 10.2103C33.6177 10.0606 33.4061 9.9916 33.198 10.0017C33.1857 10.0012 33.1735 10 33.161 10H28.5467C28.1255 10 27.784 10.3216 27.784 10.7183C27.784 11.1151 28.1255 11.4367 28.5467 11.4367H31.3959L23.8562 18.5381L21.0128 15.8601C20.8698 15.7254 20.6758 15.6497 20.4735 15.6497C20.2713 15.6497 20.0773 15.7254 19.9342 15.8601L6.22337 28.7738C5.92554 29.0543 5.92554 29.5092 6.22337 29.7897C6.37233 29.9299 6.5675 30 6.76267 30C6.95785 30 7.1531 29.9299 7.30198 29.7896L20.4735 17.3839L23.3169 20.0619C23.6147 20.3424 24.0976 20.3424 24.3955 20.0619L32.4746 12.4526V14.8814C32.4746 15.2781 32.8161 15.5997 33.2373 15.5997C33.6585 15.5997 34 15.2781 34 14.8814V10.7902C34 10.7785 33.9987 10.767 33.9982 10.7554Z" fill="white" stroke="white"/>
</svg>
