<svg width="40" height="40" viewBox="0 0 40 40" fill="none" xmlns="http://www.w3.org/2000/svg">
<circle cx="20" cy="20" r="20" fill="#5A8EDE"/>
<path d="M19.5 13.25C20.0393 13.25 20.4766 12.8128 20.4766 12.2734C20.4766 11.7341 20.0393 11.2969 19.5 11.2969C18.9607 11.2969 18.5234 11.7341 18.5234 12.2734C18.5234 12.8128 18.9607 13.25 19.5 13.25Z" fill="white"/>
<path d="M31.0234 29.9492H7.97656C7.43721 29.9492 7 30.3864 7 30.9258C7 31.4651 7.43721 31.9023 7.97656 31.9023H31.0234C31.5628 31.9023 32 31.4651 32 30.9258C32 30.3864 31.5628 29.9492 31.0234 29.9492Z" fill="white"/>
<path d="M32 13.2012C32 12.8151 31.7726 12.4653 31.4197 12.3086L19.8718 7.18168C19.6189 7.06937 19.3305 7.06971 19.0779 7.18231L7.57886 12.3093C7.22681 12.4662 7 12.8157 7 13.2012V15.7891C7 15.7974 7.00103 15.8053 7.00122 15.8135C7.00103 15.8217 7 15.8297 7 15.8379C7 16.3773 7.43721 16.8145 7.97656 16.8145C8.54995 16.8145 8.80664 17.305 8.80664 17.7911V26.8983C8.80664 26.9187 8.8085 26.9388 8.80972 26.9589C8.80845 26.9791 8.80664 26.9991 8.80664 27.0196C8.80664 27.5589 9.24385 27.9961 9.7832 27.9961H29.3145C29.8538 27.9961 30.291 27.5589 30.291 27.0196C30.291 26.4802 29.8538 26.043 29.3145 26.043H26.3848V17.7911C26.3848 17.2526 26.8229 16.8145 27.3613 16.8145C27.8998 16.8145 28.3379 17.2526 28.3379 17.7911V22.1132C28.3379 22.6525 28.7751 23.0897 29.3145 23.0897C29.8538 23.0897 30.291 22.6525 30.291 22.1132V17.7911C30.291 17.562 30.3438 16.8145 31.0234 16.8145C31.5628 16.8145 32 16.3773 32 15.8379C32 15.8297 31.999 15.8217 31.9988 15.8135C31.999 15.8053 32 15.7974 32 15.7891V13.2012ZM12.7129 26.043H10.7598V17.7911C10.7598 17.2526 11.1979 16.8145 11.7363 16.8145C12.2748 16.8145 12.7129 17.2526 12.7129 17.7911V26.043ZM16.6191 26.043H14.666V17.7911C14.666 17.2526 15.1041 16.8145 15.6426 16.8145C16.1811 16.8145 16.6191 17.2526 16.6191 17.7911V26.043ZM20.5254 26.043H18.5723V17.7911C18.5723 17.2526 19.0104 16.8145 19.5488 16.8145C20.0873 16.8145 20.5254 17.2526 20.5254 17.7911V26.043ZM24.4316 26.043H22.4785V17.7911C22.4785 17.2526 22.9166 16.8145 23.4551 16.8145C23.9936 16.8145 24.4316 17.2526 24.4316 17.7911V26.043ZM30.0469 14.8125H8.95312V13.835L19.4765 9.1431L30.0469 13.8361V14.8125Z" fill="white"/>
</svg>
