<svg width="40" height="40" viewBox="0 0 40 40" fill="none" xmlns="http://www.w3.org/2000/svg">
<circle cx="20" cy="20" r="20" fill="#8491A5"/>
<path d="M31.2713 17.9041H31.1383V16.5743C31.1383 15.0318 29.9947 13.7552 28.4787 13.5424V11.9201C28.4787 10.2446 27.0957 8.86157 25.4202 8.86157H11.2447C9.48936 8.86157 8.0266 10.2711 8 12.0531V27.0797C8 28.7552 9.38298 30.1382 11.0585 30.1382H28.0798C29.7553 30.1382 31.1383 28.7552 31.1383 27.0797V25.6169H31.2713C32.2287 25.6169 33 24.8456 33 23.8882V19.6328C33 18.6754 32.2287 17.9041 31.2713 17.9041ZM9.8617 12.1063C9.8617 11.335 10.5 10.7233 11.2447 10.7233H25.3936C26.0585 10.7233 26.5904 11.2552 26.5904 11.9201V13.5158H11.2447C10.5 13.5158 9.8617 12.8775 9.8617 12.1063ZM31.1383 23.7552H26.75C25.6596 23.7552 24.7553 22.8509 24.7553 21.7605C24.7553 20.6701 25.6596 19.7658 26.75 19.7658H31.1383V23.7552Z" fill="white"/>
<path d="M27.2819 23.0905C28.0164 23.0905 28.6117 22.4951 28.6117 21.7607C28.6117 21.0263 28.0164 20.4309 27.2819 20.4309C26.5475 20.4309 25.9521 21.0263 25.9521 21.7607C25.9521 22.4951 26.5475 23.0905 27.2819 23.0905Z" fill="white"/>
</svg>
