<svg width="23" height="23" viewBox="0 0 23 23" fill="none" xmlns="http://www.w3.org/2000/svg">
<g clip-path="url(#clip0)">
<path d="M5.74991 0C5.29623 0 4.92847 0.367765 4.92847 0.821444V2.46428H6.57131V0.821444C6.57131 0.367765 6.20354 0 5.74991 0Z" fill="#888888"/>
<path d="M17.2499 0C16.7962 0 16.4285 0.367765 16.4285 0.821444V2.46428H18.0713V0.821444C18.0714 0.367765 17.7036 0 17.2499 0Z" fill="#888888"/>
<path d="M20.5357 2.46436H18.0714V5.75008C18.0714 6.20376 17.7037 6.57153 17.25 6.57153C16.7963 6.57153 16.4285 6.20376 16.4285 5.75008V2.46436H6.57141V5.75008C6.57141 6.20376 6.20364 6.57153 5.74996 6.57153C5.29629 6.57153 4.92852 6.20376 4.92852 5.75008V2.46436H2.46428C1.1033 2.46436 0 3.56765 0 4.92864V20.5358C0 21.8968 1.1033 23.0001 2.46428 23.0001H20.5357C21.8967 23.0001 23 21.8968 23 20.5358V4.92864C23 3.56765 21.8967 2.46436 20.5357 2.46436ZM21.3571 20.5358C21.3571 20.9895 20.9893 21.3572 20.5357 21.3572H2.46428C2.01061 21.3572 1.64284 20.9895 1.64284 20.5358V9.85721H21.3571V20.5358Z" fill="#888888"/>
<path d="M16.1646 13.0957H7.79275L9.17958 11.7155C9.33433 11.5615 9.33492 11.3112 9.18091 11.1565C9.02689 11.0017 8.77658 11.0012 8.62184 11.1552L6.55625 13.2108C6.55611 13.2109 6.55601 13.211 6.55589 13.2112C6.40154 13.3652 6.40105 13.6163 6.55585 13.7708C6.55599 13.7709 6.55609 13.7711 6.55621 13.7712L8.6218 15.8268C8.77652 15.9808 9.02683 15.9802 9.18087 15.8255C9.33488 15.6707 9.33429 15.4204 9.17954 15.2664L7.79275 13.8863H16.1646C16.383 13.8863 16.5599 13.7093 16.5599 13.491C16.5599 13.2726 16.383 13.0957 16.1646 13.0957Z" fill="#888888"/>
<path d="M6.83537 18.4864L15.2073 18.4864L13.8204 19.8665C13.6657 20.0205 13.6651 20.2708 13.8191 20.4255C13.9731 20.5803 14.2234 20.5809 14.3782 20.4269L16.4438 18.3713C16.4439 18.3711 16.444 18.371 16.4441 18.3709C16.5985 18.2169 16.599 17.9658 16.4441 17.8112C16.444 17.8111 16.4439 17.811 16.4438 17.8109L14.3782 15.7552C14.2235 15.6013 13.9732 15.6018 13.8191 15.7566C13.6651 15.9113 13.6657 16.1616 13.8205 16.3156L15.2073 17.6957L6.83537 17.6957C6.61704 17.6957 6.44006 17.8727 6.44006 18.0911C6.44006 18.3094 6.61704 18.4864 6.83537 18.4864Z" fill="#888888"/>
</g>
<defs>
<clipPath id="clip0">
<rect width="23" height="23" fill="white"/>
</clipPath>
</defs>
</svg>
