<svg width="23" height="23" viewBox="0 0 23 23" fill="none" xmlns="http://www.w3.org/2000/svg">
<g clip-path="url(#clip0)">
<path d="M13.631 4.65001V0.0454102H3.8475C3.32147 0.0454102 2.89502 0.471864 2.89502 0.997893V22.0476C2.89502 22.5736 3.32147 23 3.8475 23H19.0871C19.6131 23 20.0396 22.5736 20.0396 22.0476V6.43016H15.4112C14.4296 6.43016 13.631 5.63159 13.631 4.65001ZM9.78464 18.0478L7.75826 20.0742C7.62695 20.2055 7.45483 20.2712 7.28276 20.2712C7.11069 20.2712 6.93853 20.2056 6.80726 20.0743L5.96601 19.2331C5.70337 18.9704 5.70337 18.5446 5.96601 18.282C6.2286 18.0194 6.65442 18.0194 6.91706 18.282L7.28276 18.6477L8.83363 17.0968C9.09622 16.8342 9.52205 16.8342 9.78468 17.0968C10.0473 17.3594 10.0473 17.7852 9.78464 18.0478ZM9.78464 13.5645L7.75826 15.5909C7.62695 15.7222 7.45483 15.7879 7.28276 15.7879C7.11069 15.7879 6.93853 15.7223 6.80726 15.5909L5.96601 14.7497C5.70337 14.4871 5.70337 14.0613 5.96601 13.7987C6.2286 13.5361 6.65442 13.5361 6.91706 13.7987L7.28276 14.1644L8.83363 12.6135C9.09622 12.3509 9.52205 12.3509 9.78468 12.6135C10.0473 12.8761 10.0473 13.3019 9.78464 13.5645ZM9.78464 8.7388L7.75826 10.7652C7.62695 10.8965 7.45483 10.9622 7.28276 10.9622C7.11069 10.9622 6.93853 10.8965 6.80726 10.7652L5.96601 9.92393C5.70337 9.66129 5.70337 9.23551 5.96601 8.97288C6.2286 8.71024 6.65442 8.71024 6.91706 8.97288L7.28276 9.33858L8.83363 7.78776C9.09622 7.52512 9.52205 7.52512 9.78468 7.78776C10.0473 8.05039 10.0473 8.47617 9.78464 8.7388ZM16.4931 19.258H12.1891C11.8177 19.258 11.5166 18.9569 11.5166 18.5855C11.5166 18.2141 11.8177 17.913 12.1891 17.913H16.4931C16.8645 17.913 17.1656 18.2141 17.1656 18.5855C17.1656 18.9569 16.8645 19.258 16.4931 19.258ZM11.5166 14.1022C11.5166 13.7308 11.8177 13.4297 12.1891 13.4297H16.4738C16.8452 13.4297 17.1463 13.7308 17.1463 14.1022C17.1463 14.4736 16.8452 14.7747 16.4738 14.7747H12.1891C11.8177 14.7747 11.5166 14.4736 11.5166 14.1022ZM17.1464 9.61888C17.1464 9.99028 16.8453 10.2914 16.4739 10.2914H12.1891C11.8177 10.2914 11.5166 9.99028 11.5166 9.61888C11.5166 9.24748 11.8177 8.94638 12.1891 8.94638H16.4739C16.8453 8.94638 17.1464 9.24748 17.1464 9.61888Z" fill="#888888"/>
<path d="M14.9758 4.64997C14.9758 4.88992 15.171 5.08512 15.411 5.08512H20.1048L14.9758 0V4.64997Z" fill="#888888"/>
</g>
<defs>
<clipPath id="clip0">
<rect width="23" height="23" fill="white"/>
</clipPath>
</defs>
</svg>
