<svg width="27" height="25" viewBox="0 0 27 25" fill="none" xmlns="http://www.w3.org/2000/svg">
<g clip-path="url(#clip0)">
<path d="M7.11239 0C6.59066 0 6.16772 0.389399 6.16772 0.869764V2.60924H8.05699V0.869764C8.05699 0.389399 7.63406 0 7.11239 0Z" fill="#888888"/>
<path d="M20.3375 0C19.8158 0 19.3928 0.389399 19.3928 0.869764V2.60924H21.2821V0.869764C21.2821 0.389399 20.8592 0 20.3375 0Z" fill="#888888"/>
<path d="M24.1161 2.60938H21.2821V6.08838C21.2821 6.56875 20.8592 6.95814 20.3375 6.95814C19.8158 6.95814 19.3928 6.56875 19.3928 6.08838V2.60938H8.05712V6.08838C8.05712 6.56875 7.63419 6.95814 7.11246 6.95814C6.59073 6.95814 6.1678 6.56875 6.1678 6.08838V2.60938H3.33393C1.76879 2.60938 0.5 3.77757 0.5 5.21862V21.7438C0.5 23.1849 1.76879 24.3531 3.33393 24.3531H24.1161C25.6812 24.3531 26.95 23.1849 26.95 21.7438V5.21862C26.95 3.77757 25.6812 2.60938 24.1161 2.60938ZM25.0607 21.7438C25.0607 22.2242 24.6377 22.6136 24.116 22.6136H3.33393C2.8122 22.6136 2.38927 22.2242 2.38927 21.7438V10.4371H25.0607V21.7438Z" fill="#888888"/>
<g clip-path="url(#clip1)">
<path d="M20.4156 12.4388C20.1677 12.2105 19.7658 12.2105 19.5179 12.4388L11.9126 19.4412L8.9892 16.7496C8.74131 16.5213 8.3394 16.5213 8.09146 16.7496C7.84354 16.9778 7.84354 17.3479 8.09146 17.5761L11.4637 20.681C11.7115 20.9092 12.1137 20.909 12.3614 20.681L20.4156 13.2653C20.6635 13.0371 20.6635 12.667 20.4156 12.4388Z" fill="#888888"/>
</g>
</g>
<defs>
<clipPath id="clip0">
<rect width="26.45" height="24.3529" fill="white" transform="translate(0.5)"/>
</clipPath>
<clipPath id="clip1">
<rect width="12.696" height="11.6894" fill="white" transform="translate(7.90601 10.7153)"/>
</clipPath>
</defs>
</svg>
